<?xml version="1.0" encoding="utf-8"?>
<svg viewBox="0 -1.353 279.473 235.662" xmlns="http://www.w3.org/2000/svg">
  <g transform="matrix(0.9999999999999999, 0, 0, 0.9999999999999999, -55.186000823974666, -23.535995483398466)">
    <rect y="22.183" width="279.473" height="235.662" style="fill: rgb(188, 188, 188);" x="55.186"/>
    <rect style="fill: rgb(138, 138, 138);" x="60.828" y="29.686" width="267.282" height="220.654" rx="2" ry="2"/>
    <rect style="fill: rgb(197, 23, 12);" x="68.267" y="36.823" width="253.312" height="206.382" rx="2" ry="2"/>
    <rect style="paint-order: fill; fill: rgb(222, 34, 19);" x="75.878" y="44.493" width="238.091" height="191.043" rx="2" ry="2"/>
    <path d="M 106.9 138.416 Q 104.283 138.416 102.511 137.192 Q 100.739 135.968 100.317 133.816 Q 99.895 131.664 101.076 128.963 L 122.092 83.724 Q 123.611 80.433 125.848 78.914 Q 128.084 77.394 130.954 77.394 Q 133.823 77.394 135.976 78.914 Q 138.128 80.433 139.731 83.724 L 160.747 128.963 Q 162.097 131.664 161.718 133.858 Q 161.338 136.052 159.608 137.234 Q 157.877 138.416 155.345 138.416 Q 151.969 138.416 150.155 136.896 Q 148.34 135.377 146.905 132.001 L 142.348 121.282 L 148.256 125.587 L 113.483 125.587 L 119.475 121.282 L 114.918 132.001 Q 113.399 135.377 111.795 136.896 Q 110.191 138.416 106.9 138.416 Z M 130.785 94.359 L 120.995 117.738 L 118.631 113.686 L 143.192 113.686 L 140.829 117.738 L 130.954 94.359 Z"/>
    <path d="M 175.75 138.416 Q 172.205 138.416 170.348 136.559 Q 168.491 134.702 168.491 131.073 L 168.491 85.075 Q 168.491 81.361 170.348 79.378 Q 172.205 77.394 175.243 77.394 Q 177.944 77.394 179.463 78.407 Q 180.982 79.42 182.839 81.783 L 209.594 115.206 L 207.231 115.206 L 207.231 84.653 Q 207.231 81.108 209.045 79.251 Q 210.86 77.394 214.405 77.394 Q 217.95 77.394 219.764 79.251 Q 221.579 81.108 221.579 84.653 L 221.579 131.41 Q 221.579 134.618 219.891 136.517 Q 218.203 138.416 215.333 138.416 Q 212.464 138.416 210.818 137.361 Q 209.172 136.306 207.315 134.027 L 180.56 100.52 L 182.924 100.52 L 182.924 131.073 Q 182.924 134.702 181.109 136.559 Q 179.294 138.416 175.75 138.416 Z"/>
    <path d="M 240.564 137.656 Q 236.597 137.656 234.529 135.588 Q 232.461 133.52 232.461 129.638 L 232.461 86.172 Q 232.461 82.29 234.529 80.222 Q 236.597 78.154 240.564 78.154 L 257.106 78.154 Q 272.636 78.154 281.118 85.919 Q 289.6 93.684 289.6 107.863 Q 289.6 114.952 287.406 120.481 Q 285.211 126.009 281.076 129.849 Q 276.94 133.689 270.906 135.673 Q 264.871 137.656 257.106 137.656 Z M 247.991 125.08 L 256.093 125.08 Q 260.567 125.08 263.816 123.983 Q 267.065 122.886 269.218 120.776 Q 271.37 118.666 272.425 115.459 Q 273.48 112.252 273.48 107.863 Q 273.48 99.085 269.175 94.907 Q 264.871 90.73 256.093 90.73 L 247.991 90.73 Z"/>
    <path d="M 178.058 212.663 Q 173.359 212.663 170.896 209.091 Q 168.432 205.519 168.432 198.834 Q 168.432 194.289 169.539 191.233 Q 170.647 188.177 172.786 186.61 Q 174.926 185.044 178.058 185.044 Q 182.795 185.044 185.24 188.54 Q 187.684 192.035 187.684 198.796 Q 187.684 203.266 186.577 206.36 Q 185.469 209.454 183.33 211.058 Q 181.19 212.663 178.058 212.663 Z M 178.058 209.378 Q 180.999 209.378 182.394 206.799 Q 183.788 204.221 183.788 198.796 Q 183.788 193.334 182.394 190.832 Q 180.999 188.329 178.058 188.329 Q 175.155 188.329 173.741 190.832 Q 172.328 193.334 172.328 198.796 Q 172.328 204.221 173.741 206.799 Q 175.155 209.378 178.058 209.378 Z" style="fill: rgba(0, 0, 0, 0.506);"/>
    <path d="M 192.179 213.541 Q 191.988 214.153 191.568 214.42 Q 191.147 214.687 190.651 214.687 Q 190.154 214.687 189.753 214.439 Q 189.352 214.191 189.18 213.732 Q 189.008 213.274 189.199 212.625 L 198.176 184.815 Q 198.367 184.204 198.787 183.917 Q 199.208 183.631 199.685 183.65 Q 200.163 183.669 200.564 183.917 Q 200.965 184.166 201.137 184.605 Q 201.309 185.044 201.156 185.694 Z" style="fill: rgba(0, 0, 0, 0.506);"/>
    <path d="M 212.309 212.663 Q 207.61 212.663 205.146 209.091 Q 202.682 205.519 202.682 198.834 Q 202.682 194.289 203.79 191.233 Q 204.898 188.177 207.037 186.61 Q 209.176 185.044 212.309 185.044 Q 217.046 185.044 219.49 188.54 Q 221.935 192.035 221.935 198.796 Q 221.935 203.266 220.827 206.36 Q 219.72 209.454 217.58 211.058 Q 215.441 212.663 212.309 212.663 Z M 212.309 209.378 Q 215.25 209.378 216.645 206.799 Q 218.039 204.221 218.039 198.796 Q 218.039 193.334 216.645 190.832 Q 215.25 188.329 212.309 188.329 Q 209.406 188.329 207.992 190.832 Q 206.579 193.334 206.579 198.796 Q 206.579 204.221 207.992 206.799 Q 209.406 209.378 212.309 209.378 Z" style="fill: rgba(0, 0, 0, 0.506);"/>
  </g>
</svg>