<?xml version="1.0" encoding="utf-8"?>
<svg viewBox="838.419 -1.353 279.473 235.662" xmlns="http://www.w3.org/2000/svg">
  <g transform="matrix(0.9999999999999999, 0, 0, 0.9999999999999999, 783.2329711914062, -23.5359916687012)">
    <rect y="22.183" width="279.473" height="235.662" style="fill: rgb(188, 188, 188);" x="55.186"/>
    <rect style="fill: rgb(138, 138, 138);" x="60.828" y="29.686" width="267.282" height="220.654" rx="2" ry="2"/>
    <rect style="fill: rgb(155, 44, 138);" x="68.267" y="36.823" width="253.312" height="206.382" rx="2" ry="2"/>
    <rect style="paint-order: fill; fill: rgb(188, 63, 171);" x="75.878" y="44.493" width="238.091" height="191.043" rx="2" ry="2"/>
    <path d="M 28.467 167.698 Q 26.399 167.698 25.321 166.62 Q 24.243 165.542 24.243 163.518 L 24.243 140.858 Q 24.243 138.834 25.321 137.756 Q 26.399 136.678 28.467 136.678 L 39.203 136.678 Q 42.547 136.678 44.901 137.668 Q 47.255 138.658 48.487 140.462 Q 49.719 142.266 49.719 144.686 Q 49.719 147.414 48.157 149.35 Q 46.595 151.286 43.911 151.99 L 43.911 151.286 Q 47.079 151.858 48.817 153.838 Q 50.555 155.818 50.555 158.898 Q 50.555 162.99 47.629 165.344 Q 44.703 167.698 39.643 167.698 Z M 31.987 161.758 L 38.543 161.758 Q 40.787 161.758 41.821 160.9 Q 42.855 160.042 42.855 158.326 Q 42.855 156.61 41.821 155.774 Q 40.787 154.938 38.543 154.938 L 31.987 154.938 Z M 31.987 148.998 L 37.751 148.998 Q 39.951 148.998 40.985 148.206 Q 42.019 147.414 42.019 145.786 Q 42.019 144.158 40.985 143.388 Q 39.951 142.618 37.751 142.618 L 31.987 142.618 Z" transform="matrix(1, 0, 0, 1, 62.962513, -42.333363)"/>
    <path d="M 70.079 168.182 Q 65.371 168.182 61.807 166.18 Q 58.243 164.178 56.285 160.57 Q 54.327 156.962 54.327 152.166 Q 54.327 148.558 55.449 145.61 Q 56.571 142.662 58.661 140.55 Q 60.751 138.438 63.655 137.316 Q 66.559 136.194 70.079 136.194 Q 74.787 136.194 78.329 138.174 Q 81.871 140.154 83.851 143.74 Q 85.831 147.326 85.831 152.166 Q 85.831 155.774 84.709 158.722 Q 83.587 161.67 81.497 163.804 Q 79.407 165.938 76.503 167.06 Q 73.599 168.182 70.079 168.182 Z M 70.079 161.406 Q 72.411 161.406 74.039 160.306 Q 75.667 159.206 76.547 157.138 Q 77.427 155.07 77.427 152.166 Q 77.427 147.81 75.491 145.39 Q 73.555 142.97 70.079 142.97 Q 67.791 142.97 66.141 144.048 Q 64.491 145.126 63.611 147.172 Q 62.731 149.218 62.731 152.166 Q 62.731 156.522 64.667 158.964 Q 66.603 161.406 70.079 161.406 Z" transform="matrix(1, 0, 0, 1, 62.962513, -42.333363)"/>
    <path d="M 105.58 168.182 Q 100.872 168.182 97.308 166.18 Q 93.744 164.178 91.786 160.57 Q 89.828 156.962 89.828 152.166 Q 89.828 148.558 90.95 145.61 Q 92.072 142.662 94.162 140.55 Q 96.252 138.438 99.156 137.316 Q 102.06 136.194 105.58 136.194 Q 110.288 136.194 113.83 138.174 Q 117.372 140.154 119.352 143.74 Q 121.332 147.326 121.332 152.166 Q 121.332 155.774 120.21 158.722 Q 119.088 161.67 116.998 163.804 Q 114.908 165.938 112.004 167.06 Q 109.1 168.182 105.58 168.182 Z M 105.58 161.406 Q 107.912 161.406 109.54 160.306 Q 111.168 159.206 112.048 157.138 Q 112.928 155.07 112.928 152.166 Q 112.928 147.81 110.992 145.39 Q 109.056 142.97 105.58 142.97 Q 103.292 142.97 101.642 144.048 Q 99.992 145.126 99.112 147.172 Q 98.232 149.218 98.232 152.166 Q 98.232 156.522 100.168 158.964 Q 102.104 161.406 105.58 161.406 Z" transform="matrix(1, 0, 0, 1, 62.962513, -42.333363)"/>
    <path d="M 130.213 167.698 Q 128.277 167.698 127.199 166.62 Q 126.121 165.542 126.121 163.606 L 126.121 140.726 Q 126.121 138.746 127.177 137.69 Q 128.233 136.634 130.169 136.634 Q 132.149 136.634 133.183 137.69 Q 134.217 138.746 134.217 140.726 L 134.217 160.966 L 144.953 160.966 Q 146.625 160.966 147.527 161.824 Q 148.429 162.682 148.429 164.31 Q 148.429 165.938 147.527 166.818 Q 146.625 167.698 144.953 167.698 Z" transform="matrix(1, 0, 0, 1, 62.962513, -42.333363)"/>
    <path d="M 156.08 167.698 Q 154.012 167.698 152.934 166.62 Q 151.856 165.542 151.856 163.518 L 151.856 140.858 Q 151.856 138.834 152.934 137.756 Q 154.012 136.678 156.08 136.678 L 170.996 136.678 Q 172.58 136.678 173.372 137.47 Q 174.164 138.262 174.164 139.758 Q 174.164 141.298 173.372 142.112 Q 172.58 142.926 170.996 142.926 L 159.6 142.926 L 159.6 148.822 L 170.028 148.822 Q 171.568 148.822 172.382 149.614 Q 173.196 150.406 173.196 151.946 Q 173.196 153.486 172.382 154.278 Q 171.568 155.07 170.028 155.07 L 159.6 155.07 L 159.6 161.45 L 170.996 161.45 Q 172.58 161.45 173.372 162.264 Q 174.164 163.078 174.164 164.574 Q 174.164 166.114 173.372 166.906 Q 172.58 167.698 170.996 167.698 Z" transform="matrix(1, 0, 0, 1, 62.962513, -42.333363)"/>
    <path d="M 179.839 168.094 Q 178.475 168.094 177.551 167.456 Q 176.627 166.818 176.407 165.696 Q 176.187 164.574 176.803 163.166 L 187.759 139.582 Q 188.551 137.866 189.717 137.074 Q 190.883 136.282 192.379 136.282 Q 193.875 136.282 194.997 137.074 Q 196.119 137.866 196.955 139.582 L 207.911 163.166 Q 208.615 164.574 208.417 165.718 Q 208.219 166.862 207.317 167.478 Q 206.415 168.094 205.095 168.094 Q 203.335 168.094 202.389 167.302 Q 201.443 166.51 200.695 164.75 L 198.319 159.162 L 201.399 161.406 L 183.271 161.406 L 186.395 159.162 L 184.019 164.75 Q 183.227 166.51 182.391 167.302 Q 181.555 168.094 179.839 168.094 Z M 192.291 145.126 L 187.187 157.314 L 185.955 155.202 L 198.759 155.202 L 197.527 157.314 L 192.379 145.126 Z" transform="matrix(1, 0, 0, 1, 62.962513, -42.333363)"/>
    <path d="M 215.735 168.094 Q 213.887 168.094 212.919 167.126 Q 211.951 166.158 211.951 164.266 L 211.951 140.286 Q 211.951 138.35 212.919 137.316 Q 213.887 136.282 215.471 136.282 Q 216.879 136.282 217.671 136.81 Q 218.463 137.338 219.431 138.57 L 233.379 155.994 L 232.147 155.994 L 232.147 140.066 Q 232.147 138.218 233.093 137.25 Q 234.039 136.282 235.887 136.282 Q 237.735 136.282 238.681 137.25 Q 239.627 138.218 239.627 140.066 L 239.627 164.442 Q 239.627 166.114 238.747 167.104 Q 237.867 168.094 236.371 168.094 Q 234.875 168.094 234.017 167.544 Q 233.159 166.994 232.191 165.806 L 218.243 148.338 L 219.475 148.338 L 219.475 164.266 Q 219.475 166.158 218.529 167.126 Q 217.583 168.094 215.735 168.094 Z" transform="matrix(1, 0, 0, 1, 62.962513, -42.333363)"/>
    <path d="M 54.928 212.182 Q 53.168 212.182 51.254 211.94 Q 49.34 211.698 47.624 211.214 Q 45.908 210.73 44.544 210.07 Q 43.356 209.498 42.872 208.552 Q 42.388 207.606 42.52 206.55 Q 42.652 205.494 43.268 204.68 Q 43.884 203.866 44.896 203.58 Q 45.908 203.294 47.184 203.866 Q 48.856 204.658 50.968 205.098 Q 53.08 205.538 54.928 205.538 Q 57.832 205.538 58.998 204.768 Q 60.164 203.998 60.164 202.854 Q 60.164 201.842 59.35 201.226 Q 58.536 200.61 56.468 200.17 L 51.32 199.07 Q 47.096 198.19 45.028 195.99 Q 42.96 193.79 42.96 190.314 Q 42.96 188.026 43.906 186.156 Q 44.852 184.286 46.59 182.966 Q 48.328 181.646 50.726 180.92 Q 53.124 180.194 56.072 180.194 Q 58.36 180.194 60.714 180.7 Q 63.068 181.206 64.784 182.218 Q 65.796 182.746 66.236 183.67 Q 66.676 184.594 66.588 185.584 Q 66.5 186.574 65.906 187.322 Q 65.312 188.07 64.322 188.312 Q 63.332 188.554 61.968 187.982 Q 60.692 187.41 59.086 187.124 Q 57.48 186.838 55.984 186.838 Q 54.356 186.838 53.212 187.212 Q 52.068 187.586 51.474 188.29 Q 50.88 188.994 50.88 189.918 Q 50.88 190.842 51.65 191.48 Q 52.42 192.118 54.488 192.558 L 59.592 193.658 Q 63.86 194.582 65.972 196.694 Q 68.084 198.806 68.084 202.194 Q 68.084 204.482 67.16 206.33 Q 66.236 208.178 64.52 209.476 Q 62.804 210.774 60.384 211.478 Q 57.964 212.182 54.928 212.182 Z" transform="matrix(1, 0, 0, 1, 62.962513, -42.333363)"/>
    <path d="M 83.472 212.094 Q 81.844 212.094 80.832 211.324 Q 79.82 210.554 79.248 208.926 L 70.668 185.034 Q 69.964 183.054 70.91 181.668 Q 71.856 180.282 74.276 180.282 Q 75.904 180.282 76.828 181.052 Q 77.752 181.822 78.28 183.45 L 84.836 203.118 L 82.768 203.118 L 89.808 183.45 Q 90.424 181.822 91.348 181.052 Q 92.272 180.282 93.724 180.282 Q 95.176 180.282 96.056 181.052 Q 96.936 181.822 97.508 183.494 L 104.108 203.118 L 102.348 203.118 L 109.08 183.45 Q 109.608 181.822 110.51 181.052 Q 111.412 180.282 113.04 180.282 Q 115.064 180.282 116.01 181.668 Q 116.956 183.054 116.208 185.034 L 107.54 208.97 Q 106.968 210.554 105.978 211.324 Q 104.988 212.094 103.36 212.094 Q 101.688 212.094 100.698 211.324 Q 99.708 210.554 99.136 208.926 L 92.932 191.502 L 94.032 191.502 L 87.696 208.97 Q 87.08 210.554 86.112 211.324 Q 85.144 212.094 83.472 212.094 Z" transform="matrix(1, 0, 0, 1, 62.962513, -42.333363)"/>
    <path d="M 125.09 212.094 Q 123.154 212.094 122.098 211.016 Q 121.042 209.938 121.042 207.958 L 121.042 184.418 Q 121.042 182.394 122.098 181.338 Q 123.154 180.282 125.09 180.282 Q 127.07 180.282 128.104 181.338 Q 129.138 182.394 129.138 184.418 L 129.138 207.958 Q 129.138 209.938 128.126 211.016 Q 127.114 212.094 125.09 212.094 Z" transform="matrix(1, 0, 0, 1, 62.962513, -42.333363)"/>
    <path d="M 146.113 212.094 Q 144.177 212.094 143.121 211.016 Q 142.065 209.938 142.065 208.002 L 142.065 187.278 L 135.157 187.278 Q 133.529 187.278 132.671 186.42 Q 131.813 185.562 131.813 183.978 Q 131.813 182.35 132.671 181.514 Q 133.529 180.678 135.157 180.678 L 157.069 180.678 Q 158.697 180.678 159.555 181.514 Q 160.413 182.35 160.413 183.978 Q 160.413 185.562 159.555 186.42 Q 158.697 187.278 157.069 187.278 L 150.161 187.278 L 150.161 208.002 Q 150.161 209.938 149.149 211.016 Q 148.137 212.094 146.113 212.094 Z" transform="matrix(1, 0, 0, 1, 62.962513, -42.333363)"/>
    <path d="M 176.957 212.182 Q 171.809 212.182 168.113 210.202 Q 164.417 208.222 162.459 204.614 Q 160.501 201.006 160.501 196.166 Q 160.501 192.558 161.623 189.61 Q 162.745 186.662 164.879 184.55 Q 167.013 182.438 170.071 181.316 Q 173.129 180.194 176.957 180.194 Q 178.981 180.194 181.159 180.656 Q 183.337 181.118 185.009 182.042 Q 186.241 182.702 186.725 183.714 Q 187.209 184.726 187.055 185.782 Q 186.901 186.838 186.285 187.674 Q 185.669 188.51 184.701 188.796 Q 183.733 189.082 182.589 188.51 Q 181.269 187.894 179.971 187.564 Q 178.673 187.234 177.265 187.234 Q 174.537 187.234 172.711 188.268 Q 170.885 189.302 169.961 191.282 Q 169.037 193.262 169.037 196.166 Q 169.037 199.07 169.961 201.072 Q 170.885 203.074 172.711 204.108 Q 174.537 205.142 177.265 205.142 Q 178.409 205.142 179.729 204.856 Q 181.049 204.57 182.325 203.954 Q 183.645 203.382 184.679 203.646 Q 185.713 203.91 186.351 204.702 Q 186.989 205.494 187.165 206.528 Q 187.341 207.562 186.879 208.574 Q 186.417 209.586 185.273 210.202 Q 183.733 211.126 181.467 211.654 Q 179.201 212.182 176.957 212.182 Z" transform="matrix(1, 0, 0, 1, 62.962513, -42.333363)"/>
    <path d="M 195.608 212.094 Q 193.672 212.094 192.616 211.016 Q 191.56 209.938 191.56 207.958 L 191.56 184.418 Q 191.56 182.394 192.616 181.338 Q 193.672 180.282 195.608 180.282 Q 197.588 180.282 198.622 181.338 Q 199.656 182.394 199.656 184.418 L 199.656 192.646 L 212.46 192.646 L 212.46 184.418 Q 212.46 182.394 213.494 181.338 Q 214.528 180.282 216.508 180.282 Q 218.444 180.282 219.478 181.338 Q 220.512 182.394 220.512 184.418 L 220.512 207.958 Q 220.512 209.938 219.478 211.016 Q 218.444 212.094 216.508 212.094 Q 214.528 212.094 213.494 211.016 Q 212.46 209.938 212.46 207.958 L 212.46 199.29 L 199.656 199.29 L 199.656 207.958 Q 199.656 209.938 198.644 211.016 Q 197.632 212.094 195.608 212.094 Z" transform="matrix(1, 0, 0, 1, 62.962513, -42.333363)"/>
  </g>
</svg>