<?xml version="1.0" encoding="utf-8"?>
<svg viewBox="279.473 -1.353 279.473 235.662" xmlns="http://www.w3.org/2000/svg">
  <g transform="matrix(0.9999999999999999, 0, 0, 0.9999999999999999, 224.2870178222655, -23.535995483398466)">
    <rect y="22.183" width="279.473" height="235.662" style="fill: rgb(188, 188, 188);" x="55.186"/>
    <rect style="fill: rgb(138, 138, 138);" x="60.828" y="29.686" width="267.282" height="220.654" rx="2" ry="2"/>
    <rect style="fill: rgb(226, 107, 212);" x="68.267" y="36.823" width="253.312" height="206.382" rx="2" ry="2"/>
    <rect style="paint-order: fill; fill: rgb(241, 141, 232);" x="75.878" y="44.493" width="238.091" height="191.043" rx="2" ry="2"/>
    <path d="M -9.484 137.656 Q -11.646 137.656 -12.773 136.529 Q -13.9 135.402 -13.9 133.286 L -13.9 109.596 Q -13.9 107.48 -12.773 106.353 Q -11.646 105.226 -9.484 105.226 L 1.74 105.226 Q 5.236 105.226 7.697 106.261 Q 10.158 107.296 11.446 109.182 Q 12.734 111.068 12.734 113.598 Q 12.734 116.45 11.101 118.474 Q 9.468 120.498 6.662 121.234 L 6.662 120.498 Q 9.974 121.096 11.791 123.166 Q 13.608 125.236 13.608 128.456 Q 13.608 132.734 10.549 135.195 Q 7.49 137.656 2.2 137.656 Z M -5.804 131.446 L 1.05 131.446 Q 3.396 131.446 4.477 130.549 Q 5.558 129.652 5.558 127.858 Q 5.558 126.064 4.477 125.19 Q 3.396 124.316 1.05 124.316 L -5.804 124.316 Z M -5.804 118.106 L 0.222 118.106 Q 2.522 118.106 3.603 117.278 Q 4.684 116.45 4.684 114.748 Q 4.684 113.046 3.603 112.241 Q 2.522 111.436 0.222 111.436 L -5.804 111.436 Z" transform="matrix(1, 0, 0, 1, 96.210503, -40.41172)"/>
    <path d="M 34.022 138.162 Q 29.1 138.162 25.374 136.069 Q 21.648 133.976 19.601 130.204 Q 17.554 126.432 17.554 121.418 Q 17.554 117.646 18.727 114.564 Q 19.9 111.482 22.085 109.274 Q 24.27 107.066 27.306 105.893 Q 30.342 104.72 34.022 104.72 Q 38.944 104.72 42.647 106.79 Q 46.35 108.86 48.42 112.609 Q 50.49 116.358 50.49 121.418 Q 50.49 125.19 49.317 128.272 Q 48.144 131.354 45.959 133.585 Q 43.774 135.816 40.738 136.989 Q 37.702 138.162 34.022 138.162 Z M 34.022 131.078 Q 36.46 131.078 38.162 129.928 Q 39.864 128.778 40.784 126.616 Q 41.704 124.454 41.704 121.418 Q 41.704 116.864 39.68 114.334 Q 37.656 111.804 34.022 111.804 Q 31.63 111.804 29.905 112.931 Q 28.18 114.058 27.26 116.197 Q 26.34 118.336 26.34 121.418 Q 26.34 125.972 28.364 128.525 Q 30.388 131.078 34.022 131.078 Z" transform="matrix(1, 0, 0, 1, 96.210503, -40.41172)"/>
    <path d="M 71.132 138.162 Q 66.21 138.162 62.484 136.069 Q 58.758 133.976 56.711 130.204 Q 54.664 126.432 54.664 121.418 Q 54.664 117.646 55.837 114.564 Q 57.01 111.482 59.195 109.274 Q 61.38 107.066 64.416 105.893 Q 67.452 104.72 71.132 104.72 Q 76.054 104.72 79.757 106.79 Q 83.46 108.86 85.53 112.609 Q 87.6 116.358 87.6 121.418 Q 87.6 125.19 86.427 128.272 Q 85.254 131.354 83.069 133.585 Q 80.884 135.816 77.848 136.989 Q 74.812 138.162 71.132 138.162 Z M 71.132 131.078 Q 73.57 131.078 75.272 129.928 Q 76.974 128.778 77.894 126.616 Q 78.814 124.454 78.814 121.418 Q 78.814 116.864 76.79 114.334 Q 74.766 111.804 71.132 111.804 Q 68.74 111.804 67.015 112.931 Q 65.29 114.058 64.37 116.197 Q 63.45 118.336 63.45 121.418 Q 63.45 125.972 65.474 128.525 Q 67.498 131.078 71.132 131.078 Z" transform="matrix(1, 0, 0, 1, 96.210503, -40.41172)"/>
    <path d="M 96.88 137.656 Q 94.856 137.656 93.729 136.529 Q 92.602 135.402 92.602 133.378 L 92.602 109.458 Q 92.602 107.388 93.706 106.284 Q 94.81 105.18 96.834 105.18 Q 98.904 105.18 99.985 106.284 Q 101.066 107.388 101.066 109.458 L 101.066 130.618 L 112.29 130.618 Q 114.038 130.618 114.981 131.515 Q 115.924 132.412 115.924 134.114 Q 115.924 135.816 114.981 136.736 Q 114.038 137.656 112.29 137.656 Z" transform="matrix(1, 0, 0, 1, 96.210503, -40.41172)"/>
    <path d="M 123.925 137.656 Q 121.763 137.656 120.636 136.529 Q 119.509 135.402 119.509 133.286 L 119.509 109.596 Q 119.509 107.48 120.636 106.353 Q 121.763 105.226 123.925 105.226 L 139.519 105.226 Q 141.175 105.226 142.003 106.054 Q 142.831 106.882 142.831 108.446 Q 142.831 110.056 142.003 110.907 Q 141.175 111.758 139.519 111.758 L 127.605 111.758 L 127.605 117.922 L 138.507 117.922 Q 140.117 117.922 140.968 118.75 Q 141.819 119.578 141.819 121.188 Q 141.819 122.798 140.968 123.626 Q 140.117 124.454 138.507 124.454 L 127.605 124.454 L 127.605 131.124 L 139.519 131.124 Q 141.175 131.124 142.003 131.975 Q 142.831 132.826 142.831 134.39 Q 142.831 136 142.003 136.828 Q 141.175 137.656 139.519 137.656 Z" transform="matrix(1, 0, 0, 1, 96.210503, -40.41172)"/>
    <path d="M 148.762 138.07 Q 147.336 138.07 146.37 137.403 Q 145.404 136.736 145.174 135.563 Q 144.944 134.39 145.588 132.918 L 157.042 108.262 Q 157.87 106.468 159.089 105.64 Q 160.308 104.812 161.872 104.812 Q 163.436 104.812 164.609 105.64 Q 165.782 106.468 166.656 108.262 L 178.11 132.918 Q 178.846 134.39 178.639 135.586 Q 178.432 136.782 177.489 137.426 Q 176.546 138.07 175.166 138.07 Q 173.326 138.07 172.337 137.242 Q 171.348 136.414 170.566 134.574 L 168.082 128.732 L 171.302 131.078 L 152.35 131.078 L 155.616 128.732 L 153.132 134.574 Q 152.304 136.414 151.43 137.242 Q 150.556 138.07 148.762 138.07 Z M 161.78 114.058 L 156.444 126.8 L 155.156 124.592 L 168.542 124.592 L 167.254 126.8 L 161.872 114.058 Z" transform="matrix(1, 0, 0, 1, 96.210503, -40.41172)"/>
    <path d="M 186.295 138.07 Q 184.363 138.07 183.351 137.058 Q 182.339 136.046 182.339 134.068 L 182.339 108.998 Q 182.339 106.974 183.351 105.893 Q 184.363 104.812 186.019 104.812 Q 187.491 104.812 188.319 105.364 Q 189.147 105.916 190.159 107.204 L 204.741 125.42 L 203.453 125.42 L 203.453 108.768 Q 203.453 106.836 204.442 105.824 Q 205.431 104.812 207.363 104.812 Q 209.295 104.812 210.284 105.824 Q 211.273 106.836 211.273 108.768 L 211.273 134.252 Q 211.273 136 210.353 137.035 Q 209.433 138.07 207.869 138.07 Q 206.305 138.07 205.408 137.495 Q 204.511 136.92 203.499 135.678 L 188.917 117.416 L 190.205 117.416 L 190.205 134.068 Q 190.205 136.046 189.216 137.058 Q 188.227 138.07 186.295 138.07 Z" transform="matrix(1, 0, 0, 1, 96.210503, -40.41172)"/>
    <path d="M 24.207 184.162 Q 22.367 184.162 20.366 183.909 Q 18.365 183.656 16.571 183.15 Q 14.777 182.644 13.351 181.954 Q 12.109 181.356 11.603 180.367 Q 11.097 179.378 11.235 178.274 Q 11.373 177.17 12.017 176.319 Q 12.661 175.468 13.719 175.169 Q 14.777 174.87 16.111 175.468 Q 17.859 176.296 20.067 176.756 Q 22.275 177.216 24.207 177.216 Q 27.243 177.216 28.462 176.411 Q 29.681 175.606 29.681 174.41 Q 29.681 173.352 28.83 172.708 Q 27.979 172.064 25.817 171.604 L 20.435 170.454 Q 16.019 169.534 13.857 167.234 Q 11.695 164.934 11.695 161.3 Q 11.695 158.908 12.684 156.953 Q 13.673 154.998 15.49 153.618 Q 17.307 152.238 19.814 151.479 Q 22.321 150.72 25.403 150.72 Q 27.795 150.72 30.256 151.249 Q 32.717 151.778 34.511 152.836 Q 35.569 153.388 36.029 154.354 Q 36.489 155.32 36.397 156.355 Q 36.305 157.39 35.684 158.172 Q 35.063 158.954 34.028 159.207 Q 32.993 159.46 31.567 158.862 Q 30.233 158.264 28.554 157.965 Q 26.875 157.666 25.311 157.666 Q 23.609 157.666 22.413 158.057 Q 21.217 158.448 20.596 159.184 Q 19.975 159.92 19.975 160.886 Q 19.975 161.852 20.78 162.519 Q 21.585 163.186 23.747 163.646 L 29.083 164.796 Q 33.545 165.762 35.753 167.97 Q 37.961 170.178 37.961 173.72 Q 37.961 176.112 36.995 178.044 Q 36.029 179.976 34.235 181.333 Q 32.441 182.69 29.911 183.426 Q 27.381 184.162 24.207 184.162 Z" transform="matrix(1, 0, 0, 1, 96.210503, -40.41172)"/>
    <path d="M 46.509 183.656 Q 44.347 183.656 43.22 182.529 Q 42.093 181.402 42.093 179.286 L 42.093 155.596 Q 42.093 153.48 43.22 152.353 Q 44.347 151.226 46.509 151.226 L 62.103 151.226 Q 63.759 151.226 64.587 152.054 Q 65.415 152.882 65.415 154.446 Q 65.415 156.056 64.587 156.907 Q 63.759 157.758 62.103 157.758 L 50.189 157.758 L 50.189 163.922 L 61.091 163.922 Q 62.701 163.922 63.552 164.75 Q 64.403 165.578 64.403 167.188 Q 64.403 168.798 63.552 169.626 Q 62.701 170.454 61.091 170.454 L 50.189 170.454 L 50.189 177.124 L 62.103 177.124 Q 63.759 177.124 64.587 177.975 Q 65.415 178.826 65.415 180.39 Q 65.415 182 64.587 182.828 Q 63.759 183.656 62.103 183.656 Z" transform="matrix(1, 0, 0, 1, 96.210503, -40.41172)"/>
    <path d="M 82.431 184.07 Q 80.407 184.07 79.303 182.943 Q 78.199 181.816 78.199 179.792 L 78.199 158.126 L 70.977 158.126 Q 69.275 158.126 68.378 157.229 Q 67.481 156.332 67.481 154.676 Q 67.481 152.974 68.378 152.1 Q 69.275 151.226 70.977 151.226 L 93.885 151.226 Q 95.587 151.226 96.484 152.1 Q 97.381 152.974 97.381 154.676 Q 97.381 156.332 96.484 157.229 Q 95.587 158.126 93.885 158.126 L 86.663 158.126 L 86.663 179.792 Q 86.663 181.816 85.605 182.943 Q 84.547 184.07 82.431 184.07 Z" transform="matrix(1, 0, 0, 1, 96.210503, -40.41172)"/>
    <path d="M 112.681 184.07 Q 110.657 184.07 109.553 182.943 Q 108.449 181.816 108.449 179.792 L 108.449 158.126 L 101.227 158.126 Q 99.525 158.126 98.628 157.229 Q 97.731 156.332 97.731 154.676 Q 97.731 152.974 98.628 152.1 Q 99.525 151.226 101.227 151.226 L 124.135 151.226 Q 125.837 151.226 126.734 152.1 Q 127.631 152.974 127.631 154.676 Q 127.631 156.332 126.734 157.229 Q 125.837 158.126 124.135 158.126 L 116.913 158.126 L 116.913 179.792 Q 116.913 181.816 115.855 182.943 Q 114.797 184.07 112.681 184.07 Z" transform="matrix(1, 0, 0, 1, 96.210503, -40.41172)"/>
    <path d="M 134.855 183.656 Q 132.693 183.656 131.566 182.529 Q 130.439 181.402 130.439 179.286 L 130.439 155.596 Q 130.439 153.48 131.566 152.353 Q 132.693 151.226 134.855 151.226 L 150.449 151.226 Q 152.105 151.226 152.933 152.054 Q 153.761 152.882 153.761 154.446 Q 153.761 156.056 152.933 156.907 Q 152.105 157.758 150.449 157.758 L 138.535 157.758 L 138.535 163.922 L 149.437 163.922 Q 151.047 163.922 151.898 164.75 Q 152.749 165.578 152.749 167.188 Q 152.749 168.798 151.898 169.626 Q 151.047 170.454 149.437 170.454 L 138.535 170.454 L 138.535 177.124 L 150.449 177.124 Q 152.105 177.124 152.933 177.975 Q 153.761 178.826 153.761 180.39 Q 153.761 182 152.933 182.828 Q 152.105 183.656 150.449 183.656 Z" transform="matrix(1, 0, 0, 1, 96.210503, -40.41172)"/>
    <path d="M 162.906 184.07 Q 160.882 184.07 159.778 182.943 Q 158.674 181.816 158.674 179.792 L 158.674 155.504 Q 158.674 153.434 159.801 152.33 Q 160.928 151.226 162.952 151.226 L 174.268 151.226 Q 179.788 151.226 182.801 153.917 Q 185.814 156.608 185.814 161.392 Q 185.814 164.474 184.457 166.751 Q 183.1 169.028 180.547 170.247 Q 177.994 171.466 174.268 171.466 L 174.636 170.638 L 176.844 170.638 Q 178.822 170.638 180.34 171.581 Q 181.858 172.524 182.87 174.456 L 185.17 178.596 Q 185.906 179.93 185.86 181.195 Q 185.814 182.46 184.871 183.265 Q 183.928 184.07 182.134 184.07 Q 180.34 184.07 179.213 183.334 Q 178.086 182.598 177.212 181.034 L 173.026 173.352 Q 172.474 172.34 171.623 171.949 Q 170.772 171.558 169.668 171.558 L 167.138 171.558 L 167.138 179.792 Q 167.138 181.816 166.08 182.943 Q 165.022 184.07 162.906 184.07 Z M 167.138 165.578 L 172.75 165.578 Q 175.188 165.578 176.476 164.612 Q 177.764 163.646 177.764 161.622 Q 177.764 159.69 176.476 158.701 Q 175.188 157.712 172.75 157.712 L 167.138 157.712 Z" transform="matrix(1, 0, 0, 1, 96.210503, -40.41172)"/>
    <path d="M 158.924 212.586 Q 158.007 212.586 157.492 212.071 Q 156.976 211.555 156.976 210.638 L 156.976 196.657 L 154.837 196.657 Q 154.111 196.657 153.691 196.256 Q 153.271 195.855 153.271 195.167 Q 153.271 194.441 153.691 194.059 Q 154.111 193.677 154.837 193.677 L 158.084 193.677 L 156.976 194.709 L 156.976 193.334 Q 156.976 189.552 158.848 187.623 Q 160.72 185.694 164.31 185.35 L 165.495 185.273 Q 166.144 185.197 166.526 185.464 Q 166.908 185.732 167.023 186.152 Q 167.137 186.572 167.042 187.012 Q 166.946 187.451 166.641 187.795 Q 166.335 188.138 165.877 188.177 L 165.151 188.215 Q 162.897 188.406 161.866 189.495 Q 160.834 190.583 160.834 192.799 L 160.834 194.289 L 160.299 193.677 L 164.54 193.677 Q 165.342 193.677 165.743 194.059 Q 166.144 194.441 166.144 195.167 Q 166.144 195.855 165.743 196.256 Q 165.342 196.657 164.54 196.657 L 160.834 196.657 L 160.834 210.638 Q 160.834 212.586 158.924 212.586 Z" style="fill: rgba(0, 0, 0, 0.506);"/>
    <path d="M 174.875 212.663 Q 172.926 212.663 171.379 211.899 Q 169.832 211.135 168.954 209.836 Q 168.075 208.537 168.075 206.895 Q 168.075 204.832 169.126 203.629 Q 170.176 202.425 172.602 201.91 Q 175.027 201.394 179.153 201.394 L 180.948 201.394 L 180.948 203.762 L 179.191 203.762 Q 176.441 203.762 174.836 204.03 Q 173.232 204.297 172.564 204.927 Q 171.895 205.558 171.895 206.665 Q 171.895 208.117 172.888 209.015 Q 173.881 209.912 175.639 209.912 Q 177.052 209.912 178.122 209.244 Q 179.191 208.575 179.822 207.429 Q 180.452 206.283 180.452 204.794 L 180.452 200.401 Q 180.452 198.223 179.535 197.268 Q 178.618 196.313 176.517 196.313 Q 175.295 196.313 173.977 196.619 Q 172.659 196.924 171.246 197.65 Q 170.596 197.956 170.138 197.841 Q 169.679 197.727 169.412 197.326 Q 169.145 196.924 169.126 196.447 Q 169.106 195.969 169.355 195.511 Q 169.603 195.053 170.214 194.823 Q 171.895 194.021 173.538 193.677 Q 175.18 193.334 176.632 193.334 Q 179.191 193.334 180.853 194.136 Q 182.515 194.938 183.317 196.581 Q 184.119 198.223 184.119 200.821 L 184.119 210.638 Q 184.119 211.555 183.661 212.071 Q 183.202 212.586 182.324 212.586 Q 181.483 212.586 180.987 212.071 Q 180.49 211.555 180.49 210.638 L 180.49 208.155 L 180.834 208.155 Q 180.528 209.569 179.707 210.581 Q 178.886 211.593 177.663 212.128 Q 176.441 212.663 174.875 212.663 Z" style="fill: rgba(0, 0, 0, 0.506);"/>
    <path d="M 195.429 212.663 Q 192.449 212.663 190.94 210.925 Q 189.432 209.187 189.432 205.901 L 189.432 187.069 Q 189.432 186.114 189.928 185.617 Q 190.425 185.121 191.342 185.121 Q 192.258 185.121 192.774 185.617 Q 193.29 186.114 193.29 187.069 L 193.29 205.672 Q 193.29 207.582 194.073 208.518 Q 194.856 209.454 196.346 209.454 Q 196.69 209.454 196.957 209.435 Q 197.224 209.416 197.492 209.378 Q 197.95 209.339 198.141 209.626 Q 198.332 209.912 198.332 210.791 Q 198.332 211.593 197.988 212.033 Q 197.645 212.472 196.881 212.586 Q 196.537 212.625 196.155 212.644 Q 195.773 212.663 195.429 212.663 Z" style="fill: rgba(0, 0, 0, 0.506);"/>
    <path d="M 207.464 212.663 Q 205.783 212.663 204.007 212.281 Q 202.231 211.899 200.741 210.982 Q 200.244 210.638 200.053 210.218 Q 199.862 209.798 199.92 209.359 Q 199.977 208.919 200.263 208.595 Q 200.55 208.27 200.989 208.193 Q 201.428 208.117 201.925 208.384 Q 203.415 209.225 204.79 209.55 Q 206.165 209.874 207.502 209.874 Q 209.527 209.874 210.558 209.148 Q 211.59 208.423 211.59 207.2 Q 211.59 206.207 210.902 205.653 Q 210.214 205.099 208.839 204.794 L 205.21 204.068 Q 202.842 203.571 201.619 202.311 Q 200.397 201.05 200.397 199.102 Q 200.397 197.345 201.352 196.046 Q 202.307 194.747 204.026 194.04 Q 205.745 193.334 207.999 193.334 Q 209.68 193.334 211.169 193.754 Q 212.659 194.174 213.92 195.014 Q 214.416 195.282 214.569 195.721 Q 214.722 196.16 214.627 196.581 Q 214.531 197.001 214.225 197.326 Q 213.92 197.65 213.481 197.708 Q 213.041 197.765 212.506 197.497 Q 211.36 196.772 210.234 196.466 Q 209.107 196.16 207.999 196.16 Q 205.974 196.16 204.962 196.905 Q 203.95 197.65 203.95 198.911 Q 203.95 199.866 204.561 200.477 Q 205.172 201.088 206.471 201.356 L 210.1 202.081 Q 212.583 202.578 213.863 203.762 Q 215.142 204.946 215.142 206.971 Q 215.142 209.607 213.041 211.135 Q 210.94 212.663 207.464 212.663 Z" style="fill: rgba(0, 0, 0, 0.506);"/>
    <path d="M 228.164 212.663 Q 225.108 212.663 222.912 211.498 Q 220.715 210.333 219.512 208.174 Q 218.309 206.016 218.309 203.036 Q 218.309 200.133 219.493 197.956 Q 220.677 195.778 222.74 194.556 Q 224.803 193.334 227.439 193.334 Q 229.387 193.334 230.915 193.964 Q 232.443 194.594 233.532 195.798 Q 234.62 197.001 235.174 198.72 Q 235.728 200.439 235.728 202.578 Q 235.728 203.227 235.346 203.552 Q 234.964 203.877 234.2 203.877 L 221.365 203.877 L 221.365 201.508 L 233.13 201.508 L 232.481 202.043 Q 232.481 200.133 231.927 198.796 Q 231.373 197.459 230.285 196.753 Q 229.196 196.046 227.591 196.046 Q 225.796 196.046 224.555 196.886 Q 223.313 197.727 222.664 199.216 Q 222.014 200.706 222.014 202.693 L 222.014 202.922 Q 222.014 206.283 223.6 207.983 Q 225.185 209.683 228.203 209.683 Q 229.349 209.683 230.628 209.378 Q 231.908 209.072 233.054 208.346 Q 233.703 207.964 234.219 208.002 Q 234.735 208.041 235.06 208.346 Q 235.384 208.652 235.461 209.11 Q 235.537 209.569 235.308 210.046 Q 235.079 210.524 234.506 210.906 Q 233.207 211.784 231.488 212.224 Q 229.769 212.663 228.164 212.663 Z" style="fill: rgba(0, 0, 0, 0.506);"/>
  </g>
</svg>