<?xml version="1.0" encoding="utf-8"?>
<svg viewBox="1117.8919 -1.353 279.473 235.662" xmlns="http://www.w3.org/2000/svg">
  <g transform="matrix(0.9999999999999999, 0, 0, 0.9999999999999999, 1062.7059326171873, -23.53598403930667)">
    <rect y="22.183" width="279.473" height="235.662" style="fill: rgb(188, 188, 188);" x="55.186"/>
    <rect style="fill: rgb(138, 138, 138);" x="60.828" y="29.686" width="267.282" height="220.654" rx="2" ry="2"/>
    <rect style="fill: rgb(0, 189, 226);" x="68.267" y="36.823" width="253.312" height="206.382" rx="2" ry="2"/>
    <rect style="paint-order: fill; fill: rgb(0, 215, 241);" x="75.878" y="44.493" width="238.091" height="191.043" rx="2" ry="2"/>
    <path d="M 88.469 124.224 Q 85.132 124.224 83.392 122.484 Q 81.653 120.745 81.653 117.479 L 81.653 80.914 Q 81.653 77.648 83.392 75.908 Q 85.132 74.169 88.469 74.169 L 102.385 74.169 Q 115.449 74.169 122.584 80.701 Q 129.72 87.233 129.72 99.161 Q 129.72 105.125 127.874 109.775 Q 126.028 114.426 122.549 117.656 Q 119.07 120.887 113.993 122.555 Q 108.917 124.224 102.385 124.224 Z M 94.717 113.645 L 101.533 113.645 Q 105.296 113.645 108.029 112.722 Q 110.763 111.799 112.573 110.024 Q 114.384 108.249 115.271 105.551 Q 116.159 102.853 116.159 99.161 Q 116.159 91.777 112.538 88.262 Q 108.917 84.748 101.533 84.748 L 94.717 84.748 Z"/>
    <path d="M 144.267 124.224 Q 140.93 124.224 139.19 122.484 Q 137.451 120.745 137.451 117.479 L 137.451 80.914 Q 137.451 77.648 139.19 75.908 Q 140.93 74.169 144.267 74.169 L 168.336 74.169 Q 170.892 74.169 172.17 75.447 Q 173.448 76.725 173.448 79.139 Q 173.448 81.624 172.17 82.937 Q 170.892 84.251 168.336 84.251 L 149.947 84.251 L 149.947 93.765 L 166.774 93.765 Q 169.259 93.765 170.572 95.043 Q 171.886 96.321 171.886 98.806 Q 171.886 101.291 170.572 102.569 Q 169.259 103.847 166.774 103.847 L 149.947 103.847 L 149.947 114.142 L 168.336 114.142 Q 170.892 114.142 172.17 115.455 Q 173.448 116.769 173.448 119.183 Q 173.448 121.668 172.17 122.946 Q 170.892 124.224 168.336 124.224 Z"/>
    <path d="M 187.633 124.224 Q 184.509 124.224 182.77 122.484 Q 181.03 120.745 181.03 117.621 L 181.03 80.701 Q 181.03 77.506 182.734 75.802 Q 184.438 74.098 187.562 74.098 Q 190.757 74.098 192.426 75.802 Q 194.094 77.506 194.094 80.701 L 194.094 113.361 L 211.418 113.361 Q 214.116 113.361 215.572 114.745 Q 217.027 116.13 217.027 118.757 Q 217.027 121.384 215.572 122.804 Q 214.116 124.224 211.418 124.224 Z"/>
    <path d="M 224.265 124.863 Q 222.064 124.863 220.573 123.833 Q 219.082 122.804 218.727 120.993 Q 218.372 119.183 219.366 116.911 L 237.045 78.855 Q 238.323 76.086 240.204 74.808 Q 242.086 73.53 244.5 73.53 Q 246.914 73.53 248.724 74.808 Q 250.535 76.086 251.884 78.855 L 269.563 116.911 Q 270.699 119.183 270.379 121.029 Q 270.06 122.875 268.604 123.869 Q 267.149 124.863 265.019 124.863 Q 262.179 124.863 260.652 123.585 Q 259.126 122.307 257.919 119.467 L 254.085 110.45 L 259.055 114.071 L 229.803 114.071 L 234.844 110.45 L 231.01 119.467 Q 229.732 122.307 228.383 123.585 Q 227.034 124.863 224.265 124.863 Z M 244.358 87.801 L 236.122 107.468 L 234.134 104.06 L 254.795 104.06 L 252.807 107.468 L 244.5 87.801 Z"/>
    <path d="M 289.788 124.863 Q 286.664 124.863 284.96 123.123 Q 283.256 121.384 283.256 118.118 L 283.256 98.664 L 285.954 105.835 L 269.624 82.334 Q 268.417 80.63 268.594 78.535 Q 268.772 76.441 270.298 74.985 Q 271.825 73.53 274.665 73.53 Q 276.653 73.53 278.286 74.488 Q 279.919 75.447 281.339 77.719 L 291.279 92.345 L 288.723 92.345 L 298.663 77.648 Q 300.154 75.376 301.716 74.453 Q 303.278 73.53 305.408 73.53 Q 308.106 73.53 309.597 74.879 Q 311.088 76.228 311.194 78.287 Q 311.301 80.346 309.881 82.476 L 293.693 105.835 L 296.32 98.664 L 296.32 118.118 Q 296.32 124.863 289.788 124.863 Z"/>
    <path d="M 189.384 212.319 Q 188.582 212.319 188.123 211.861 Q 187.665 211.402 187.665 210.638 Q 187.665 209.836 188.123 209.416 Q 188.582 208.996 189.384 208.996 L 194.044 208.996 L 194.044 188.673 L 196.031 188.673 L 190.453 192.226 Q 189.842 192.57 189.326 192.493 Q 188.811 192.417 188.448 192.073 Q 188.085 191.729 187.951 191.233 Q 187.818 190.736 188.028 190.201 Q 188.238 189.666 188.811 189.323 L 194.082 185.999 Q 194.732 185.617 195.324 185.369 Q 195.916 185.121 196.451 185.121 Q 197.1 185.121 197.539 185.484 Q 197.979 185.846 197.979 186.687 L 197.979 208.996 L 202.257 208.996 Q 203.098 208.996 203.556 209.416 Q 204.014 209.836 204.014 210.638 Q 204.014 211.44 203.556 211.88 Q 203.098 212.319 202.257 212.319 Z" style="fill: rgba(0, 0, 0, 0.506);"/>
  </g>
</svg>