<?xml version="1.0" encoding="utf-8"?>
<svg viewBox="1397.365 -1.353 279.473 235.662" xmlns="http://www.w3.org/2000/svg">
  <g transform="matrix(0.9999999999999999, 0, 0, 0.9999999999999999, 1342.1789550781248, -23.536001205444364)">
    <rect y="22.183" width="279.473" height="235.662" style="fill: rgb(188, 188, 188);" x="55.186"/>
    <rect style="fill: rgb(138, 138, 138);" x="60.828" y="29.686" width="267.282" height="220.654" rx="2" ry="2"/>
    <rect style="fill: rgb(34, 158, 56);" x="68.267" y="36.823" width="253.312" height="206.382" rx="2" ry="2"/>
    <rect style="paint-order: fill; fill: rgb(50, 190, 80);" x="75.878" y="44.493" width="238.091" height="191.043" rx="2" ry="2"/>
    <path d="M 105.827 138.096 Q 100.987 138.096 97.607 136.296 Q 94.227 134.496 92.467 131.256 Q 90.707 128.016 90.707 123.696 Q 90.707 120.336 91.767 117.636 Q 92.827 114.936 94.827 112.996 Q 96.827 111.056 99.727 110.036 Q 102.627 109.016 106.307 109.016 Q 108.307 109.016 110.387 109.396 Q 112.467 109.776 114.467 110.816 Q 115.507 111.296 115.887 112.156 Q 116.267 113.016 116.127 113.956 Q 115.987 114.896 115.447 115.676 Q 114.907 116.456 113.987 116.716 Q 113.067 116.976 111.907 116.456 Q 110.707 115.896 109.307 115.596 Q 107.907 115.296 106.347 115.296 Q 103.667 115.296 101.887 116.256 Q 100.107 117.216 99.227 119.096 Q 98.347 120.976 98.347 123.696 Q 98.347 127.776 100.347 129.856 Q 102.347 131.936 106.267 131.936 Q 107.467 131.936 108.887 131.696 Q 110.307 131.456 111.747 131.016 L 110.387 133.776 L 110.387 126.936 L 107.587 126.936 Q 106.227 126.936 105.487 126.256 Q 104.747 125.576 104.747 124.336 Q 104.747 123.096 105.487 122.436 Q 106.227 121.776 107.587 121.776 L 113.507 121.776 Q 114.907 121.776 115.647 122.516 Q 116.387 123.256 116.387 124.656 L 116.387 133.496 Q 116.387 134.696 115.887 135.536 Q 115.387 136.376 114.307 136.736 Q 112.427 137.376 110.227 137.736 Q 108.027 138.096 105.827 138.096 Z" transform="matrix(1, 0, 0, 1, 0, -39.86491)"/>
    <path d="M 125.127 137.656 Q 123.247 137.656 122.267 136.676 Q 121.287 135.696 121.287 133.856 L 121.287 113.256 Q 121.287 111.416 122.267 110.436 Q 123.247 109.456 125.127 109.456 L 138.687 109.456 Q 140.127 109.456 140.847 110.176 Q 141.567 110.896 141.567 112.256 Q 141.567 113.656 140.847 114.396 Q 140.127 115.136 138.687 115.136 L 128.327 115.136 L 128.327 120.496 L 137.807 120.496 Q 139.207 120.496 139.947 121.216 Q 140.687 121.936 140.687 123.336 Q 140.687 124.736 139.947 125.456 Q 139.207 126.176 137.807 126.176 L 128.327 126.176 L 128.327 131.976 L 138.687 131.976 Q 140.127 131.976 140.847 132.716 Q 141.567 133.456 141.567 134.816 Q 141.567 136.216 140.847 136.936 Q 140.127 137.656 138.687 137.656 Z" transform="matrix(1, 0, 0, 1, 0, -39.86491)"/>
    <path d="M 156.373 138.016 Q 154.613 138.016 153.653 137.036 Q 152.693 136.056 152.693 134.296 L 152.693 115.456 L 146.413 115.456 Q 144.933 115.456 144.153 114.676 Q 143.373 113.896 143.373 112.456 Q 143.373 110.976 144.153 110.216 Q 144.933 109.456 146.413 109.456 L 166.333 109.456 Q 167.813 109.456 168.593 110.216 Q 169.373 110.976 169.373 112.456 Q 169.373 113.896 168.593 114.676 Q 167.813 115.456 166.333 115.456 L 160.053 115.456 L 160.053 134.296 Q 160.053 136.056 159.133 137.036 Q 158.213 138.016 156.373 138.016 Z" transform="matrix(1, 0, 0, 1, 0, -39.86491)"/>
    <path d="M 197.641 138.096 Q 192.801 138.096 189.421 136.296 Q 186.041 134.496 184.281 131.256 Q 182.521 128.016 182.521 123.696 Q 182.521 120.336 183.581 117.636 Q 184.641 114.936 186.641 112.996 Q 188.641 111.056 191.541 110.036 Q 194.441 109.016 198.121 109.016 Q 200.121 109.016 202.201 109.396 Q 204.281 109.776 206.281 110.816 Q 207.321 111.296 207.701 112.156 Q 208.081 113.016 207.941 113.956 Q 207.801 114.896 207.261 115.676 Q 206.721 116.456 205.801 116.716 Q 204.881 116.976 203.721 116.456 Q 202.521 115.896 201.121 115.596 Q 199.721 115.296 198.161 115.296 Q 195.481 115.296 193.701 116.256 Q 191.921 117.216 191.041 119.096 Q 190.161 120.976 190.161 123.696 Q 190.161 127.776 192.161 129.856 Q 194.161 131.936 198.081 131.936 Q 199.281 131.936 200.701 131.696 Q 202.121 131.456 203.561 131.016 L 202.201 133.776 L 202.201 126.936 L 199.401 126.936 Q 198.041 126.936 197.301 126.256 Q 196.561 125.576 196.561 124.336 Q 196.561 123.096 197.301 122.436 Q 198.041 121.776 199.401 121.776 L 205.321 121.776 Q 206.721 121.776 207.461 122.516 Q 208.201 123.256 208.201 124.656 L 208.201 133.496 Q 208.201 134.696 207.701 135.536 Q 207.201 136.376 206.121 136.736 Q 204.241 137.376 202.041 137.736 Q 199.841 138.096 197.641 138.096 Z" transform="matrix(1, 0, 0, 1, 0, -39.86491)"/>
    <path d="M 214.437 138.016 Q 213.197 138.016 212.357 137.436 Q 211.517 136.856 211.317 135.836 Q 211.117 134.816 211.677 133.536 L 221.637 112.096 Q 222.357 110.536 223.417 109.816 Q 224.477 109.096 225.837 109.096 Q 227.197 109.096 228.217 109.816 Q 229.237 110.536 229.997 112.096 L 239.957 133.536 Q 240.597 134.816 240.417 135.856 Q 240.237 136.896 239.417 137.456 Q 238.597 138.016 237.397 138.016 Q 235.797 138.016 234.937 137.296 Q 234.077 136.576 233.397 134.976 L 231.237 129.896 L 234.037 131.936 L 217.557 131.936 L 220.397 129.896 L 218.237 134.976 Q 217.517 136.576 216.757 137.296 Q 215.997 138.016 214.437 138.016 Z M 225.757 117.136 L 221.117 128.216 L 219.997 126.296 L 231.637 126.296 L 230.517 128.216 L 225.837 117.136 Z" transform="matrix(1, 0, 0, 1, 0, -39.86491)"/>
    <path d="M 247.018 138.016 Q 245.418 138.016 244.558 137.136 Q 243.698 136.256 243.698 134.656 L 243.698 112.456 Q 243.698 110.816 244.618 109.956 Q 245.538 109.096 247.218 109.096 Q 248.618 109.096 249.438 109.636 Q 250.258 110.176 250.938 111.416 L 259.538 126.856 L 258.138 126.856 L 266.698 111.416 Q 267.418 110.176 268.238 109.636 Q 269.058 109.096 270.458 109.096 Q 272.058 109.096 272.918 109.956 Q 273.778 110.816 273.778 112.456 L 273.778 134.656 Q 273.778 136.256 272.938 137.136 Q 272.098 138.016 270.458 138.016 Q 268.858 138.016 267.998 137.136 Q 267.138 136.256 267.138 134.656 L 267.138 120.896 L 267.978 120.896 L 261.538 132.096 Q 260.978 132.976 260.358 133.416 Q 259.738 133.856 258.698 133.856 Q 257.698 133.856 257.058 133.416 Q 256.418 132.976 255.898 132.096 L 249.418 120.856 L 250.338 120.856 L 250.338 134.656 Q 250.338 136.256 249.498 137.136 Q 248.658 138.016 247.018 138.016 Z" transform="matrix(1, 0, 0, 1, 0, -39.86491)"/>
    <path d="M 282.818 137.656 Q 280.938 137.656 279.958 136.676 Q 278.978 135.696 278.978 133.856 L 278.978 113.256 Q 278.978 111.416 279.958 110.436 Q 280.938 109.456 282.818 109.456 L 296.378 109.456 Q 297.818 109.456 298.538 110.176 Q 299.258 110.896 299.258 112.256 Q 299.258 113.656 298.538 114.396 Q 297.818 115.136 296.378 115.136 L 286.018 115.136 L 286.018 120.496 L 295.498 120.496 Q 296.898 120.496 297.638 121.216 Q 298.378 121.936 298.378 123.336 Q 298.378 124.736 297.638 125.456 Q 296.898 126.176 295.498 126.176 L 286.018 126.176 L 286.018 131.976 L 296.378 131.976 Q 297.818 131.976 298.538 132.716 Q 299.258 133.456 299.258 134.816 Q 299.258 136.216 298.538 136.936 Q 297.818 137.656 296.378 137.656 Z" transform="matrix(1, 0, 0, 1, 0, -39.86491)"/>
    <path d="M 91.864 178.016 Q 90.104 178.016 89.144 177.036 Q 88.184 176.056 88.184 174.296 L 88.184 153.176 Q 88.184 151.376 89.164 150.416 Q 90.144 149.456 91.904 149.456 L 101.744 149.456 Q 106.544 149.456 109.164 151.916 Q 111.784 154.376 111.784 158.696 Q 111.784 163.016 109.164 165.476 Q 106.544 167.936 101.744 167.936 L 95.544 167.936 L 95.544 174.296 Q 95.544 176.056 94.624 177.036 Q 93.704 178.016 91.864 178.016 Z M 95.544 162.296 L 100.464 162.296 Q 102.544 162.296 103.664 161.396 Q 104.784 160.496 104.784 158.696 Q 104.784 156.856 103.664 155.976 Q 102.544 155.096 100.464 155.096 L 95.544 155.096 Z" transform="matrix(1, 0, 0, 1, 0, -39.86491)"/>
    <path d="M 118.896 178.016 Q 117.136 178.016 116.176 177.036 Q 115.216 176.056 115.216 174.296 L 115.216 153.176 Q 115.216 151.376 116.196 150.416 Q 117.176 149.456 118.936 149.456 L 128.776 149.456 Q 133.576 149.456 136.196 151.796 Q 138.816 154.136 138.816 158.296 Q 138.816 160.976 137.636 162.956 Q 136.456 164.936 134.236 165.996 Q 132.016 167.056 128.776 167.056 L 129.096 166.336 L 131.016 166.336 Q 132.736 166.336 134.056 167.156 Q 135.376 167.976 136.256 169.656 L 138.256 173.256 Q 138.896 174.416 138.856 175.516 Q 138.816 176.616 137.996 177.316 Q 137.176 178.016 135.616 178.016 Q 134.056 178.016 133.076 177.376 Q 132.096 176.736 131.336 175.376 L 127.696 168.696 Q 127.216 167.816 126.476 167.476 Q 125.736 167.136 124.776 167.136 L 122.576 167.136 L 122.576 174.296 Q 122.576 176.056 121.656 177.036 Q 120.736 178.016 118.896 178.016 Z M 122.576 161.936 L 127.456 161.936 Q 129.576 161.936 130.696 161.096 Q 131.816 160.256 131.816 158.496 Q 131.816 156.816 130.696 155.956 Q 129.576 155.096 127.456 155.096 L 122.576 155.096 Z" transform="matrix(1, 0, 0, 1, 0, -39.86491)"/>
    <path d="M 156.848 178.096 Q 152.568 178.096 149.328 176.276 Q 146.088 174.456 144.308 171.176 Q 142.528 167.896 142.528 163.536 Q 142.528 160.256 143.548 157.576 Q 144.568 154.896 146.468 152.976 Q 148.368 151.056 151.008 150.036 Q 153.648 149.016 156.848 149.016 Q 161.128 149.016 164.348 150.816 Q 167.568 152.616 169.368 155.876 Q 171.168 159.136 171.168 163.536 Q 171.168 166.816 170.148 169.496 Q 169.128 172.176 167.228 174.116 Q 165.328 176.056 162.688 177.076 Q 160.048 178.096 156.848 178.096 Z M 156.848 171.936 Q 158.968 171.936 160.448 170.936 Q 161.928 169.936 162.728 168.056 Q 163.528 166.176 163.528 163.536 Q 163.528 159.576 161.768 157.376 Q 160.008 155.176 156.848 155.176 Q 154.768 155.176 153.268 156.156 Q 151.768 157.136 150.968 158.996 Q 150.168 160.856 150.168 163.536 Q 150.168 167.496 151.928 169.716 Q 153.688 171.936 156.848 171.936 Z" transform="matrix(1, 0, 0, 1, 0, -39.86491)"/>
    <path d="M 179.195 178.016 Q 177.435 178.016 176.475 177.036 Q 175.515 176.056 175.515 174.296 L 175.515 153.176 Q 175.515 151.376 176.495 150.416 Q 177.475 149.456 179.235 149.456 L 189.075 149.456 Q 193.875 149.456 196.495 151.916 Q 199.115 154.376 199.115 158.696 Q 199.115 163.016 196.495 165.476 Q 193.875 167.936 189.075 167.936 L 182.875 167.936 L 182.875 174.296 Q 182.875 176.056 181.955 177.036 Q 181.035 178.016 179.195 178.016 Z M 182.875 162.296 L 187.795 162.296 Q 189.875 162.296 190.995 161.396 Q 192.115 160.496 192.115 158.696 Q 192.115 156.856 190.995 155.976 Q 189.875 155.096 187.795 155.096 L 182.875 155.096 Z" transform="matrix(1, 0, 0, 1, 0, -39.86491)"/>
    <path d="M 206.387 177.656 Q 204.507 177.656 203.527 176.676 Q 202.547 175.696 202.547 173.856 L 202.547 153.256 Q 202.547 151.416 203.527 150.436 Q 204.507 149.456 206.387 149.456 L 219.947 149.456 Q 221.387 149.456 222.107 150.176 Q 222.827 150.896 222.827 152.256 Q 222.827 153.656 222.107 154.396 Q 221.387 155.136 219.947 155.136 L 209.587 155.136 L 209.587 160.496 L 219.067 160.496 Q 220.467 160.496 221.207 161.216 Q 221.947 161.936 221.947 163.336 Q 221.947 164.736 221.207 165.456 Q 220.467 166.176 219.067 166.176 L 209.587 166.176 L 209.587 171.976 L 219.947 171.976 Q 221.387 171.976 222.107 172.716 Q 222.827 173.456 222.827 174.816 Q 222.827 176.216 222.107 176.936 Q 221.387 177.656 219.947 177.656 Z" transform="matrix(1, 0, 0, 1, 0, -39.86491)"/>
    <path d="M 230.79 178.016 Q 229.03 178.016 228.07 177.036 Q 227.11 176.056 227.11 174.296 L 227.11 153.176 Q 227.11 151.376 228.09 150.416 Q 229.07 149.456 230.83 149.456 L 240.67 149.456 Q 245.47 149.456 248.09 151.796 Q 250.71 154.136 250.71 158.296 Q 250.71 160.976 249.53 162.956 Q 248.35 164.936 246.13 165.996 Q 243.91 167.056 240.67 167.056 L 240.99 166.336 L 242.91 166.336 Q 244.63 166.336 245.95 167.156 Q 247.27 167.976 248.15 169.656 L 250.15 173.256 Q 250.79 174.416 250.75 175.516 Q 250.71 176.616 249.89 177.316 Q 249.07 178.016 247.51 178.016 Q 245.95 178.016 244.97 177.376 Q 243.99 176.736 243.23 175.376 L 239.59 168.696 Q 239.11 167.816 238.37 167.476 Q 237.63 167.136 236.67 167.136 L 234.47 167.136 L 234.47 174.296 Q 234.47 176.056 233.55 177.036 Q 232.63 178.016 230.79 178.016 Z M 234.47 161.936 L 239.35 161.936 Q 241.47 161.936 242.59 161.096 Q 243.71 160.256 243.71 158.496 Q 243.71 156.816 242.59 155.956 Q 241.47 155.096 239.35 155.096 L 234.47 155.096 Z" transform="matrix(1, 0, 0, 1, 0, -39.86491)"/>
    <path d="M 264.852 178.016 Q 263.092 178.016 262.132 177.036 Q 261.172 176.056 261.172 174.296 L 261.172 155.456 L 254.892 155.456 Q 253.412 155.456 252.632 154.676 Q 251.852 153.896 251.852 152.456 Q 251.852 150.976 252.632 150.216 Q 253.412 149.456 254.892 149.456 L 274.812 149.456 Q 276.292 149.456 277.072 150.216 Q 277.852 150.976 277.852 152.456 Q 277.852 153.896 277.072 154.676 Q 276.292 155.456 274.812 155.456 L 268.532 155.456 L 268.532 174.296 Q 268.532 176.056 267.612 177.036 Q 266.692 178.016 264.852 178.016 Z" transform="matrix(1, 0, 0, 1, 0, -39.86491)"/>
    <path d="M 291.29 178.016 Q 289.53 178.016 288.57 177.036 Q 287.61 176.056 287.61 174.216 L 287.61 163.256 L 289.13 167.296 L 279.93 154.056 Q 279.25 153.096 279.35 151.916 Q 279.45 150.736 280.31 149.916 Q 281.17 149.096 282.77 149.096 Q 283.89 149.096 284.81 149.636 Q 285.73 150.176 286.53 151.456 L 292.13 159.696 L 290.69 159.696 L 296.29 151.416 Q 297.13 150.136 298.01 149.616 Q 298.89 149.096 300.09 149.096 Q 301.61 149.096 302.45 149.856 Q 303.29 150.616 303.35 151.776 Q 303.41 152.936 302.61 154.136 L 293.49 167.296 L 294.97 163.256 L 294.97 174.216 Q 294.97 178.016 291.29 178.016 Z" transform="matrix(1, 0, 0, 1, 0, -39.86491)"/>
    <path d="M 93.793 212.586 Q 92.914 212.586 92.418 212.09 Q 91.921 211.593 91.921 210.676 L 91.921 187.107 Q 91.921 186.152 92.398 185.636 Q 92.876 185.121 93.678 185.121 Q 94.366 185.121 94.729 185.369 Q 95.092 185.617 95.588 186.267 L 111.327 207.009 L 110.372 207.009 L 110.372 186.992 Q 110.372 186.114 110.849 185.617 Q 111.327 185.121 112.205 185.121 Q 113.122 185.121 113.58 185.617 Q 114.039 186.114 114.039 186.992 L 114.039 210.715 Q 114.039 211.593 113.599 212.09 Q 113.16 212.586 112.434 212.586 Q 111.747 212.586 111.307 212.319 Q 110.868 212.052 110.372 211.402 L 94.71 190.698 L 95.588 190.698 L 95.588 210.676 Q 95.588 211.593 95.13 212.09 Q 94.671 212.586 93.793 212.586 Z" style="fill: rgba(0, 0, 0, 0.506);"/>
    <path d="M 126.523 212.663 Q 124.269 212.663 122.761 211.822 Q 121.252 210.982 120.507 209.32 Q 119.762 207.659 119.762 205.137 L 119.762 195.358 Q 119.762 194.365 120.258 193.888 Q 120.755 193.41 121.672 193.41 Q 122.589 193.41 123.104 193.888 Q 123.62 194.365 123.62 195.358 L 123.62 205.176 Q 123.62 207.429 124.537 208.499 Q 125.454 209.569 127.44 209.569 Q 129.617 209.569 130.974 208.098 Q 132.33 206.627 132.33 204.221 L 132.33 195.358 Q 132.33 194.365 132.826 193.888 Q 133.323 193.41 134.278 193.41 Q 135.195 193.41 135.691 193.888 Q 136.188 194.365 136.188 195.358 L 136.188 210.638 Q 136.188 212.586 134.316 212.586 Q 133.437 212.586 132.941 212.071 Q 132.444 211.555 132.444 210.638 L 132.444 207.391 L 132.941 208.232 Q 132.177 210.371 130.496 211.517 Q 128.815 212.663 126.523 212.663 Z" style="fill: rgba(0, 0, 0, 0.506);"/>
    <path d="M 143.582 212.586 Q 142.665 212.586 142.169 212.071 Q 141.672 211.555 141.672 210.638 L 141.672 195.358 Q 141.672 194.403 142.169 193.907 Q 142.665 193.41 143.544 193.41 Q 144.461 193.41 144.938 193.907 Q 145.416 194.403 145.416 195.358 L 145.416 198.491 L 144.996 197.65 Q 145.76 195.626 147.364 194.48 Q 148.968 193.334 151.222 193.334 Q 153.552 193.334 155.004 194.441 Q 156.456 195.549 156.99 197.841 L 156.456 197.841 Q 157.181 195.74 158.939 194.537 Q 160.696 193.334 163.026 193.334 Q 165.165 193.334 166.54 194.155 Q 167.916 194.976 168.603 196.638 Q 169.291 198.3 169.291 200.821 L 169.291 210.638 Q 169.291 211.555 168.775 212.071 Q 168.259 212.586 167.343 212.586 Q 166.426 212.586 165.929 212.071 Q 165.433 211.555 165.433 210.638 L 165.433 201.012 Q 165.433 198.643 164.611 197.536 Q 163.79 196.428 161.918 196.428 Q 159.817 196.428 158.595 197.879 Q 157.372 199.331 157.372 201.89 L 157.372 210.638 Q 157.372 211.555 156.876 212.071 Q 156.379 212.586 155.462 212.586 Q 154.546 212.586 154.03 212.071 Q 153.514 211.555 153.514 210.638 L 153.514 201.012 Q 153.514 198.643 152.712 197.536 Q 151.91 196.428 150.038 196.428 Q 147.937 196.428 146.734 197.879 Q 145.53 199.331 145.53 201.89 L 145.53 210.638 Q 145.53 212.586 143.582 212.586 Z" style="fill: rgba(0, 0, 0, 0.506);"/>
    <path d="M 177.081 212.586 Q 176.126 212.586 175.611 212.052 Q 175.095 211.517 175.095 210.562 L 175.095 187.413 Q 175.095 186.419 175.63 185.904 Q 176.164 185.388 177.119 185.388 L 186.249 185.388 Q 190.604 185.388 192.972 187.546 Q 195.341 189.705 195.341 193.601 Q 195.341 197.536 192.972 199.694 Q 190.604 201.852 186.249 201.852 L 179.068 201.852 L 179.068 210.562 Q 179.068 211.517 178.571 212.052 Q 178.074 212.586 177.081 212.586 Z M 179.068 198.682 L 185.676 198.682 Q 188.541 198.682 190.012 197.402 Q 191.483 196.122 191.483 193.601 Q 191.483 191.118 190.012 189.838 Q 188.541 188.559 185.676 188.559 L 179.068 188.559 Z" style="fill: rgba(0, 0, 0, 0.506);"/>
    <path d="M 205.188 212.663 Q 202.209 212.663 200.7 210.925 Q 199.191 209.187 199.191 205.901 L 199.191 187.069 Q 199.191 186.114 199.688 185.617 Q 200.184 185.121 201.101 185.121 Q 202.018 185.121 202.533 185.617 Q 203.049 186.114 203.049 187.069 L 203.049 205.672 Q 203.049 207.582 203.832 208.518 Q 204.615 209.454 206.105 209.454 Q 206.449 209.454 206.716 209.435 Q 206.984 209.416 207.251 209.378 Q 207.71 209.339 207.901 209.626 Q 208.092 209.912 208.092 210.791 Q 208.092 211.593 207.748 212.033 Q 207.404 212.472 206.64 212.586 Q 206.296 212.625 205.914 212.644 Q 205.532 212.663 205.188 212.663 Z" style="fill: rgba(0, 0, 0, 0.506);"/>
    <path d="M 216.838 212.663 Q 214.89 212.663 213.343 211.899 Q 211.795 211.135 210.917 209.836 Q 210.038 208.537 210.038 206.895 Q 210.038 204.832 211.089 203.629 Q 212.139 202.425 214.565 201.91 Q 216.991 201.394 221.116 201.394 L 222.912 201.394 L 222.912 203.762 L 221.154 203.762 Q 218.404 203.762 216.8 204.03 Q 215.195 204.297 214.527 204.927 Q 213.858 205.558 213.858 206.665 Q 213.858 208.117 214.851 209.015 Q 215.845 209.912 217.602 209.912 Q 219.015 209.912 220.085 209.244 Q 221.154 208.575 221.785 207.429 Q 222.415 206.283 222.415 204.794 L 222.415 200.401 Q 222.415 198.223 221.498 197.268 Q 220.581 196.313 218.48 196.313 Q 217.258 196.313 215.94 196.619 Q 214.622 196.924 213.209 197.65 Q 212.559 197.956 212.101 197.841 Q 211.643 197.727 211.375 197.326 Q 211.108 196.924 211.089 196.447 Q 211.07 195.969 211.318 195.511 Q 211.566 195.053 212.177 194.823 Q 213.858 194.021 215.501 193.677 Q 217.143 193.334 218.595 193.334 Q 221.154 193.334 222.816 194.136 Q 224.478 194.938 225.28 196.581 Q 226.082 198.223 226.082 200.821 L 226.082 210.638 Q 226.082 211.555 225.624 212.071 Q 225.165 212.586 224.287 212.586 Q 223.446 212.586 222.95 212.071 Q 222.453 211.555 222.453 210.638 L 222.453 208.155 L 222.797 208.155 Q 222.491 209.569 221.67 210.581 Q 220.849 211.593 219.626 212.128 Q 218.404 212.663 216.838 212.663 Z" style="fill: rgba(0, 0, 0, 0.506);"/>
    <path d="M 235.585 219.462 Q 234.897 219.462 234.458 219.099 Q 234.018 218.737 233.961 218.145 Q 233.904 217.552 234.171 216.865 L 236.769 211.02 L 236.769 212.663 L 229.625 196.046 Q 229.358 195.358 229.434 194.747 Q 229.511 194.136 230.007 193.773 Q 230.504 193.41 231.344 193.41 Q 232.07 193.41 232.49 193.754 Q 232.911 194.098 233.254 194.938 L 239.023 209.187 L 237.953 209.187 L 243.798 194.938 Q 244.141 194.059 244.6 193.735 Q 245.058 193.41 245.86 193.41 Q 246.548 193.41 246.949 193.773 Q 247.35 194.136 247.446 194.728 Q 247.541 195.32 247.236 196.008 L 237.686 217.973 Q 237.304 218.851 236.826 219.157 Q 236.349 219.462 235.585 219.462 Z" style="fill: rgba(0, 0, 0, 0.506);"/>
    <path d="M 259.456 212.663 Q 256.4 212.663 254.203 211.498 Q 252.007 210.333 250.803 208.174 Q 249.6 206.016 249.6 203.036 Q 249.6 200.133 250.784 197.956 Q 251.968 195.778 254.031 194.556 Q 256.094 193.334 258.73 193.334 Q 260.678 193.334 262.206 193.964 Q 263.734 194.594 264.823 195.798 Q 265.911 197.001 266.465 198.72 Q 267.019 200.439 267.019 202.578 Q 267.019 203.227 266.637 203.552 Q 266.255 203.877 265.491 203.877 L 252.656 203.877 L 252.656 201.508 L 264.422 201.508 L 263.772 202.043 Q 263.772 200.133 263.218 198.796 Q 262.664 197.459 261.576 196.753 Q 260.487 196.046 258.883 196.046 Q 257.087 196.046 255.846 196.886 Q 254.604 197.727 253.955 199.216 Q 253.305 200.706 253.305 202.693 L 253.305 202.922 Q 253.305 206.283 254.891 207.983 Q 256.476 209.683 259.494 209.683 Q 260.64 209.683 261.919 209.378 Q 263.199 209.072 264.345 208.346 Q 264.995 207.964 265.51 208.002 Q 266.026 208.041 266.351 208.346 Q 266.675 208.652 266.752 209.11 Q 266.828 209.569 266.599 210.046 Q 266.37 210.524 265.797 210.906 Q 264.498 211.784 262.779 212.224 Q 261.06 212.663 259.456 212.663 Z" style="fill: rgba(0, 0, 0, 0.506);"/>
    <path d="M 273.172 212.586 Q 272.217 212.586 271.721 212.071 Q 271.224 211.555 271.224 210.638 L 271.224 195.358 Q 271.224 194.403 271.721 193.907 Q 272.217 193.41 273.096 193.41 Q 274.013 193.41 274.49 193.907 Q 274.968 194.403 274.968 195.358 L 274.968 198.147 L 274.586 198.147 Q 275.197 195.855 276.839 194.671 Q 278.482 193.486 281.041 193.295 Q 281.729 193.257 282.13 193.639 Q 282.531 194.021 282.569 194.823 Q 282.646 195.626 282.226 196.103 Q 281.805 196.581 280.927 196.657 L 280.201 196.733 Q 277.718 196.963 276.419 198.3 Q 275.12 199.637 275.12 201.967 L 275.12 210.638 Q 275.12 211.555 274.643 212.071 Q 274.165 212.586 273.172 212.586 Z" style="fill: rgba(0, 0, 0, 0.506);"/>
    <path d="M 291.803 212.663 Q 290.123 212.663 288.346 212.281 Q 286.57 211.899 285.08 210.982 Q 284.584 210.638 284.393 210.218 Q 284.202 209.798 284.259 209.359 Q 284.316 208.919 284.603 208.595 Q 284.889 208.27 285.328 208.193 Q 285.768 208.117 286.264 208.384 Q 287.754 209.225 289.129 209.55 Q 290.505 209.874 291.842 209.874 Q 293.866 209.874 294.898 209.148 Q 295.929 208.423 295.929 207.2 Q 295.929 206.207 295.241 205.653 Q 294.554 205.099 293.179 204.794 L 289.55 204.068 Q 287.181 203.571 285.959 202.311 Q 284.736 201.05 284.736 199.102 Q 284.736 197.345 285.691 196.046 Q 286.646 194.747 288.365 194.04 Q 290.084 193.334 292.338 193.334 Q 294.019 193.334 295.509 193.754 Q 296.999 194.174 298.259 195.014 Q 298.756 195.282 298.909 195.721 Q 299.061 196.16 298.966 196.581 Q 298.87 197.001 298.565 197.326 Q 298.259 197.65 297.82 197.708 Q 297.381 197.765 296.846 197.497 Q 295.7 196.772 294.573 196.466 Q 293.446 196.16 292.338 196.16 Q 290.314 196.16 289.301 196.905 Q 288.289 197.65 288.289 198.911 Q 288.289 199.866 288.9 200.477 Q 289.511 201.088 290.81 201.356 L 294.439 202.081 Q 296.922 202.578 298.202 203.762 Q 299.482 204.946 299.482 206.971 Q 299.482 209.607 297.381 211.135 Q 295.28 212.663 291.803 212.663 Z" style="fill: rgba(0, 0, 0, 0.506);"/>
  </g>
</svg>