<?xml version="1.0" encoding="utf-8"?>
<svg viewBox="0 234.309 279.473 235.662" xmlns="http://www.w3.org/2000/svg">
  <g transform="matrix(0.9999999999999999, 0, 0, 0.9999999999999999, -55.185993194580135, 212.12599182128903)">
    <rect y="22.183" width="279.473" height="235.662" style="fill: rgb(188, 188, 188);" x="55.186"/>
    <rect style="fill: rgb(138, 138, 138);" x="60.828" y="29.686" width="267.282" height="220.654" rx="2" ry="2"/>
    <rect style="fill: rgb(86, 170, 74);" x="68.267" y="36.823" width="253.312" height="206.382" rx="2" ry="2"/>
    <rect style="paint-order: fill; fill: rgb(117, 201, 103);" x="75.878" y="44.493" width="238.091" height="191.043" rx="2" ry="2"/>
    <path d="M 123.577 138.096 Q 118.737 138.096 115.357 136.296 Q 111.977 134.496 110.217 131.256 Q 108.457 128.016 108.457 123.696 Q 108.457 120.336 109.517 117.636 Q 110.577 114.936 112.577 112.996 Q 114.577 111.056 117.477 110.036 Q 120.377 109.016 124.057 109.016 Q 126.057 109.016 128.137 109.396 Q 130.217 109.776 132.217 110.816 Q 133.257 111.296 133.637 112.156 Q 134.017 113.016 133.877 113.956 Q 133.737 114.896 133.197 115.676 Q 132.657 116.456 131.737 116.716 Q 130.817 116.976 129.657 116.456 Q 128.457 115.896 127.057 115.596 Q 125.657 115.296 124.097 115.296 Q 121.417 115.296 119.637 116.256 Q 117.857 117.216 116.977 119.096 Q 116.097 120.976 116.097 123.696 Q 116.097 127.776 118.097 129.856 Q 120.097 131.936 124.017 131.936 Q 125.217 131.936 126.637 131.696 Q 128.057 131.456 129.497 131.016 L 128.137 133.776 L 128.137 126.936 L 125.337 126.936 Q 123.977 126.936 123.237 126.256 Q 122.497 125.576 122.497 124.336 Q 122.497 123.096 123.237 122.436 Q 123.977 121.776 125.337 121.776 L 131.257 121.776 Q 132.657 121.776 133.397 122.516 Q 134.137 123.256 134.137 124.656 L 134.137 133.496 Q 134.137 134.696 133.637 135.536 Q 133.137 136.376 132.057 136.736 Q 130.177 137.376 127.977 137.736 Q 125.777 138.096 123.577 138.096 Z" transform="matrix(1, 0, 0, 1, 0, -39.86491)"/>
    <path d="M 142.877 137.656 Q 140.997 137.656 140.017 136.676 Q 139.037 135.696 139.037 133.856 L 139.037 113.256 Q 139.037 111.416 140.017 110.436 Q 140.997 109.456 142.877 109.456 L 156.437 109.456 Q 157.877 109.456 158.597 110.176 Q 159.317 110.896 159.317 112.256 Q 159.317 113.656 158.597 114.396 Q 157.877 115.136 156.437 115.136 L 146.077 115.136 L 146.077 120.496 L 155.557 120.496 Q 156.957 120.496 157.697 121.216 Q 158.437 121.936 158.437 123.336 Q 158.437 124.736 157.697 125.456 Q 156.957 126.176 155.557 126.176 L 146.077 126.176 L 146.077 131.976 L 156.437 131.976 Q 157.877 131.976 158.597 132.716 Q 159.317 133.456 159.317 134.816 Q 159.317 136.216 158.597 136.936 Q 157.877 137.656 156.437 137.656 Z" transform="matrix(1, 0, 0, 1, 0, -39.86491)"/>
    <path d="M 174.123 138.016 Q 172.363 138.016 171.403 137.036 Q 170.443 136.056 170.443 134.296 L 170.443 115.456 L 164.163 115.456 Q 162.683 115.456 161.903 114.676 Q 161.123 113.896 161.123 112.456 Q 161.123 110.976 161.903 110.216 Q 162.683 109.456 164.163 109.456 L 184.083 109.456 Q 185.563 109.456 186.343 110.216 Q 187.123 110.976 187.123 112.456 Q 187.123 113.896 186.343 114.676 Q 185.563 115.456 184.083 115.456 L 177.803 115.456 L 177.803 134.296 Q 177.803 136.056 176.883 137.036 Q 175.963 138.016 174.123 138.016 Z" transform="matrix(1, 0, 0, 1, 0, -39.86491)"/>
    <path d="M 204.432 138.016 Q 202.752 138.016 201.872 137.136 Q 200.992 136.256 200.992 134.536 L 200.992 112.736 Q 200.992 110.976 201.872 110.036 Q 202.752 109.096 204.192 109.096 Q 205.472 109.096 206.192 109.576 Q 206.912 110.056 207.792 111.176 L 220.472 127.016 L 219.352 127.016 L 219.352 112.536 Q 219.352 110.856 220.212 109.976 Q 221.072 109.096 222.752 109.096 Q 224.432 109.096 225.292 109.976 Q 226.152 110.856 226.152 112.536 L 226.152 134.696 Q 226.152 136.216 225.352 137.116 Q 224.552 138.016 223.192 138.016 Q 221.832 138.016 221.052 137.516 Q 220.272 137.016 219.392 135.936 L 206.712 120.056 L 207.832 120.056 L 207.832 134.536 Q 207.832 136.256 206.972 137.136 Q 206.112 138.016 204.432 138.016 Z" transform="matrix(1, 0, 0, 1, 0, -39.86491)"/>
    <path d="M 234.985 138.016 Q 233.225 138.016 232.265 137.036 Q 231.305 136.056 231.305 134.296 L 231.305 113.176 Q 231.305 111.376 232.285 110.416 Q 233.265 109.456 235.025 109.456 L 244.865 109.456 Q 249.665 109.456 252.285 111.916 Q 254.905 114.376 254.905 118.696 Q 254.905 123.016 252.285 125.476 Q 249.665 127.936 244.865 127.936 L 238.665 127.936 L 238.665 134.296 Q 238.665 136.056 237.745 137.036 Q 236.825 138.016 234.985 138.016 Z M 238.665 122.296 L 243.585 122.296 Q 245.665 122.296 246.785 121.396 Q 247.905 120.496 247.905 118.696 Q 247.905 116.856 246.785 115.976 Q 245.665 115.096 243.585 115.096 L 238.665 115.096 Z" transform="matrix(1, 0, 0, 1, 0, -39.86491)"/>
    <path d="M 272.499 138.096 Q 267.819 138.096 264.459 136.296 Q 261.099 134.496 259.319 131.216 Q 257.539 127.936 257.539 123.536 Q 257.539 120.256 258.559 117.576 Q 259.579 114.896 261.519 112.976 Q 263.459 111.056 266.239 110.036 Q 269.019 109.016 272.499 109.016 Q 274.339 109.016 276.319 109.436 Q 278.299 109.856 279.819 110.696 Q 280.939 111.296 281.379 112.216 Q 281.819 113.136 281.679 114.096 Q 281.539 115.056 280.979 115.816 Q 280.419 116.576 279.539 116.836 Q 278.659 117.096 277.619 116.576 Q 276.419 116.016 275.239 115.716 Q 274.059 115.416 272.779 115.416 Q 270.299 115.416 268.639 116.356 Q 266.979 117.296 266.139 119.096 Q 265.299 120.896 265.299 123.536 Q 265.299 126.176 266.139 127.996 Q 266.979 129.816 268.639 130.756 Q 270.299 131.696 272.779 131.696 Q 273.819 131.696 275.019 131.436 Q 276.219 131.176 277.379 130.616 Q 278.579 130.096 279.519 130.336 Q 280.459 130.576 281.039 131.296 Q 281.619 132.016 281.779 132.956 Q 281.939 133.896 281.519 134.816 Q 281.099 135.736 280.059 136.296 Q 278.659 137.136 276.599 137.616 Q 274.539 138.096 272.499 138.096 Z" transform="matrix(1, 0, 0, 1, 0, -39.86491)"/>
    <path d="M 91.864 178.016 Q 90.104 178.016 89.144 177.036 Q 88.184 176.056 88.184 174.296 L 88.184 153.176 Q 88.184 151.376 89.164 150.416 Q 90.144 149.456 91.904 149.456 L 101.744 149.456 Q 106.544 149.456 109.164 151.916 Q 111.784 154.376 111.784 158.696 Q 111.784 163.016 109.164 165.476 Q 106.544 167.936 101.744 167.936 L 95.544 167.936 L 95.544 174.296 Q 95.544 176.056 94.624 177.036 Q 93.704 178.016 91.864 178.016 Z M 95.544 162.296 L 100.464 162.296 Q 102.544 162.296 103.664 161.396 Q 104.784 160.496 104.784 158.696 Q 104.784 156.856 103.664 155.976 Q 102.544 155.096 100.464 155.096 L 95.544 155.096 Z" transform="matrix(1, 0, 0, 1, 0, -39.86491)"/>
    <path d="M 118.896 178.016 Q 117.136 178.016 116.176 177.036 Q 115.216 176.056 115.216 174.296 L 115.216 153.176 Q 115.216 151.376 116.196 150.416 Q 117.176 149.456 118.936 149.456 L 128.776 149.456 Q 133.576 149.456 136.196 151.796 Q 138.816 154.136 138.816 158.296 Q 138.816 160.976 137.636 162.956 Q 136.456 164.936 134.236 165.996 Q 132.016 167.056 128.776 167.056 L 129.096 166.336 L 131.016 166.336 Q 132.736 166.336 134.056 167.156 Q 135.376 167.976 136.256 169.656 L 138.256 173.256 Q 138.896 174.416 138.856 175.516 Q 138.816 176.616 137.996 177.316 Q 137.176 178.016 135.616 178.016 Q 134.056 178.016 133.076 177.376 Q 132.096 176.736 131.336 175.376 L 127.696 168.696 Q 127.216 167.816 126.476 167.476 Q 125.736 167.136 124.776 167.136 L 122.576 167.136 L 122.576 174.296 Q 122.576 176.056 121.656 177.036 Q 120.736 178.016 118.896 178.016 Z M 122.576 161.936 L 127.456 161.936 Q 129.576 161.936 130.696 161.096 Q 131.816 160.256 131.816 158.496 Q 131.816 156.816 130.696 155.956 Q 129.576 155.096 127.456 155.096 L 122.576 155.096 Z" transform="matrix(1, 0, 0, 1, 0, -39.86491)"/>
    <path d="M 156.848 178.096 Q 152.568 178.096 149.328 176.276 Q 146.088 174.456 144.308 171.176 Q 142.528 167.896 142.528 163.536 Q 142.528 160.256 143.548 157.576 Q 144.568 154.896 146.468 152.976 Q 148.368 151.056 151.008 150.036 Q 153.648 149.016 156.848 149.016 Q 161.128 149.016 164.348 150.816 Q 167.568 152.616 169.368 155.876 Q 171.168 159.136 171.168 163.536 Q 171.168 166.816 170.148 169.496 Q 169.128 172.176 167.228 174.116 Q 165.328 176.056 162.688 177.076 Q 160.048 178.096 156.848 178.096 Z M 156.848 171.936 Q 158.968 171.936 160.448 170.936 Q 161.928 169.936 162.728 168.056 Q 163.528 166.176 163.528 163.536 Q 163.528 159.576 161.768 157.376 Q 160.008 155.176 156.848 155.176 Q 154.768 155.176 153.268 156.156 Q 151.768 157.136 150.968 158.996 Q 150.168 160.856 150.168 163.536 Q 150.168 167.496 151.928 169.716 Q 153.688 171.936 156.848 171.936 Z" transform="matrix(1, 0, 0, 1, 0, -39.86491)"/>
    <path d="M 179.195 178.016 Q 177.435 178.016 176.475 177.036 Q 175.515 176.056 175.515 174.296 L 175.515 153.176 Q 175.515 151.376 176.495 150.416 Q 177.475 149.456 179.235 149.456 L 189.075 149.456 Q 193.875 149.456 196.495 151.916 Q 199.115 154.376 199.115 158.696 Q 199.115 163.016 196.495 165.476 Q 193.875 167.936 189.075 167.936 L 182.875 167.936 L 182.875 174.296 Q 182.875 176.056 181.955 177.036 Q 181.035 178.016 179.195 178.016 Z M 182.875 162.296 L 187.795 162.296 Q 189.875 162.296 190.995 161.396 Q 192.115 160.496 192.115 158.696 Q 192.115 156.856 190.995 155.976 Q 189.875 155.096 187.795 155.096 L 182.875 155.096 Z" transform="matrix(1, 0, 0, 1, 0, -39.86491)"/>
    <path d="M 206.387 177.656 Q 204.507 177.656 203.527 176.676 Q 202.547 175.696 202.547 173.856 L 202.547 153.256 Q 202.547 151.416 203.527 150.436 Q 204.507 149.456 206.387 149.456 L 219.947 149.456 Q 221.387 149.456 222.107 150.176 Q 222.827 150.896 222.827 152.256 Q 222.827 153.656 222.107 154.396 Q 221.387 155.136 219.947 155.136 L 209.587 155.136 L 209.587 160.496 L 219.067 160.496 Q 220.467 160.496 221.207 161.216 Q 221.947 161.936 221.947 163.336 Q 221.947 164.736 221.207 165.456 Q 220.467 166.176 219.067 166.176 L 209.587 166.176 L 209.587 171.976 L 219.947 171.976 Q 221.387 171.976 222.107 172.716 Q 222.827 173.456 222.827 174.816 Q 222.827 176.216 222.107 176.936 Q 221.387 177.656 219.947 177.656 Z" transform="matrix(1, 0, 0, 1, 0, -39.86491)"/>
    <path d="M 230.79 178.016 Q 229.03 178.016 228.07 177.036 Q 227.11 176.056 227.11 174.296 L 227.11 153.176 Q 227.11 151.376 228.09 150.416 Q 229.07 149.456 230.83 149.456 L 240.67 149.456 Q 245.47 149.456 248.09 151.796 Q 250.71 154.136 250.71 158.296 Q 250.71 160.976 249.53 162.956 Q 248.35 164.936 246.13 165.996 Q 243.91 167.056 240.67 167.056 L 240.99 166.336 L 242.91 166.336 Q 244.63 166.336 245.95 167.156 Q 247.27 167.976 248.15 169.656 L 250.15 173.256 Q 250.79 174.416 250.75 175.516 Q 250.71 176.616 249.89 177.316 Q 249.07 178.016 247.51 178.016 Q 245.95 178.016 244.97 177.376 Q 243.99 176.736 243.23 175.376 L 239.59 168.696 Q 239.11 167.816 238.37 167.476 Q 237.63 167.136 236.67 167.136 L 234.47 167.136 L 234.47 174.296 Q 234.47 176.056 233.55 177.036 Q 232.63 178.016 230.79 178.016 Z M 234.47 161.936 L 239.35 161.936 Q 241.47 161.936 242.59 161.096 Q 243.71 160.256 243.71 158.496 Q 243.71 156.816 242.59 155.956 Q 241.47 155.096 239.35 155.096 L 234.47 155.096 Z" transform="matrix(1, 0, 0, 1, 0, -39.86491)"/>
    <path d="M 264.852 178.016 Q 263.092 178.016 262.132 177.036 Q 261.172 176.056 261.172 174.296 L 261.172 155.456 L 254.892 155.456 Q 253.412 155.456 252.632 154.676 Q 251.852 153.896 251.852 152.456 Q 251.852 150.976 252.632 150.216 Q 253.412 149.456 254.892 149.456 L 274.812 149.456 Q 276.292 149.456 277.072 150.216 Q 277.852 150.976 277.852 152.456 Q 277.852 153.896 277.072 154.676 Q 276.292 155.456 274.812 155.456 L 268.532 155.456 L 268.532 174.296 Q 268.532 176.056 267.612 177.036 Q 266.692 178.016 264.852 178.016 Z" transform="matrix(1, 0, 0, 1, 0, -39.86491)"/>
    <path d="M 291.29 178.016 Q 289.53 178.016 288.57 177.036 Q 287.61 176.056 287.61 174.216 L 287.61 163.256 L 289.13 167.296 L 279.93 154.056 Q 279.25 153.096 279.35 151.916 Q 279.45 150.736 280.31 149.916 Q 281.17 149.096 282.77 149.096 Q 283.89 149.096 284.81 149.636 Q 285.73 150.176 286.53 151.456 L 292.13 159.696 L 290.69 159.696 L 296.29 151.416 Q 297.13 150.136 298.01 149.616 Q 298.89 149.096 300.09 149.096 Q 301.61 149.096 302.45 149.856 Q 303.29 150.616 303.35 151.776 Q 303.41 152.936 302.61 154.136 L 293.49 167.296 L 294.97 163.256 L 294.97 174.216 Q 294.97 178.016 291.29 178.016 Z" transform="matrix(1, 0, 0, 1, 0, -39.86491)"/>
    <path d="M 141.112 212.586 Q 140.157 212.586 139.641 212.052 Q 139.125 211.517 139.125 210.562 L 139.125 187.145 Q 139.125 186.152 139.641 185.636 Q 140.157 185.121 141.112 185.121 Q 142.067 185.121 142.582 185.636 Q 143.098 186.152 143.098 187.145 L 143.098 197.001 L 158.187 197.001 L 158.187 187.145 Q 158.187 186.152 158.703 185.636 Q 159.218 185.121 160.173 185.121 Q 161.128 185.121 161.625 185.636 Q 162.122 186.152 162.122 187.145 L 162.122 210.562 Q 162.122 211.517 161.625 212.052 Q 161.128 212.586 160.173 212.586 Q 159.218 212.586 158.703 212.052 Q 158.187 211.517 158.187 210.562 L 158.187 200.324 L 143.098 200.324 L 143.098 210.562 Q 143.098 211.517 142.601 212.052 Q 142.105 212.586 141.112 212.586 Z" style="fill: rgba(0, 0, 0, 0.506);"/>
    <path d="M 176.735 212.663 Q 173.679 212.663 171.482 211.498 Q 169.286 210.333 168.083 208.174 Q 166.879 206.016 166.879 203.036 Q 166.879 200.133 168.063 197.956 Q 169.248 195.778 171.31 194.556 Q 173.373 193.334 176.009 193.334 Q 177.957 193.334 179.485 193.964 Q 181.013 194.594 182.102 195.798 Q 183.191 197.001 183.745 198.72 Q 184.298 200.439 184.298 202.578 Q 184.298 203.227 183.916 203.552 Q 183.534 203.877 182.77 203.877 L 169.935 203.877 L 169.935 201.508 L 181.701 201.508 L 181.051 202.043 Q 181.051 200.133 180.498 198.796 Q 179.944 197.459 178.855 196.753 Q 177.766 196.046 176.162 196.046 Q 174.366 196.046 173.125 196.886 Q 171.883 197.727 171.234 199.216 Q 170.585 200.706 170.585 202.693 L 170.585 202.922 Q 170.585 206.283 172.17 207.983 Q 173.755 209.683 176.773 209.683 Q 177.919 209.683 179.199 209.378 Q 180.478 209.072 181.624 208.346 Q 182.274 207.964 182.79 208.002 Q 183.305 208.041 183.63 208.346 Q 183.955 208.652 184.031 209.11 Q 184.107 209.569 183.878 210.046 Q 183.649 210.524 183.076 210.906 Q 181.777 211.784 180.058 212.224 Q 178.339 212.663 176.735 212.663 Z" style="fill: rgba(0, 0, 0, 0.506);"/>
    <path d="M 194.462 212.663 Q 192.514 212.663 190.967 211.899 Q 189.42 211.135 188.541 209.836 Q 187.663 208.537 187.663 206.895 Q 187.663 204.832 188.713 203.629 Q 189.764 202.425 192.189 201.91 Q 194.615 201.394 198.741 201.394 L 200.536 201.394 L 200.536 203.762 L 198.779 203.762 Q 196.029 203.762 194.424 204.03 Q 192.82 204.297 192.151 204.927 Q 191.483 205.558 191.483 206.665 Q 191.483 208.117 192.476 209.015 Q 193.469 209.912 195.226 209.912 Q 196.64 209.912 197.709 209.244 Q 198.779 208.575 199.409 207.429 Q 200.04 206.283 200.04 204.794 L 200.04 200.401 Q 200.04 198.223 199.123 197.268 Q 198.206 196.313 196.105 196.313 Q 194.883 196.313 193.565 196.619 Q 192.247 196.924 190.833 197.65 Q 190.184 197.956 189.726 197.841 Q 189.267 197.727 189 197.326 Q 188.732 196.924 188.713 196.447 Q 188.694 195.969 188.942 195.511 Q 189.191 195.053 189.802 194.823 Q 191.483 194.021 193.125 193.677 Q 194.768 193.334 196.22 193.334 Q 198.779 193.334 200.441 194.136 Q 202.102 194.938 202.905 196.581 Q 203.707 198.223 203.707 200.821 L 203.707 210.638 Q 203.707 211.555 203.248 212.071 Q 202.79 212.586 201.911 212.586 Q 201.071 212.586 200.574 212.071 Q 200.078 211.555 200.078 210.638 L 200.078 208.155 L 200.422 208.155 Q 200.116 209.569 199.295 210.581 Q 198.473 211.593 197.251 212.128 Q 196.029 212.663 194.462 212.663 Z" style="fill: rgba(0, 0, 0, 0.506);"/>
    <path d="M 215.001 212.663 Q 212.021 212.663 210.513 210.925 Q 209.004 209.187 209.004 205.901 L 209.004 187.069 Q 209.004 186.114 209.5 185.617 Q 209.997 185.121 210.914 185.121 Q 211.83 185.121 212.346 185.617 Q 212.862 186.114 212.862 187.069 L 212.862 205.672 Q 212.862 207.582 213.645 208.518 Q 214.428 209.454 215.918 209.454 Q 216.262 209.454 216.529 209.435 Q 216.796 209.416 217.064 209.378 Q 217.522 209.339 217.713 209.626 Q 217.904 209.912 217.904 210.791 Q 217.904 211.593 217.56 212.033 Q 217.217 212.472 216.453 212.586 Q 216.109 212.625 215.727 212.644 Q 215.345 212.663 215.001 212.663 Z" style="fill: rgba(0, 0, 0, 0.506);"/>
    <path d="M 228.215 212.663 Q 225.923 212.663 224.357 211.861 Q 222.791 211.058 222.027 209.492 Q 221.263 207.926 221.263 205.672 L 221.263 196.657 L 218.971 196.657 Q 218.207 196.657 217.787 196.256 Q 217.366 195.855 217.366 195.167 Q 217.366 194.441 217.787 194.059 Q 218.207 193.677 218.971 193.677 L 221.263 193.677 L 221.263 189.743 Q 221.263 188.788 221.778 188.291 Q 222.294 187.795 223.211 187.795 Q 224.128 187.795 224.624 188.291 Q 225.121 188.788 225.121 189.743 L 225.121 193.677 L 229.59 193.677 Q 230.354 193.677 230.775 194.059 Q 231.195 194.441 231.195 195.167 Q 231.195 195.855 230.775 196.256 Q 230.354 196.657 229.59 196.657 L 225.121 196.657 L 225.121 205.367 Q 225.121 207.391 225.98 208.423 Q 226.84 209.454 228.788 209.454 Q 229.476 209.454 229.991 209.32 Q 230.507 209.187 230.851 209.148 Q 231.271 209.148 231.539 209.435 Q 231.806 209.721 231.806 210.524 Q 231.806 211.097 231.596 211.593 Q 231.386 212.09 230.851 212.243 Q 230.393 212.395 229.609 212.529 Q 228.826 212.663 228.215 212.663 Z" style="fill: rgba(0, 0, 0, 0.506);"/>
    <path d="M 236.461 212.586 Q 235.544 212.586 235.048 212.071 Q 234.551 211.555 234.551 210.638 L 234.551 187.069 Q 234.551 186.114 235.048 185.617 Q 235.544 185.121 236.461 185.121 Q 237.378 185.121 237.894 185.617 Q 238.409 186.114 238.409 187.069 L 238.409 197.65 L 237.875 197.65 Q 238.715 195.511 240.51 194.422 Q 242.306 193.334 244.636 193.334 Q 246.852 193.334 248.322 194.155 Q 249.793 194.976 250.519 196.638 Q 251.245 198.3 251.245 200.821 L 251.245 210.638 Q 251.245 211.555 250.748 212.071 Q 250.251 212.586 249.335 212.586 Q 248.38 212.586 247.883 212.071 Q 247.386 211.555 247.386 210.638 L 247.386 201.05 Q 247.386 198.643 246.45 197.536 Q 245.515 196.428 243.528 196.428 Q 241.198 196.428 239.804 197.879 Q 238.409 199.331 238.409 201.776 L 238.409 210.638 Q 238.409 212.586 236.461 212.586 Z" style="fill: rgba(0, 0, 0, 0.506);"/>
  </g>
</svg>