<?xml version="1.0" encoding="utf-8"?>
<svg viewBox="558.946 234.309 279.473 235.662" xmlns="http://www.w3.org/2000/svg">
  <g transform="matrix(0.9999999999999999, 0, 0, 0.9999999999999999, 503.760009765625, 212.12602233886716)">
    <rect y="22.183" width="279.473" height="235.662" style="fill: rgb(188, 188, 188);" x="55.186"/>
    <rect style="fill: rgb(138, 138, 138);" x="60.828" y="29.686" width="267.282" height="220.654" rx="2" ry="2"/>
    <rect style="fill: rgb(204, 99, 21);" x="68.267" y="36.823" width="253.312" height="206.382" rx="2" ry="2"/>
    <rect style="paint-order: fill; fill: rgb(227, 131, 30);" x="75.878" y="44.493" width="238.091" height="191.043" rx="2" ry="2"/>
    <path d="M 99.492 122.394 Q 93.684 122.394 89.628 120.234 Q 85.572 118.074 83.46 114.186 Q 81.348 110.298 81.348 105.114 Q 81.348 101.082 82.62 97.842 Q 83.892 94.602 86.292 92.274 Q 88.692 89.946 92.172 88.722 Q 95.652 87.498 100.068 87.498 Q 102.468 87.498 104.964 87.954 Q 107.46 88.41 109.86 89.658 Q 111.108 90.234 111.564 91.266 Q 112.02 92.298 111.852 93.426 Q 111.684 94.554 111.036 95.49 Q 110.388 96.426 109.284 96.738 Q 108.18 97.05 106.788 96.426 Q 105.348 95.754 103.668 95.394 Q 101.988 95.034 100.116 95.034 Q 96.9 95.034 94.764 96.186 Q 92.628 97.338 91.572 99.594 Q 90.516 101.85 90.516 105.114 Q 90.516 110.01 92.916 112.506 Q 95.316 115.002 100.02 115.002 Q 101.46 115.002 103.164 114.714 Q 104.868 114.426 106.596 113.898 L 104.964 117.21 L 104.964 109.002 L 101.604 109.002 Q 99.972 109.002 99.084 108.186 Q 98.196 107.37 98.196 105.882 Q 98.196 104.394 99.084 103.602 Q 99.972 102.81 101.604 102.81 L 108.708 102.81 Q 110.388 102.81 111.276 103.698 Q 112.164 104.586 112.164 106.266 L 112.164 116.874 Q 112.164 118.314 111.564 119.322 Q 110.964 120.33 109.668 120.762 Q 107.412 121.53 104.772 121.962 Q 102.132 122.394 99.492 122.394 Z"/>
    <path d="M 122.665 121.866 Q 120.409 121.866 119.233 120.69 Q 118.057 119.514 118.057 117.306 L 118.057 92.586 Q 118.057 90.378 119.233 89.202 Q 120.409 88.026 122.665 88.026 L 138.937 88.026 Q 140.665 88.026 141.529 88.89 Q 142.393 89.754 142.393 91.386 Q 142.393 93.066 141.529 93.954 Q 140.665 94.842 138.937 94.842 L 126.505 94.842 L 126.505 101.274 L 137.881 101.274 Q 139.561 101.274 140.449 102.138 Q 141.337 103.002 141.337 104.682 Q 141.337 106.362 140.449 107.226 Q 139.561 108.09 137.881 108.09 L 126.505 108.09 L 126.505 115.05 L 138.937 115.05 Q 140.665 115.05 141.529 115.938 Q 142.393 116.826 142.393 118.458 Q 142.393 120.138 141.529 121.002 Q 140.665 121.866 138.937 121.866 Z"/>
    <path d="M 160.144 122.298 Q 158.032 122.298 156.88 121.122 Q 155.728 119.946 155.728 117.834 L 155.728 95.226 L 148.192 95.226 Q 146.416 95.226 145.48 94.29 Q 144.544 93.354 144.544 91.626 Q 144.544 89.85 145.48 88.938 Q 146.416 88.026 148.192 88.026 L 172.096 88.026 Q 173.872 88.026 174.808 88.938 Q 175.744 89.85 175.744 91.626 Q 175.744 93.354 174.808 94.29 Q 173.872 95.226 172.096 95.226 L 164.56 95.226 L 164.56 117.834 Q 164.56 119.946 163.456 121.122 Q 162.352 122.298 160.144 122.298 Z"/>
    <path d="M 204.962 122.394 Q 203.042 122.394 200.954 122.13 Q 198.866 121.866 196.994 121.338 Q 195.122 120.81 193.634 120.09 Q 192.338 119.466 191.81 118.434 Q 191.282 117.402 191.426 116.25 Q 191.57 115.098 192.242 114.21 Q 192.914 113.322 194.018 113.01 Q 195.122 112.698 196.514 113.322 Q 198.338 114.186 200.642 114.666 Q 202.946 115.146 204.962 115.146 Q 208.13 115.146 209.402 114.306 Q 210.674 113.466 210.674 112.218 Q 210.674 111.114 209.786 110.442 Q 208.898 109.77 206.642 109.29 L 201.026 108.09 Q 196.418 107.13 194.162 104.73 Q 191.906 102.33 191.906 98.538 Q 191.906 96.042 192.938 94.002 Q 193.97 91.962 195.866 90.522 Q 197.762 89.082 200.378 88.29 Q 202.994 87.498 206.21 87.498 Q 208.706 87.498 211.274 88.05 Q 213.842 88.602 215.714 89.706 Q 216.818 90.282 217.298 91.29 Q 217.778 92.298 217.682 93.378 Q 217.586 94.458 216.938 95.274 Q 216.29 96.09 215.21 96.354 Q 214.13 96.618 212.642 95.994 Q 211.25 95.37 209.498 95.058 Q 207.746 94.746 206.114 94.746 Q 204.338 94.746 203.09 95.154 Q 201.842 95.562 201.194 96.33 Q 200.546 97.098 200.546 98.106 Q 200.546 99.114 201.386 99.81 Q 202.226 100.506 204.482 100.986 L 210.05 102.186 Q 214.706 103.194 217.01 105.498 Q 219.314 107.802 219.314 111.498 Q 219.314 113.994 218.306 116.01 Q 217.298 118.026 215.426 119.442 Q 213.554 120.858 210.914 121.626 Q 208.274 122.394 204.962 122.394 Z"/>
    <path d="M 235.302 122.298 Q 233.19 122.298 232.038 121.122 Q 230.886 119.946 230.886 117.834 L 230.886 95.226 L 223.35 95.226 Q 221.574 95.226 220.638 94.29 Q 219.702 93.354 219.702 91.626 Q 219.702 89.85 220.638 88.938 Q 221.574 88.026 223.35 88.026 L 247.254 88.026 Q 249.03 88.026 249.966 88.938 Q 250.902 89.85 250.902 91.626 Q 250.902 93.354 249.966 94.29 Q 249.03 95.226 247.254 95.226 L 239.718 95.226 L 239.718 117.834 Q 239.718 119.946 238.614 121.122 Q 237.51 122.298 235.302 122.298 Z"/>
    <path d="M 251.613 122.298 Q 250.125 122.298 249.117 121.602 Q 248.109 120.906 247.869 119.682 Q 247.629 118.458 248.301 116.922 L 260.253 91.194 Q 261.117 89.322 262.389 88.458 Q 263.661 87.594 265.293 87.594 Q 266.925 87.594 268.149 88.458 Q 269.373 89.322 270.285 91.194 L 282.237 116.922 Q 283.005 118.458 282.789 119.706 Q 282.573 120.954 281.589 121.626 Q 280.605 122.298 279.165 122.298 Q 277.245 122.298 276.213 121.434 Q 275.181 120.57 274.365 118.65 L 271.773 112.554 L 275.133 115.002 L 255.357 115.002 L 258.765 112.554 L 256.173 118.65 Q 255.309 120.57 254.397 121.434 Q 253.485 122.298 251.613 122.298 Z M 265.197 97.242 L 259.629 110.538 L 258.285 108.234 L 272.253 108.234 L 270.909 110.538 L 265.293 97.242 Z"/>
    <path d="M 295.241 122.298 Q 293.129 122.298 291.977 121.122 Q 290.825 119.946 290.825 117.834 L 290.825 95.226 L 283.289 95.226 Q 281.513 95.226 280.577 94.29 Q 279.641 93.354 279.641 91.626 Q 279.641 89.85 280.577 88.938 Q 281.513 88.026 283.289 88.026 L 307.193 88.026 Q 308.969 88.026 309.905 88.938 Q 310.841 89.85 310.841 91.626 Q 310.841 93.354 309.905 94.29 Q 308.969 95.226 307.193 95.226 L 299.657 95.226 L 299.657 117.834 Q 299.657 119.946 298.553 121.122 Q 297.449 122.298 295.241 122.298 Z"/>
    <path d="M 99.598 212.578 Q 98.673 212.578 98.174 212.06 Q 97.674 211.542 97.674 210.617 L 97.674 188.195 Q 97.674 187.233 98.192 186.733 Q 98.71 186.234 99.635 186.234 L 108.478 186.234 Q 112.696 186.234 114.99 188.324 Q 117.284 190.415 117.284 194.189 Q 117.284 198 114.99 200.091 Q 112.696 202.181 108.478 202.181 L 101.522 202.181 L 101.522 210.617 Q 101.522 211.542 101.041 212.06 Q 100.56 212.578 99.598 212.578 Z M 101.522 199.11 L 107.923 199.11 Q 110.698 199.11 112.123 197.871 Q 113.547 196.631 113.547 194.189 Q 113.547 191.784 112.123 190.544 Q 110.698 189.305 107.923 189.305 L 101.522 189.305 Z" style="fill: rgba(0, 0, 0, 0.506);"/>
    <path d="M 126.811 212.652 Q 123.925 212.652 122.464 210.969 Q 121.002 209.285 121.002 206.103 L 121.002 187.862 Q 121.002 186.937 121.483 186.456 Q 121.964 185.975 122.852 185.975 Q 123.74 185.975 124.24 186.456 Q 124.739 186.937 124.739 187.862 L 124.739 205.881 Q 124.739 207.731 125.498 208.638 Q 126.256 209.544 127.699 209.544 Q 128.032 209.544 128.291 209.526 Q 128.55 209.507 128.809 209.47 Q 129.253 209.433 129.438 209.711 Q 129.623 209.988 129.623 210.839 Q 129.623 211.616 129.29 212.042 Q 128.957 212.467 128.217 212.578 Q 127.884 212.615 127.514 212.634 Q 127.144 212.652 126.811 212.652 Z" style="fill: rgba(0, 0, 0, 0.506);"/>
    <path d="M 138.103 212.652 Q 136.216 212.652 134.717 211.912 Q 133.219 211.172 132.368 209.914 Q 131.517 208.656 131.517 207.065 Q 131.517 205.067 132.534 203.902 Q 133.552 202.736 135.901 202.237 Q 138.251 201.737 142.247 201.737 L 143.986 201.737 L 143.986 204.031 L 142.284 204.031 Q 139.62 204.031 138.066 204.29 Q 136.512 204.549 135.864 205.16 Q 135.217 205.77 135.217 206.843 Q 135.217 208.249 136.179 209.119 Q 137.141 209.988 138.843 209.988 Q 140.212 209.988 141.248 209.341 Q 142.284 208.693 142.894 207.583 Q 143.505 206.473 143.505 205.03 L 143.505 200.775 Q 143.505 198.666 142.617 197.741 Q 141.729 196.816 139.694 196.816 Q 138.51 196.816 137.233 197.112 Q 135.957 197.408 134.588 198.111 Q 133.959 198.407 133.515 198.296 Q 133.071 198.185 132.812 197.797 Q 132.553 197.408 132.534 196.946 Q 132.516 196.483 132.756 196.039 Q 132.997 195.595 133.589 195.373 Q 135.217 194.596 136.808 194.263 Q 138.399 193.93 139.805 193.93 Q 142.284 193.93 143.893 194.707 Q 145.503 195.484 146.28 197.075 Q 147.057 198.666 147.057 201.182 L 147.057 210.691 Q 147.057 211.579 146.613 212.079 Q 146.169 212.578 145.318 212.578 Q 144.504 212.578 144.023 212.079 Q 143.542 211.579 143.542 210.691 L 143.542 208.286 L 143.875 208.286 Q 143.579 209.655 142.783 210.636 Q 141.988 211.616 140.804 212.134 Q 139.62 212.652 138.103 212.652 Z" style="fill: rgba(0, 0, 0, 0.506);"/>
    <path d="M 160.146 212.652 Q 157.371 212.652 155.354 211.487 Q 153.338 210.321 152.228 208.194 Q 151.118 206.066 151.118 203.18 Q 151.118 201.034 151.747 199.314 Q 152.376 197.593 153.541 196.409 Q 154.707 195.225 156.39 194.578 Q 158.074 193.93 160.146 193.93 Q 161.441 193.93 162.865 194.319 Q 164.29 194.707 165.511 195.595 Q 165.992 195.891 166.121 196.317 Q 166.251 196.742 166.158 197.186 Q 166.066 197.63 165.751 197.945 Q 165.437 198.259 164.993 198.315 Q 164.549 198.37 164.031 198.074 Q 163.143 197.445 162.218 197.168 Q 161.293 196.89 160.442 196.89 Q 159.11 196.89 158.092 197.316 Q 157.075 197.741 156.372 198.537 Q 155.669 199.332 155.317 200.516 Q 154.966 201.7 154.966 203.217 Q 154.966 206.251 156.39 207.972 Q 157.815 209.692 160.442 209.692 Q 161.293 209.692 162.218 209.433 Q 163.143 209.174 164.031 208.545 Q 164.549 208.249 164.993 208.323 Q 165.437 208.397 165.714 208.712 Q 165.992 209.026 166.084 209.452 Q 166.177 209.877 166.029 210.321 Q 165.881 210.765 165.4 211.061 Q 164.216 211.912 162.828 212.282 Q 161.441 212.652 160.146 212.652 Z" style="fill: rgba(0, 0, 0, 0.506);"/>
    <path d="M 177.57 212.652 Q 174.61 212.652 172.483 211.524 Q 170.355 210.395 169.19 208.305 Q 168.024 206.214 168.024 203.328 Q 168.024 200.516 169.171 198.407 Q 170.318 196.298 172.316 195.114 Q 174.314 193.93 176.867 193.93 Q 178.754 193.93 180.234 194.541 Q 181.714 195.151 182.769 196.317 Q 183.823 197.482 184.36 199.147 Q 184.896 200.812 184.896 202.884 Q 184.896 203.513 184.526 203.828 Q 184.156 204.142 183.416 204.142 L 170.984 204.142 L 170.984 201.848 L 182.38 201.848 L 181.751 202.366 Q 181.751 200.516 181.215 199.221 Q 180.678 197.926 179.624 197.242 Q 178.569 196.557 177.015 196.557 Q 175.276 196.557 174.074 197.371 Q 172.871 198.185 172.242 199.628 Q 171.613 201.071 171.613 202.995 L 171.613 203.217 Q 171.613 206.473 173.149 208.12 Q 174.684 209.766 177.607 209.766 Q 178.717 209.766 179.957 209.47 Q 181.196 209.174 182.306 208.471 Q 182.935 208.101 183.435 208.138 Q 183.934 208.175 184.249 208.471 Q 184.563 208.767 184.637 209.211 Q 184.711 209.655 184.489 210.118 Q 184.267 210.58 183.712 210.95 Q 182.454 211.801 180.789 212.227 Q 179.124 212.652 177.57 212.652 Z" style="fill: rgba(0, 0, 0, 0.506);"/>
    <path d="M 190.807 212.578 Q 189.919 212.578 189.438 212.079 Q 188.957 211.579 188.957 210.691 L 188.957 187.862 Q 188.957 186.937 189.438 186.456 Q 189.919 185.975 190.807 185.975 Q 191.695 185.975 192.195 186.456 Q 192.694 186.937 192.694 187.862 L 192.694 198.111 L 192.176 198.111 Q 192.99 196.039 194.729 194.985 Q 196.468 193.93 198.725 193.93 Q 200.871 193.93 202.296 194.726 Q 203.72 195.521 204.423 197.131 Q 205.126 198.74 205.126 201.182 L 205.126 210.691 Q 205.126 211.579 204.645 212.079 Q 204.164 212.578 203.276 212.578 Q 202.351 212.578 201.87 212.079 Q 201.389 211.579 201.389 210.691 L 201.389 201.404 Q 201.389 199.073 200.483 198 Q 199.576 196.927 197.652 196.927 Q 195.395 196.927 194.045 198.333 Q 192.694 199.739 192.694 202.107 L 192.694 210.691 Q 192.694 212.578 190.807 212.578 Z" style="fill: rgba(0, 0, 0, 0.506);"/>
    <path d="M 218.114 212.652 Q 215.376 212.652 213.397 211.505 Q 211.417 210.358 210.307 208.249 Q 209.197 206.14 209.197 203.291 Q 209.197 201.108 209.826 199.406 Q 210.455 197.704 211.621 196.465 Q 212.786 195.225 214.433 194.578 Q 216.079 193.93 218.114 193.93 Q 220.815 193.93 222.795 195.077 Q 224.774 196.224 225.884 198.315 Q 226.994 200.405 226.994 203.291 Q 226.994 205.437 226.365 207.176 Q 225.736 208.915 224.571 210.136 Q 223.405 211.357 221.759 212.005 Q 220.112 212.652 218.114 212.652 Z M 218.114 209.766 Q 219.631 209.766 220.778 209.026 Q 221.925 208.286 222.573 206.843 Q 223.22 205.4 223.22 203.291 Q 223.22 200.109 221.814 198.481 Q 220.408 196.853 218.114 196.853 Q 216.56 196.853 215.413 197.575 Q 214.266 198.296 213.619 199.739 Q 212.971 201.182 212.971 203.291 Q 212.971 206.436 214.377 208.101 Q 215.783 209.766 218.114 209.766 Z" style="fill: rgba(0, 0, 0, 0.506);"/>
    <path d="M 236.97 212.652 Q 234.084 212.652 232.623 210.969 Q 231.161 209.285 231.161 206.103 L 231.161 187.862 Q 231.161 186.937 231.642 186.456 Q 232.123 185.975 233.011 185.975 Q 233.899 185.975 234.399 186.456 Q 234.898 186.937 234.898 187.862 L 234.898 205.881 Q 234.898 207.731 235.657 208.638 Q 236.415 209.544 237.858 209.544 Q 238.191 209.544 238.45 209.526 Q 238.709 209.507 238.968 209.47 Q 239.412 209.433 239.597 209.711 Q 239.782 209.988 239.782 210.839 Q 239.782 211.616 239.449 212.042 Q 239.116 212.467 238.376 212.578 Q 238.043 212.615 237.673 212.634 Q 237.303 212.652 236.97 212.652 Z" style="fill: rgba(0, 0, 0, 0.506);"/>
    <path d="M 249.184 212.652 Q 246.816 212.652 245.022 211.524 Q 243.227 210.395 242.228 208.268 Q 241.229 206.14 241.229 203.291 Q 241.229 200.368 242.228 198.296 Q 243.227 196.224 245.022 195.077 Q 246.816 193.93 249.184 193.93 Q 251.552 193.93 253.273 195.096 Q 254.993 196.261 255.585 198.222 L 255.178 198.222 L 255.178 187.862 Q 255.178 186.937 255.659 186.456 Q 256.14 185.975 257.028 185.975 Q 257.916 185.975 258.416 186.456 Q 258.915 186.937 258.915 187.862 L 258.915 210.691 Q 258.915 211.579 258.434 212.079 Q 257.953 212.578 257.065 212.578 Q 256.177 212.578 255.696 212.079 Q 255.215 211.579 255.215 210.691 L 255.215 207.435 L 255.622 208.249 Q 255.03 210.247 253.31 211.45 Q 251.589 212.652 249.184 212.652 Z M 250.146 209.766 Q 251.663 209.766 252.81 209.026 Q 253.957 208.286 254.605 206.843 Q 255.252 205.4 255.252 203.291 Q 255.252 200.109 253.846 198.481 Q 252.44 196.853 250.146 196.853 Q 248.592 196.853 247.445 197.575 Q 246.298 198.296 245.651 199.739 Q 245.003 201.182 245.003 203.291 Q 245.003 206.436 246.409 208.101 Q 247.815 209.766 250.146 209.766 Z" style="fill: rgba(0, 0, 0, 0.506);"/>
    <path d="M 272.635 212.652 Q 269.675 212.652 267.547 211.524 Q 265.42 210.395 264.254 208.305 Q 263.089 206.214 263.089 203.328 Q 263.089 200.516 264.236 198.407 Q 265.383 196.298 267.381 195.114 Q 269.379 193.93 271.932 193.93 Q 273.819 193.93 275.299 194.541 Q 276.779 195.151 277.833 196.317 Q 278.888 197.482 279.424 199.147 Q 279.961 200.812 279.961 202.884 Q 279.961 203.513 279.591 203.828 Q 279.221 204.142 278.481 204.142 L 266.049 204.142 L 266.049 201.848 L 277.445 201.848 L 276.816 202.366 Q 276.816 200.516 276.279 199.221 Q 275.743 197.926 274.688 197.242 Q 273.634 196.557 272.08 196.557 Q 270.341 196.557 269.138 197.371 Q 267.936 198.185 267.307 199.628 Q 266.678 201.071 266.678 202.995 L 266.678 203.217 Q 266.678 206.473 268.213 208.12 Q 269.749 209.766 272.672 209.766 Q 273.782 209.766 275.021 209.47 Q 276.261 209.174 277.371 208.471 Q 278 208.101 278.499 208.138 Q 278.999 208.175 279.313 208.471 Q 279.628 208.767 279.702 209.211 Q 279.776 209.655 279.554 210.118 Q 279.332 210.58 278.777 210.95 Q 277.519 211.801 275.854 212.227 Q 274.189 212.652 272.635 212.652 Z" style="fill: rgba(0, 0, 0, 0.506);"/>
    <path d="M 285.909 212.578 Q 284.984 212.578 284.503 212.079 Q 284.022 211.579 284.022 210.691 L 284.022 195.891 Q 284.022 194.966 284.503 194.485 Q 284.984 194.004 285.835 194.004 Q 286.723 194.004 287.185 194.485 Q 287.648 194.966 287.648 195.891 L 287.648 198.592 L 287.278 198.592 Q 287.87 196.372 289.461 195.225 Q 291.052 194.078 293.531 193.893 Q 294.197 193.856 294.585 194.226 Q 294.974 194.596 295.011 195.373 Q 295.085 196.15 294.678 196.613 Q 294.271 197.075 293.42 197.149 L 292.717 197.223 Q 290.312 197.445 289.054 198.74 Q 287.796 200.035 287.796 202.292 L 287.796 210.691 Q 287.796 211.579 287.333 212.079 Q 286.871 212.578 285.909 212.578 Z" style="fill: rgba(0, 0, 0, 0.506);"/>
  </g>
</svg>