<?xml version="1.0" encoding="utf-8"?>
<svg viewBox="279.473 234.309 279.473 235.662" xmlns="http://www.w3.org/2000/svg">
  <g transform="matrix(0.9999999999999999, 0, 0, 0.9999999999999999, 224.2869873046874, 212.12602233886716)">
    <rect y="22.183" width="279.473" height="235.662" style="fill: rgb(188, 188, 188);" x="55.186"/>
    <rect style="fill: rgb(138, 138, 138);" x="60.828" y="29.686" width="267.282" height="220.654" rx="2" ry="2"/>
    <rect style="fill: rgb(25, 106, 14);" x="68.267" y="36.823" width="253.312" height="206.382" rx="2" ry="2"/>
    <rect style="paint-order: fill; fill: rgb(38, 140, 20);" x="75.878" y="44.493" width="238.091" height="191.043" rx="2" ry="2"/>
    <path d="M 97.498 138.052 Q 93.142 138.052 90.1 136.432 Q 87.058 134.812 85.474 131.896 Q 83.89 128.98 83.89 125.092 Q 83.89 122.068 84.844 119.638 Q 85.798 117.208 87.598 115.462 Q 89.398 113.716 92.008 112.798 Q 94.618 111.88 97.93 111.88 Q 99.73 111.88 101.602 112.222 Q 103.474 112.564 105.274 113.5 Q 106.21 113.932 106.552 114.706 Q 106.894 115.48 106.768 116.326 Q 106.642 117.172 106.156 117.874 Q 105.67 118.576 104.842 118.81 Q 104.014 119.044 102.97 118.576 Q 101.89 118.072 100.63 117.802 Q 99.37 117.532 97.966 117.532 Q 95.554 117.532 93.952 118.396 Q 92.35 119.26 91.558 120.952 Q 90.766 122.644 90.766 125.092 Q 90.766 128.764 92.566 130.636 Q 94.366 132.508 97.894 132.508 Q 98.974 132.508 100.252 132.292 Q 101.53 132.076 102.826 131.68 L 101.602 134.164 L 101.602 128.008 L 99.082 128.008 Q 97.858 128.008 97.192 127.396 Q 96.526 126.784 96.526 125.668 Q 96.526 124.552 97.192 123.958 Q 97.858 123.364 99.082 123.364 L 104.41 123.364 Q 105.67 123.364 106.336 124.03 Q 107.002 124.696 107.002 125.956 L 107.002 133.912 Q 107.002 134.992 106.552 135.748 Q 106.102 136.504 105.13 136.828 Q 103.438 137.404 101.458 137.728 Q 99.478 138.052 97.498 138.052 Z" transform="matrix(1, 0, 0, 1, 0, -39.86491)"/>
    <path d="M 114.869 137.656 Q 113.177 137.656 112.295 136.774 Q 111.413 135.892 111.413 134.236 L 111.413 115.696 Q 111.413 114.04 112.295 113.158 Q 113.177 112.276 114.869 112.276 L 127.073 112.276 Q 128.369 112.276 129.017 112.924 Q 129.665 113.572 129.665 114.796 Q 129.665 116.056 129.017 116.722 Q 128.369 117.388 127.073 117.388 L 117.749 117.388 L 117.749 122.212 L 126.281 122.212 Q 127.541 122.212 128.207 122.86 Q 128.873 123.508 128.873 124.768 Q 128.873 126.028 128.207 126.676 Q 127.541 127.324 126.281 127.324 L 117.749 127.324 L 117.749 132.544 L 127.073 132.544 Q 128.369 132.544 129.017 133.21 Q 129.665 133.876 129.665 135.1 Q 129.665 136.36 129.017 137.008 Q 128.369 137.656 127.073 137.656 Z" transform="matrix(1, 0, 0, 1, 0, -39.86491)"/>
    <path d="M 142.983 137.98 Q 141.399 137.98 140.535 137.098 Q 139.671 136.216 139.671 134.632 L 139.671 117.676 L 134.019 117.676 Q 132.687 117.676 131.985 116.974 Q 131.283 116.272 131.283 114.976 Q 131.283 113.644 131.985 112.96 Q 132.687 112.276 134.019 112.276 L 151.947 112.276 Q 153.279 112.276 153.981 112.96 Q 154.683 113.644 154.683 114.976 Q 154.683 116.272 153.981 116.974 Q 153.279 117.676 151.947 117.676 L 146.295 117.676 L 146.295 134.632 Q 146.295 136.216 145.467 137.098 Q 144.639 137.98 142.983 137.98 Z" transform="matrix(1, 0, 0, 1, 0, -39.86491)"/>
    <path d="M 170.477 137.98 Q 168.893 137.98 168.029 137.098 Q 167.165 136.216 167.165 134.632 L 167.165 115.624 Q 167.165 114.004 168.047 113.14 Q 168.929 112.276 170.513 112.276 L 179.369 112.276 Q 183.689 112.276 186.047 114.49 Q 188.405 116.704 188.405 120.592 Q 188.405 124.48 186.047 126.694 Q 183.689 128.908 179.369 128.908 L 173.789 128.908 L 173.789 134.632 Q 173.789 136.216 172.961 137.098 Q 172.133 137.98 170.477 137.98 Z M 173.789 123.832 L 178.217 123.832 Q 180.089 123.832 181.097 123.022 Q 182.105 122.212 182.105 120.592 Q 182.105 118.936 181.097 118.144 Q 180.089 117.352 178.217 117.352 L 173.789 117.352 Z" transform="matrix(1, 0, 0, 1, 0, -39.86491)"/>
    <path d="M 194.841 137.656 Q 193.257 137.656 192.375 136.774 Q 191.493 135.892 191.493 134.308 L 191.493 115.588 Q 191.493 113.968 192.357 113.104 Q 193.221 112.24 194.805 112.24 Q 196.425 112.24 197.271 113.104 Q 198.117 113.968 198.117 115.588 L 198.117 132.148 L 206.901 132.148 Q 208.269 132.148 209.007 132.85 Q 209.745 133.552 209.745 134.884 Q 209.745 136.216 209.007 136.936 Q 208.269 137.656 206.901 137.656 Z" transform="matrix(1, 0, 0, 1, 0, -39.86491)"/>
    <path d="M 213.416 137.98 Q 212.3 137.98 211.544 137.458 Q 210.788 136.936 210.608 136.018 Q 210.428 135.1 210.932 133.948 L 219.896 114.652 Q 220.544 113.248 221.498 112.6 Q 222.452 111.952 223.676 111.952 Q 224.9 111.952 225.818 112.6 Q 226.736 113.248 227.42 114.652 L 236.384 133.948 Q 236.96 135.1 236.798 136.036 Q 236.636 136.972 235.898 137.476 Q 235.16 137.98 234.08 137.98 Q 232.64 137.98 231.866 137.332 Q 231.092 136.684 230.48 135.244 L 228.536 130.672 L 231.056 132.508 L 216.224 132.508 L 218.78 130.672 L 216.836 135.244 Q 216.188 136.684 215.504 137.332 Q 214.82 137.98 213.416 137.98 Z M 223.604 119.188 L 219.428 129.16 L 218.42 127.432 L 228.896 127.432 L 227.888 129.16 L 223.676 119.188 Z" transform="matrix(1, 0, 0, 1, 0, -39.86491)"/>
    <path d="M 246.642 137.98 Q 245.058 137.98 244.194 137.098 Q 243.33 136.216 243.33 134.56 L 243.33 124.696 L 244.698 128.332 L 236.418 116.416 Q 235.806 115.552 235.896 114.49 Q 235.986 113.428 236.76 112.69 Q 237.534 111.952 238.974 111.952 Q 239.982 111.952 240.81 112.438 Q 241.638 112.924 242.358 114.076 L 247.398 121.492 L 246.102 121.492 L 251.142 114.04 Q 251.898 112.888 252.69 112.42 Q 253.482 111.952 254.562 111.952 Q 255.93 111.952 256.686 112.636 Q 257.442 113.32 257.496 114.364 Q 257.55 115.408 256.83 116.488 L 248.622 128.332 L 249.954 124.696 L 249.954 134.56 Q 249.954 137.98 246.642 137.98 Z" transform="matrix(1, 0, 0, 1, 0, -39.86491)"/>
    <path d="M 265.857 137.656 Q 264.165 137.656 263.283 136.774 Q 262.401 135.892 262.401 134.236 L 262.401 115.696 Q 262.401 114.04 263.283 113.158 Q 264.165 112.276 265.857 112.276 L 278.061 112.276 Q 279.357 112.276 280.005 112.924 Q 280.653 113.572 280.653 114.796 Q 280.653 116.056 280.005 116.722 Q 279.357 117.388 278.061 117.388 L 268.737 117.388 L 268.737 122.212 L 277.269 122.212 Q 278.529 122.212 279.195 122.86 Q 279.861 123.508 279.861 124.768 Q 279.861 126.028 279.195 126.676 Q 278.529 127.324 277.269 127.324 L 268.737 127.324 L 268.737 132.544 L 278.061 132.544 Q 279.357 132.544 280.005 133.21 Q 280.653 133.876 280.653 135.1 Q 280.653 136.36 280.005 137.008 Q 279.357 137.656 278.061 137.656 Z" transform="matrix(1, 0, 0, 1, 0, -39.86491)"/>
    <path d="M 287.808 137.98 Q 286.224 137.98 285.36 137.098 Q 284.496 136.216 284.496 134.632 L 284.496 115.624 Q 284.496 114.004 285.378 113.14 Q 286.26 112.276 287.844 112.276 L 296.7 112.276 Q 301.02 112.276 303.378 114.382 Q 305.736 116.488 305.736 120.232 Q 305.736 122.644 304.674 124.426 Q 303.612 126.208 301.614 127.162 Q 299.616 128.116 296.7 128.116 L 296.988 127.468 L 298.716 127.468 Q 300.264 127.468 301.452 128.206 Q 302.64 128.944 303.432 130.456 L 305.232 133.696 Q 305.808 134.74 305.772 135.73 Q 305.736 136.72 304.998 137.35 Q 304.26 137.98 302.856 137.98 Q 301.452 137.98 300.57 137.404 Q 299.688 136.828 299.004 135.604 L 295.728 129.592 Q 295.296 128.8 294.63 128.494 Q 293.964 128.188 293.1 128.188 L 291.12 128.188 L 291.12 134.632 Q 291.12 136.216 290.292 137.098 Q 289.464 137.98 287.808 137.98 Z M 291.12 123.508 L 295.512 123.508 Q 297.42 123.508 298.428 122.752 Q 299.436 121.996 299.436 120.412 Q 299.436 118.9 298.428 118.126 Q 297.42 117.352 295.512 117.352 L 291.12 117.352 Z" transform="matrix(1, 0, 0, 1, 0, -39.86491)"/>
    <path d="M 102.17 173.98 Q 100.586 173.98 99.722 173.098 Q 98.858 172.216 98.858 170.632 L 98.858 151.624 Q 98.858 150.004 99.74 149.14 Q 100.622 148.276 102.206 148.276 L 111.062 148.276 Q 115.382 148.276 117.74 150.49 Q 120.098 152.704 120.098 156.592 Q 120.098 160.48 117.74 162.694 Q 115.382 164.908 111.062 164.908 L 105.482 164.908 L 105.482 170.632 Q 105.482 172.216 104.654 173.098 Q 103.826 173.98 102.17 173.98 Z M 105.482 159.832 L 109.91 159.832 Q 111.782 159.832 112.79 159.022 Q 113.798 158.212 113.798 156.592 Q 113.798 154.936 112.79 154.144 Q 111.782 153.352 109.91 153.352 L 105.482 153.352 Z" transform="matrix(1, 0, 0, 1, 0, -39.86491)"/>
    <path d="M 126.499 173.98 Q 124.915 173.98 124.051 173.098 Q 123.187 172.216 123.187 170.632 L 123.187 151.624 Q 123.187 150.004 124.069 149.14 Q 124.951 148.276 126.535 148.276 L 135.391 148.276 Q 139.711 148.276 142.069 150.382 Q 144.427 152.488 144.427 156.232 Q 144.427 158.644 143.365 160.426 Q 142.303 162.208 140.305 163.162 Q 138.307 164.116 135.391 164.116 L 135.679 163.468 L 137.407 163.468 Q 138.955 163.468 140.143 164.206 Q 141.331 164.944 142.123 166.456 L 143.923 169.696 Q 144.499 170.74 144.463 171.73 Q 144.427 172.72 143.689 173.35 Q 142.951 173.98 141.547 173.98 Q 140.143 173.98 139.261 173.404 Q 138.379 172.828 137.695 171.604 L 134.419 165.592 Q 133.987 164.8 133.321 164.494 Q 132.655 164.188 131.791 164.188 L 129.811 164.188 L 129.811 170.632 Q 129.811 172.216 128.983 173.098 Q 128.155 173.98 126.499 173.98 Z M 129.811 159.508 L 134.203 159.508 Q 136.111 159.508 137.119 158.752 Q 138.127 157.996 138.127 156.412 Q 138.127 154.9 137.119 154.126 Q 136.111 153.352 134.203 153.352 L 129.811 153.352 Z" transform="matrix(1, 0, 0, 1, 0, -39.86491)"/>
    <path d="M 160.646 174.052 Q 156.794 174.052 153.878 172.414 Q 150.962 170.776 149.36 167.824 Q 147.758 164.872 147.758 160.948 Q 147.758 157.996 148.676 155.584 Q 149.594 153.172 151.304 151.444 Q 153.014 149.716 155.39 148.798 Q 157.766 147.88 160.646 147.88 Q 164.498 147.88 167.396 149.5 Q 170.294 151.12 171.914 154.054 Q 173.534 156.988 173.534 160.948 Q 173.534 163.9 172.616 166.312 Q 171.698 168.724 169.988 170.47 Q 168.278 172.216 165.902 173.134 Q 163.526 174.052 160.646 174.052 Z M 160.646 168.508 Q 162.554 168.508 163.886 167.608 Q 165.218 166.708 165.938 165.016 Q 166.658 163.324 166.658 160.948 Q 166.658 157.384 165.074 155.404 Q 163.49 153.424 160.646 153.424 Q 158.774 153.424 157.424 154.306 Q 156.074 155.188 155.354 156.862 Q 154.634 158.536 154.634 160.948 Q 154.634 164.512 156.218 166.51 Q 157.802 168.508 160.646 168.508 Z" transform="matrix(1, 0, 0, 1, 0, -39.86491)"/>
    <path d="M 180.766 173.98 Q 179.182 173.98 178.318 173.098 Q 177.454 172.216 177.454 170.632 L 177.454 151.624 Q 177.454 150.004 178.336 149.14 Q 179.218 148.276 180.802 148.276 L 189.658 148.276 Q 193.978 148.276 196.336 150.49 Q 198.694 152.704 198.694 156.592 Q 198.694 160.48 196.336 162.694 Q 193.978 164.908 189.658 164.908 L 184.078 164.908 L 184.078 170.632 Q 184.078 172.216 183.25 173.098 Q 182.422 173.98 180.766 173.98 Z M 184.078 159.832 L 188.506 159.832 Q 190.378 159.832 191.386 159.022 Q 192.394 158.212 192.394 156.592 Q 192.394 154.936 191.386 154.144 Q 190.378 153.352 188.506 153.352 L 184.078 153.352 Z" transform="matrix(1, 0, 0, 1, 0, -39.86491)"/>
    <path d="M 205.239 173.656 Q 203.547 173.656 202.665 172.774 Q 201.783 171.892 201.783 170.236 L 201.783 151.696 Q 201.783 150.04 202.665 149.158 Q 203.547 148.276 205.239 148.276 L 217.443 148.276 Q 218.739 148.276 219.387 148.924 Q 220.035 149.572 220.035 150.796 Q 220.035 152.056 219.387 152.722 Q 218.739 153.388 217.443 153.388 L 208.119 153.388 L 208.119 158.212 L 216.651 158.212 Q 217.911 158.212 218.577 158.86 Q 219.243 159.508 219.243 160.768 Q 219.243 162.028 218.577 162.676 Q 217.911 163.324 216.651 163.324 L 208.119 163.324 L 208.119 168.544 L 217.443 168.544 Q 218.739 168.544 219.387 169.21 Q 220.035 169.876 220.035 171.1 Q 220.035 172.36 219.387 173.008 Q 218.739 173.656 217.443 173.656 Z" transform="matrix(1, 0, 0, 1, 0, -39.86491)"/>
    <path d="M 227.189 173.98 Q 225.605 173.98 224.741 173.098 Q 223.877 172.216 223.877 170.632 L 223.877 151.624 Q 223.877 150.004 224.759 149.14 Q 225.641 148.276 227.225 148.276 L 236.081 148.276 Q 240.401 148.276 242.759 150.382 Q 245.117 152.488 245.117 156.232 Q 245.117 158.644 244.055 160.426 Q 242.993 162.208 240.995 163.162 Q 238.997 164.116 236.081 164.116 L 236.369 163.468 L 238.097 163.468 Q 239.645 163.468 240.833 164.206 Q 242.021 164.944 242.813 166.456 L 244.613 169.696 Q 245.189 170.74 245.153 171.73 Q 245.117 172.72 244.379 173.35 Q 243.641 173.98 242.237 173.98 Q 240.833 173.98 239.951 173.404 Q 239.069 172.828 238.385 171.604 L 235.109 165.592 Q 234.677 164.8 234.011 164.494 Q 233.345 164.188 232.481 164.188 L 230.501 164.188 L 230.501 170.632 Q 230.501 172.216 229.673 173.098 Q 228.845 173.98 227.189 173.98 Z M 230.501 159.508 L 234.893 159.508 Q 236.801 159.508 237.809 158.752 Q 238.817 157.996 238.817 156.412 Q 238.817 154.9 237.809 154.126 Q 236.801 153.352 234.893 153.352 L 230.501 153.352 Z" transform="matrix(1, 0, 0, 1, 0, -39.86491)"/>
    <path d="M 257.853 173.98 Q 256.269 173.98 255.405 173.098 Q 254.541 172.216 254.541 170.632 L 254.541 153.676 L 248.889 153.676 Q 247.557 153.676 246.855 152.974 Q 246.153 152.272 246.153 150.976 Q 246.153 149.644 246.855 148.96 Q 247.557 148.276 248.889 148.276 L 266.817 148.276 Q 268.149 148.276 268.851 148.96 Q 269.553 149.644 269.553 150.976 Q 269.553 152.272 268.851 152.974 Q 268.149 153.676 266.817 153.676 L 261.165 153.676 L 261.165 170.632 Q 261.165 172.216 260.337 173.098 Q 259.509 173.98 257.853 173.98 Z" transform="matrix(1, 0, 0, 1, 0, -39.86491)"/>
    <path d="M 281.651 173.98 Q 280.067 173.98 279.203 173.098 Q 278.339 172.216 278.339 170.56 L 278.339 160.696 L 279.707 164.332 L 271.427 152.416 Q 270.815 151.552 270.905 150.49 Q 270.995 149.428 271.769 148.69 Q 272.543 147.952 273.983 147.952 Q 274.991 147.952 275.819 148.438 Q 276.647 148.924 277.367 150.076 L 282.407 157.492 L 281.111 157.492 L 286.151 150.04 Q 286.907 148.888 287.699 148.42 Q 288.491 147.952 289.571 147.952 Q 290.939 147.952 291.695 148.636 Q 292.451 149.32 292.505 150.364 Q 292.559 151.408 291.839 152.488 L 283.631 164.332 L 284.963 160.696 L 284.963 170.56 Q 284.963 173.98 281.651 173.98 Z" transform="matrix(1, 0, 0, 1, 0, -39.86491)"/>
    <path d="M 87.019 212.319 Q 86.02 212.319 85.484 211.783 Q 84.947 211.246 84.947 210.247 L 84.947 188.306 Q 84.947 187.307 85.484 186.77 Q 86.02 186.234 87.019 186.234 L 94.16 186.234 Q 100.598 186.234 104.095 189.582 Q 107.591 192.931 107.591 199.258 Q 107.591 202.403 106.703 204.845 Q 105.815 207.287 104.095 208.934 Q 102.374 210.58 99.895 211.45 Q 97.416 212.319 94.16 212.319 Z M 88.795 209.1 L 93.938 209.1 Q 96.38 209.1 98.175 208.49 Q 99.969 207.879 101.19 206.658 Q 102.411 205.437 103.003 203.587 Q 103.595 201.737 103.595 199.258 Q 103.595 194.337 101.172 191.895 Q 98.748 189.453 93.938 189.453 L 88.795 189.453 Z" style="fill: rgba(0, 0, 0, 0.506);"/>
    <path d="M 114.157 212.541 Q 113.269 212.541 112.788 212.005 Q 112.307 211.468 112.307 210.506 L 112.307 196.076 Q 112.307 195.114 112.788 194.596 Q 113.269 194.078 114.157 194.078 Q 115.045 194.078 115.544 194.596 Q 116.044 195.114 116.044 196.076 L 116.044 210.506 Q 116.044 211.468 115.563 212.005 Q 115.082 212.541 114.157 212.541 Z M 114.157 190.23 Q 113.047 190.23 112.436 189.675 Q 111.826 189.12 111.826 188.121 Q 111.826 187.085 112.436 186.548 Q 113.047 186.012 114.157 186.012 Q 115.267 186.012 115.877 186.548 Q 116.488 187.085 116.488 188.121 Q 116.488 189.12 115.877 189.675 Q 115.267 190.23 114.157 190.23 Z" style="fill: rgba(0, 0, 0, 0.506);"/>
    <path d="M 127.634 212.652 Q 126.006 212.652 124.285 212.282 Q 122.565 211.912 121.122 211.024 Q 120.641 210.691 120.456 210.284 Q 120.271 209.877 120.326 209.452 Q 120.382 209.026 120.659 208.712 Q 120.937 208.397 121.362 208.323 Q 121.788 208.249 122.269 208.508 Q 123.712 209.322 125.044 209.637 Q 126.376 209.951 127.671 209.951 Q 129.632 209.951 130.631 209.248 Q 131.63 208.545 131.63 207.361 Q 131.63 206.399 130.964 205.863 Q 130.298 205.326 128.966 205.03 L 125.451 204.327 Q 123.157 203.846 121.973 202.625 Q 120.789 201.404 120.789 199.517 Q 120.789 197.815 121.714 196.557 Q 122.639 195.299 124.304 194.615 Q 125.969 193.93 128.152 193.93 Q 129.78 193.93 131.223 194.337 Q 132.666 194.744 133.887 195.558 Q 134.368 195.817 134.516 196.243 Q 134.664 196.668 134.571 197.075 Q 134.479 197.482 134.183 197.797 Q 133.887 198.111 133.461 198.167 Q 133.036 198.222 132.518 197.963 Q 131.408 197.26 130.316 196.964 Q 129.225 196.668 128.152 196.668 Q 126.191 196.668 125.21 197.39 Q 124.23 198.111 124.23 199.332 Q 124.23 200.257 124.822 200.849 Q 125.414 201.441 126.672 201.7 L 130.187 202.403 Q 132.592 202.884 133.831 204.031 Q 135.071 205.178 135.071 207.139 Q 135.071 209.692 133.036 211.172 Q 131.001 212.652 127.634 212.652 Z" style="fill: rgba(0, 0, 0, 0.506);"/>
    <path d="M 141.048 219.238 Q 140.16 219.238 139.679 218.757 Q 139.198 218.276 139.198 217.351 L 139.198 195.891 Q 139.198 194.966 139.679 194.485 Q 140.16 194.004 141.011 194.004 Q 141.899 194.004 142.38 194.485 Q 142.861 194.966 142.861 195.891 L 142.861 199.11 L 142.454 198.333 Q 143.046 196.335 144.785 195.133 Q 146.524 193.93 148.892 193.93 Q 151.297 193.93 153.091 195.077 Q 154.886 196.224 155.866 198.296 Q 156.847 200.368 156.847 203.291 Q 156.847 206.14 155.866 208.268 Q 154.886 210.395 153.11 211.524 Q 151.334 212.652 148.892 212.652 Q 146.561 212.652 144.822 211.468 Q 143.083 210.284 142.491 208.323 L 142.935 208.323 L 142.935 217.351 Q 142.935 218.276 142.435 218.757 Q 141.936 219.238 141.048 219.238 Z M 147.967 209.766 Q 149.521 209.766 150.668 209.026 Q 151.815 208.286 152.444 206.843 Q 153.073 205.4 153.073 203.291 Q 153.073 200.109 151.685 198.481 Q 150.298 196.853 147.967 196.853 Q 146.45 196.853 145.284 197.575 Q 144.119 198.296 143.49 199.739 Q 142.861 201.182 142.861 203.291 Q 142.861 206.436 144.267 208.101 Q 145.673 209.766 147.967 209.766 Z" style="fill: rgba(0, 0, 0, 0.506);"/>
    <path d="M 166.883 212.652 Q 163.997 212.652 162.535 210.969 Q 161.074 209.285 161.074 206.103 L 161.074 187.862 Q 161.074 186.937 161.555 186.456 Q 162.036 185.975 162.924 185.975 Q 163.812 185.975 164.311 186.456 Q 164.811 186.937 164.811 187.862 L 164.811 205.881 Q 164.811 207.731 165.569 208.638 Q 166.328 209.544 167.771 209.544 Q 168.104 209.544 168.363 209.526 Q 168.622 209.507 168.881 209.47 Q 169.325 209.433 169.51 209.711 Q 169.695 209.988 169.695 210.839 Q 169.695 211.616 169.362 212.042 Q 169.029 212.467 168.289 212.578 Q 167.956 212.615 167.586 212.634 Q 167.216 212.652 166.883 212.652 Z" style="fill: rgba(0, 0, 0, 0.506);"/>
    <path d="M 178.158 212.652 Q 176.271 212.652 174.773 211.912 Q 173.274 211.172 172.423 209.914 Q 171.572 208.656 171.572 207.065 Q 171.572 205.067 172.59 203.902 Q 173.607 202.736 175.957 202.237 Q 178.306 201.737 182.302 201.737 L 184.041 201.737 L 184.041 204.031 L 182.339 204.031 Q 179.675 204.031 178.121 204.29 Q 176.567 204.549 175.92 205.16 Q 175.272 205.77 175.272 206.843 Q 175.272 208.249 176.234 209.119 Q 177.196 209.988 178.898 209.988 Q 180.267 209.988 181.303 209.341 Q 182.339 208.693 182.95 207.583 Q 183.56 206.473 183.56 205.03 L 183.56 200.775 Q 183.56 198.666 182.672 197.741 Q 181.784 196.816 179.749 196.816 Q 178.565 196.816 177.289 197.112 Q 176.012 197.408 174.643 198.111 Q 174.014 198.407 173.57 198.296 Q 173.126 198.185 172.867 197.797 Q 172.608 197.408 172.59 196.946 Q 172.571 196.483 172.812 196.039 Q 173.052 195.595 173.644 195.373 Q 175.272 194.596 176.863 194.263 Q 178.454 193.93 179.86 193.93 Q 182.339 193.93 183.949 194.707 Q 185.558 195.484 186.335 197.075 Q 187.112 198.666 187.112 201.182 L 187.112 210.691 Q 187.112 211.579 186.668 212.079 Q 186.224 212.578 185.373 212.578 Q 184.559 212.578 184.078 212.079 Q 183.597 211.579 183.597 210.691 L 183.597 208.286 L 183.93 208.286 Q 183.634 209.655 182.839 210.636 Q 182.043 211.616 180.859 212.134 Q 179.675 212.652 178.158 212.652 Z" style="fill: rgba(0, 0, 0, 0.506);"/>
    <path d="M 196.314 219.238 Q 195.648 219.238 195.222 218.887 Q 194.797 218.535 194.741 217.962 Q 194.686 217.388 194.945 216.722 L 197.461 211.061 L 197.461 212.652 L 190.542 196.557 Q 190.283 195.891 190.357 195.299 Q 190.431 194.707 190.912 194.356 Q 191.393 194.004 192.207 194.004 Q 192.91 194.004 193.317 194.337 Q 193.724 194.67 194.057 195.484 L 199.644 209.285 L 198.608 209.285 L 204.269 195.484 Q 204.602 194.633 205.046 194.319 Q 205.49 194.004 206.267 194.004 Q 206.933 194.004 207.321 194.356 Q 207.71 194.707 207.802 195.281 Q 207.895 195.854 207.599 196.52 L 198.349 217.795 Q 197.979 218.646 197.516 218.942 Q 197.054 219.238 196.314 219.238 Z" style="fill: rgba(0, 0, 0, 0.506);"/>
    <path d="M 213.514 212.578 Q 212.663 212.578 212.182 212.097 Q 211.701 211.616 211.701 210.728 L 211.701 187.899 Q 211.701 186.974 212.163 186.474 Q 212.626 185.975 213.403 185.975 Q 214.069 185.975 214.42 186.215 Q 214.772 186.456 215.253 187.085 L 230.497 207.176 L 229.572 207.176 L 229.572 187.788 Q 229.572 186.937 230.034 186.456 Q 230.497 185.975 231.348 185.975 Q 232.236 185.975 232.68 186.456 Q 233.124 186.937 233.124 187.788 L 233.124 210.765 Q 233.124 211.616 232.698 212.097 Q 232.273 212.578 231.57 212.578 Q 230.904 212.578 230.478 212.319 Q 230.053 212.06 229.572 211.431 L 214.402 191.377 L 215.253 191.377 L 215.253 210.728 Q 215.253 211.616 214.809 212.097 Q 214.365 212.578 213.514 212.578 Z" style="fill: rgba(0, 0, 0, 0.506);"/>
    <path d="M 244.551 212.652 Q 242.664 212.652 241.165 211.912 Q 239.667 211.172 238.816 209.914 Q 237.965 208.656 237.965 207.065 Q 237.965 205.067 238.982 203.902 Q 240 202.736 242.349 202.237 Q 244.699 201.737 248.695 201.737 L 250.434 201.737 L 250.434 204.031 L 248.732 204.031 Q 246.068 204.031 244.514 204.29 Q 242.96 204.549 242.312 205.16 Q 241.665 205.77 241.665 206.843 Q 241.665 208.249 242.627 209.119 Q 243.589 209.988 245.291 209.988 Q 246.66 209.988 247.696 209.341 Q 248.732 208.693 249.342 207.583 Q 249.953 206.473 249.953 205.03 L 249.953 200.775 Q 249.953 198.666 249.065 197.741 Q 248.177 196.816 246.142 196.816 Q 244.958 196.816 243.681 197.112 Q 242.405 197.408 241.036 198.111 Q 240.407 198.407 239.963 198.296 Q 239.519 198.185 239.26 197.797 Q 239.001 197.408 238.982 196.946 Q 238.964 196.483 239.204 196.039 Q 239.445 195.595 240.037 195.373 Q 241.665 194.596 243.256 194.263 Q 244.847 193.93 246.253 193.93 Q 248.732 193.93 250.341 194.707 Q 251.951 195.484 252.728 197.075 Q 253.505 198.666 253.505 201.182 L 253.505 210.691 Q 253.505 211.579 253.061 212.079 Q 252.617 212.578 251.766 212.578 Q 250.952 212.578 250.471 212.079 Q 249.99 211.579 249.99 210.691 L 249.99 208.286 L 250.323 208.286 Q 250.027 209.655 249.231 210.636 Q 248.436 211.616 247.252 212.134 Q 246.068 212.652 244.551 212.652 Z" style="fill: rgba(0, 0, 0, 0.506);"/>
    <path d="M 260.578 212.578 Q 259.69 212.578 259.209 212.079 Q 258.728 211.579 258.728 210.691 L 258.728 195.891 Q 258.728 194.966 259.209 194.485 Q 259.69 194.004 260.541 194.004 Q 261.429 194.004 261.892 194.485 Q 262.354 194.966 262.354 195.891 L 262.354 198.925 L 261.947 198.111 Q 262.687 196.15 264.241 195.04 Q 265.795 193.93 267.978 193.93 Q 270.235 193.93 271.641 195.003 Q 273.047 196.076 273.565 198.296 L 273.047 198.296 Q 273.75 196.261 275.452 195.096 Q 277.154 193.93 279.411 193.93 Q 281.483 193.93 282.815 194.726 Q 284.147 195.521 284.813 197.131 Q 285.479 198.74 285.479 201.182 L 285.479 210.691 Q 285.479 211.579 284.98 212.079 Q 284.48 212.578 283.592 212.578 Q 282.704 212.578 282.223 212.079 Q 281.742 211.579 281.742 210.691 L 281.742 201.367 Q 281.742 199.073 280.947 198 Q 280.151 196.927 278.338 196.927 Q 276.303 196.927 275.119 198.333 Q 273.935 199.739 273.935 202.218 L 273.935 210.691 Q 273.935 211.579 273.454 212.079 Q 272.973 212.578 272.085 212.578 Q 271.197 212.578 270.698 212.079 Q 270.198 211.579 270.198 210.691 L 270.198 201.367 Q 270.198 199.073 269.421 198 Q 268.644 196.927 266.831 196.927 Q 264.796 196.927 263.631 198.333 Q 262.465 199.739 262.465 202.218 L 262.465 210.691 Q 262.465 212.578 260.578 212.578 Z" style="fill: rgba(0, 0, 0, 0.506);"/>
    <path d="M 299.159 212.652 Q 296.199 212.652 294.072 211.524 Q 291.944 210.395 290.779 208.305 Q 289.613 206.214 289.613 203.328 Q 289.613 200.516 290.76 198.407 Q 291.907 196.298 293.905 195.114 Q 295.903 193.93 298.456 193.93 Q 300.343 193.93 301.823 194.541 Q 303.303 195.151 304.358 196.317 Q 305.412 197.482 305.949 199.147 Q 306.485 200.812 306.485 202.884 Q 306.485 203.513 306.115 203.828 Q 305.745 204.142 305.005 204.142 L 292.573 204.142 L 292.573 201.848 L 303.969 201.848 L 303.34 202.366 Q 303.34 200.516 302.804 199.221 Q 302.267 197.926 301.213 197.242 Q 300.158 196.557 298.604 196.557 Q 296.865 196.557 295.663 197.371 Q 294.46 198.185 293.831 199.628 Q 293.202 201.071 293.202 202.995 L 293.202 203.217 Q 293.202 206.473 294.738 208.12 Q 296.273 209.766 299.196 209.766 Q 300.306 209.766 301.546 209.47 Q 302.785 209.174 303.895 208.471 Q 304.524 208.101 305.024 208.138 Q 305.523 208.175 305.838 208.471 Q 306.152 208.767 306.226 209.211 Q 306.3 209.655 306.078 210.118 Q 305.856 210.58 305.301 210.95 Q 304.043 211.801 302.378 212.227 Q 300.713 212.652 299.159 212.652 Z" style="fill: rgba(0, 0, 0, 0.506);"/>
  </g>
</svg>