<?xml version="1.0" encoding="utf-8"?>
<svg viewBox="838.419 234.309 279.473 235.662" xmlns="http://www.w3.org/2000/svg">
  <g transform="matrix(0.9999999999999999, 0, 0, 0.9999999999999999, 783.2330322265625, 212.12599182128903)">
    <rect y="22.183" width="279.473" height="235.662" style="fill: rgb(188, 188, 188);" x="55.186"/>
    <rect style="fill: rgb(138, 138, 138);" x="60.828" y="29.686" width="267.282" height="220.654" rx="2" ry="2"/>
    <rect style="fill: rgb(226, 88, 94);" x="68.267" y="36.823" width="253.312" height="206.382" rx="2" ry="2"/>
    <rect style="paint-order: fill; fill: rgb(241, 120, 125);" x="75.878" y="44.493" width="238.091" height="191.043" rx="2" ry="2"/>
    <path d="M 173.325 117.205 Q 170.043 117.205 168.253 115.378 Q 166.462 113.55 166.462 110.193 L 166.462 70.282 Q 166.462 66.85 168.253 65.06 Q 170.043 63.27 173.325 63.27 Q 176.682 63.27 178.436 65.06 Q 180.189 66.85 180.189 70.282 L 180.189 110.193 Q 180.189 113.55 178.473 115.378 Q 176.757 117.205 173.325 117.205 Z"/>
    <path d="M 196.666 117.205 Q 193.384 117.205 191.556 115.378 Q 189.728 113.55 189.728 110.118 L 189.728 71.028 Q 189.728 67.596 191.556 65.769 Q 193.384 63.941 196.89 63.941 L 221.732 63.941 Q 224.417 63.941 225.76 65.284 Q 227.103 66.627 227.103 69.163 Q 227.103 71.774 225.76 73.154 Q 224.417 74.534 221.732 74.534 L 203.455 74.534 L 203.455 85.127 L 220.091 85.127 Q 222.702 85.127 224.082 86.47 Q 225.462 87.813 225.462 90.349 Q 225.462 92.96 224.082 94.303 Q 222.702 95.646 220.091 95.646 L 203.455 95.646 L 203.455 110.118 Q 203.455 117.205 196.666 117.205 Z"/>
    <path d="M 189.383 212.319 Q 188.581 212.319 188.122 211.861 Q 187.664 211.402 187.664 210.638 Q 187.664 209.836 188.122 209.416 Q 188.581 208.996 189.383 208.996 L 194.043 208.996 L 194.043 188.673 L 196.03 188.673 L 190.452 192.226 Q 189.841 192.57 189.325 192.493 Q 188.81 192.417 188.447 192.073 Q 188.084 191.729 187.95 191.233 Q 187.817 190.736 188.027 190.201 Q 188.237 189.666 188.81 189.323 L 194.081 185.999 Q 194.731 185.617 195.323 185.369 Q 195.915 185.121 196.45 185.121 Q 197.099 185.121 197.538 185.484 Q 197.978 185.846 197.978 186.687 L 197.978 208.996 L 202.256 208.996 Q 203.097 208.996 203.555 209.416 Q 204.013 209.836 204.013 210.638 Q 204.013 211.44 203.555 211.88 Q 203.097 212.319 202.256 212.319 Z" style="fill: rgba(0, 0, 0, 0.506);"/>
    <path d="M 114.437 169.328 Q 113.514 169.328 113.018 168.832 Q 112.522 168.336 112.522 167.413 L 112.522 147.132 Q 112.522 146.209 113.018 145.713 Q 113.514 145.217 114.437 145.217 L 126.92 145.217 Q 127.639 145.217 128.015 145.576 Q 128.391 145.935 128.391 146.619 Q 128.391 147.337 128.015 147.714 Q 127.639 148.09 126.92 148.09 L 115.942 148.09 L 115.942 155.648 L 126.168 155.648 Q 126.92 155.648 127.279 156.024 Q 127.639 156.4 127.639 157.084 Q 127.639 157.803 127.279 158.162 Q 126.92 158.521 126.168 158.521 L 115.942 158.521 L 115.942 166.455 L 126.92 166.455 Q 127.639 166.455 128.015 166.831 Q 128.391 167.208 128.391 167.892 Q 128.391 168.61 128.015 168.969 Q 127.639 169.328 126.92 169.328 Z" style="fill: rgba(0, 0, 0, 0.506);"/>
    <path d="M 151.771 173.569 Q 152.182 174.184 152.113 174.697 Q 152.045 175.21 151.686 175.57 Q 151.327 175.929 150.797 176.014 Q 150.267 176.1 149.736 175.894 Q 149.206 175.689 148.83 175.074 L 146.573 171.414 Q 146.06 170.559 145.171 170.098 Q 144.282 169.636 143.016 169.636 L 145.821 168.507 Q 147.428 168.507 148.368 169.072 Q 149.309 169.636 150.232 171.106 Z M 143.05 169.636 Q 139.63 169.636 137.082 168.114 Q 134.535 166.592 133.149 163.805 Q 131.764 161.017 131.764 157.255 Q 131.764 154.417 132.551 152.143 Q 133.338 149.868 134.808 148.244 Q 136.279 146.619 138.365 145.764 Q 140.451 144.909 143.05 144.909 Q 146.505 144.909 149.035 146.414 Q 151.566 147.919 152.951 150.689 Q 154.336 153.459 154.336 157.221 Q 154.336 160.06 153.55 162.351 Q 152.763 164.643 151.275 166.284 Q 149.788 167.926 147.702 168.781 Q 145.615 169.636 143.05 169.636 Z M 143.05 166.558 Q 145.444 166.558 147.137 165.463 Q 148.83 164.369 149.736 162.283 Q 150.643 160.197 150.643 157.255 Q 150.643 152.844 148.659 150.415 Q 146.676 147.987 143.05 147.987 Q 140.656 147.987 138.963 149.065 Q 137.271 150.142 136.364 152.228 Q 135.458 154.314 135.458 157.255 Q 135.458 161.633 137.459 164.095 Q 139.459 166.558 143.05 166.558 Z" style="fill: rgba(0, 0, 0, 0.506);"/>
    <path d="M 168.833 169.636 Q 166.405 169.636 164.558 169.003 Q 162.711 168.37 161.463 167.105 Q 160.214 165.84 159.565 163.959 Q 158.915 162.078 158.915 159.615 L 158.915 146.756 Q 158.915 145.867 159.377 145.422 Q 159.838 144.978 160.693 144.978 Q 161.548 144.978 162.01 145.422 Q 162.472 145.867 162.472 146.756 L 162.472 159.547 Q 162.472 163.069 164.096 164.814 Q 165.721 166.558 168.833 166.558 Q 171.979 166.558 173.587 164.814 Q 175.194 163.069 175.194 159.547 L 175.194 146.756 Q 175.194 145.867 175.656 145.422 Q 176.117 144.978 176.938 144.978 Q 177.793 144.978 178.238 145.422 Q 178.682 145.867 178.682 146.756 L 178.682 159.615 Q 178.682 162.898 177.571 165.139 Q 176.459 167.379 174.271 168.507 Q 172.082 169.636 168.833 169.636 Z" style="fill: rgba(0, 0, 0, 0.506);"/>
    <path d="M 183.84 169.567 Q 183.156 169.567 182.746 169.26 Q 182.335 168.952 182.267 168.439 Q 182.199 167.926 182.472 167.276 L 191.74 146.482 Q 192.082 145.662 192.613 145.32 Q 193.143 144.978 193.792 144.978 Q 194.408 144.978 194.938 145.32 Q 195.468 145.662 195.81 146.482 L 205.078 167.276 Q 205.386 167.926 205.318 168.456 Q 205.249 168.986 204.873 169.277 Q 204.497 169.567 203.813 169.567 Q 203.061 169.567 202.616 169.191 Q 202.171 168.815 201.829 168.028 L 199.435 162.488 L 201.043 163.446 L 186.474 163.446 L 188.047 162.488 L 185.687 168.028 Q 185.345 168.849 184.935 169.208 Q 184.524 169.567 183.84 169.567 Z M 193.724 149.15 L 188.56 161.394 L 187.705 160.573 L 199.777 160.573 L 198.991 161.394 L 193.792 149.15 Z" style="fill: rgba(0, 0, 0, 0.506);"/>
    <path d="M 210.947 169.328 Q 210.092 169.328 209.613 168.849 Q 209.134 168.37 209.134 167.515 L 209.134 146.893 Q 209.134 146.004 209.596 145.542 Q 210.057 145.08 210.912 145.08 Q 211.767 145.08 212.229 145.542 Q 212.691 146.004 212.691 146.893 L 212.691 166.284 L 223.293 166.284 Q 224.045 166.284 224.456 166.678 Q 224.866 167.071 224.866 167.789 Q 224.866 168.507 224.456 168.918 Q 224.045 169.328 223.293 169.328 Z" style="fill: rgba(0, 0, 0, 0.506);"/>
    <path d="M 244.702 169.567 Q 243.847 169.567 243.385 169.089 Q 242.923 168.61 242.923 167.755 L 242.923 148.192 L 235.673 148.192 Q 234.955 148.192 234.544 147.799 Q 234.134 147.406 234.134 146.688 Q 234.134 145.969 234.544 145.593 Q 234.955 145.217 235.673 145.217 L 253.696 145.217 Q 254.449 145.217 254.859 145.593 Q 255.269 145.969 255.269 146.688 Q 255.269 147.406 254.859 147.799 Q 254.449 148.192 253.696 148.192 L 246.446 148.192 L 246.446 167.755 Q 246.446 168.61 246.018 169.089 Q 245.591 169.567 244.702 169.567 Z" style="fill: rgba(0, 0, 0, 0.506);"/>
    <path d="M 266.882 169.636 Q 263.462 169.636 260.914 168.114 Q 258.366 166.592 256.981 163.805 Q 255.596 161.017 255.596 157.255 Q 255.596 154.417 256.382 152.143 Q 257.169 149.868 258.639 148.244 Q 260.11 146.619 262.196 145.764 Q 264.282 144.909 266.882 144.909 Q 270.336 144.909 272.867 146.414 Q 275.397 147.919 276.782 150.689 Q 278.168 153.459 278.168 157.221 Q 278.168 160.06 277.381 162.351 Q 276.594 164.643 275.107 166.284 Q 273.619 167.926 271.533 168.781 Q 269.447 169.636 266.882 169.636 Z M 266.882 166.558 Q 269.276 166.558 270.968 165.463 Q 272.661 164.369 273.568 162.283 Q 274.474 160.197 274.474 157.255 Q 274.474 152.844 272.49 150.415 Q 270.507 147.987 266.882 147.987 Q 264.488 147.987 262.795 149.065 Q 261.102 150.142 260.195 152.228 Q 259.289 154.314 259.289 157.255 Q 259.289 161.633 261.29 164.095 Q 263.291 166.558 266.882 166.558 Z" style="fill: rgba(0, 0, 0, 0.506);"/>
  </g>
</svg>