<?xml version="1.0" encoding="utf-8"?>
<svg viewBox="1117.8919 234.309 279.473 235.662" xmlns="http://www.w3.org/2000/svg">
  <g transform="matrix(0.9999999999999999, 0, 0, 0.9999999999999999, 1062.7059326171873, 212.12602233886716)">
    <rect y="22.183" width="279.473" height="235.662" style="fill: rgb(188, 188, 188);" x="55.186"/>
    <rect style="fill: rgb(138, 138, 138);" x="60.828" y="29.686" width="267.282" height="220.654" rx="2" ry="2"/>
    <rect style="fill: rgb(130, 172, 119);" x="68.267" y="36.823" width="253.312" height="206.382" ry="0" rx="0"/>
    <rect style="paint-order: fill; fill: rgb(164, 202, 154);" x="75.878" y="44.493" width="238.091" height="191.043" rx="2" ry="2"/>
    <path d="M 48.176 137.656 Q 46.592 137.656 45.71 136.774 Q 44.828 135.892 44.828 134.308 L 44.828 115.588 Q 44.828 113.968 45.692 113.104 Q 46.556 112.24 48.14 112.24 Q 49.76 112.24 50.606 113.104 Q 51.452 113.968 51.452 115.588 L 51.452 132.148 L 60.236 132.148 Q 61.604 132.148 62.342 132.85 Q 63.08 133.552 63.08 134.884 Q 63.08 136.216 62.342 136.936 Q 61.604 137.656 60.236 137.656 Z" transform="matrix(1, 0, 0, 1, 96.446953, -57.22113)"/>
    <path d="M 76.709 138.052 Q 72.857 138.052 69.941 136.414 Q 67.025 134.776 65.423 131.824 Q 63.821 128.872 63.821 124.948 Q 63.821 121.996 64.739 119.584 Q 65.657 117.172 67.367 115.444 Q 69.077 113.716 71.453 112.798 Q 73.829 111.88 76.709 111.88 Q 80.561 111.88 83.459 113.5 Q 86.357 115.12 87.977 118.054 Q 89.597 120.988 89.597 124.948 Q 89.597 127.9 88.679 130.312 Q 87.761 132.724 86.051 134.47 Q 84.341 136.216 81.965 137.134 Q 79.589 138.052 76.709 138.052 Z M 76.709 132.508 Q 78.617 132.508 79.949 131.608 Q 81.281 130.708 82.001 129.016 Q 82.721 127.324 82.721 124.948 Q 82.721 121.384 81.137 119.404 Q 79.553 117.424 76.709 117.424 Q 74.837 117.424 73.487 118.306 Q 72.137 119.188 71.417 120.862 Q 70.697 122.536 70.697 124.948 Q 70.697 128.512 72.281 130.51 Q 73.865 132.508 76.709 132.508 Z" transform="matrix(1, 0, 0, 1, 96.446953, -57.22113)"/>
    <path d="M 105.757 138.052 Q 101.905 138.052 98.989 136.414 Q 96.073 134.776 94.471 131.824 Q 92.869 128.872 92.869 124.948 Q 92.869 121.996 93.787 119.584 Q 94.705 117.172 96.415 115.444 Q 98.125 113.716 100.501 112.798 Q 102.877 111.88 105.757 111.88 Q 109.609 111.88 112.507 113.5 Q 115.405 115.12 117.025 118.054 Q 118.645 120.988 118.645 124.948 Q 118.645 127.9 117.727 130.312 Q 116.809 132.724 115.099 134.47 Q 113.389 136.216 111.013 137.134 Q 108.637 138.052 105.757 138.052 Z M 105.757 132.508 Q 107.665 132.508 108.997 131.608 Q 110.329 130.708 111.049 129.016 Q 111.769 127.324 111.769 124.948 Q 111.769 121.384 110.185 119.404 Q 108.601 117.424 105.757 117.424 Q 103.885 117.424 102.535 118.306 Q 101.185 119.188 100.465 120.862 Q 99.745 122.536 99.745 124.948 Q 99.745 128.512 101.329 130.51 Q 102.913 132.508 105.757 132.508 Z" transform="matrix(1, 0, 0, 1, 96.446953, -57.22113)"/>
    <path d="M 125.876 137.98 Q 124.292 137.98 123.428 137.098 Q 122.564 136.216 122.564 134.632 L 122.564 115.624 Q 122.564 114.004 123.446 113.14 Q 124.328 112.276 125.912 112.276 L 134.768 112.276 Q 139.088 112.276 141.446 114.49 Q 143.804 116.704 143.804 120.592 Q 143.804 124.48 141.446 126.694 Q 139.088 128.908 134.768 128.908 L 129.188 128.908 L 129.188 134.632 Q 129.188 136.216 128.36 137.098 Q 127.532 137.98 125.876 137.98 Z M 129.188 123.832 L 133.616 123.832 Q 135.488 123.832 136.496 123.022 Q 137.504 122.212 137.504 120.592 Q 137.504 118.936 136.496 118.144 Q 135.488 117.352 133.616 117.352 L 129.188 117.352 Z" transform="matrix(1, 0, 0, 1, 96.446953, -57.22113)"/>
    <path d="M 11.24 173.98 Q 9.656 173.98 8.792 173.098 Q 7.928 172.216 7.928 170.632 L 7.928 153.676 L 2.276 153.676 Q 0.944 153.676 0.242 152.974 Q -0.46 152.272 -0.46 150.976 Q -0.46 149.644 0.242 148.96 Q 0.944 148.276 2.276 148.276 L 20.204 148.276 Q 21.536 148.276 22.238 148.96 Q 22.94 149.644 22.94 150.976 Q 22.94 152.272 22.238 152.974 Q 21.536 153.676 20.204 153.676 L 14.552 153.676 L 14.552 170.632 Q 14.552 172.216 13.724 173.098 Q 12.896 173.98 11.24 173.98 Z" transform="matrix(1, 0, 0, 1, 96.446953, -57.22113)"/>
    <path d="M 28.437 173.98 Q 26.853 173.98 25.989 173.098 Q 25.125 172.216 25.125 170.596 L 25.125 151.336 Q 25.125 149.68 25.989 148.816 Q 26.853 147.952 28.437 147.952 Q 30.057 147.952 30.903 148.816 Q 31.749 149.68 31.749 151.336 L 31.749 158.068 L 42.225 158.068 L 42.225 151.336 Q 42.225 149.68 43.071 148.816 Q 43.917 147.952 45.537 147.952 Q 47.121 147.952 47.967 148.816 Q 48.813 149.68 48.813 151.336 L 48.813 170.596 Q 48.813 172.216 47.967 173.098 Q 47.121 173.98 45.537 173.98 Q 43.917 173.98 43.071 173.098 Q 42.225 172.216 42.225 170.596 L 42.225 163.504 L 31.749 163.504 L 31.749 170.596 Q 31.749 172.216 30.921 173.098 Q 30.093 173.98 28.437 173.98 Z" transform="matrix(1, 0, 0, 1, 96.446953, -57.22113)"/>
    <path d="M 56.718 173.98 Q 55.134 173.98 54.27 173.098 Q 53.406 172.216 53.406 170.632 L 53.406 151.624 Q 53.406 150.004 54.288 149.14 Q 55.17 148.276 56.754 148.276 L 65.61 148.276 Q 69.93 148.276 72.288 150.382 Q 74.646 152.488 74.646 156.232 Q 74.646 158.644 73.584 160.426 Q 72.522 162.208 70.524 163.162 Q 68.526 164.116 65.61 164.116 L 65.898 163.468 L 67.626 163.468 Q 69.174 163.468 70.362 164.206 Q 71.55 164.944 72.342 166.456 L 74.142 169.696 Q 74.718 170.74 74.682 171.73 Q 74.646 172.72 73.908 173.35 Q 73.17 173.98 71.766 173.98 Q 70.362 173.98 69.48 173.404 Q 68.598 172.828 67.914 171.604 L 64.638 165.592 Q 64.206 164.8 63.54 164.494 Q 62.874 164.188 62.01 164.188 L 60.03 164.188 L 60.03 170.632 Q 60.03 172.216 59.202 173.098 Q 58.374 173.98 56.718 173.98 Z M 60.03 159.508 L 64.422 159.508 Q 66.33 159.508 67.338 158.752 Q 68.346 157.996 68.346 156.412 Q 68.346 154.9 67.338 154.126 Q 66.33 153.352 64.422 153.352 L 60.03 153.352 Z" transform="matrix(1, 0, 0, 1, 96.446953, -57.22113)"/>
    <path d="M 90.881 174.052 Q 87.029 174.052 84.113 172.414 Q 81.197 170.776 79.595 167.824 Q 77.993 164.872 77.993 160.948 Q 77.993 157.996 78.911 155.584 Q 79.829 153.172 81.539 151.444 Q 83.249 149.716 85.625 148.798 Q 88.001 147.88 90.881 147.88 Q 94.733 147.88 97.631 149.5 Q 100.529 151.12 102.149 154.054 Q 103.769 156.988 103.769 160.948 Q 103.769 163.9 102.851 166.312 Q 101.933 168.724 100.223 170.47 Q 98.513 172.216 96.137 173.134 Q 93.761 174.052 90.881 174.052 Z M 90.881 168.508 Q 92.789 168.508 94.121 167.608 Q 95.453 166.708 96.173 165.016 Q 96.893 163.324 96.893 160.948 Q 96.893 157.384 95.309 155.404 Q 93.725 153.424 90.881 153.424 Q 89.009 153.424 87.659 154.306 Q 86.309 155.188 85.589 156.862 Q 84.869 158.536 84.869 160.948 Q 84.869 164.512 86.453 166.51 Q 88.037 168.508 90.881 168.508 Z" transform="matrix(1, 0, 0, 1, 96.446953, -57.22113)"/>
    <path d="M 118.921 174.052 Q 116.149 174.052 114.025 173.35 Q 111.901 172.648 110.443 171.244 Q 108.985 169.84 108.247 167.734 Q 107.509 165.628 107.509 162.856 L 107.509 151.3 Q 107.509 149.644 108.373 148.798 Q 109.237 147.952 110.821 147.952 Q 112.441 147.952 113.287 148.798 Q 114.133 149.644 114.133 151.3 L 114.133 162.928 Q 114.133 165.7 115.357 167.104 Q 116.581 168.508 118.921 168.508 Q 121.225 168.508 122.449 167.104 Q 123.673 165.7 123.673 162.928 L 123.673 151.3 Q 123.673 149.644 124.519 148.798 Q 125.365 147.952 126.949 147.952 Q 128.533 147.952 129.361 148.798 Q 130.189 149.644 130.189 151.3 L 130.189 162.856 Q 130.189 166.564 128.911 169.066 Q 127.633 171.568 125.113 172.81 Q 122.593 174.052 118.921 174.052 Z" transform="matrix(1, 0, 0, 1, 96.446953, -57.22113)"/>
    <path d="M 147.572 174.052 Q 143.216 174.052 140.174 172.432 Q 137.132 170.812 135.548 167.896 Q 133.964 164.98 133.964 161.092 Q 133.964 158.068 134.918 155.638 Q 135.872 153.208 137.672 151.462 Q 139.472 149.716 142.082 148.798 Q 144.692 147.88 148.004 147.88 Q 149.804 147.88 151.676 148.222 Q 153.548 148.564 155.348 149.5 Q 156.284 149.932 156.626 150.706 Q 156.968 151.48 156.842 152.326 Q 156.716 153.172 156.23 153.874 Q 155.744 154.576 154.916 154.81 Q 154.088 155.044 153.044 154.576 Q 151.964 154.072 150.704 153.802 Q 149.444 153.532 148.04 153.532 Q 145.628 153.532 144.026 154.396 Q 142.424 155.26 141.632 156.952 Q 140.84 158.644 140.84 161.092 Q 140.84 164.764 142.64 166.636 Q 144.44 168.508 147.968 168.508 Q 149.048 168.508 150.326 168.292 Q 151.604 168.076 152.9 167.68 L 151.676 170.164 L 151.676 164.008 L 149.156 164.008 Q 147.932 164.008 147.266 163.396 Q 146.6 162.784 146.6 161.668 Q 146.6 160.552 147.266 159.958 Q 147.932 159.364 149.156 159.364 L 154.484 159.364 Q 155.744 159.364 156.41 160.03 Q 157.076 160.696 157.076 161.956 L 157.076 169.912 Q 157.076 170.992 156.626 171.748 Q 156.176 172.504 155.204 172.828 Q 153.512 173.404 151.532 173.728 Q 149.552 174.052 147.572 174.052 Z" transform="matrix(1, 0, 0, 1, 96.446953, -57.22113)"/>
    <path d="M 164.799 173.98 Q 163.215 173.98 162.351 173.098 Q 161.487 172.216 161.487 170.596 L 161.487 151.336 Q 161.487 149.68 162.351 148.816 Q 163.215 147.952 164.799 147.952 Q 166.419 147.952 167.265 148.816 Q 168.111 149.68 168.111 151.336 L 168.111 158.068 L 178.587 158.068 L 178.587 151.336 Q 178.587 149.68 179.433 148.816 Q 180.279 147.952 181.899 147.952 Q 183.483 147.952 184.329 148.816 Q 185.175 149.68 185.175 151.336 L 185.175 170.596 Q 185.175 172.216 184.329 173.098 Q 183.483 173.98 181.899 173.98 Q 180.279 173.98 179.433 173.098 Q 178.587 172.216 178.587 170.596 L 178.587 163.504 L 168.111 163.504 L 168.111 170.596 Q 168.111 172.216 167.283 173.098 Q 166.455 173.98 164.799 173.98 Z" transform="matrix(1, 0, 0, 1, 96.446953, -57.22113)"/>
    <path d="M 6.361 209.656 Q 4.669 209.656 3.787 208.774 Q 2.905 207.892 2.905 206.236 L 2.905 187.696 Q 2.905 186.04 3.787 185.158 Q 4.669 184.276 6.361 184.276 L 18.565 184.276 Q 19.861 184.276 20.509 184.924 Q 21.157 185.572 21.157 186.796 Q 21.157 188.056 20.509 188.722 Q 19.861 189.388 18.565 189.388 L 9.241 189.388 L 9.241 194.212 L 17.773 194.212 Q 19.033 194.212 19.699 194.86 Q 20.365 195.508 20.365 196.768 Q 20.365 198.028 19.699 198.676 Q 19.033 199.324 17.773 199.324 L 9.241 199.324 L 9.241 204.544 L 18.565 204.544 Q 19.861 204.544 20.509 205.21 Q 21.157 205.876 21.157 207.1 Q 21.157 208.36 20.509 209.008 Q 19.861 209.656 18.565 209.656 Z" transform="matrix(1, 0, 0, 1, 96.446953, -57.22113)"/>
    <path d="M 36.15 209.98 Q 34.782 209.98 33.936 209.404 Q 33.09 208.828 32.514 207.568 L 23.802 188.344 Q 23.226 187.084 23.442 186.076 Q 23.658 185.068 24.45 184.51 Q 25.242 183.952 26.43 183.952 Q 27.906 183.952 28.644 184.6 Q 29.382 185.248 29.922 186.508 L 37.266 203.5 L 35.25 203.5 L 42.594 186.472 Q 43.134 185.212 43.89 184.582 Q 44.646 183.952 46.014 183.952 Q 47.13 183.952 47.886 184.51 Q 48.642 185.068 48.84 186.076 Q 49.038 187.084 48.462 188.344 L 39.714 207.568 Q 39.174 208.828 38.346 209.404 Q 37.518 209.98 36.15 209.98 Z" transform="matrix(1, 0, 0, 1, 96.446953, -57.22113)"/>
    <path d="M 55.222 209.656 Q 53.53 209.656 52.648 208.774 Q 51.766 207.892 51.766 206.236 L 51.766 187.696 Q 51.766 186.04 52.648 185.158 Q 53.53 184.276 55.222 184.276 L 67.426 184.276 Q 68.722 184.276 69.37 184.924 Q 70.018 185.572 70.018 186.796 Q 70.018 188.056 69.37 188.722 Q 68.722 189.388 67.426 189.388 L 58.102 189.388 L 58.102 194.212 L 66.634 194.212 Q 67.894 194.212 68.56 194.86 Q 69.226 195.508 69.226 196.768 Q 69.226 198.028 68.56 198.676 Q 67.894 199.324 66.634 199.324 L 58.102 199.324 L 58.102 204.544 L 67.426 204.544 Q 68.722 204.544 69.37 205.21 Q 70.018 205.876 70.018 207.1 Q 70.018 208.36 69.37 209.008 Q 68.722 209.656 67.426 209.656 Z" transform="matrix(1, 0, 0, 1, 96.446953, -57.22113)"/>
    <path d="M 77.188 209.98 Q 75.604 209.98 74.74 209.098 Q 73.876 208.216 73.876 206.632 L 73.876 187.624 Q 73.876 186.004 74.758 185.14 Q 75.64 184.276 77.224 184.276 L 86.08 184.276 Q 90.4 184.276 92.758 186.382 Q 95.116 188.488 95.116 192.232 Q 95.116 194.644 94.054 196.426 Q 92.992 198.208 90.994 199.162 Q 88.996 200.116 86.08 200.116 L 86.368 199.468 L 88.096 199.468 Q 89.644 199.468 90.832 200.206 Q 92.02 200.944 92.812 202.456 L 94.612 205.696 Q 95.188 206.74 95.152 207.73 Q 95.116 208.72 94.378 209.35 Q 93.64 209.98 92.236 209.98 Q 90.832 209.98 89.95 209.404 Q 89.068 208.828 88.384 207.604 L 85.108 201.592 Q 84.676 200.8 84.01 200.494 Q 83.344 200.188 82.48 200.188 L 80.5 200.188 L 80.5 206.632 Q 80.5 208.216 79.672 209.098 Q 78.844 209.98 77.188 209.98 Z M 80.5 195.508 L 84.892 195.508 Q 86.8 195.508 87.808 194.752 Q 88.816 193.996 88.816 192.412 Q 88.816 190.9 87.808 190.126 Q 86.8 189.352 84.892 189.352 L 80.5 189.352 Z" transform="matrix(1, 0, 0, 1, 96.446953, -57.22113)"/>
    <path d="M 108.242 209.98 Q 106.658 209.98 105.794 209.098 Q 104.93 208.216 104.93 206.56 L 104.93 196.696 L 106.298 200.332 L 98.018 188.416 Q 97.406 187.552 97.496 186.49 Q 97.586 185.428 98.36 184.69 Q 99.134 183.952 100.574 183.952 Q 101.582 183.952 102.41 184.438 Q 103.238 184.924 103.958 186.076 L 108.998 193.492 L 107.702 193.492 L 112.742 186.04 Q 113.498 184.888 114.29 184.42 Q 115.082 183.952 116.162 183.952 Q 117.53 183.952 118.286 184.636 Q 119.042 185.32 119.096 186.364 Q 119.15 187.408 118.43 188.488 L 110.222 200.332 L 111.554 196.696 L 111.554 206.56 Q 111.554 209.98 108.242 209.98 Z" transform="matrix(1, 0, 0, 1, 96.446953, -57.22113)"/>
    <path d="M 132.929 210.052 Q 129.077 210.052 126.161 208.414 Q 123.245 206.776 121.643 203.824 Q 120.041 200.872 120.041 196.948 Q 120.041 193.996 120.959 191.584 Q 121.877 189.172 123.587 187.444 Q 125.297 185.716 127.673 184.798 Q 130.049 183.88 132.929 183.88 Q 136.781 183.88 139.679 185.5 Q 142.577 187.12 144.197 190.054 Q 145.817 192.988 145.817 196.948 Q 145.817 199.9 144.899 202.312 Q 143.981 204.724 142.271 206.47 Q 140.561 208.216 138.185 209.134 Q 135.809 210.052 132.929 210.052 Z M 132.929 204.508 Q 134.837 204.508 136.169 203.608 Q 137.501 202.708 138.221 201.016 Q 138.941 199.324 138.941 196.948 Q 138.941 193.384 137.357 191.404 Q 135.773 189.424 132.929 189.424 Q 131.057 189.424 129.707 190.306 Q 128.357 191.188 127.637 192.862 Q 126.917 194.536 126.917 196.948 Q 126.917 200.512 128.501 202.51 Q 130.085 204.508 132.929 204.508 Z" transform="matrix(1, 0, 0, 1, 96.446953, -57.22113)"/>
    <path d="M 152.833 209.98 Q 151.321 209.98 150.529 209.188 Q 149.737 208.396 149.737 206.848 L 149.737 187.228 Q 149.737 185.644 150.529 184.798 Q 151.321 183.952 152.617 183.952 Q 153.769 183.952 154.417 184.384 Q 155.065 184.816 155.857 185.824 L 167.269 200.08 L 166.261 200.08 L 166.261 187.048 Q 166.261 185.536 167.035 184.744 Q 167.809 183.952 169.321 183.952 Q 170.833 183.952 171.607 184.744 Q 172.381 185.536 172.381 187.048 L 172.381 206.992 Q 172.381 208.36 171.661 209.17 Q 170.941 209.98 169.717 209.98 Q 168.493 209.98 167.791 209.53 Q 167.089 209.08 166.297 208.108 L 154.885 193.816 L 155.893 193.816 L 155.893 206.848 Q 155.893 208.396 155.119 209.188 Q 154.345 209.98 152.833 209.98 Z" transform="matrix(1, 0, 0, 1, 96.446953, -57.22113)"/>
    <path d="M 180.475 209.656 Q 178.783 209.656 177.901 208.774 Q 177.019 207.892 177.019 206.236 L 177.019 187.696 Q 177.019 186.04 177.901 185.158 Q 178.783 184.276 180.475 184.276 L 192.679 184.276 Q 193.975 184.276 194.623 184.924 Q 195.271 185.572 195.271 186.796 Q 195.271 188.056 194.623 188.722 Q 193.975 189.388 192.679 189.388 L 183.355 189.388 L 183.355 194.212 L 191.887 194.212 Q 193.147 194.212 193.813 194.86 Q 194.479 195.508 194.479 196.768 Q 194.479 198.028 193.813 198.676 Q 193.147 199.324 191.887 199.324 L 183.355 199.324 L 183.355 204.544 L 192.679 204.544 Q 193.975 204.544 194.623 205.21 Q 195.271 205.876 195.271 207.1 Q 195.271 208.36 194.623 209.008 Q 193.975 209.656 192.679 209.656 Z" transform="matrix(1, 0, 0, 1, 96.446953, -57.22113)"/>
    <path d="M 75.878 164.914 L 194.928 164.914 L 194.928 236.068 L 75.878 236.068 L 75.878 164.914 Z" style="paint-order: fill; stroke-width: 4px; stroke: rgb(130, 172, 119); fill: rgb(164, 202, 154);"/>
    <path d="M 385.689 216.066 Q 383.549 216.066 381.334 215.474 Q 379.118 214.882 377.476 213.697 Q 376.864 213.315 376.654 212.762 Q 376.444 212.208 376.559 211.73 Q 376.673 211.253 377.036 210.909 Q 377.399 210.565 377.934 210.508 Q 378.469 210.45 379.118 210.832 Q 380.761 211.826 382.327 212.265 Q 383.893 212.704 385.574 212.704 Q 387.408 212.704 388.668 212.169 Q 389.929 211.635 390.559 210.603 Q 391.189 209.572 391.189 208.12 Q 391.189 205.943 389.757 204.854 Q 388.324 203.765 385.612 203.765 L 383.015 203.765 Q 382.136 203.765 381.678 203.326 Q 381.219 202.887 381.219 202.085 Q 381.219 201.321 381.678 200.881 Q 382.136 200.442 383.015 200.442 L 385.23 200.442 Q 386.873 200.442 388.019 199.888 Q 389.165 199.334 389.795 198.322 Q 390.425 197.31 390.425 195.858 Q 390.425 193.91 389.146 192.859 Q 387.866 191.809 385.421 191.809 Q 383.855 191.809 382.461 192.229 Q 381.066 192.649 379.577 193.719 Q 379.004 194.101 378.488 194.044 Q 377.972 193.986 377.609 193.662 Q 377.246 193.337 377.113 192.84 Q 376.979 192.344 377.17 191.809 Q 377.361 191.274 377.934 190.892 Q 379.538 189.708 381.563 189.078 Q 383.588 188.447 385.727 188.447 Q 388.401 188.447 390.33 189.288 Q 392.259 190.128 393.271 191.694 Q 394.284 193.26 394.284 195.438 Q 394.284 197.08 393.672 198.417 Q 393.061 199.754 391.934 200.69 Q 390.807 201.626 389.203 202.008 L 389.203 201.588 Q 391.992 202.046 393.52 203.861 Q 395.048 205.675 395.048 208.388 Q 395.048 210.756 393.921 212.494 Q 392.794 214.232 390.693 215.149 Q 388.592 216.066 385.689 216.066 Z" transform="matrix(1, 0, 0, 1, -250.707001, -2.752)" style="fill: rgba(0, 0, 0, 0.506);"/>
    <path d="M 194.928 164.914 L 313.978 164.914 L 313.978 236.068 L 194.928 236.068 L 194.928 164.914 Z" style="paint-order: fill; stroke-width: 4px; stroke: rgb(130, 172, 119); fill: rgb(164, 202, 154);"/>
    <path d="M 380.57 215.722 Q 379.768 215.722 379.309 215.264 Q 378.851 214.805 378.851 214.041 Q 378.851 213.239 379.309 212.819 Q 379.768 212.399 380.57 212.399 L 385.23 212.399 L 385.23 192.076 L 387.217 192.076 L 381.639 195.629 Q 381.028 195.973 380.512 195.896 Q 379.997 195.82 379.634 195.476 Q 379.271 195.132 379.137 194.636 Q 379.004 194.139 379.214 193.604 Q 379.424 193.069 379.997 192.726 L 385.268 189.402 Q 385.918 189.02 386.51 188.772 Q 387.102 188.524 387.637 188.524 Q 388.286 188.524 388.725 188.887 Q 389.165 189.249 389.165 190.09 L 389.165 212.399 L 393.443 212.399 Q 394.284 212.399 394.742 212.819 Q 395.2 213.239 395.2 214.041 Q 395.2 214.843 394.742 215.283 Q 394.284 215.722 393.443 215.722 Z" transform="matrix(1, 0, 0, 1, -131.656998, -2.752279)" style="fill: rgba(0, 0, 0, 0.506);"/>
  </g>
</svg>