<?xml version="1.0" encoding="utf-8"?>
<svg viewBox="1397.365 234.309 279.473 235.662" xmlns="http://www.w3.org/2000/svg">
  <g transform="matrix(0.9999999999999999, 0, 0, 0.9999999999999999, 1342.1789550781248, 212.12599182128903)">
    <rect y="22.183" width="279.473" height="235.662" style="fill: rgb(188, 188, 188);" x="55.186"/>
    <rect style="fill: rgb(138, 138, 138);" x="60.828" y="29.686" width="267.282" height="220.654" rx="2" ry="2"/>
    <rect style="fill: rgb(53, 82, 169);" x="68.267" y="36.823" width="253.312" height="206.382" rx="2" ry="2"/>
    <rect style="paint-order: fill; fill: rgb(76, 112, 199);" x="75.878" y="44.493" width="238.091" height="191.043" rx="2" ry="2"/>
    <path d="M 94.223 117.205 Q 91.239 117.205 89.635 115.564 Q 88.031 113.923 88.031 110.939 L 88.031 69.536 Q 88.031 66.477 89.747 64.873 Q 91.463 63.27 94.596 63.27 Q 97.207 63.27 98.736 64.277 Q 100.266 65.284 101.534 67.596 L 117.573 96.392 L 114.962 96.392 L 130.926 67.596 Q 132.269 65.284 133.798 64.277 Q 135.328 63.27 137.939 63.27 Q 140.923 63.27 142.527 64.873 Q 144.131 66.477 144.131 69.536 L 144.131 110.939 Q 144.131 113.923 142.564 115.564 Q 140.997 117.205 137.939 117.205 Q 134.955 117.205 133.351 115.564 Q 131.747 113.923 131.747 110.939 L 131.747 85.277 L 133.314 85.277 L 121.303 106.165 Q 120.259 107.806 119.102 108.626 Q 117.946 109.447 116.006 109.447 Q 114.141 109.447 112.948 108.626 Q 111.754 107.806 110.784 106.165 L 98.699 85.202 L 100.415 85.202 L 100.415 110.939 Q 100.415 113.923 98.848 115.564 Q 97.282 117.205 94.223 117.205 Z"/>
    <path d="M 156.283 117.205 Q 153.97 117.205 152.404 116.124 Q 150.837 115.042 150.464 113.14 Q 150.091 111.237 151.136 108.85 L 169.711 68.865 Q 171.054 65.955 173.031 64.612 Q 175.008 63.27 177.544 63.27 Q 180.08 63.27 181.983 64.612 Q 183.885 65.955 185.302 68.865 L 203.878 108.85 Q 205.071 111.237 204.736 113.177 Q 204.4 115.117 202.871 116.161 Q 201.341 117.205 199.103 117.205 Q 196.119 117.205 194.516 115.863 Q 192.912 114.52 191.643 111.536 L 187.615 102.062 L 192.837 105.866 L 162.102 105.866 L 167.398 102.062 L 163.37 111.536 Q 162.027 114.52 160.61 115.863 Q 159.192 117.205 156.283 117.205 Z M 177.395 78.264 L 168.741 98.928 L 166.652 95.348 L 188.361 95.348 L 186.272 98.928 L 177.544 78.264 Z"/>
    <path d="M 224.085 117.205 Q 220.803 117.205 219.012 115.378 Q 217.222 113.55 217.222 110.268 L 217.222 75.131 L 205.51 75.131 Q 202.749 75.131 201.295 73.676 Q 199.84 72.222 199.84 69.536 Q 199.84 66.776 201.295 65.358 Q 202.749 63.941 205.51 63.941 L 242.66 63.941 Q 245.421 63.941 246.875 65.358 Q 248.33 66.776 248.33 69.536 Q 248.33 72.222 246.875 73.676 Q 245.421 75.131 242.66 75.131 L 230.948 75.131 L 230.948 110.268 Q 230.948 113.55 229.232 115.378 Q 227.517 117.205 224.085 117.205 Z"/>
    <path d="M 259.734 117.205 Q 256.451 117.205 254.661 115.378 Q 252.871 113.55 252.871 110.193 L 252.871 70.282 Q 252.871 66.85 254.661 65.06 Q 256.451 63.27 259.734 63.27 Q 263.091 63.27 264.844 65.06 Q 266.597 66.85 266.597 70.282 L 266.597 84.232 L 288.306 84.232 L 288.306 70.282 Q 288.306 66.85 290.059 65.06 Q 291.812 63.27 295.169 63.27 Q 298.451 63.27 300.204 65.06 Q 301.957 66.85 301.957 70.282 L 301.957 110.193 Q 301.957 113.55 300.204 115.378 Q 298.451 117.205 295.169 117.205 Q 291.812 117.205 290.059 115.378 Q 288.306 113.55 288.306 110.193 L 288.306 95.497 L 266.597 95.497 L 266.597 110.193 Q 266.597 113.55 264.881 115.378 Q 263.165 117.205 259.734 117.205 Z"/>
    <path d="M 189.383 212.319 Q 188.581 212.319 188.122 211.861 Q 187.664 211.402 187.664 210.638 Q 187.664 209.836 188.122 209.416 Q 188.581 208.996 189.383 208.996 L 194.043 208.996 L 194.043 188.673 L 196.03 188.673 L 190.452 192.226 Q 189.841 192.57 189.325 192.493 Q 188.81 192.417 188.447 192.073 Q 188.084 191.729 187.95 191.233 Q 187.817 190.736 188.027 190.201 Q 188.237 189.666 188.81 189.323 L 194.081 185.999 Q 194.731 185.617 195.323 185.369 Q 195.915 185.121 196.45 185.121 Q 197.099 185.121 197.538 185.484 Q 197.978 185.846 197.978 186.687 L 197.978 208.996 L 202.256 208.996 Q 203.097 208.996 203.555 209.416 Q 204.013 209.836 204.013 210.638 Q 204.013 211.44 203.555 211.88 Q 203.097 212.319 202.256 212.319 Z" style="fill: rgba(0, 0, 0, 0.506);"/>
    <path d="M 159.324 169.567 Q 158.64 169.567 158.23 169.26 Q 157.819 168.952 157.751 168.439 Q 157.682 167.926 157.956 167.276 L 167.224 146.482 Q 167.566 145.662 168.096 145.32 Q 168.626 144.978 169.276 144.978 Q 169.892 144.978 170.422 145.32 Q 170.952 145.662 171.294 146.482 L 180.562 167.276 Q 180.87 167.926 180.802 168.456 Q 180.733 168.986 180.357 169.277 Q 179.981 169.567 179.297 169.567 Q 178.544 169.567 178.1 169.191 Q 177.655 168.815 177.313 168.028 L 174.919 162.488 L 176.527 163.446 L 161.957 163.446 L 163.531 162.488 L 161.171 168.028 Q 160.829 168.849 160.418 169.208 Q 160.008 169.567 159.324 169.567 Z M 169.208 149.15 L 164.044 161.394 L 163.189 160.573 L 175.261 160.573 L 174.475 161.394 L 169.276 149.15 Z" style="fill: rgba(0, 0, 0, 0.506);"/>
    <path d="M 186.533 169.328 Q 185.61 169.328 185.114 168.832 Q 184.618 168.336 184.618 167.413 L 184.618 147.132 Q 184.618 146.209 185.114 145.713 Q 185.61 145.217 186.533 145.217 L 193.134 145.217 Q 199.084 145.217 202.316 148.312 Q 205.548 151.407 205.548 157.255 Q 205.548 160.162 204.727 162.42 Q 203.907 164.677 202.316 166.199 Q 200.726 167.721 198.435 168.524 Q 196.143 169.328 193.134 169.328 Z M 188.175 166.353 L 192.928 166.353 Q 195.186 166.353 196.844 165.788 Q 198.503 165.224 199.632 164.095 Q 200.76 162.967 201.307 161.257 Q 201.855 159.547 201.855 157.255 Q 201.855 152.707 199.614 150.45 Q 197.374 148.192 192.928 148.192 L 188.175 148.192 Z" style="fill: rgba(0, 0, 0, 0.506);"/>
    <path d="M 212.205 169.328 Q 211.282 169.328 210.786 168.832 Q 210.29 168.336 210.29 167.413 L 210.29 147.132 Q 210.29 146.209 210.786 145.713 Q 211.282 145.217 212.205 145.217 L 218.806 145.217 Q 224.757 145.217 227.989 148.312 Q 231.221 151.407 231.221 157.255 Q 231.221 160.162 230.4 162.42 Q 229.579 164.677 227.989 166.199 Q 226.398 167.721 224.107 168.524 Q 221.816 169.328 218.806 169.328 Z M 213.847 166.353 L 218.601 166.353 Q 220.858 166.353 222.517 165.788 Q 224.175 165.224 225.304 164.095 Q 226.433 162.967 226.98 161.257 Q 227.527 159.547 227.527 157.255 Q 227.527 152.707 225.287 150.45 Q 223.047 148.192 218.601 148.192 L 213.847 148.192 Z" style="fill: rgba(0, 0, 0, 0.506);"/>
  </g>
</svg>