<?xml version="1.0" encoding="utf-8"?>
<svg viewBox="0 469.971 279.473 235.662" xmlns="http://www.w3.org/2000/svg">
  <g transform="matrix(0.9999999999999999, 0, 0, 0.9999999999999999, -55.186000823974666, 447.78802490234375)">
    <rect y="22.183" width="279.473" height="235.662" style="fill: rgb(188, 188, 188);" x="55.186"/>
    <rect style="fill: rgb(138, 138, 138);" x="60.828" y="29.686" width="267.282" height="220.654" rx="2" ry="2"/>
    <rect style="fill: rgb(161, 0, 0);" x="68.267" y="36.823" width="253.312" height="206.382" rx="2" ry="2"/>
    <rect style="paint-order: fill; fill: rgb(192, 0, 0);" x="75.878" y="44.493" width="238.091" height="191.043" rx="2" ry="2"/>
    <path d="M 116.096 168.458 Q 112.552 168.458 110.695 166.601 Q 108.838 164.744 108.838 161.115 L 108.838 115.117 Q 108.838 111.403 110.695 109.42 Q 112.552 107.436 115.59 107.436 Q 118.291 107.436 119.81 108.449 Q 121.329 109.462 123.186 111.825 L 149.941 145.248 L 147.578 145.248 L 147.578 114.695 Q 147.578 111.15 149.392 109.293 Q 151.207 107.436 154.752 107.436 Q 158.296 107.436 160.111 109.293 Q 161.926 111.15 161.926 114.695 L 161.926 161.452 Q 161.926 164.66 160.238 166.559 Q 158.55 168.458 155.68 168.458 Q 152.81 168.458 151.165 167.403 Q 149.519 166.348 147.662 164.069 L 120.907 130.562 L 123.27 130.562 L 123.27 161.115 Q 123.27 164.744 121.456 166.601 Q 119.641 168.458 116.096 168.458 Z"/>
    <path d="M 201.489 168.626 Q 192.458 168.626 185.621 164.786 Q 178.785 160.946 175.029 154.025 Q 171.273 147.104 171.273 137.905 Q 171.273 130.984 173.426 125.329 Q 175.578 119.674 179.587 115.623 Q 183.596 111.572 189.166 109.42 Q 194.737 107.268 201.489 107.268 Q 210.519 107.268 217.314 111.066 Q 224.108 114.864 227.906 121.742 Q 231.704 128.621 231.704 137.905 Q 231.704 144.826 229.552 150.48 Q 227.399 156.135 223.39 160.229 Q 219.381 164.322 213.811 166.474 Q 208.241 168.626 201.489 168.626 Z M 201.489 155.629 Q 205.962 155.629 209.085 153.519 Q 212.207 151.409 213.895 147.442 Q 215.583 143.475 215.583 137.905 Q 215.583 129.549 211.87 124.907 Q 208.156 120.265 201.489 120.265 Q 197.1 120.265 193.935 122.333 Q 190.77 124.401 189.082 128.325 Q 187.394 132.25 187.394 137.905 Q 187.394 146.26 191.107 150.945 Q 194.821 155.629 201.489 155.629 Z"/>
    <path d="M 259.226 168.458 Q 255.512 168.458 253.487 166.39 Q 251.461 164.322 251.461 160.608 L 251.461 120.856 L 238.21 120.856 Q 235.087 120.856 233.442 119.21 Q 231.796 117.564 231.796 114.526 Q 231.796 111.403 233.442 109.8 Q 235.087 108.196 238.21 108.196 L 280.241 108.196 Q 283.364 108.196 285.01 109.8 Q 286.656 111.403 286.656 114.526 Q 286.656 117.564 285.01 119.21 Q 283.364 120.856 280.241 120.856 L 266.991 120.856 L 266.991 160.608 Q 266.991 164.322 265.049 166.39 Q 263.108 168.458 259.226 168.458 Z"/>
  </g>
</svg>