<?xml version="1.0" encoding="utf-8"?>
<svg viewBox="279.473 469.971 279.473 235.662" xmlns="http://www.w3.org/2000/svg">
  <g transform="matrix(0.9999999999999999, 0, 0, 0.9999999999999999, 224.28700256347645, 447.7879638671875)">
    <rect y="22.183" width="279.473" height="235.662" style="fill: rgb(188, 188, 188);" x="55.186"/>
    <rect style="fill: rgb(138, 138, 138);" x="60.828" y="29.686" width="267.282" height="220.654" rx="2" ry="2"/>
    <rect style="fill: rgb(58, 109, 185);" x="68.267" y="36.823" width="253.312" height="206.382" rx="2" ry="2"/>
    <rect style="paint-order: fill; fill: rgb(81, 142, 212);" x="75.878" y="44.493" width="238.091" height="191.043" rx="2" ry="2"/>
    <path d="M 90.087 138.115 Q 87.945 138.115 86.823 136.993 Q 85.701 135.871 85.701 133.678 L 85.701 105.883 Q 85.701 103.639 86.823 102.441 Q 87.945 101.242 89.781 101.242 Q 91.413 101.242 92.331 101.854 Q 93.249 102.466 94.371 103.894 L 110.538 124.09 L 109.11 124.09 L 109.11 105.628 Q 109.11 103.486 110.206 102.364 Q 111.303 101.242 113.445 101.242 Q 115.587 101.242 116.683 102.364 Q 117.78 103.486 117.78 105.628 L 117.78 133.882 Q 117.78 135.82 116.76 136.968 Q 115.74 138.115 114.006 138.115 Q 112.272 138.115 111.277 137.478 Q 110.283 136.84 109.161 135.463 L 92.994 115.216 L 94.422 115.216 L 94.422 133.678 Q 94.422 135.871 93.325 136.993 Q 92.229 138.115 90.087 138.115 Z" transform="matrix(1, 0, 0, 1, 0, -41.261036)"/>
    <path d="M 140.254 138.217 Q 136.327 138.217 133.318 137.223 Q 130.309 136.228 128.244 134.239 Q 126.178 132.25 125.133 129.267 Q 124.087 126.283 124.087 122.356 L 124.087 105.985 Q 124.087 103.639 125.311 102.441 Q 126.535 101.242 128.779 101.242 Q 131.074 101.242 132.273 102.441 Q 133.471 103.639 133.471 105.985 L 133.471 122.458 Q 133.471 126.385 135.205 128.374 Q 136.939 130.363 140.254 130.363 Q 143.518 130.363 145.252 128.374 Q 146.986 126.385 146.986 122.458 L 146.986 105.985 Q 146.986 103.639 148.185 102.441 Q 149.383 101.242 151.627 101.242 Q 153.871 101.242 155.044 102.441 Q 156.217 103.639 156.217 105.985 L 156.217 122.356 Q 156.217 127.609 154.407 131.154 Q 152.596 134.698 149.026 136.458 Q 145.456 138.217 140.254 138.217 Z" transform="matrix(1, 0, 0, 1, 0, -41.261036)"/>
    <path d="M 166.819 138.115 Q 164.779 138.115 163.682 136.993 Q 162.586 135.871 162.586 133.831 L 162.586 105.526 Q 162.586 103.435 163.759 102.339 Q 164.932 101.242 167.074 101.242 Q 168.859 101.242 169.904 101.931 Q 170.95 102.619 171.817 104.2 L 182.782 123.886 L 180.997 123.886 L 191.911 104.2 Q 192.829 102.619 193.874 101.931 Q 194.92 101.242 196.705 101.242 Q 198.745 101.242 199.841 102.339 Q 200.938 103.435 200.938 105.526 L 200.938 133.831 Q 200.938 135.871 199.867 136.993 Q 198.796 138.115 196.705 138.115 Q 194.665 138.115 193.568 136.993 Q 192.472 135.871 192.472 133.831 L 192.472 116.287 L 193.543 116.287 L 185.332 130.567 Q 184.618 131.689 183.827 132.25 Q 183.037 132.811 181.711 132.811 Q 180.436 132.811 179.62 132.25 Q 178.804 131.689 178.141 130.567 L 169.879 116.236 L 171.052 116.236 L 171.052 133.831 Q 171.052 135.871 169.981 136.993 Q 168.91 138.115 166.819 138.115 Z" transform="matrix(1, 0, 0, 1, 0, -41.261036)"/>
    <path d="M 212.459 137.656 Q 210.062 137.656 208.813 136.407 Q 207.563 135.157 207.563 132.811 L 207.563 106.546 Q 207.563 104.2 208.813 102.951 Q 210.062 101.701 212.459 101.701 L 224.903 101.701 Q 228.779 101.701 231.508 102.849 Q 234.236 103.996 235.664 106.087 Q 237.092 108.178 237.092 110.983 Q 237.092 114.145 235.282 116.389 Q 233.471 118.633 230.36 119.449 L 230.36 118.633 Q 234.032 119.296 236.047 121.591 Q 238.061 123.886 238.061 127.456 Q 238.061 132.199 234.67 134.928 Q 231.278 137.656 225.413 137.656 Z M 216.539 130.771 L 224.138 130.771 Q 226.739 130.771 227.938 129.777 Q 229.136 128.782 229.136 126.793 Q 229.136 124.804 227.938 123.835 Q 226.739 122.866 224.138 122.866 L 216.539 122.866 Z M 216.539 115.981 L 223.22 115.981 Q 225.77 115.981 226.969 115.063 Q 228.167 114.145 228.167 112.258 Q 228.167 110.371 226.969 109.479 Q 225.77 108.586 223.22 108.586 L 216.539 108.586 Z" transform="matrix(1, 0, 0, 1, 0, -41.261036)"/>
    <path d="M 248.257 137.656 Q 245.86 137.656 244.61 136.407 Q 243.361 135.157 243.361 132.811 L 243.361 106.546 Q 243.361 104.2 244.61 102.951 Q 245.86 101.701 248.257 101.701 L 265.546 101.701 Q 267.382 101.701 268.3 102.619 Q 269.218 103.537 269.218 105.271 Q 269.218 107.056 268.3 108 Q 267.382 108.943 265.546 108.943 L 252.337 108.943 L 252.337 115.777 L 264.424 115.777 Q 266.209 115.777 267.152 116.695 Q 268.096 117.613 268.096 119.398 Q 268.096 121.183 267.152 122.101 Q 266.209 123.019 264.424 123.019 L 252.337 123.019 L 252.337 130.414 L 265.546 130.414 Q 267.382 130.414 268.3 131.358 Q 269.218 132.301 269.218 134.035 Q 269.218 135.82 268.3 136.738 Q 267.382 137.656 265.546 137.656 Z" transform="matrix(1, 0, 0, 1, 0, -41.261036)"/>
    <path d="M 279.366 138.115 Q 277.122 138.115 275.898 136.866 Q 274.674 135.616 274.674 133.372 L 274.674 106.444 Q 274.674 104.149 275.924 102.925 Q 277.173 101.701 279.417 101.701 L 291.963 101.701 Q 298.083 101.701 301.424 104.685 Q 304.764 107.668 304.764 112.972 Q 304.764 116.389 303.26 118.914 Q 301.755 121.438 298.925 122.79 Q 296.094 124.141 291.963 124.141 L 292.371 123.223 L 294.819 123.223 Q 297.012 123.223 298.695 124.269 Q 300.378 125.314 301.5 127.456 L 304.05 132.046 Q 304.866 133.525 304.815 134.928 Q 304.764 136.33 303.719 137.223 Q 302.673 138.115 300.684 138.115 Q 298.695 138.115 297.446 137.299 Q 296.196 136.483 295.227 134.749 L 290.586 126.232 Q 289.974 125.11 289.031 124.677 Q 288.087 124.243 286.863 124.243 L 284.058 124.243 L 284.058 133.372 Q 284.058 135.616 282.885 136.866 Q 281.712 138.115 279.366 138.115 Z M 284.058 117.613 L 290.28 117.613 Q 292.983 117.613 294.411 116.542 Q 295.839 115.471 295.839 113.227 Q 295.839 111.085 294.411 109.989 Q 292.983 108.892 290.28 108.892 L 284.058 108.892 Z" transform="matrix(1, 0, 0, 1, 0, -41.261036)"/>
    <path d="M 112.321 189.217 Q 110.281 189.217 108.062 188.937 Q 105.844 188.656 103.855 188.095 Q 101.866 187.534 100.285 186.769 Q 98.908 186.106 98.347 185.01 Q 97.786 183.913 97.939 182.689 Q 98.092 181.465 98.806 180.522 Q 99.52 179.578 100.693 179.247 Q 101.866 178.915 103.345 179.578 Q 105.283 180.496 107.731 181.006 Q 110.179 181.516 112.321 181.516 Q 115.687 181.516 117.038 180.624 Q 118.39 179.731 118.39 178.405 Q 118.39 177.232 117.446 176.518 Q 116.503 175.804 114.106 175.294 L 108.139 174.019 Q 103.243 172.999 100.846 170.449 Q 98.449 167.899 98.449 163.87 Q 98.449 161.218 99.545 159.051 Q 100.642 156.883 102.656 155.353 Q 104.671 153.823 107.45 152.982 Q 110.23 152.14 113.647 152.14 Q 116.299 152.14 119.027 152.727 Q 121.756 153.313 123.745 154.486 Q 124.918 155.098 125.428 156.169 Q 125.938 157.24 125.836 158.388 Q 125.734 159.535 125.045 160.402 Q 124.357 161.269 123.209 161.55 Q 122.062 161.83 120.481 161.167 Q 119.002 160.504 117.14 160.173 Q 115.279 159.841 113.545 159.841 Q 111.658 159.841 110.332 160.275 Q 109.006 160.708 108.317 161.524 Q 107.629 162.34 107.629 163.411 Q 107.629 164.482 108.521 165.222 Q 109.414 165.961 111.811 166.471 L 117.727 167.746 Q 122.674 168.817 125.122 171.265 Q 127.57 173.713 127.57 177.64 Q 127.57 180.292 126.499 182.434 Q 125.428 184.576 123.439 186.081 Q 121.45 187.585 118.645 188.401 Q 115.84 189.217 112.321 189.217 Z" transform="matrix(1, 0, 0, 1, 0, -41.261036)"/>
    <path d="M 137.043 188.656 Q 134.646 188.656 133.397 187.407 Q 132.147 186.157 132.147 183.811 L 132.147 157.546 Q 132.147 155.2 133.397 153.951 Q 134.646 152.701 137.043 152.701 L 154.332 152.701 Q 156.168 152.701 157.086 153.619 Q 158.004 154.537 158.004 156.271 Q 158.004 158.056 157.086 159 Q 156.168 159.943 154.332 159.943 L 141.123 159.943 L 141.123 166.777 L 153.21 166.777 Q 154.995 166.777 155.939 167.695 Q 156.882 168.613 156.882 170.398 Q 156.882 172.183 155.939 173.101 Q 154.995 174.019 153.21 174.019 L 141.123 174.019 L 141.123 181.414 L 154.332 181.414 Q 156.168 181.414 157.086 182.358 Q 158.004 183.301 158.004 185.035 Q 158.004 186.82 157.086 187.738 Q 156.168 188.656 154.332 188.656 Z" transform="matrix(1, 0, 0, 1, 0, -41.261036)"/>
    <path d="M 176.869 189.115 Q 174.625 189.115 173.401 187.866 Q 172.177 186.616 172.177 184.372 L 172.177 160.351 L 164.17 160.351 Q 162.283 160.351 161.288 159.357 Q 160.294 158.362 160.294 156.526 Q 160.294 154.639 161.288 153.67 Q 162.283 152.701 164.17 152.701 L 189.568 152.701 Q 191.455 152.701 192.449 153.67 Q 193.444 154.639 193.444 156.526 Q 193.444 158.362 192.449 159.357 Q 191.455 160.351 189.568 160.351 L 181.561 160.351 L 181.561 184.372 Q 181.561 186.616 180.388 187.866 Q 179.215 189.115 176.869 189.115 Z" transform="matrix(1, 0, 0, 1, 0, -41.261036)"/>
    <path d="M 210.416 189.115 Q 208.172 189.115 206.948 187.866 Q 205.724 186.616 205.724 184.372 L 205.724 160.351 L 197.717 160.351 Q 195.83 160.351 194.836 159.357 Q 193.841 158.362 193.841 156.526 Q 193.841 154.639 194.836 153.67 Q 195.83 152.701 197.717 152.701 L 223.115 152.701 Q 225.002 152.701 225.997 153.67 Q 226.991 154.639 226.991 156.526 Q 226.991 158.362 225.997 159.357 Q 225.002 160.351 223.115 160.351 L 215.108 160.351 L 215.108 184.372 Q 215.108 186.616 213.935 187.866 Q 212.762 189.115 210.416 189.115 Z" transform="matrix(1, 0, 0, 1, 0, -41.261036)"/>
    <path d="M 234.999 188.656 Q 232.602 188.656 231.352 187.407 Q 230.103 186.157 230.103 183.811 L 230.103 157.546 Q 230.103 155.2 231.352 153.951 Q 232.602 152.701 234.999 152.701 L 252.288 152.701 Q 254.124 152.701 255.042 153.619 Q 255.96 154.537 255.96 156.271 Q 255.96 158.056 255.042 159 Q 254.124 159.943 252.288 159.943 L 239.079 159.943 L 239.079 166.777 L 251.166 166.777 Q 252.951 166.777 253.894 167.695 Q 254.838 168.613 254.838 170.398 Q 254.838 172.183 253.894 173.101 Q 252.951 174.019 251.166 174.019 L 239.079 174.019 L 239.079 181.414 L 252.288 181.414 Q 254.124 181.414 255.042 182.358 Q 255.96 183.301 255.96 185.035 Q 255.96 186.82 255.042 187.738 Q 254.124 188.656 252.288 188.656 Z" transform="matrix(1, 0, 0, 1, 0, -41.261036)"/>
    <path d="M 266.108 189.115 Q 263.864 189.115 262.64 187.866 Q 261.416 186.616 261.416 184.372 L 261.416 157.444 Q 261.416 155.149 262.666 153.925 Q 263.915 152.701 266.159 152.701 L 278.705 152.701 Q 284.825 152.701 288.166 155.685 Q 291.506 158.668 291.506 163.972 Q 291.506 167.389 290.002 169.914 Q 288.497 172.438 285.667 173.79 Q 282.836 175.141 278.705 175.141 L 279.113 174.223 L 281.561 174.223 Q 283.754 174.223 285.437 175.269 Q 287.12 176.314 288.242 178.456 L 290.792 183.046 Q 291.608 184.525 291.557 185.928 Q 291.506 187.33 290.461 188.223 Q 289.415 189.115 287.426 189.115 Q 285.437 189.115 284.188 188.299 Q 282.938 187.483 281.969 185.749 L 277.328 177.232 Q 276.716 176.11 275.773 175.677 Q 274.829 175.243 273.605 175.243 L 270.8 175.243 L 270.8 184.372 Q 270.8 186.616 269.627 187.866 Q 268.454 189.115 266.108 189.115 Z M 270.8 168.613 L 277.022 168.613 Q 279.725 168.613 281.153 167.542 Q 282.581 166.471 282.581 164.227 Q 282.581 162.085 281.153 160.989 Q 279.725 159.892 277.022 159.892 L 270.8 159.892 Z" transform="matrix(1, 0, 0, 1, 0, -41.261036)"/>
    <path d="M 194.923 212.663 Q 190.224 212.663 187.76 209.091 Q 185.296 205.519 185.296 198.834 Q 185.296 194.289 186.404 191.233 Q 187.512 188.177 189.651 186.61 Q 191.79 185.044 194.923 185.044 Q 199.66 185.044 202.104 188.54 Q 204.549 192.035 204.549 198.796 Q 204.549 203.266 203.441 206.36 Q 202.334 209.454 200.194 211.058 Q 198.055 212.663 194.923 212.663 Z M 194.923 209.378 Q 197.864 209.378 199.258 206.799 Q 200.653 204.221 200.653 198.796 Q 200.653 193.334 199.258 190.832 Q 197.864 188.329 194.923 188.329 Q 192.02 188.329 190.606 190.832 Q 189.193 193.334 189.193 198.796 Q 189.193 204.221 190.606 206.799 Q 192.02 209.378 194.923 209.378 Z" style="fill: rgba(0, 0, 0, 0.506);"/>
  </g>
</svg>