<?xml version="1.0" encoding="utf-8"?>
<svg viewBox="558.946 469.971 279.473 235.662" xmlns="http://www.w3.org/2000/svg">
  <g transform="matrix(0.9999999999999999, 0, 0, 0.9999999999999999, 503.7600402832031, 447.78802490234375)">
    <rect y="22.183" width="279.473" height="235.662" style="fill: rgb(188, 188, 188);" x="55.186"/>
    <rect style="fill: rgb(138, 138, 138);" x="60.828" y="29.686" width="267.282" height="220.654" rx="2" ry="2"/>
    <rect style="fill: rgb(58, 109, 185);" x="68.267" y="36.823" width="253.312" height="206.382" rx="2" ry="2"/>
    <rect style="paint-order: fill; fill: rgb(81, 142, 212);" x="75.878" y="44.493" width="238.091" height="191.043" rx="2" ry="2"/>
    <path d="M 100.361 138.07 Q 98.429 138.07 97.417 137.058 Q 96.405 136.046 96.405 134.068 L 96.405 108.998 Q 96.405 106.974 97.417 105.893 Q 98.429 104.812 100.085 104.812 Q 101.557 104.812 102.385 105.364 Q 103.213 105.916 104.225 107.204 L 118.807 125.42 L 117.519 125.42 L 117.519 108.768 Q 117.519 106.836 118.508 105.824 Q 119.497 104.812 121.429 104.812 Q 123.361 104.812 124.35 105.824 Q 125.339 106.836 125.339 108.768 L 125.339 134.252 Q 125.339 136 124.419 137.035 Q 123.499 138.07 121.935 138.07 Q 120.371 138.07 119.474 137.495 Q 118.577 136.92 117.565 135.678 L 102.983 117.416 L 104.271 117.416 L 104.271 134.068 Q 104.271 136.046 103.282 137.058 Q 102.293 138.07 100.361 138.07 Z" transform="matrix(1, 0, 0, 1, 0, -41.261036)"/>
    <path d="M 145.617 138.162 Q 142.075 138.162 139.361 137.265 Q 136.647 136.368 134.784 134.574 Q 132.921 132.78 131.978 130.089 Q 131.035 127.398 131.035 123.856 L 131.035 109.09 Q 131.035 106.974 132.139 105.893 Q 133.243 104.812 135.267 104.812 Q 137.337 104.812 138.418 105.893 Q 139.499 106.974 139.499 109.09 L 139.499 123.948 Q 139.499 127.49 141.063 129.284 Q 142.627 131.078 145.617 131.078 Q 148.561 131.078 150.125 129.284 Q 151.689 127.49 151.689 123.948 L 151.689 109.09 Q 151.689 106.974 152.77 105.893 Q 153.851 104.812 155.875 104.812 Q 157.899 104.812 158.957 105.893 Q 160.015 106.974 160.015 109.09 L 160.015 123.856 Q 160.015 128.594 158.382 131.791 Q 156.749 134.988 153.529 136.575 Q 150.309 138.162 145.617 138.162 Z" transform="matrix(1, 0, 0, 1, 0, -41.261036)"/>
    <path d="M 169.566 138.07 Q 167.726 138.07 166.737 137.058 Q 165.748 136.046 165.748 134.206 L 165.748 108.676 Q 165.748 106.79 166.806 105.801 Q 167.864 104.812 169.796 104.812 Q 171.406 104.812 172.349 105.433 Q 173.292 106.054 174.074 107.48 L 183.964 125.236 L 182.354 125.236 L 192.198 107.48 Q 193.026 106.054 193.969 105.433 Q 194.912 104.812 196.522 104.812 Q 198.362 104.812 199.351 105.801 Q 200.34 106.79 200.34 108.676 L 200.34 134.206 Q 200.34 136.046 199.374 137.058 Q 198.408 138.07 196.522 138.07 Q 194.682 138.07 193.693 137.058 Q 192.704 136.046 192.704 134.206 L 192.704 118.382 L 193.67 118.382 L 186.264 131.262 Q 185.62 132.274 184.907 132.78 Q 184.194 133.286 182.998 133.286 Q 181.848 133.286 181.112 132.78 Q 180.376 132.274 179.778 131.262 L 172.326 118.336 L 173.384 118.336 L 173.384 134.206 Q 173.384 136.046 172.418 137.058 Q 171.452 138.07 169.566 138.07 Z" transform="matrix(1, 0, 0, 1, 0, -41.261036)"/>
    <path d="M 210.73 137.656 Q 208.568 137.656 207.441 136.529 Q 206.314 135.402 206.314 133.286 L 206.314 109.596 Q 206.314 107.48 207.441 106.353 Q 208.568 105.226 210.73 105.226 L 221.954 105.226 Q 225.45 105.226 227.911 106.261 Q 230.372 107.296 231.66 109.182 Q 232.948 111.068 232.948 113.598 Q 232.948 116.45 231.315 118.474 Q 229.682 120.498 226.876 121.234 L 226.876 120.498 Q 230.188 121.096 232.005 123.166 Q 233.822 125.236 233.822 128.456 Q 233.822 132.734 230.763 135.195 Q 227.704 137.656 222.414 137.656 Z M 214.41 131.446 L 221.264 131.446 Q 223.61 131.446 224.691 130.549 Q 225.772 129.652 225.772 127.858 Q 225.772 126.064 224.691 125.19 Q 223.61 124.316 221.264 124.316 L 214.41 124.316 Z M 214.41 118.106 L 220.436 118.106 Q 222.736 118.106 223.817 117.278 Q 224.898 116.45 224.898 114.748 Q 224.898 113.046 223.817 112.241 Q 222.736 111.436 220.436 111.436 L 214.41 111.436 Z" transform="matrix(1, 0, 0, 1, 0, -41.261036)"/>
    <path d="M 243.012 137.656 Q 240.85 137.656 239.723 136.529 Q 238.596 135.402 238.596 133.286 L 238.596 109.596 Q 238.596 107.48 239.723 106.353 Q 240.85 105.226 243.012 105.226 L 258.606 105.226 Q 260.262 105.226 261.09 106.054 Q 261.918 106.882 261.918 108.446 Q 261.918 110.056 261.09 110.907 Q 260.262 111.758 258.606 111.758 L 246.692 111.758 L 246.692 117.922 L 257.594 117.922 Q 259.204 117.922 260.055 118.75 Q 260.906 119.578 260.906 121.188 Q 260.906 122.798 260.055 123.626 Q 259.204 124.454 257.594 124.454 L 246.692 124.454 L 246.692 131.124 L 258.606 131.124 Q 260.262 131.124 261.09 131.975 Q 261.918 132.826 261.918 134.39 Q 261.918 136 261.09 136.828 Q 260.262 137.656 258.606 137.656 Z" transform="matrix(1, 0, 0, 1, 0, -41.261036)"/>
    <path d="M 271.078 138.07 Q 269.054 138.07 267.95 136.943 Q 266.846 135.816 266.846 133.792 L 266.846 109.504 Q 266.846 107.434 267.973 106.33 Q 269.1 105.226 271.124 105.226 L 282.44 105.226 Q 287.96 105.226 290.973 107.917 Q 293.986 110.608 293.986 115.392 Q 293.986 118.474 292.629 120.751 Q 291.272 123.028 288.719 124.247 Q 286.166 125.466 282.44 125.466 L 282.808 124.638 L 285.016 124.638 Q 286.994 124.638 288.512 125.581 Q 290.03 126.524 291.042 128.456 L 293.342 132.596 Q 294.078 133.93 294.032 135.195 Q 293.986 136.46 293.043 137.265 Q 292.1 138.07 290.306 138.07 Q 288.512 138.07 287.385 137.334 Q 286.258 136.598 285.384 135.034 L 281.198 127.352 Q 280.646 126.34 279.795 125.949 Q 278.944 125.558 277.84 125.558 L 275.31 125.558 L 275.31 133.792 Q 275.31 135.816 274.252 136.943 Q 273.194 138.07 271.078 138.07 Z M 275.31 119.578 L 280.922 119.578 Q 283.36 119.578 284.648 118.612 Q 285.936 117.646 285.936 115.622 Q 285.936 113.69 284.648 112.701 Q 283.36 111.712 280.922 111.712 L 275.31 111.712 Z" transform="matrix(1, 0, 0, 1, 0, -41.261036)"/>
    <path d="M 98.527 184.162 Q 96.687 184.162 94.686 183.909 Q 92.685 183.656 90.891 183.15 Q 89.097 182.644 87.671 181.954 Q 86.429 181.356 85.923 180.367 Q 85.417 179.378 85.555 178.274 Q 85.693 177.17 86.337 176.319 Q 86.981 175.468 88.039 175.169 Q 89.097 174.87 90.431 175.468 Q 92.179 176.296 94.387 176.756 Q 96.595 177.216 98.527 177.216 Q 101.563 177.216 102.782 176.411 Q 104.001 175.606 104.001 174.41 Q 104.001 173.352 103.15 172.708 Q 102.299 172.064 100.137 171.604 L 94.755 170.454 Q 90.339 169.534 88.177 167.234 Q 86.015 164.934 86.015 161.3 Q 86.015 158.908 87.004 156.953 Q 87.993 154.998 89.81 153.618 Q 91.627 152.238 94.134 151.479 Q 96.641 150.72 99.723 150.72 Q 102.115 150.72 104.576 151.249 Q 107.037 151.778 108.831 152.836 Q 109.889 153.388 110.349 154.354 Q 110.809 155.32 110.717 156.355 Q 110.625 157.39 110.004 158.172 Q 109.383 158.954 108.348 159.207 Q 107.313 159.46 105.887 158.862 Q 104.553 158.264 102.874 157.965 Q 101.195 157.666 99.631 157.666 Q 97.929 157.666 96.733 158.057 Q 95.537 158.448 94.916 159.184 Q 94.295 159.92 94.295 160.886 Q 94.295 161.852 95.1 162.519 Q 95.905 163.186 98.067 163.646 L 103.403 164.796 Q 107.865 165.762 110.073 167.97 Q 112.281 170.178 112.281 173.72 Q 112.281 176.112 111.315 178.044 Q 110.349 179.976 108.555 181.333 Q 106.761 182.69 104.231 183.426 Q 101.701 184.162 98.527 184.162 Z" transform="matrix(1, 0, 0, 1, 0, -41.261036)"/>
    <path d="M 127.578 184.07 Q 125.554 184.07 124.45 182.943 Q 123.346 181.816 123.346 179.792 L 123.346 158.126 L 116.124 158.126 Q 114.422 158.126 113.525 157.229 Q 112.628 156.332 112.628 154.676 Q 112.628 152.974 113.525 152.1 Q 114.422 151.226 116.124 151.226 L 139.032 151.226 Q 140.734 151.226 141.631 152.1 Q 142.528 152.974 142.528 154.676 Q 142.528 156.332 141.631 157.229 Q 140.734 158.126 139.032 158.126 L 131.81 158.126 L 131.81 179.792 Q 131.81 181.816 130.752 182.943 Q 129.694 184.07 127.578 184.07 Z" transform="matrix(1, 0, 0, 1, 0, -41.261036)"/>
    <path d="M 159.085 184.162 Q 154.163 184.162 150.437 182.069 Q 146.711 179.976 144.664 176.204 Q 142.617 172.432 142.617 167.418 Q 142.617 163.646 143.79 160.564 Q 144.963 157.482 147.148 155.274 Q 149.333 153.066 152.369 151.893 Q 155.405 150.72 159.085 150.72 Q 164.007 150.72 167.71 152.79 Q 171.413 154.86 173.483 158.609 Q 175.553 162.358 175.553 167.418 Q 175.553 171.19 174.38 174.272 Q 173.207 177.354 171.022 179.585 Q 168.837 181.816 165.801 182.989 Q 162.765 184.162 159.085 184.162 Z M 159.085 177.078 Q 161.523 177.078 163.225 175.928 Q 164.927 174.778 165.847 172.616 Q 166.767 170.454 166.767 167.418 Q 166.767 162.864 164.743 160.334 Q 162.719 157.804 159.085 157.804 Q 156.693 157.804 154.968 158.931 Q 153.243 160.058 152.323 162.197 Q 151.403 164.336 151.403 167.418 Q 151.403 171.972 153.427 174.525 Q 155.451 177.078 159.085 177.078 Z" transform="matrix(1, 0, 0, 1, 0, -41.261036)"/>
    <path d="M 184.803 184.07 Q 182.779 184.07 181.675 182.943 Q 180.571 181.816 180.571 179.792 L 180.571 155.504 Q 180.571 153.434 181.698 152.33 Q 182.825 151.226 184.849 151.226 L 196.165 151.226 Q 201.685 151.226 204.698 153.917 Q 207.711 156.608 207.711 161.392 Q 207.711 164.474 206.354 166.751 Q 204.997 169.028 202.444 170.247 Q 199.891 171.466 196.165 171.466 L 196.533 170.638 L 198.741 170.638 Q 200.719 170.638 202.237 171.581 Q 203.755 172.524 204.767 174.456 L 207.067 178.596 Q 207.803 179.93 207.757 181.195 Q 207.711 182.46 206.768 183.265 Q 205.825 184.07 204.031 184.07 Q 202.237 184.07 201.11 183.334 Q 199.983 182.598 199.109 181.034 L 194.923 173.352 Q 194.371 172.34 193.52 171.949 Q 192.669 171.558 191.565 171.558 L 189.035 171.558 L 189.035 179.792 Q 189.035 181.816 187.977 182.943 Q 186.919 184.07 184.803 184.07 Z M 189.035 165.578 L 194.647 165.578 Q 197.085 165.578 198.373 164.612 Q 199.661 163.646 199.661 161.622 Q 199.661 159.69 198.373 158.701 Q 197.085 157.712 194.647 157.712 L 189.035 157.712 Z" transform="matrix(1, 0, 0, 1, 0, -41.261036)"/>
    <path d="M 213.902 184.07 Q 212.476 184.07 211.51 183.403 Q 210.544 182.736 210.314 181.563 Q 210.084 180.39 210.728 178.918 L 222.182 154.262 Q 223.01 152.468 224.229 151.64 Q 225.448 150.812 227.012 150.812 Q 228.576 150.812 229.749 151.64 Q 230.922 152.468 231.796 154.262 L 243.25 178.918 Q 243.986 180.39 243.779 181.586 Q 243.572 182.782 242.629 183.426 Q 241.686 184.07 240.306 184.07 Q 238.466 184.07 237.477 183.242 Q 236.488 182.414 235.706 180.574 L 233.222 174.732 L 236.442 177.078 L 217.49 177.078 L 220.756 174.732 L 218.272 180.574 Q 217.444 182.414 216.57 183.242 Q 215.696 184.07 213.902 184.07 Z M 226.92 160.058 L 221.584 172.8 L 220.296 170.592 L 233.682 170.592 L 232.394 172.8 L 227.012 160.058 Z" transform="matrix(1, 0, 0, 1, 0, -41.261036)"/>
    <path d="M 263.21 184.162 Q 257.644 184.162 253.757 182.092 Q 249.87 180.022 247.846 176.296 Q 245.822 172.57 245.822 167.602 Q 245.822 163.738 247.041 160.633 Q 248.26 157.528 250.56 155.297 Q 252.86 153.066 256.195 151.893 Q 259.53 150.72 263.762 150.72 Q 266.062 150.72 268.454 151.157 Q 270.846 151.594 273.146 152.79 Q 274.342 153.342 274.779 154.331 Q 275.216 155.32 275.055 156.401 Q 274.894 157.482 274.273 158.379 Q 273.652 159.276 272.594 159.575 Q 271.536 159.874 270.202 159.276 Q 268.822 158.632 267.212 158.287 Q 265.602 157.942 263.808 157.942 Q 260.726 157.942 258.679 159.046 Q 256.632 160.15 255.62 162.312 Q 254.608 164.474 254.608 167.602 Q 254.608 172.294 256.908 174.686 Q 259.208 177.078 263.716 177.078 Q 265.096 177.078 266.729 176.802 Q 268.362 176.526 270.018 176.02 L 268.454 179.194 L 268.454 171.328 L 265.234 171.328 Q 263.67 171.328 262.819 170.546 Q 261.968 169.764 261.968 168.338 Q 261.968 166.912 262.819 166.153 Q 263.67 165.394 265.234 165.394 L 272.042 165.394 Q 273.652 165.394 274.503 166.245 Q 275.354 167.096 275.354 168.706 L 275.354 178.872 Q 275.354 180.252 274.779 181.218 Q 274.204 182.184 272.962 182.598 Q 270.8 183.334 268.27 183.748 Q 265.74 184.162 263.21 184.162 Z" transform="matrix(1, 0, 0, 1, 0, -41.261036)"/>
    <path d="M 285.427 183.656 Q 283.265 183.656 282.138 182.529 Q 281.011 181.402 281.011 179.286 L 281.011 155.596 Q 281.011 153.48 282.138 152.353 Q 283.265 151.226 285.427 151.226 L 301.021 151.226 Q 302.677 151.226 303.505 152.054 Q 304.333 152.882 304.333 154.446 Q 304.333 156.056 303.505 156.907 Q 302.677 157.758 301.021 157.758 L 289.107 157.758 L 289.107 163.922 L 300.009 163.922 Q 301.619 163.922 302.47 164.75 Q 303.321 165.578 303.321 167.188 Q 303.321 168.798 302.47 169.626 Q 301.619 170.454 300.009 170.454 L 289.107 170.454 L 289.107 177.124 L 301.021 177.124 Q 302.677 177.124 303.505 177.975 Q 304.333 178.826 304.333 180.39 Q 304.333 182 303.505 182.828 Q 302.677 183.656 301.021 183.656 Z" transform="matrix(1, 0, 0, 1, 0, -41.261036)"/>
    <path d="M 194.923 212.663 Q 190.224 212.663 187.76 209.091 Q 185.296 205.519 185.296 198.834 Q 185.296 194.289 186.404 191.233 Q 187.512 188.177 189.651 186.61 Q 191.79 185.044 194.923 185.044 Q 199.66 185.044 202.104 188.54 Q 204.549 192.035 204.549 198.796 Q 204.549 203.266 203.441 206.36 Q 202.334 209.454 200.194 211.058 Q 198.055 212.663 194.923 212.663 Z M 194.923 209.378 Q 197.864 209.378 199.258 206.799 Q 200.653 204.221 200.653 198.796 Q 200.653 193.334 199.258 190.832 Q 197.864 188.329 194.923 188.329 Q 192.02 188.329 190.606 190.832 Q 189.193 193.334 189.193 198.796 Q 189.193 204.221 190.606 206.799 Q 192.02 209.378 194.923 209.378 Z" style="fill: rgba(0, 0, 0, 0.506);"/>
  </g>
</svg>