<?xml version="1.0" encoding="utf-8"?>
<svg viewBox="838.419 469.971 279.473 235.662" xmlns="http://www.w3.org/2000/svg">
  <g transform="matrix(0.9999999999999999, 0, 0, 0.9999999999999999, 783.2330322265625, 447.7879943847656)">
    <rect y="22.183" width="279.473" height="235.662" style="fill: rgb(188, 188, 188);" x="55.186"/>
    <rect style="fill: rgb(138, 138, 138);" x="60.828" y="29.686" width="267.282" height="220.654" rx="2" ry="2"/>
    <rect style="fill: rgb(197, 23, 12);" x="68.267" y="36.823" width="253.312" height="206.382" rx="2" ry="2"/>
    <rect style="paint-order: fill; fill: rgb(222, 34, 19);" x="75.878" y="44.493" width="238.091" height="191.043" rx="2" ry="2"/>
    <path d="M 165.175 168.626 Q 156.144 168.626 149.308 164.786 Q 142.472 160.946 138.716 154.025 Q 134.96 147.104 134.96 137.905 Q 134.96 130.984 137.112 125.329 Q 139.264 119.674 143.273 115.623 Q 147.282 111.572 152.853 109.42 Q 158.423 107.268 165.175 107.268 Q 174.206 107.268 181 111.066 Q 187.794 114.864 191.592 121.742 Q 195.39 128.621 195.39 137.905 Q 195.39 144.826 193.238 150.48 Q 191.086 156.135 187.077 160.229 Q 183.068 164.322 177.498 166.474 Q 171.927 168.626 165.175 168.626 Z M 165.175 155.629 Q 169.648 155.629 172.771 153.519 Q 175.894 151.409 177.582 147.442 Q 179.27 143.475 179.27 137.905 Q 179.27 129.549 175.556 124.907 Q 171.843 120.265 165.175 120.265 Q 160.786 120.265 157.621 122.333 Q 154.456 124.401 152.768 128.325 Q 151.08 132.25 151.08 137.905 Q 151.08 146.26 154.794 150.945 Q 158.508 155.629 165.175 155.629 Z"/>
    <path d="M 212.34 168.458 Q 208.626 168.458 206.6 166.39 Q 204.575 164.322 204.575 160.608 L 204.575 116.045 Q 204.575 112.247 206.643 110.222 Q 208.71 108.196 212.424 108.196 L 233.186 108.196 Q 243.314 108.196 248.843 113.133 Q 254.371 118.071 254.371 126.848 Q 254.371 132.503 251.881 136.681 Q 249.391 140.859 244.707 143.095 Q 240.023 145.332 233.186 145.332 L 233.862 143.813 L 237.913 143.813 Q 241.542 143.813 244.327 145.543 Q 247.112 147.273 248.969 150.818 L 253.189 158.414 Q 254.54 160.862 254.455 163.183 Q 254.371 165.504 252.641 166.981 Q 250.91 168.458 247.619 168.458 Q 244.327 168.458 242.259 167.107 Q 240.192 165.757 238.588 162.887 L 230.908 148.792 Q 229.895 146.936 228.333 146.218 Q 226.772 145.501 224.746 145.501 L 220.104 145.501 L 220.104 160.608 Q 220.104 164.322 218.163 166.39 Q 216.222 168.458 212.34 168.458 Z M 220.104 134.529 L 230.401 134.529 Q 234.874 134.529 237.238 132.756 Q 239.601 130.984 239.601 127.27 Q 239.601 123.726 237.238 121.911 Q 234.874 120.096 230.401 120.096 L 220.104 120.096 Z"/>
  </g>
</svg>