<?xml version="1.0" encoding="utf-8"?>
<svg viewBox="1117.8921 469.971 279.473 235.662" xmlns="http://www.w3.org/2000/svg">
  <g transform="matrix(0.9999999999999999, 0, 0, 0.9999999999999999, 1062.7060546874998, 447.7879943847656)">
    <rect y="22.183" width="279.473" height="235.662" style="fill: rgb(188, 188, 188);" x="55.186"/>
    <rect style="fill: rgb(138, 138, 138);" x="60.828" y="29.686" width="267.282" height="220.654" rx="2" ry="2"/>
    <rect style="fill: rgb(173, 177, 186);" x="68.267" y="36.823" width="253.312" height="206.382" rx="2" ry="2"/>
    <rect style="paint-order: fill; fill: rgb(202, 207, 213);" x="75.878" y="44.493" width="238.091" height="191.043" rx="2" ry="2"/>
    <path d="M 124.022 137.98 Q 122.438 137.98 121.574 137.098 Q 120.71 136.216 120.71 134.632 L 120.71 115.624 Q 120.71 114.004 121.592 113.14 Q 122.474 112.276 124.058 112.276 L 132.914 112.276 Q 137.234 112.276 139.592 114.49 Q 141.95 116.704 141.95 120.592 Q 141.95 124.48 139.592 126.694 Q 137.234 128.908 132.914 128.908 L 127.334 128.908 L 127.334 134.632 Q 127.334 136.216 126.506 137.098 Q 125.678 137.98 124.022 137.98 Z M 127.334 123.832 L 131.762 123.832 Q 133.634 123.832 134.642 123.022 Q 135.65 122.212 135.65 120.592 Q 135.65 118.936 134.642 118.144 Q 133.634 117.352 131.762 117.352 L 127.334 117.352 Z" transform="matrix(1, 0, 0, 1, 0, -41.261036)"/>
    <path d="M 148.387 137.656 Q 146.803 137.656 145.921 136.774 Q 145.039 135.892 145.039 134.308 L 145.039 115.588 Q 145.039 113.968 145.903 113.104 Q 146.767 112.24 148.351 112.24 Q 149.971 112.24 150.817 113.104 Q 151.663 113.968 151.663 115.588 L 151.663 132.148 L 160.447 132.148 Q 161.815 132.148 162.553 132.85 Q 163.291 133.552 163.291 134.884 Q 163.291 136.216 162.553 136.936 Q 161.815 137.656 160.447 137.656 Z" transform="matrix(1, 0, 0, 1, 0, -41.261036)"/>
    <path d="M 166.946 137.98 Q 165.83 137.98 165.074 137.458 Q 164.318 136.936 164.138 136.018 Q 163.958 135.1 164.462 133.948 L 173.426 114.652 Q 174.074 113.248 175.028 112.6 Q 175.982 111.952 177.206 111.952 Q 178.43 111.952 179.348 112.6 Q 180.266 113.248 180.95 114.652 L 189.914 133.948 Q 190.49 135.1 190.328 136.036 Q 190.166 136.972 189.428 137.476 Q 188.69 137.98 187.61 137.98 Q 186.17 137.98 185.396 137.332 Q 184.622 136.684 184.01 135.244 L 182.066 130.672 L 184.586 132.508 L 169.754 132.508 L 172.31 130.672 L 170.366 135.244 Q 169.718 136.684 169.034 137.332 Q 168.35 137.98 166.946 137.98 Z M 177.134 119.188 L 172.958 129.16 L 171.95 127.432 L 182.426 127.432 L 181.418 129.16 L 177.206 119.188 Z" transform="matrix(1, 0, 0, 1, 0, -41.261036)"/>
    <path d="M 200.172 137.98 Q 198.588 137.98 197.724 137.098 Q 196.86 136.216 196.86 134.56 L 196.86 124.696 L 198.228 128.332 L 189.948 116.416 Q 189.336 115.552 189.426 114.49 Q 189.516 113.428 190.29 112.69 Q 191.064 111.952 192.504 111.952 Q 193.512 111.952 194.34 112.438 Q 195.168 112.924 195.888 114.076 L 200.928 121.492 L 199.632 121.492 L 204.672 114.04 Q 205.428 112.888 206.22 112.42 Q 207.012 111.952 208.092 111.952 Q 209.46 111.952 210.216 112.636 Q 210.972 113.32 211.026 114.364 Q 211.08 115.408 210.36 116.488 L 202.152 128.332 L 203.484 124.696 L 203.484 134.56 Q 203.484 137.98 200.172 137.98 Z" transform="matrix(1, 0, 0, 1, 0, -41.261036)"/>
    <path d="M 219.388 137.656 Q 217.696 137.656 216.814 136.774 Q 215.932 135.892 215.932 134.236 L 215.932 115.696 Q 215.932 114.04 216.814 113.158 Q 217.696 112.276 219.388 112.276 L 231.592 112.276 Q 232.888 112.276 233.536 112.924 Q 234.184 113.572 234.184 114.796 Q 234.184 116.056 233.536 116.722 Q 232.888 117.388 231.592 117.388 L 222.268 117.388 L 222.268 122.212 L 230.8 122.212 Q 232.06 122.212 232.726 122.86 Q 233.392 123.508 233.392 124.768 Q 233.392 126.028 232.726 126.676 Q 232.06 127.324 230.8 127.324 L 222.268 127.324 L 222.268 132.544 L 231.592 132.544 Q 232.888 132.544 233.536 133.21 Q 234.184 133.876 234.184 135.1 Q 234.184 136.36 233.536 137.008 Q 232.888 137.656 231.592 137.656 Z" transform="matrix(1, 0, 0, 1, 0, -41.261036)"/>
    <path d="M 241.338 137.98 Q 239.754 137.98 238.89 137.098 Q 238.026 136.216 238.026 134.632 L 238.026 115.624 Q 238.026 114.004 238.908 113.14 Q 239.79 112.276 241.374 112.276 L 250.23 112.276 Q 254.55 112.276 256.908 114.382 Q 259.266 116.488 259.266 120.232 Q 259.266 122.644 258.204 124.426 Q 257.142 126.208 255.144 127.162 Q 253.146 128.116 250.23 128.116 L 250.518 127.468 L 252.246 127.468 Q 253.794 127.468 254.982 128.206 Q 256.17 128.944 256.962 130.456 L 258.762 133.696 Q 259.338 134.74 259.302 135.73 Q 259.266 136.72 258.528 137.35 Q 257.79 137.98 256.386 137.98 Q 254.982 137.98 254.1 137.404 Q 253.218 136.828 252.534 135.604 L 249.258 129.592 Q 248.826 128.8 248.16 128.494 Q 247.494 128.188 246.63 128.188 L 244.65 128.188 L 244.65 134.632 Q 244.65 136.216 243.822 137.098 Q 242.994 137.98 241.338 137.98 Z M 244.65 123.508 L 249.042 123.508 Q 250.95 123.508 251.958 122.752 Q 252.966 121.996 252.966 120.412 Q 252.966 118.9 251.958 118.126 Q 250.95 117.352 249.042 117.352 L 244.65 117.352 Z" transform="matrix(1, 0, 0, 1, 0, -41.261036)"/>
    <path d="M 96.653 174.052 Q 92.801 174.052 89.885 172.414 Q 86.969 170.776 85.367 167.824 Q 83.765 164.872 83.765 160.948 Q 83.765 157.996 84.683 155.584 Q 85.601 153.172 87.311 151.444 Q 89.021 149.716 91.397 148.798 Q 93.773 147.88 96.653 147.88 Q 100.505 147.88 103.403 149.5 Q 106.301 151.12 107.921 154.054 Q 109.541 156.988 109.541 160.948 Q 109.541 163.9 108.623 166.312 Q 107.705 168.724 105.995 170.47 Q 104.285 172.216 101.909 173.134 Q 99.533 174.052 96.653 174.052 Z M 96.653 168.508 Q 98.561 168.508 99.893 167.608 Q 101.225 166.708 101.945 165.016 Q 102.665 163.324 102.665 160.948 Q 102.665 157.384 101.081 155.404 Q 99.497 153.424 96.653 153.424 Q 94.781 153.424 93.431 154.306 Q 92.081 155.188 91.361 156.862 Q 90.641 158.536 90.641 160.948 Q 90.641 164.512 92.225 166.51 Q 93.809 168.508 96.653 168.508 Z" transform="matrix(1, 0, 0, 1, 0, -41.261036)"/>
    <path d="M 122.637 173.98 Q 121.305 173.98 120.477 173.35 Q 119.649 172.72 119.181 171.388 L 112.161 151.84 Q 111.585 150.22 112.359 149.086 Q 113.133 147.952 115.113 147.952 Q 116.445 147.952 117.201 148.582 Q 117.957 149.212 118.389 150.544 L 123.753 166.636 L 122.061 166.636 L 127.821 150.544 Q 128.325 149.212 129.081 148.582 Q 129.837 147.952 131.025 147.952 Q 132.213 147.952 132.933 148.582 Q 133.653 149.212 134.121 150.58 L 139.521 166.636 L 138.081 166.636 L 143.589 150.544 Q 144.021 149.212 144.759 148.582 Q 145.497 147.952 146.829 147.952 Q 148.485 147.952 149.259 149.086 Q 150.033 150.22 149.421 151.84 L 142.329 171.424 Q 141.861 172.72 141.051 173.35 Q 140.241 173.98 138.909 173.98 Q 137.541 173.98 136.731 173.35 Q 135.921 172.72 135.453 171.388 L 130.377 157.132 L 131.277 157.132 L 126.093 171.424 Q 125.589 172.72 124.797 173.35 Q 124.005 173.98 122.637 173.98 Z" transform="matrix(1, 0, 0, 1, 0, -41.261036)"/>
    <path d="M 156.464 173.98 Q 154.952 173.98 154.16 173.188 Q 153.368 172.396 153.368 170.848 L 153.368 151.228 Q 153.368 149.644 154.16 148.798 Q 154.952 147.952 156.248 147.952 Q 157.4 147.952 158.048 148.384 Q 158.696 148.816 159.488 149.824 L 170.9 164.08 L 169.892 164.08 L 169.892 151.048 Q 169.892 149.536 170.666 148.744 Q 171.44 147.952 172.952 147.952 Q 174.464 147.952 175.238 148.744 Q 176.012 149.536 176.012 151.048 L 176.012 170.992 Q 176.012 172.36 175.292 173.17 Q 174.572 173.98 173.348 173.98 Q 172.124 173.98 171.422 173.53 Q 170.72 173.08 169.928 172.108 L 158.516 157.816 L 159.524 157.816 L 159.524 170.848 Q 159.524 172.396 158.75 173.188 Q 157.976 173.98 156.464 173.98 Z" transform="matrix(1, 0, 0, 1, 0, -41.261036)"/>
    <path d="M 190.081 174.052 Q 188.641 174.052 187.075 173.854 Q 185.509 173.656 184.105 173.26 Q 182.701 172.864 181.585 172.324 Q 180.613 171.856 180.217 171.082 Q 179.821 170.308 179.929 169.444 Q 180.037 168.58 180.541 167.914 Q 181.045 167.248 181.873 167.014 Q 182.701 166.78 183.745 167.248 Q 185.113 167.896 186.841 168.256 Q 188.569 168.616 190.081 168.616 Q 192.457 168.616 193.411 167.986 Q 194.365 167.356 194.365 166.42 Q 194.365 165.592 193.699 165.088 Q 193.033 164.584 191.341 164.224 L 187.129 163.324 Q 183.673 162.604 181.981 160.804 Q 180.289 159.004 180.289 156.16 Q 180.289 154.288 181.063 152.758 Q 181.837 151.228 183.259 150.148 Q 184.681 149.068 186.643 148.474 Q 188.605 147.88 191.017 147.88 Q 192.889 147.88 194.815 148.294 Q 196.741 148.708 198.145 149.536 Q 198.973 149.968 199.333 150.724 Q 199.693 151.48 199.621 152.29 Q 199.549 153.1 199.063 153.712 Q 198.577 154.324 197.767 154.522 Q 196.957 154.72 195.841 154.252 Q 194.797 153.784 193.483 153.55 Q 192.169 153.316 190.945 153.316 Q 189.613 153.316 188.677 153.622 Q 187.741 153.928 187.255 154.504 Q 186.769 155.08 186.769 155.836 Q 186.769 156.592 187.399 157.114 Q 188.029 157.636 189.721 157.996 L 193.897 158.896 Q 197.389 159.652 199.117 161.38 Q 200.845 163.108 200.845 165.88 Q 200.845 167.752 200.089 169.264 Q 199.333 170.776 197.929 171.838 Q 196.525 172.9 194.545 173.476 Q 192.565 174.052 190.081 174.052 Z" transform="matrix(1, 0, 0, 1, 0, -41.261036)"/>
    <path d="M 217.681 173.98 Q 216.097 173.98 215.233 173.098 Q 214.369 172.216 214.369 170.632 L 214.369 151.624 Q 214.369 150.004 215.251 149.14 Q 216.133 148.276 217.717 148.276 L 226.573 148.276 Q 230.893 148.276 233.251 150.49 Q 235.609 152.704 235.609 156.592 Q 235.609 160.48 233.251 162.694 Q 230.893 164.908 226.573 164.908 L 220.993 164.908 L 220.993 170.632 Q 220.993 172.216 220.165 173.098 Q 219.337 173.98 217.681 173.98 Z M 220.993 159.832 L 225.421 159.832 Q 227.293 159.832 228.301 159.022 Q 229.309 158.212 229.309 156.592 Q 229.309 154.936 228.301 154.144 Q 227.293 153.352 225.421 153.352 L 220.993 153.352 Z" transform="matrix(1, 0, 0, 1, 0, -41.261036)"/>
    <path d="M 237.229 173.98 Q 236.113 173.98 235.357 173.458 Q 234.601 172.936 234.421 172.018 Q 234.241 171.1 234.745 169.948 L 243.709 150.652 Q 244.357 149.248 245.311 148.6 Q 246.265 147.952 247.489 147.952 Q 248.713 147.952 249.631 148.6 Q 250.549 149.248 251.233 150.652 L 260.197 169.948 Q 260.773 171.1 260.611 172.036 Q 260.449 172.972 259.711 173.476 Q 258.973 173.98 257.893 173.98 Q 256.453 173.98 255.679 173.332 Q 254.905 172.684 254.293 171.244 L 252.349 166.672 L 254.869 168.508 L 240.037 168.508 L 242.593 166.672 L 240.649 171.244 Q 240.001 172.684 239.317 173.332 Q 238.633 173.98 237.229 173.98 Z M 247.417 155.188 L 243.241 165.16 L 242.233 163.432 L 252.709 163.432 L 251.701 165.16 L 247.489 155.188 Z" transform="matrix(1, 0, 0, 1, 0, -41.261036)"/>
    <path d="M 272.599 174.052 Q 271.159 174.052 269.593 173.854 Q 268.027 173.656 266.623 173.26 Q 265.219 172.864 264.103 172.324 Q 263.131 171.856 262.735 171.082 Q 262.339 170.308 262.447 169.444 Q 262.555 168.58 263.059 167.914 Q 263.563 167.248 264.391 167.014 Q 265.219 166.78 266.263 167.248 Q 267.631 167.896 269.359 168.256 Q 271.087 168.616 272.599 168.616 Q 274.975 168.616 275.929 167.986 Q 276.883 167.356 276.883 166.42 Q 276.883 165.592 276.217 165.088 Q 275.551 164.584 273.859 164.224 L 269.647 163.324 Q 266.191 162.604 264.499 160.804 Q 262.807 159.004 262.807 156.16 Q 262.807 154.288 263.581 152.758 Q 264.355 151.228 265.777 150.148 Q 267.199 149.068 269.161 148.474 Q 271.123 147.88 273.535 147.88 Q 275.407 147.88 277.333 148.294 Q 279.259 148.708 280.663 149.536 Q 281.491 149.968 281.851 150.724 Q 282.211 151.48 282.139 152.29 Q 282.067 153.1 281.581 153.712 Q 281.095 154.324 280.285 154.522 Q 279.475 154.72 278.359 154.252 Q 277.315 153.784 276.001 153.55 Q 274.687 153.316 273.463 153.316 Q 272.131 153.316 271.195 153.622 Q 270.259 153.928 269.773 154.504 Q 269.287 155.08 269.287 155.836 Q 269.287 156.592 269.917 157.114 Q 270.547 157.636 272.239 157.996 L 276.415 158.896 Q 279.907 159.652 281.635 161.38 Q 283.363 163.108 283.363 165.88 Q 283.363 167.752 282.607 169.264 Q 281.851 170.776 280.447 171.838 Q 279.043 172.9 277.063 173.476 Q 275.083 174.052 272.599 174.052 Z" transform="matrix(1, 0, 0, 1, 0, -41.261036)"/>
    <path d="M 296.037 174.052 Q 294.597 174.052 293.031 173.854 Q 291.465 173.656 290.061 173.26 Q 288.657 172.864 287.541 172.324 Q 286.569 171.856 286.173 171.082 Q 285.777 170.308 285.885 169.444 Q 285.993 168.58 286.497 167.914 Q 287.001 167.248 287.829 167.014 Q 288.657 166.78 289.701 167.248 Q 291.069 167.896 292.797 168.256 Q 294.525 168.616 296.037 168.616 Q 298.413 168.616 299.367 167.986 Q 300.321 167.356 300.321 166.42 Q 300.321 165.592 299.655 165.088 Q 298.989 164.584 297.297 164.224 L 293.085 163.324 Q 289.629 162.604 287.937 160.804 Q 286.245 159.004 286.245 156.16 Q 286.245 154.288 287.019 152.758 Q 287.793 151.228 289.215 150.148 Q 290.637 149.068 292.599 148.474 Q 294.561 147.88 296.973 147.88 Q 298.845 147.88 300.771 148.294 Q 302.697 148.708 304.101 149.536 Q 304.929 149.968 305.289 150.724 Q 305.649 151.48 305.577 152.29 Q 305.505 153.1 305.019 153.712 Q 304.533 154.324 303.723 154.522 Q 302.913 154.72 301.797 154.252 Q 300.753 153.784 299.439 153.55 Q 298.125 153.316 296.901 153.316 Q 295.569 153.316 294.633 153.622 Q 293.697 153.928 293.211 154.504 Q 292.725 155.08 292.725 155.836 Q 292.725 156.592 293.355 157.114 Q 293.985 157.636 295.677 157.996 L 299.853 158.896 Q 303.345 159.652 305.073 161.38 Q 306.801 163.108 306.801 165.88 Q 306.801 167.752 306.045 169.264 Q 305.289 170.776 303.885 171.838 Q 302.481 172.9 300.501 173.476 Q 298.521 174.052 296.037 174.052 Z" transform="matrix(1, 0, 0, 1, 0, -41.261036)"/>
    <path d="M 96.501 212.586 Q 95.546 212.586 95.03 212.052 Q 94.515 211.517 94.515 210.562 L 94.515 187.413 Q 94.515 186.419 95.05 185.904 Q 95.584 185.388 96.539 185.388 L 105.669 185.388 Q 110.024 185.388 112.392 187.546 Q 114.761 189.705 114.761 193.601 Q 114.761 197.536 112.392 199.694 Q 110.024 201.852 105.669 201.852 L 98.488 201.852 L 98.488 210.562 Q 98.488 211.517 97.991 212.052 Q 97.494 212.586 96.501 212.586 Z M 98.488 198.682 L 105.096 198.682 Q 107.961 198.682 109.432 197.402 Q 110.903 196.122 110.903 193.601 Q 110.903 191.118 109.432 189.838 Q 107.961 188.559 105.096 188.559 L 98.488 188.559 Z" style="fill: rgba(0, 0, 0, 0.506);"/>
    <path d="M 124.608 212.663 Q 121.629 212.663 120.12 210.925 Q 118.611 209.187 118.611 205.901 L 118.611 187.069 Q 118.611 186.114 119.107 185.617 Q 119.604 185.121 120.521 185.121 Q 121.438 185.121 121.953 185.617 Q 122.469 186.114 122.469 187.069 L 122.469 205.672 Q 122.469 207.582 123.252 208.518 Q 124.035 209.454 125.525 209.454 Q 125.869 209.454 126.136 209.435 Q 126.404 209.416 126.671 209.378 Q 127.129 209.339 127.32 209.626 Q 127.511 209.912 127.511 210.791 Q 127.511 211.593 127.168 212.033 Q 126.824 212.472 126.06 212.586 Q 125.716 212.625 125.334 212.644 Q 124.952 212.663 124.608 212.663 Z" style="fill: rgba(0, 0, 0, 0.506);"/>
    <path d="M 136.258 212.663 Q 134.31 212.663 132.763 211.899 Q 131.215 211.135 130.337 209.836 Q 129.458 208.537 129.458 206.895 Q 129.458 204.832 130.509 203.629 Q 131.559 202.425 133.985 201.91 Q 136.411 201.394 140.536 201.394 L 142.332 201.394 L 142.332 203.762 L 140.574 203.762 Q 137.824 203.762 136.22 204.03 Q 134.615 204.297 133.947 204.927 Q 133.278 205.558 133.278 206.665 Q 133.278 208.117 134.271 209.015 Q 135.265 209.912 137.022 209.912 Q 138.435 209.912 139.505 209.244 Q 140.574 208.575 141.205 207.429 Q 141.835 206.283 141.835 204.794 L 141.835 200.401 Q 141.835 198.223 140.918 197.268 Q 140.001 196.313 137.9 196.313 Q 136.678 196.313 135.36 196.619 Q 134.042 196.924 132.629 197.65 Q 131.979 197.956 131.521 197.841 Q 131.063 197.727 130.795 197.326 Q 130.528 196.924 130.509 196.447 Q 130.49 195.969 130.738 195.511 Q 130.986 195.053 131.597 194.823 Q 133.278 194.021 134.921 193.677 Q 136.563 193.334 138.015 193.334 Q 140.574 193.334 142.236 194.136 Q 143.898 194.938 144.7 196.581 Q 145.502 198.223 145.502 200.821 L 145.502 210.638 Q 145.502 211.555 145.044 212.071 Q 144.585 212.586 143.707 212.586 Q 142.866 212.586 142.37 212.071 Q 141.873 211.555 141.873 210.638 L 141.873 208.155 L 142.217 208.155 Q 141.911 209.569 141.09 210.581 Q 140.269 211.593 139.046 212.128 Q 137.824 212.663 136.258 212.663 Z" style="fill: rgba(0, 0, 0, 0.506);"/>
    <path d="M 159.012 212.663 Q 156.147 212.663 154.065 211.46 Q 151.983 210.256 150.837 208.06 Q 149.691 205.863 149.691 202.884 Q 149.691 200.668 150.341 198.892 Q 150.99 197.115 152.193 195.893 Q 153.397 194.671 155.135 194.002 Q 156.873 193.334 159.012 193.334 Q 160.349 193.334 161.82 193.735 Q 163.29 194.136 164.551 195.053 Q 165.048 195.358 165.181 195.798 Q 165.315 196.237 165.22 196.695 Q 165.124 197.154 164.799 197.478 Q 164.475 197.803 164.016 197.86 Q 163.558 197.918 163.023 197.612 Q 162.106 196.963 161.151 196.676 Q 160.196 196.39 159.318 196.39 Q 157.942 196.39 156.892 196.829 Q 155.841 197.268 155.116 198.09 Q 154.39 198.911 154.027 200.133 Q 153.664 201.356 153.664 202.922 Q 153.664 206.054 155.135 207.831 Q 156.605 209.607 159.318 209.607 Q 160.196 209.607 161.151 209.339 Q 162.106 209.072 163.023 208.423 Q 163.558 208.117 164.016 208.193 Q 164.475 208.27 164.761 208.595 Q 165.048 208.919 165.143 209.359 Q 165.239 209.798 165.086 210.256 Q 164.933 210.715 164.436 211.02 Q 163.214 211.899 161.782 212.281 Q 160.349 212.663 159.012 212.663 Z" style="fill: rgba(0, 0, 0, 0.506);"/>
    <path d="M 177 212.663 Q 173.944 212.663 171.748 211.498 Q 169.551 210.333 168.348 208.174 Q 167.145 206.016 167.145 203.036 Q 167.145 200.133 168.329 197.956 Q 169.513 195.778 171.576 194.556 Q 173.639 193.334 176.275 193.334 Q 178.223 193.334 179.751 193.964 Q 181.279 194.594 182.368 195.798 Q 183.456 197.001 184.01 198.72 Q 184.564 200.439 184.564 202.578 Q 184.564 203.227 184.182 203.552 Q 183.8 203.877 183.036 203.877 L 170.201 203.877 L 170.201 201.508 L 181.966 201.508 L 181.317 202.043 Q 181.317 200.133 180.763 198.796 Q 180.209 197.459 179.121 196.753 Q 178.032 196.046 176.427 196.046 Q 174.632 196.046 173.391 196.886 Q 172.149 197.727 171.5 199.216 Q 170.85 200.706 170.85 202.693 L 170.85 202.922 Q 170.85 206.283 172.436 207.983 Q 174.021 209.683 177.039 209.683 Q 178.185 209.683 179.464 209.378 Q 180.744 209.072 181.89 208.346 Q 182.539 207.964 183.055 208.002 Q 183.571 208.041 183.896 208.346 Q 184.22 208.652 184.297 209.11 Q 184.373 209.569 184.144 210.046 Q 183.915 210.524 183.342 210.906 Q 182.043 211.784 180.324 212.224 Q 178.605 212.663 177 212.663 Z" style="fill: rgba(0, 0, 0, 0.506);"/>
    <path d="M 190.679 212.586 Q 189.762 212.586 189.265 212.071 Q 188.769 211.555 188.769 210.638 L 188.769 187.069 Q 188.769 186.114 189.265 185.617 Q 189.762 185.121 190.679 185.121 Q 191.596 185.121 192.111 185.617 Q 192.627 186.114 192.627 187.069 L 192.627 197.65 L 192.092 197.65 Q 192.933 195.511 194.728 194.422 Q 196.523 193.334 198.854 193.334 Q 201.069 193.334 202.54 194.155 Q 204.011 194.976 204.736 196.638 Q 205.462 198.3 205.462 200.821 L 205.462 210.638 Q 205.462 211.555 204.966 212.071 Q 204.469 212.586 203.552 212.586 Q 202.597 212.586 202.101 212.071 Q 201.604 211.555 201.604 210.638 L 201.604 201.05 Q 201.604 198.643 200.668 197.536 Q 199.732 196.428 197.746 196.428 Q 195.416 196.428 194.021 197.879 Q 192.627 199.331 192.627 201.776 L 192.627 210.638 Q 192.627 212.586 190.679 212.586 Z" style="fill: rgba(0, 0, 0, 0.506);"/>
    <path d="M 218.852 212.663 Q 216.025 212.663 213.982 211.479 Q 211.938 210.294 210.792 208.117 Q 209.646 205.94 209.646 202.998 Q 209.646 200.744 210.295 198.987 Q 210.945 197.23 212.148 195.95 Q 213.351 194.671 215.051 194.002 Q 216.751 193.334 218.852 193.334 Q 221.641 193.334 223.684 194.518 Q 225.728 195.702 226.874 197.86 Q 228.02 200.019 228.02 202.998 Q 228.02 205.214 227.371 207.009 Q 226.721 208.805 225.518 210.065 Q 224.315 211.326 222.615 211.994 Q 220.915 212.663 218.852 212.663 Z M 218.852 209.683 Q 220.418 209.683 221.602 208.919 Q 222.787 208.155 223.455 206.665 Q 224.124 205.176 224.124 202.998 Q 224.124 199.713 222.672 198.032 Q 221.22 196.351 218.852 196.351 Q 217.248 196.351 216.063 197.096 Q 214.879 197.841 214.211 199.331 Q 213.542 200.821 213.542 202.998 Q 213.542 206.245 214.994 207.964 Q 216.445 209.683 218.852 209.683 Z" style="fill: rgba(0, 0, 0, 0.506);"/>
    <path d="M 238.33 212.663 Q 235.35 212.663 233.841 210.925 Q 232.332 209.187 232.332 205.901 L 232.332 187.069 Q 232.332 186.114 232.829 185.617 Q 233.326 185.121 234.242 185.121 Q 235.159 185.121 235.675 185.617 Q 236.191 186.114 236.191 187.069 L 236.191 205.672 Q 236.191 207.582 236.974 208.518 Q 237.757 209.454 239.247 209.454 Q 239.59 209.454 239.858 209.435 Q 240.125 209.416 240.393 209.378 Q 240.851 209.339 241.042 209.626 Q 241.233 209.912 241.233 210.791 Q 241.233 211.593 240.889 212.033 Q 240.545 212.472 239.781 212.586 Q 239.438 212.625 239.056 212.644 Q 238.674 212.663 238.33 212.663 Z" style="fill: rgba(0, 0, 0, 0.506);"/>
    <path d="M 250.938 212.663 Q 248.493 212.663 246.64 211.498 Q 244.788 210.333 243.756 208.136 Q 242.725 205.94 242.725 202.998 Q 242.725 199.98 243.756 197.841 Q 244.788 195.702 246.64 194.518 Q 248.493 193.334 250.938 193.334 Q 253.383 193.334 255.159 194.537 Q 256.935 195.74 257.546 197.765 L 257.126 197.765 L 257.126 187.069 Q 257.126 186.114 257.623 185.617 Q 258.119 185.121 259.036 185.121 Q 259.953 185.121 260.469 185.617 Q 260.984 186.114 260.984 187.069 L 260.984 210.638 Q 260.984 211.555 260.488 212.071 Q 259.991 212.586 259.074 212.586 Q 258.158 212.586 257.661 212.071 Q 257.164 211.555 257.164 210.638 L 257.164 207.277 L 257.585 208.117 Q 256.973 210.18 255.197 211.421 Q 253.421 212.663 250.938 212.663 Z M 251.931 209.683 Q 253.497 209.683 254.681 208.919 Q 255.866 208.155 256.534 206.665 Q 257.203 205.176 257.203 202.998 Q 257.203 199.713 255.751 198.032 Q 254.299 196.351 251.931 196.351 Q 250.327 196.351 249.142 197.096 Q 247.958 197.841 247.29 199.331 Q 246.621 200.821 246.621 202.998 Q 246.621 206.245 248.073 207.964 Q 249.524 209.683 251.931 209.683 Z" style="fill: rgba(0, 0, 0, 0.506);"/>
    <path d="M 275.159 212.663 Q 272.103 212.663 269.907 211.498 Q 267.71 210.333 266.507 208.174 Q 265.303 206.016 265.303 203.036 Q 265.303 200.133 266.488 197.956 Q 267.672 195.778 269.735 194.556 Q 271.797 193.334 274.433 193.334 Q 276.381 193.334 277.909 193.964 Q 279.437 194.594 280.526 195.798 Q 281.615 197.001 282.169 198.72 Q 282.723 200.439 282.723 202.578 Q 282.723 203.227 282.341 203.552 Q 281.959 203.877 281.195 203.877 L 268.359 203.877 L 268.359 201.508 L 280.125 201.508 L 279.476 202.043 Q 279.476 200.133 278.922 198.796 Q 278.368 197.459 277.279 196.753 Q 276.19 196.046 274.586 196.046 Q 272.791 196.046 271.549 196.886 Q 270.308 197.727 269.658 199.216 Q 269.009 200.706 269.009 202.693 L 269.009 202.922 Q 269.009 206.283 270.594 207.983 Q 272.179 209.683 275.197 209.683 Q 276.343 209.683 277.623 209.378 Q 278.903 209.072 280.049 208.346 Q 280.698 207.964 281.214 208.002 Q 281.729 208.041 282.054 208.346 Q 282.379 208.652 282.455 209.11 Q 282.532 209.569 282.302 210.046 Q 282.073 210.524 281.5 210.906 Q 280.201 211.784 278.482 212.224 Q 276.763 212.663 275.159 212.663 Z" style="fill: rgba(0, 0, 0, 0.506);"/>
    <path d="M 288.86 212.586 Q 287.905 212.586 287.408 212.071 Q 286.912 211.555 286.912 210.638 L 286.912 195.358 Q 286.912 194.403 287.408 193.907 Q 287.905 193.41 288.784 193.41 Q 289.7 193.41 290.178 193.907 Q 290.655 194.403 290.655 195.358 L 290.655 198.147 L 290.273 198.147 Q 290.885 195.855 292.527 194.671 Q 294.17 193.486 296.729 193.295 Q 297.417 193.257 297.818 193.639 Q 298.219 194.021 298.257 194.823 Q 298.334 195.626 297.913 196.103 Q 297.493 196.581 296.615 196.657 L 295.889 196.733 Q 293.406 196.963 292.107 198.3 Q 290.808 199.637 290.808 201.967 L 290.808 210.638 Q 290.808 211.555 290.331 212.071 Q 289.853 212.586 288.86 212.586 Z" style="fill: rgba(0, 0, 0, 0.506);"/>
  </g>
</svg>