<?xml version="1.0" encoding="utf-8"?>
<svg viewBox="1397.3648 469.9711 279.473 235.662" xmlns="http://www.w3.org/2000/svg">
  <g transform="matrix(0.9999999999999999, 0, 0, 0.9999999999999999, 1342.1788330078123, 447.7880554199219)">
    <rect y="22.183" width="279.473" height="235.662" style="fill: rgb(188, 188, 188);" x="55.186"/>
    <rect style="fill: rgb(138, 138, 138);" x="60.828" y="29.686" width="267.282" height="220.654" rx="2" ry="2"/>
    <rect style="fill: rgb(168, 225, 225);" x="68.267" y="36.823" width="253.312" height="206.382" ry="0" rx="0"/>
    <rect style="paint-order: fill; fill: rgb(199, 241, 240);" x="75.878" y="44.493" width="238.091" height="191.043" rx="2" ry="2"/>
    <path d="M 91.545 116.521 Q 89.697 116.521 88.689 115.492 Q 87.681 114.463 87.681 112.615 L 87.681 90.439 Q 87.681 88.549 88.71 87.541 Q 89.739 86.533 91.587 86.533 L 101.919 86.533 Q 106.959 86.533 109.71 88.99 Q 112.461 91.447 112.461 95.815 Q 112.461 98.629 111.222 100.708 Q 109.983 102.787 107.652 103.9 Q 105.321 105.013 101.919 105.013 L 102.255 104.257 L 104.271 104.257 Q 106.077 104.257 107.463 105.118 Q 108.849 105.979 109.773 107.743 L 111.873 111.523 Q 112.545 112.741 112.503 113.896 Q 112.461 115.051 111.6 115.786 Q 110.739 116.521 109.101 116.521 Q 107.463 116.521 106.434 115.849 Q 105.405 115.177 104.607 113.749 L 100.785 106.735 Q 100.281 105.811 99.504 105.454 Q 98.727 105.097 97.719 105.097 L 95.409 105.097 L 95.409 112.615 Q 95.409 114.463 94.443 115.492 Q 93.477 116.521 91.545 116.521 Z M 95.409 99.637 L 100.533 99.637 Q 102.759 99.637 103.935 98.755 Q 105.111 97.873 105.111 96.025 Q 105.111 94.261 103.935 93.358 Q 102.759 92.455 100.533 92.455 L 95.409 92.455 Z"/>
    <path d="M 121.355 116.143 Q 119.381 116.143 118.352 115.114 Q 117.323 114.085 117.323 112.153 L 117.323 90.523 Q 117.323 88.591 118.352 87.562 Q 119.381 86.533 121.355 86.533 L 135.593 86.533 Q 137.105 86.533 137.861 87.289 Q 138.617 88.045 138.617 89.473 Q 138.617 90.943 137.861 91.72 Q 137.105 92.497 135.593 92.497 L 124.715 92.497 L 124.715 98.125 L 134.669 98.125 Q 136.139 98.125 136.916 98.881 Q 137.693 99.637 137.693 101.107 Q 137.693 102.577 136.916 103.333 Q 136.139 104.089 134.669 104.089 L 124.715 104.089 L 124.715 110.179 L 135.593 110.179 Q 137.105 110.179 137.861 110.956 Q 138.617 111.733 138.617 113.161 Q 138.617 114.631 137.861 115.387 Q 137.105 116.143 135.593 116.143 Z"/>
    <path d="M 146.968 116.521 Q 145.12 116.521 144.112 115.492 Q 143.104 114.463 143.104 112.615 L 143.104 90.439 Q 143.104 88.549 144.133 87.541 Q 145.162 86.533 147.01 86.533 L 157.342 86.533 Q 162.382 86.533 165.133 89.116 Q 167.884 91.699 167.884 96.235 Q 167.884 100.771 165.133 103.354 Q 162.382 105.937 157.342 105.937 L 150.832 105.937 L 150.832 112.615 Q 150.832 114.463 149.866 115.492 Q 148.9 116.521 146.968 116.521 Z M 150.832 100.015 L 155.998 100.015 Q 158.182 100.015 159.358 99.07 Q 160.534 98.125 160.534 96.235 Q 160.534 94.303 159.358 93.379 Q 158.182 92.455 155.998 92.455 L 150.832 92.455 Z"/>
    <path d="M 175.512 116.143 Q 173.538 116.143 172.509 115.114 Q 171.48 114.085 171.48 112.153 L 171.48 90.523 Q 171.48 88.591 172.509 87.562 Q 173.538 86.533 175.512 86.533 L 189.75 86.533 Q 191.262 86.533 192.018 87.289 Q 192.774 88.045 192.774 89.473 Q 192.774 90.943 192.018 91.72 Q 191.262 92.497 189.75 92.497 L 178.872 92.497 L 178.872 98.125 L 188.826 98.125 Q 190.296 98.125 191.073 98.881 Q 191.85 99.637 191.85 101.107 Q 191.85 102.577 191.073 103.333 Q 190.296 104.089 188.826 104.089 L 178.872 104.089 L 178.872 110.179 L 189.75 110.179 Q 191.262 110.179 192.018 110.956 Q 192.774 111.733 192.774 113.161 Q 192.774 114.631 192.018 115.387 Q 191.262 116.143 189.75 116.143 Z"/>
    <path d="M 198.195 116.521 Q 196.893 116.521 196.011 115.912 Q 195.129 115.303 194.919 114.232 Q 194.709 113.161 195.297 111.817 L 205.755 89.305 Q 206.511 87.667 207.624 86.911 Q 208.737 86.155 210.165 86.155 Q 211.593 86.155 212.664 86.911 Q 213.735 87.667 214.533 89.305 L 224.991 111.817 Q 225.663 113.161 225.474 114.253 Q 225.285 115.345 224.424 115.933 Q 223.563 116.521 222.303 116.521 Q 220.623 116.521 219.72 115.765 Q 218.817 115.009 218.103 113.329 L 215.835 107.995 L 218.775 110.137 L 201.471 110.137 L 204.453 107.995 L 202.185 113.329 Q 201.429 115.009 200.631 115.765 Q 199.833 116.521 198.195 116.521 Z M 210.081 94.597 L 205.209 106.231 L 204.033 104.215 L 216.255 104.215 L 215.079 106.231 L 210.165 94.597 Z"/>
    <path d="M 236.364 116.521 Q 234.516 116.521 233.508 115.492 Q 232.5 114.463 232.5 112.615 L 232.5 92.833 L 225.906 92.833 Q 224.352 92.833 223.533 92.014 Q 222.714 91.195 222.714 89.683 Q 222.714 88.129 223.533 87.331 Q 224.352 86.533 225.906 86.533 L 246.822 86.533 Q 248.376 86.533 249.195 87.331 Q 250.014 88.129 250.014 89.683 Q 250.014 91.195 249.195 92.014 Q 248.376 92.833 246.822 92.833 L 240.228 92.833 L 240.228 112.615 Q 240.228 114.463 239.262 115.492 Q 238.296 116.521 236.364 116.521 Z"/>
    <path d="M 256.608 116.143 Q 254.634 116.143 253.605 115.114 Q 252.576 114.085 252.576 112.153 L 252.576 90.523 Q 252.576 88.591 253.605 87.562 Q 254.634 86.533 256.608 86.533 L 270.846 86.533 Q 272.358 86.533 273.114 87.289 Q 273.87 88.045 273.87 89.473 Q 273.87 90.943 273.114 91.72 Q 272.358 92.497 270.846 92.497 L 259.968 92.497 L 259.968 98.125 L 269.922 98.125 Q 271.392 98.125 272.169 98.881 Q 272.946 99.637 272.946 101.107 Q 272.946 102.577 272.169 103.333 Q 271.392 104.089 269.922 104.089 L 259.968 104.089 L 259.968 110.179 L 270.846 110.179 Q 272.358 110.179 273.114 110.956 Q 273.87 111.733 273.87 113.161 Q 273.87 114.631 273.114 115.387 Q 272.358 116.143 270.846 116.143 Z"/>
    <path d="M 282.222 116.521 Q 280.374 116.521 279.366 115.492 Q 278.358 114.463 278.358 112.615 L 278.358 90.439 Q 278.358 88.549 279.387 87.541 Q 280.416 86.533 282.264 86.533 L 292.596 86.533 Q 297.636 86.533 300.387 88.99 Q 303.138 91.447 303.138 95.815 Q 303.138 98.629 301.899 100.708 Q 300.66 102.787 298.329 103.9 Q 295.998 105.013 292.596 105.013 L 292.932 104.257 L 294.948 104.257 Q 296.754 104.257 298.14 105.118 Q 299.526 105.979 300.45 107.743 L 302.55 111.523 Q 303.222 112.741 303.18 113.896 Q 303.138 115.051 302.277 115.786 Q 301.416 116.521 299.778 116.521 Q 298.14 116.521 297.111 115.849 Q 296.082 115.177 295.284 113.749 L 291.462 106.735 Q 290.958 105.811 290.181 105.454 Q 289.404 105.097 288.396 105.097 L 286.086 105.097 L 286.086 112.615 Q 286.086 114.463 285.12 115.492 Q 284.154 116.521 282.222 116.521 Z M 286.086 99.637 L 291.21 99.637 Q 293.436 99.637 294.612 98.755 Q 295.788 97.873 295.788 96.025 Q 295.788 94.261 294.612 93.358 Q 293.436 92.455 291.21 92.455 L 286.086 92.455 Z"/>
    <path d="M 75.878 164.914 L 194.928 164.914 L 194.928 236.068 L 75.878 236.068 L 75.878 164.914 Z" style="paint-order: fill; stroke-width: 4px; stroke: rgb(168, 225, 225); fill: rgb(199, 241, 240);"/>
    <path d="M 386.529 216.066 Q 384.428 216.066 382.289 215.474 Q 380.15 214.882 378.392 213.621 Q 377.819 213.277 377.628 212.742 Q 377.437 212.208 377.552 211.692 Q 377.667 211.176 378.029 210.832 Q 378.392 210.489 378.927 210.431 Q 379.462 210.374 380.073 210.756 Q 381.563 211.711 383.148 212.208 Q 384.734 212.704 386.453 212.704 Q 388.21 212.704 389.47 212.055 Q 390.731 211.405 391.399 210.24 Q 392.068 209.075 392.068 207.509 Q 392.068 205.102 390.655 203.574 Q 389.241 202.046 386.72 202.046 Q 385.268 202.046 384.008 202.562 Q 382.747 203.078 381.601 204.262 Q 381.334 204.568 380.894 204.816 Q 380.455 205.064 379.92 205.064 Q 379.118 205.064 378.698 204.644 Q 378.278 204.224 378.278 203.498 L 378.278 190.548 Q 378.278 189.708 378.736 189.249 Q 379.195 188.791 380.035 188.791 L 392.832 188.791 Q 393.672 188.791 394.131 189.211 Q 394.589 189.631 394.589 190.434 Q 394.589 191.236 394.131 191.675 Q 393.672 192.114 392.832 192.114 L 382.136 192.114 L 382.136 201.817 L 381.066 201.817 Q 382.098 200.366 383.798 199.563 Q 385.498 198.761 387.56 198.761 Q 390.12 198.761 391.992 199.831 Q 393.863 200.9 394.895 202.83 Q 395.926 204.759 395.926 207.318 Q 395.926 209.916 394.78 211.883 Q 393.634 213.85 391.533 214.958 Q 389.432 216.066 386.529 216.066 Z" transform="matrix(1, 0, 0, 1, -250.707001, -2.752)" style="fill: rgba(0, 0, 0, 0.506);"/>
    <path d="M 194.928 164.914 L 313.978 164.914 L 313.978 236.068 L 194.928 236.068 L 194.928 164.914 Z" style="paint-order: fill; stroke-width: 4px; stroke: rgb(168, 225, 225); fill: rgb(199, 241, 240);"/>
    <path d="M 385.689 216.066 Q 383.549 216.066 381.334 215.474 Q 379.118 214.882 377.476 213.697 Q 376.864 213.315 376.654 212.762 Q 376.444 212.208 376.559 211.73 Q 376.673 211.253 377.036 210.909 Q 377.399 210.565 377.934 210.508 Q 378.469 210.45 379.118 210.832 Q 380.761 211.826 382.327 212.265 Q 383.893 212.704 385.574 212.704 Q 387.408 212.704 388.668 212.169 Q 389.929 211.635 390.559 210.603 Q 391.189 209.572 391.189 208.12 Q 391.189 205.943 389.757 204.854 Q 388.324 203.765 385.612 203.765 L 383.015 203.765 Q 382.136 203.765 381.678 203.326 Q 381.219 202.887 381.219 202.085 Q 381.219 201.321 381.678 200.881 Q 382.136 200.442 383.015 200.442 L 385.23 200.442 Q 386.873 200.442 388.019 199.888 Q 389.165 199.334 389.795 198.322 Q 390.425 197.31 390.425 195.858 Q 390.425 193.91 389.146 192.859 Q 387.866 191.809 385.421 191.809 Q 383.855 191.809 382.461 192.229 Q 381.066 192.649 379.577 193.719 Q 379.004 194.101 378.488 194.044 Q 377.972 193.986 377.609 193.662 Q 377.246 193.337 377.113 192.84 Q 376.979 192.344 377.17 191.809 Q 377.361 191.274 377.934 190.892 Q 379.538 189.708 381.563 189.078 Q 383.588 188.447 385.727 188.447 Q 388.401 188.447 390.33 189.288 Q 392.259 190.128 393.271 191.694 Q 394.284 193.26 394.284 195.438 Q 394.284 197.08 393.672 198.417 Q 393.061 199.754 391.934 200.69 Q 390.807 201.626 389.203 202.008 L 389.203 201.588 Q 391.992 202.046 393.52 203.861 Q 395.048 205.675 395.048 208.388 Q 395.048 210.756 393.921 212.494 Q 392.794 214.232 390.693 215.149 Q 388.592 216.066 385.689 216.066 Z" transform="matrix(1, 0, 0, 1, -131.656998, -2.752279)" style="fill: rgba(0, 0, 0, 0.506);"/>
  </g>
</svg>