<?xml version="1.0" encoding="utf-8"?>
<svg viewBox="0 705.633 279.473 235.662" xmlns="http://www.w3.org/2000/svg">
  <g transform="matrix(0.9999999999999999, 0, 0, 0.9999999999999999, -55.18596267700201, 683.4500122070312)">
    <rect y="22.183" width="279.473" height="235.662" style="fill: rgb(188, 188, 188);" x="55.186"/>
    <rect style="fill: rgb(138, 138, 138);" x="60.828" y="29.686" width="267.282" height="220.654" rx="2" ry="2"/>
    <rect style="fill: rgb(217, 185, 30);" x="68.267" y="36.823" width="253.312" height="206.382" rx="2" ry="2"/>
    <rect style="paint-order: fill; fill: rgb(235, 213, 45);" x="75.878" y="44.493" width="238.091" height="191.043" rx="2" ry="2"/>
    <path d="M 101.167 124.184 Q 99.327 124.184 97.326 123.931 Q 95.325 123.678 93.531 123.172 Q 91.737 122.666 90.311 121.976 Q 89.069 121.378 88.563 120.389 Q 88.057 119.4 88.195 118.296 Q 88.333 117.192 88.977 116.341 Q 89.621 115.49 90.679 115.191 Q 91.737 114.892 93.071 115.49 Q 94.819 116.318 97.027 116.778 Q 99.235 117.238 101.167 117.238 Q 104.203 117.238 105.422 116.433 Q 106.641 115.628 106.641 114.432 Q 106.641 113.374 105.79 112.73 Q 104.939 112.086 102.777 111.626 L 97.395 110.476 Q 92.979 109.556 90.817 107.256 Q 88.655 104.956 88.655 101.322 Q 88.655 98.93 89.644 96.975 Q 90.633 95.02 92.45 93.64 Q 94.267 92.26 96.774 91.501 Q 99.281 90.742 102.363 90.742 Q 104.755 90.742 107.216 91.271 Q 109.677 91.8 111.471 92.858 Q 112.529 93.41 112.989 94.376 Q 113.449 95.342 113.357 96.377 Q 113.265 97.412 112.644 98.194 Q 112.023 98.976 110.988 99.229 Q 109.953 99.482 108.527 98.884 Q 107.193 98.286 105.514 97.987 Q 103.835 97.688 102.271 97.688 Q 100.569 97.688 99.373 98.079 Q 98.177 98.47 97.556 99.206 Q 96.935 99.942 96.935 100.908 Q 96.935 101.874 97.74 102.541 Q 98.545 103.208 100.707 103.668 L 106.043 104.818 Q 110.505 105.784 112.713 107.992 Q 114.921 110.2 114.921 113.742 Q 114.921 116.134 113.955 118.066 Q 112.989 119.998 111.195 121.355 Q 109.401 122.712 106.871 123.448 Q 104.341 124.184 101.167 124.184 Z"/>
    <path d="M 123.47 123.678 Q 121.308 123.678 120.181 122.551 Q 119.054 121.424 119.054 119.308 L 119.054 95.618 Q 119.054 93.502 120.181 92.375 Q 121.308 91.248 123.47 91.248 L 139.064 91.248 Q 140.72 91.248 141.548 92.076 Q 142.376 92.904 142.376 94.468 Q 142.376 96.078 141.548 96.929 Q 140.72 97.78 139.064 97.78 L 127.15 97.78 L 127.15 103.944 L 138.052 103.944 Q 139.662 103.944 140.513 104.772 Q 141.364 105.6 141.364 107.21 Q 141.364 108.82 140.513 109.648 Q 139.662 110.476 138.052 110.476 L 127.15 110.476 L 127.15 117.146 L 139.064 117.146 Q 140.72 117.146 141.548 117.997 Q 142.376 118.848 142.376 120.412 Q 142.376 122.022 141.548 122.85 Q 140.72 123.678 139.064 123.678 Z"/>
    <path d="M 159.391 124.092 Q 157.367 124.092 156.263 122.965 Q 155.159 121.838 155.159 119.814 L 155.159 98.148 L 147.937 98.148 Q 146.235 98.148 145.338 97.251 Q 144.441 96.354 144.441 94.698 Q 144.441 92.996 145.338 92.122 Q 146.235 91.248 147.937 91.248 L 170.845 91.248 Q 172.547 91.248 173.444 92.122 Q 174.341 92.996 174.341 94.698 Q 174.341 96.354 173.444 97.251 Q 172.547 98.148 170.845 98.148 L 163.623 98.148 L 163.623 119.814 Q 163.623 121.838 162.565 122.965 Q 161.507 124.092 159.391 124.092 Z"/>
    <path d="M 202.342 124.184 Q 200.502 124.184 198.501 123.931 Q 196.5 123.678 194.706 123.172 Q 192.912 122.666 191.486 121.976 Q 190.244 121.378 189.738 120.389 Q 189.232 119.4 189.37 118.296 Q 189.508 117.192 190.152 116.341 Q 190.796 115.49 191.854 115.191 Q 192.912 114.892 194.246 115.49 Q 195.994 116.318 198.202 116.778 Q 200.41 117.238 202.342 117.238 Q 205.378 117.238 206.597 116.433 Q 207.816 115.628 207.816 114.432 Q 207.816 113.374 206.965 112.73 Q 206.114 112.086 203.952 111.626 L 198.57 110.476 Q 194.154 109.556 191.992 107.256 Q 189.83 104.956 189.83 101.322 Q 189.83 98.93 190.819 96.975 Q 191.808 95.02 193.625 93.64 Q 195.442 92.26 197.949 91.501 Q 200.456 90.742 203.538 90.742 Q 205.93 90.742 208.391 91.271 Q 210.852 91.8 212.646 92.858 Q 213.704 93.41 214.164 94.376 Q 214.624 95.342 214.532 96.377 Q 214.44 97.412 213.819 98.194 Q 213.198 98.976 212.163 99.229 Q 211.128 99.482 209.702 98.884 Q 208.368 98.286 206.689 97.987 Q 205.01 97.688 203.446 97.688 Q 201.744 97.688 200.548 98.079 Q 199.352 98.47 198.731 99.206 Q 198.11 99.942 198.11 100.908 Q 198.11 101.874 198.915 102.541 Q 199.72 103.208 201.882 103.668 L 207.218 104.818 Q 211.68 105.784 213.888 107.992 Q 216.096 110.2 216.096 113.742 Q 216.096 116.134 215.13 118.066 Q 214.164 119.998 212.37 121.355 Q 210.576 122.712 208.046 123.448 Q 205.516 124.184 202.342 124.184 Z"/>
    <path d="M 231.408 124.092 Q 229.384 124.092 228.28 122.965 Q 227.176 121.838 227.176 119.814 L 227.176 98.148 L 219.954 98.148 Q 218.252 98.148 217.355 97.251 Q 216.458 96.354 216.458 94.698 Q 216.458 92.996 217.355 92.122 Q 218.252 91.248 219.954 91.248 L 242.862 91.248 Q 244.564 91.248 245.461 92.122 Q 246.358 92.996 246.358 94.698 Q 246.358 96.354 245.461 97.251 Q 244.564 98.148 242.862 98.148 L 235.64 98.148 L 235.64 119.814 Q 235.64 121.838 234.582 122.965 Q 233.524 124.092 231.408 124.092 Z"/>
    <path d="M 247.043 124.092 Q 245.617 124.092 244.651 123.425 Q 243.685 122.758 243.455 121.585 Q 243.225 120.412 243.869 118.94 L 255.323 94.284 Q 256.151 92.49 257.37 91.662 Q 258.589 90.834 260.153 90.834 Q 261.717 90.834 262.89 91.662 Q 264.063 92.49 264.937 94.284 L 276.391 118.94 Q 277.127 120.412 276.92 121.608 Q 276.713 122.804 275.77 123.448 Q 274.827 124.092 273.447 124.092 Q 271.607 124.092 270.618 123.264 Q 269.629 122.436 268.847 120.596 L 266.363 114.754 L 269.583 117.1 L 250.631 117.1 L 253.897 114.754 L 251.413 120.596 Q 250.585 122.436 249.711 123.264 Q 248.837 124.092 247.043 124.092 Z M 260.061 100.08 L 254.725 112.822 L 253.437 110.614 L 266.823 110.614 L 265.535 112.822 L 260.153 100.08 Z"/>
    <path d="M 288.847 124.092 Q 286.823 124.092 285.719 122.965 Q 284.615 121.838 284.615 119.814 L 284.615 98.148 L 277.393 98.148 Q 275.691 98.148 274.794 97.251 Q 273.897 96.354 273.897 94.698 Q 273.897 92.996 274.794 92.122 Q 275.691 91.248 277.393 91.248 L 300.301 91.248 Q 302.003 91.248 302.9 92.122 Q 303.797 92.996 303.797 94.698 Q 303.797 96.354 302.9 97.251 Q 302.003 98.148 300.301 98.148 L 293.079 98.148 L 293.079 119.814 Q 293.079 121.838 292.021 122.965 Q 290.963 124.092 288.847 124.092 Z"/>
    <path d="M 96.501 212.586 Q 95.546 212.586 95.03 212.052 Q 94.515 211.517 94.515 210.562 L 94.515 187.413 Q 94.515 186.419 95.05 185.904 Q 95.584 185.388 96.539 185.388 L 105.669 185.388 Q 110.024 185.388 112.392 187.546 Q 114.761 189.705 114.761 193.601 Q 114.761 197.536 112.392 199.694 Q 110.024 201.852 105.669 201.852 L 98.488 201.852 L 98.488 210.562 Q 98.488 211.517 97.991 212.052 Q 97.494 212.586 96.501 212.586 Z M 98.488 198.682 L 105.096 198.682 Q 107.961 198.682 109.432 197.402 Q 110.903 196.122 110.903 193.601 Q 110.903 191.118 109.432 189.838 Q 107.961 188.559 105.096 188.559 L 98.488 188.559 Z" style="fill: rgba(0, 0, 0, 0.506);"/>
    <path d="M 124.608 212.663 Q 121.629 212.663 120.12 210.925 Q 118.611 209.187 118.611 205.901 L 118.611 187.069 Q 118.611 186.114 119.107 185.617 Q 119.604 185.121 120.521 185.121 Q 121.438 185.121 121.953 185.617 Q 122.469 186.114 122.469 187.069 L 122.469 205.672 Q 122.469 207.582 123.252 208.518 Q 124.035 209.454 125.525 209.454 Q 125.869 209.454 126.136 209.435 Q 126.404 209.416 126.671 209.378 Q 127.129 209.339 127.32 209.626 Q 127.511 209.912 127.511 210.791 Q 127.511 211.593 127.168 212.033 Q 126.824 212.472 126.06 212.586 Q 125.716 212.625 125.334 212.644 Q 124.952 212.663 124.608 212.663 Z" style="fill: rgba(0, 0, 0, 0.506);"/>
    <path d="M 136.258 212.663 Q 134.31 212.663 132.763 211.899 Q 131.215 211.135 130.337 209.836 Q 129.458 208.537 129.458 206.895 Q 129.458 204.832 130.509 203.629 Q 131.559 202.425 133.985 201.91 Q 136.411 201.394 140.536 201.394 L 142.332 201.394 L 142.332 203.762 L 140.574 203.762 Q 137.824 203.762 136.22 204.03 Q 134.615 204.297 133.947 204.927 Q 133.278 205.558 133.278 206.665 Q 133.278 208.117 134.271 209.015 Q 135.265 209.912 137.022 209.912 Q 138.435 209.912 139.505 209.244 Q 140.574 208.575 141.205 207.429 Q 141.835 206.283 141.835 204.794 L 141.835 200.401 Q 141.835 198.223 140.918 197.268 Q 140.001 196.313 137.9 196.313 Q 136.678 196.313 135.36 196.619 Q 134.042 196.924 132.629 197.65 Q 131.979 197.956 131.521 197.841 Q 131.063 197.727 130.795 197.326 Q 130.528 196.924 130.509 196.447 Q 130.49 195.969 130.738 195.511 Q 130.986 195.053 131.597 194.823 Q 133.278 194.021 134.921 193.677 Q 136.563 193.334 138.015 193.334 Q 140.574 193.334 142.236 194.136 Q 143.898 194.938 144.7 196.581 Q 145.502 198.223 145.502 200.821 L 145.502 210.638 Q 145.502 211.555 145.044 212.071 Q 144.585 212.586 143.707 212.586 Q 142.866 212.586 142.37 212.071 Q 141.873 211.555 141.873 210.638 L 141.873 208.155 L 142.217 208.155 Q 141.911 209.569 141.09 210.581 Q 140.269 211.593 139.046 212.128 Q 137.824 212.663 136.258 212.663 Z" style="fill: rgba(0, 0, 0, 0.506);"/>
    <path d="M 159.012 212.663 Q 156.147 212.663 154.065 211.46 Q 151.983 210.256 150.837 208.06 Q 149.691 205.863 149.691 202.884 Q 149.691 200.668 150.341 198.892 Q 150.99 197.115 152.193 195.893 Q 153.397 194.671 155.135 194.002 Q 156.873 193.334 159.012 193.334 Q 160.349 193.334 161.82 193.735 Q 163.29 194.136 164.551 195.053 Q 165.048 195.358 165.181 195.798 Q 165.315 196.237 165.22 196.695 Q 165.124 197.154 164.799 197.478 Q 164.475 197.803 164.016 197.86 Q 163.558 197.918 163.023 197.612 Q 162.106 196.963 161.151 196.676 Q 160.196 196.39 159.318 196.39 Q 157.942 196.39 156.892 196.829 Q 155.841 197.268 155.116 198.09 Q 154.39 198.911 154.027 200.133 Q 153.664 201.356 153.664 202.922 Q 153.664 206.054 155.135 207.831 Q 156.605 209.607 159.318 209.607 Q 160.196 209.607 161.151 209.339 Q 162.106 209.072 163.023 208.423 Q 163.558 208.117 164.016 208.193 Q 164.475 208.27 164.761 208.595 Q 165.048 208.919 165.143 209.359 Q 165.239 209.798 165.086 210.256 Q 164.933 210.715 164.436 211.02 Q 163.214 211.899 161.782 212.281 Q 160.349 212.663 159.012 212.663 Z" style="fill: rgba(0, 0, 0, 0.506);"/>
    <path d="M 177 212.663 Q 173.944 212.663 171.748 211.498 Q 169.551 210.333 168.348 208.174 Q 167.145 206.016 167.145 203.036 Q 167.145 200.133 168.329 197.956 Q 169.513 195.778 171.576 194.556 Q 173.639 193.334 176.275 193.334 Q 178.223 193.334 179.751 193.964 Q 181.279 194.594 182.368 195.798 Q 183.456 197.001 184.01 198.72 Q 184.564 200.439 184.564 202.578 Q 184.564 203.227 184.182 203.552 Q 183.8 203.877 183.036 203.877 L 170.201 203.877 L 170.201 201.508 L 181.966 201.508 L 181.317 202.043 Q 181.317 200.133 180.763 198.796 Q 180.209 197.459 179.121 196.753 Q 178.032 196.046 176.427 196.046 Q 174.632 196.046 173.391 196.886 Q 172.149 197.727 171.5 199.216 Q 170.85 200.706 170.85 202.693 L 170.85 202.922 Q 170.85 206.283 172.436 207.983 Q 174.021 209.683 177.039 209.683 Q 178.185 209.683 179.464 209.378 Q 180.744 209.072 181.89 208.346 Q 182.539 207.964 183.055 208.002 Q 183.571 208.041 183.896 208.346 Q 184.22 208.652 184.297 209.11 Q 184.373 209.569 184.144 210.046 Q 183.915 210.524 183.342 210.906 Q 182.043 211.784 180.324 212.224 Q 178.605 212.663 177 212.663 Z" style="fill: rgba(0, 0, 0, 0.506);"/>
    <path d="M 190.679 212.586 Q 189.762 212.586 189.265 212.071 Q 188.769 211.555 188.769 210.638 L 188.769 187.069 Q 188.769 186.114 189.265 185.617 Q 189.762 185.121 190.679 185.121 Q 191.596 185.121 192.111 185.617 Q 192.627 186.114 192.627 187.069 L 192.627 197.65 L 192.092 197.65 Q 192.933 195.511 194.728 194.422 Q 196.523 193.334 198.854 193.334 Q 201.069 193.334 202.54 194.155 Q 204.011 194.976 204.736 196.638 Q 205.462 198.3 205.462 200.821 L 205.462 210.638 Q 205.462 211.555 204.966 212.071 Q 204.469 212.586 203.552 212.586 Q 202.597 212.586 202.101 212.071 Q 201.604 211.555 201.604 210.638 L 201.604 201.05 Q 201.604 198.643 200.668 197.536 Q 199.732 196.428 197.746 196.428 Q 195.416 196.428 194.021 197.879 Q 192.627 199.331 192.627 201.776 L 192.627 210.638 Q 192.627 212.586 190.679 212.586 Z" style="fill: rgba(0, 0, 0, 0.506);"/>
    <path d="M 218.852 212.663 Q 216.025 212.663 213.982 211.479 Q 211.938 210.294 210.792 208.117 Q 209.646 205.94 209.646 202.998 Q 209.646 200.744 210.295 198.987 Q 210.945 197.23 212.148 195.95 Q 213.351 194.671 215.051 194.002 Q 216.751 193.334 218.852 193.334 Q 221.641 193.334 223.684 194.518 Q 225.728 195.702 226.874 197.86 Q 228.02 200.019 228.02 202.998 Q 228.02 205.214 227.371 207.009 Q 226.721 208.805 225.518 210.065 Q 224.315 211.326 222.615 211.994 Q 220.915 212.663 218.852 212.663 Z M 218.852 209.683 Q 220.418 209.683 221.602 208.919 Q 222.787 208.155 223.455 206.665 Q 224.124 205.176 224.124 202.998 Q 224.124 199.713 222.672 198.032 Q 221.22 196.351 218.852 196.351 Q 217.248 196.351 216.063 197.096 Q 214.879 197.841 214.211 199.331 Q 213.542 200.821 213.542 202.998 Q 213.542 206.245 214.994 207.964 Q 216.445 209.683 218.852 209.683 Z" style="fill: rgba(0, 0, 0, 0.506);"/>
    <path d="M 238.33 212.663 Q 235.35 212.663 233.841 210.925 Q 232.332 209.187 232.332 205.901 L 232.332 187.069 Q 232.332 186.114 232.829 185.617 Q 233.326 185.121 234.242 185.121 Q 235.159 185.121 235.675 185.617 Q 236.191 186.114 236.191 187.069 L 236.191 205.672 Q 236.191 207.582 236.974 208.518 Q 237.757 209.454 239.247 209.454 Q 239.59 209.454 239.858 209.435 Q 240.125 209.416 240.393 209.378 Q 240.851 209.339 241.042 209.626 Q 241.233 209.912 241.233 210.791 Q 241.233 211.593 240.889 212.033 Q 240.545 212.472 239.781 212.586 Q 239.438 212.625 239.056 212.644 Q 238.674 212.663 238.33 212.663 Z" style="fill: rgba(0, 0, 0, 0.506);"/>
    <path d="M 250.938 212.663 Q 248.493 212.663 246.64 211.498 Q 244.788 210.333 243.756 208.136 Q 242.725 205.94 242.725 202.998 Q 242.725 199.98 243.756 197.841 Q 244.788 195.702 246.64 194.518 Q 248.493 193.334 250.938 193.334 Q 253.383 193.334 255.159 194.537 Q 256.935 195.74 257.546 197.765 L 257.126 197.765 L 257.126 187.069 Q 257.126 186.114 257.623 185.617 Q 258.119 185.121 259.036 185.121 Q 259.953 185.121 260.469 185.617 Q 260.984 186.114 260.984 187.069 L 260.984 210.638 Q 260.984 211.555 260.488 212.071 Q 259.991 212.586 259.074 212.586 Q 258.158 212.586 257.661 212.071 Q 257.164 211.555 257.164 210.638 L 257.164 207.277 L 257.585 208.117 Q 256.973 210.18 255.197 211.421 Q 253.421 212.663 250.938 212.663 Z M 251.931 209.683 Q 253.497 209.683 254.681 208.919 Q 255.866 208.155 256.534 206.665 Q 257.203 205.176 257.203 202.998 Q 257.203 199.713 255.751 198.032 Q 254.299 196.351 251.931 196.351 Q 250.327 196.351 249.142 197.096 Q 247.958 197.841 247.29 199.331 Q 246.621 200.821 246.621 202.998 Q 246.621 206.245 248.073 207.964 Q 249.524 209.683 251.931 209.683 Z" style="fill: rgba(0, 0, 0, 0.506);"/>
    <path d="M 275.159 212.663 Q 272.103 212.663 269.907 211.498 Q 267.71 210.333 266.507 208.174 Q 265.303 206.016 265.303 203.036 Q 265.303 200.133 266.488 197.956 Q 267.672 195.778 269.735 194.556 Q 271.797 193.334 274.433 193.334 Q 276.381 193.334 277.909 193.964 Q 279.437 194.594 280.526 195.798 Q 281.615 197.001 282.169 198.72 Q 282.723 200.439 282.723 202.578 Q 282.723 203.227 282.341 203.552 Q 281.959 203.877 281.195 203.877 L 268.359 203.877 L 268.359 201.508 L 280.125 201.508 L 279.476 202.043 Q 279.476 200.133 278.922 198.796 Q 278.368 197.459 277.279 196.753 Q 276.19 196.046 274.586 196.046 Q 272.791 196.046 271.549 196.886 Q 270.308 197.727 269.658 199.216 Q 269.009 200.706 269.009 202.693 L 269.009 202.922 Q 269.009 206.283 270.594 207.983 Q 272.179 209.683 275.197 209.683 Q 276.343 209.683 277.623 209.378 Q 278.903 209.072 280.049 208.346 Q 280.698 207.964 281.214 208.002 Q 281.729 208.041 282.054 208.346 Q 282.379 208.652 282.455 209.11 Q 282.532 209.569 282.302 210.046 Q 282.073 210.524 281.5 210.906 Q 280.201 211.784 278.482 212.224 Q 276.763 212.663 275.159 212.663 Z" style="fill: rgba(0, 0, 0, 0.506);"/>
    <path d="M 288.86 212.586 Q 287.905 212.586 287.408 212.071 Q 286.912 211.555 286.912 210.638 L 286.912 195.358 Q 286.912 194.403 287.408 193.907 Q 287.905 193.41 288.784 193.41 Q 289.7 193.41 290.178 193.907 Q 290.655 194.403 290.655 195.358 L 290.655 198.147 L 290.273 198.147 Q 290.885 195.855 292.527 194.671 Q 294.17 193.486 296.729 193.295 Q 297.417 193.257 297.818 193.639 Q 298.219 194.021 298.257 194.823 Q 298.334 195.626 297.913 196.103 Q 297.493 196.581 296.615 196.657 L 295.889 196.733 Q 293.406 196.963 292.107 198.3 Q 290.808 199.637 290.808 201.967 L 290.808 210.638 Q 290.808 211.555 290.331 212.071 Q 289.853 212.586 288.86 212.586 Z" style="fill: rgba(0, 0, 0, 0.506);"/>
  </g>
</svg>