<?xml version="1.0" encoding="utf-8"?>
<svg viewBox="558.946 705.633 279.473 235.662" xmlns="http://www.w3.org/2000/svg">
  <g transform="matrix(0.9999999999999999, 0, 0, 0.9999999999999999, 503.7600402832031, 683.4500122070312)">
    <rect y="22.183" width="279.473" height="235.662" style="fill: rgb(188, 188, 188);" x="55.186"/>
    <rect style="fill: rgb(138, 138, 138);" x="60.828" y="29.686" width="267.282" height="220.654" rx="2" ry="2"/>
    <rect style="fill: rgb(209, 216, 89);" x="68.267" y="36.823" width="253.312" height="206.382" rx="2" ry="2"/>
    <rect style="paint-order: fill; fill: rgb(230, 235, 121);" x="75.878" y="44.493" width="238.091" height="191.043" rx="2" ry="2"/>
    <path d="M 138.261 117.056 Q 135.709 117.056 134.317 115.635 Q 132.925 114.214 132.925 111.662 L 132.925 84.344 L 123.819 84.344 Q 121.673 84.344 120.542 83.213 Q 119.411 82.082 119.411 79.994 Q 119.411 77.848 120.542 76.746 Q 121.673 75.644 123.819 75.644 L 152.703 75.644 Q 154.849 75.644 155.98 76.746 Q 157.111 77.848 157.111 79.994 Q 157.111 82.082 155.98 83.213 Q 154.849 84.344 152.703 84.344 L 143.597 84.344 L 143.597 111.662 Q 143.597 114.214 142.263 115.635 Q 140.929 117.056 138.261 117.056 Z" transform="matrix(1, 0, 0, 1, 0.000488, -13.461354)"/>
    <path d="M 166.21 116.534 Q 163.484 116.534 162.063 115.113 Q 160.642 113.692 160.642 111.024 L 160.642 81.154 Q 160.642 78.486 162.063 77.065 Q 163.484 75.644 166.21 75.644 L 185.872 75.644 Q 187.96 75.644 189.004 76.688 Q 190.048 77.732 190.048 79.704 Q 190.048 81.734 189.004 82.807 Q 187.96 83.88 185.872 83.88 L 170.85 83.88 L 170.85 91.652 L 184.596 91.652 Q 186.626 91.652 187.699 92.696 Q 188.772 93.74 188.772 95.77 Q 188.772 97.8 187.699 98.844 Q 186.626 99.888 184.596 99.888 L 170.85 99.888 L 170.85 108.298 L 185.872 108.298 Q 187.96 108.298 189.004 109.371 Q 190.048 110.444 190.048 112.416 Q 190.048 114.446 189.004 115.49 Q 187.96 116.534 185.872 116.534 Z" transform="matrix(1, 0, 0, 1, 0.000488, -13.461354)"/>
    <path d="M 199.897 117.056 Q 197.867 117.056 196.533 115.954 Q 195.199 114.852 194.996 113.17 Q 194.793 111.488 196.127 109.748 L 208.423 93.508 L 208.423 98.322 L 196.475 82.488 Q 195.141 80.69 195.344 79.008 Q 195.547 77.326 196.881 76.224 Q 198.215 75.122 200.245 75.122 Q 201.927 75.122 203.203 75.934 Q 204.479 76.746 205.755 78.544 L 214.397 90.55 L 210.917 90.55 L 219.617 78.544 Q 220.893 76.688 222.169 75.905 Q 223.445 75.122 225.127 75.122 Q 227.215 75.122 228.549 76.195 Q 229.883 77.268 230.086 78.95 Q 230.289 80.632 228.897 82.488 L 216.891 98.322 L 216.891 93.508 L 229.187 109.748 Q 230.579 111.488 230.376 113.17 Q 230.173 114.852 228.839 115.954 Q 227.505 117.056 225.417 117.056 Q 223.793 117.056 222.517 116.273 Q 221.241 115.49 219.907 113.634 L 210.975 101.28 L 214.339 101.28 L 205.465 113.634 Q 204.131 115.49 202.855 116.273 Q 201.579 117.056 199.897 117.056 Z" transform="matrix(1, 0, 0, 1, 0.000488, -13.461354)"/>
    <path d="M 251.561 117.056 Q 249.009 117.056 247.617 115.635 Q 246.225 114.214 246.225 111.662 L 246.225 84.344 L 237.119 84.344 Q 234.973 84.344 233.842 83.213 Q 232.711 82.082 232.711 79.994 Q 232.711 77.848 233.842 76.746 Q 234.973 75.644 237.119 75.644 L 266.003 75.644 Q 268.149 75.644 269.28 76.746 Q 270.411 77.848 270.411 79.994 Q 270.411 82.082 269.28 83.213 Q 268.149 84.344 266.003 84.344 L 256.897 84.344 L 256.897 111.662 Q 256.897 114.214 255.563 115.635 Q 254.229 117.056 251.561 117.056 Z" transform="matrix(1, 0, 0, 1, 0.000488, -13.461354)"/>
    <path d="M 112.977 175.056 Q 110.425 175.056 109.033 173.635 Q 107.641 172.214 107.641 169.604 L 107.641 138.574 Q 107.641 135.906 109.033 134.514 Q 110.425 133.122 112.977 133.122 Q 115.587 133.122 116.95 134.514 Q 118.313 135.906 118.313 138.574 L 118.313 169.604 Q 118.313 172.214 116.979 173.635 Q 115.645 175.056 112.977 175.056 Z" transform="matrix(1, 0, 0, 1, 0.000488, -13.461354)"/>
    <path d="M 130.707 175.056 Q 128.271 175.056 126.995 173.78 Q 125.719 172.504 125.719 170.01 L 125.719 138.4 Q 125.719 135.848 126.995 134.485 Q 128.271 133.122 130.359 133.122 Q 132.215 133.122 133.259 133.818 Q 134.303 134.514 135.579 136.138 L 153.965 159.106 L 152.341 159.106 L 152.341 138.11 Q 152.341 135.674 153.588 134.398 Q 154.835 133.122 157.271 133.122 Q 159.707 133.122 160.954 134.398 Q 162.201 135.674 162.201 138.11 L 162.201 170.242 Q 162.201 172.446 161.041 173.751 Q 159.881 175.056 157.909 175.056 Q 155.937 175.056 154.806 174.331 Q 153.675 173.606 152.399 172.04 L 134.013 149.014 L 135.637 149.014 L 135.637 170.01 Q 135.637 172.504 134.39 173.78 Q 133.143 175.056 130.707 175.056 Z" transform="matrix(1, 0, 0, 1, 0.000488, -13.461354)"/>
    <path d="M 175.025 175.056 Q 172.473 175.056 171.081 173.635 Q 169.689 172.214 169.689 169.662 L 169.689 139.038 Q 169.689 136.428 171.11 135.036 Q 172.531 133.644 175.083 133.644 L 189.351 133.644 Q 196.311 133.644 200.11 137.211 Q 203.909 140.778 203.909 147.042 Q 203.909 153.306 200.11 156.873 Q 196.311 160.44 189.351 160.44 L 180.361 160.44 L 180.361 169.662 Q 180.361 172.214 179.027 173.635 Q 177.693 175.056 175.025 175.056 Z M 180.361 152.262 L 187.495 152.262 Q 190.511 152.262 192.135 150.957 Q 193.759 149.652 193.759 147.042 Q 193.759 144.374 192.135 143.098 Q 190.511 141.822 187.495 141.822 L 180.361 141.822 Z" transform="matrix(1, 0, 0, 1, 0.000488, -13.461354)"/>
    <path d="M 226.989 175.172 Q 222.523 175.172 219.101 174.041 Q 215.679 172.91 213.33 170.648 Q 210.981 168.386 209.792 164.993 Q 208.603 161.6 208.603 157.134 L 208.603 138.516 Q 208.603 135.848 209.995 134.485 Q 211.387 133.122 213.939 133.122 Q 216.549 133.122 217.912 134.485 Q 219.275 135.848 219.275 138.516 L 219.275 157.25 Q 219.275 161.716 221.247 163.978 Q 223.219 166.24 226.989 166.24 Q 230.701 166.24 232.673 163.978 Q 234.645 161.716 234.645 157.25 L 234.645 138.516 Q 234.645 135.848 236.008 134.485 Q 237.371 133.122 239.923 133.122 Q 242.475 133.122 243.809 134.485 Q 245.143 135.848 245.143 138.516 L 245.143 157.134 Q 245.143 163.108 243.084 167.139 Q 241.025 171.17 236.965 173.171 Q 232.905 175.172 226.989 175.172 Z" transform="matrix(1, 0, 0, 1, 0.000488, -13.461354)"/>
    <path d="M 267.233 175.056 Q 264.681 175.056 263.289 173.635 Q 261.897 172.214 261.897 169.662 L 261.897 142.344 L 252.791 142.344 Q 250.645 142.344 249.514 141.213 Q 248.383 140.082 248.383 137.994 Q 248.383 135.848 249.514 134.746 Q 250.645 133.644 252.791 133.644 L 281.675 133.644 Q 283.821 133.644 284.952 134.746 Q 286.083 135.848 286.083 137.994 Q 286.083 140.082 284.952 141.213 Q 283.821 142.344 281.675 142.344 L 272.569 142.344 L 272.569 169.662 Q 272.569 172.214 271.235 173.635 Q 269.901 175.056 267.233 175.056 Z" transform="matrix(1, 0, 0, 1, 0.000488, -13.461354)"/>
    <path d="M 132.499 219.195 Q 131.2 219.195 130.245 218.717 Q 129.29 218.24 128.813 217.285 Q 128.335 216.33 128.335 214.955 L 128.335 206.856 Q 128.335 205.29 127.743 204.564 Q 127.151 203.839 125.585 203.8 Q 125.012 203.8 124.649 203.342 Q 124.286 202.884 124.286 202.272 Q 124.286 201.623 124.649 201.203 Q 125.012 200.783 125.585 200.744 Q 127.151 200.706 127.743 199.98 Q 128.335 199.255 128.335 197.727 L 128.335 189.628 Q 128.335 187.565 129.424 186.477 Q 130.513 185.388 132.499 185.388 L 135.211 185.388 Q 135.937 185.388 136.395 185.808 Q 136.854 186.228 136.854 186.878 Q 136.854 187.489 136.453 187.928 Q 136.052 188.368 135.44 188.368 L 133.76 188.368 Q 132.996 188.368 132.595 188.788 Q 132.193 189.208 132.193 190.048 L 132.193 198.147 Q 132.193 199.293 131.716 200.267 Q 131.238 201.241 130.436 201.814 Q 129.634 202.387 128.641 202.387 L 128.641 202.234 Q 129.634 202.234 130.436 202.788 Q 131.238 203.342 131.716 204.297 Q 132.193 205.252 132.193 206.436 L 132.193 214.535 Q 132.193 215.375 132.595 215.795 Q 132.996 216.215 133.76 216.215 L 135.44 216.215 Q 136.052 216.215 136.453 216.655 Q 136.854 217.094 136.854 217.705 Q 136.854 218.355 136.395 218.775 Q 135.937 219.195 135.211 219.195 Z" style="fill: rgba(0, 0, 0, 0.506);"/>
    <path d="M 142.04 212.586 Q 141.085 212.586 140.57 212.052 Q 140.054 211.517 140.054 210.562 L 140.054 187.145 Q 140.054 186.152 140.57 185.636 Q 141.085 185.121 142.04 185.121 Q 142.995 185.121 143.511 185.636 Q 144.027 186.152 144.027 187.145 L 144.027 210.562 Q 144.027 211.517 143.53 212.052 Q 143.034 212.586 142.04 212.586 Z" style="fill: rgba(0, 0, 0, 0.506);"/>
    <path d="M 152.16 212.586 Q 151.282 212.586 150.785 212.09 Q 150.289 211.593 150.289 210.676 L 150.289 187.107 Q 150.289 186.152 150.766 185.636 Q 151.244 185.121 152.046 185.121 Q 152.733 185.121 153.096 185.369 Q 153.459 185.617 153.956 186.267 L 169.694 207.009 L 168.739 207.009 L 168.739 186.992 Q 168.739 186.114 169.217 185.617 Q 169.694 185.121 170.573 185.121 Q 171.49 185.121 171.948 185.617 Q 172.406 186.114 172.406 186.992 L 172.406 210.715 Q 172.406 211.593 171.967 212.09 Q 171.528 212.586 170.802 212.586 Q 170.114 212.586 169.675 212.319 Q 169.236 212.052 168.739 211.402 L 153.077 190.698 L 153.956 190.698 L 153.956 210.676 Q 153.956 211.593 153.497 212.09 Q 153.039 212.586 152.16 212.586 Z" style="fill: rgba(0, 0, 0, 0.506);"/>
    <path d="M 180.651 212.586 Q 179.696 212.586 179.18 212.052 Q 178.664 211.517 178.664 210.562 L 178.664 187.413 Q 178.664 186.419 179.199 185.904 Q 179.734 185.388 180.689 185.388 L 189.819 185.388 Q 194.174 185.388 196.542 187.546 Q 198.91 189.705 198.91 193.601 Q 198.91 197.536 196.542 199.694 Q 194.174 201.852 189.819 201.852 L 182.637 201.852 L 182.637 210.562 Q 182.637 211.517 182.141 212.052 Q 181.644 212.586 180.651 212.586 Z M 182.637 198.682 L 189.246 198.682 Q 192.111 198.682 193.581 197.402 Q 195.052 196.122 195.052 193.601 Q 195.052 191.118 193.581 189.838 Q 192.111 188.559 189.246 188.559 L 182.637 188.559 Z" style="fill: rgba(0, 0, 0, 0.506);"/>
    <path d="M 214.068 212.663 Q 211.355 212.663 209.293 211.956 Q 207.23 211.249 205.835 209.836 Q 204.441 208.423 203.715 206.322 Q 202.99 204.221 202.99 201.47 L 202.99 187.107 Q 202.99 186.114 203.505 185.617 Q 204.021 185.121 204.976 185.121 Q 205.931 185.121 206.447 185.617 Q 206.962 186.114 206.962 187.107 L 206.962 201.394 Q 206.962 205.328 208.777 207.277 Q 210.591 209.225 214.068 209.225 Q 217.582 209.225 219.377 207.277 Q 221.173 205.328 221.173 201.394 L 221.173 187.107 Q 221.173 186.114 221.688 185.617 Q 222.204 185.121 223.121 185.121 Q 224.076 185.121 224.573 185.617 Q 225.069 186.114 225.069 187.107 L 225.069 201.47 Q 225.069 205.137 223.828 207.64 Q 222.586 210.142 220.141 211.402 Q 217.697 212.663 214.068 212.663 Z" style="fill: rgba(0, 0, 0, 0.506);"/>
    <path d="M 239.738 212.586 Q 238.783 212.586 238.267 212.052 Q 237.752 211.517 237.752 210.562 L 237.752 188.711 L 229.653 188.711 Q 228.851 188.711 228.393 188.272 Q 227.934 187.833 227.934 187.031 Q 227.934 186.228 228.393 185.808 Q 228.851 185.388 229.653 185.388 L 249.785 185.388 Q 250.625 185.388 251.083 185.808 Q 251.542 186.228 251.542 187.031 Q 251.542 187.833 251.083 188.272 Q 250.625 188.711 249.785 188.711 L 241.686 188.711 L 241.686 210.562 Q 241.686 211.517 241.209 212.052 Q 240.731 212.586 239.738 212.586 Z" style="fill: rgba(0, 0, 0, 0.506);"/>
    <path d="M 254.628 219.195 Q 253.94 219.195 253.463 218.775 Q 252.985 218.355 252.985 217.705 Q 252.985 217.094 253.386 216.655 Q 253.787 216.215 254.399 216.215 L 256.079 216.215 Q 256.882 216.215 257.264 215.795 Q 257.646 215.375 257.646 214.535 L 257.646 206.436 Q 257.646 205.252 258.123 204.297 Q 258.601 203.342 259.422 202.769 Q 260.243 202.196 261.198 202.196 L 261.198 202.349 Q 260.243 202.349 259.422 201.795 Q 258.601 201.241 258.123 200.267 Q 257.646 199.293 257.646 198.147 L 257.646 190.048 Q 257.646 189.208 257.264 188.788 Q 256.882 188.368 256.079 188.368 L 254.399 188.368 Q 253.787 188.368 253.386 187.928 Q 252.985 187.489 252.985 186.878 Q 252.985 186.228 253.463 185.808 Q 253.94 185.388 254.628 185.388 L 257.302 185.388 Q 258.677 185.388 259.613 185.866 Q 260.549 186.343 261.026 187.298 Q 261.504 188.253 261.504 189.628 L 261.504 197.727 Q 261.504 199.255 262.115 199.98 Q 262.726 200.706 264.216 200.744 Q 264.865 200.783 265.209 201.222 Q 265.553 201.661 265.553 202.311 Q 265.553 202.884 265.209 203.342 Q 264.865 203.8 264.216 203.8 Q 262.726 203.839 262.115 204.564 Q 261.504 205.29 261.504 206.856 L 261.504 214.955 Q 261.504 217.018 260.434 218.106 Q 259.365 219.195 257.302 219.195 Z" style="fill: rgba(0, 0, 0, 0.506);"/>
  </g>
</svg>