<?xml version="1.0" encoding="utf-8"?>
<svg viewBox="838.4191 705.633 279.473 235.662" xmlns="http://www.w3.org/2000/svg">
  <g transform="matrix(0.9999999999999999, 0, 0, 0.9999999999999999, 783.2330932617188, 683.449951171875)">
    <rect y="22.183" width="279.473" height="235.662" style="fill: rgb(188, 188, 188);" x="55.186"/>
    <rect style="fill: rgb(138, 138, 138);" x="60.828" y="29.686" width="267.282" height="220.654" rx="2" ry="2"/>
    <rect style="fill: rgb(199, 211, 51);" x="68.267" y="36.823" width="253.312" height="206.382" rx="2" ry="2"/>
    <rect style="paint-order: fill; fill: rgb(223, 232, 72);" x="75.878" y="44.493" width="238.091" height="191.043" rx="2" ry="2"/>
    <path d="M 149.009 116.957 Q 146.941 116.957 145.813 115.805 Q 144.685 114.654 144.685 112.586 L 144.685 90.449 L 137.306 90.449 Q 135.567 90.449 134.65 89.532 Q 133.734 88.616 133.734 86.924 Q 133.734 85.185 134.65 84.292 Q 135.567 83.399 137.306 83.399 L 160.712 83.399 Q 162.451 83.399 163.367 84.292 Q 164.284 85.185 164.284 86.924 Q 164.284 88.616 163.367 89.532 Q 162.451 90.449 160.712 90.449 L 153.333 90.449 L 153.333 112.586 Q 153.333 114.654 152.252 115.805 Q 151.171 116.957 149.009 116.957 Z" transform="matrix(1, 0, 0, 1, 0.000488, -13.461354)"/>
    <path d="M 171.645 116.534 Q 169.436 116.534 168.285 115.382 Q 167.133 114.231 167.133 112.069 L 167.133 87.864 Q 167.133 85.702 168.285 84.55 Q 169.436 83.399 171.645 83.399 L 187.578 83.399 Q 189.27 83.399 190.116 84.245 Q 190.962 85.091 190.962 86.689 Q 190.962 88.334 190.116 89.203 Q 189.27 90.073 187.578 90.073 L 175.405 90.073 L 175.405 96.371 L 186.544 96.371 Q 188.189 96.371 189.059 97.217 Q 189.928 98.063 189.928 99.708 Q 189.928 101.353 189.059 102.199 Q 188.189 103.045 186.544 103.045 L 175.405 103.045 L 175.405 109.86 L 187.578 109.86 Q 189.27 109.86 190.116 110.729 Q 190.962 111.599 190.962 113.197 Q 190.962 114.842 190.116 115.688 Q 189.27 116.534 187.578 116.534 Z" transform="matrix(1, 0, 0, 1, 0.000488, -13.461354)"/>
    <path d="M 198.955 116.957 Q 197.31 116.957 196.229 116.064 Q 195.148 115.171 194.983 113.808 Q 194.819 112.445 195.9 111.035 L 205.864 97.875 L 205.864 101.776 L 196.182 88.945 Q 195.101 87.488 195.265 86.125 Q 195.43 84.762 196.511 83.869 Q 197.592 82.976 199.237 82.976 Q 200.6 82.976 201.634 83.634 Q 202.668 84.292 203.702 85.749 L 210.705 95.478 L 207.885 95.478 L 214.935 85.749 Q 215.969 84.245 217.003 83.61 Q 218.037 82.976 219.4 82.976 Q 221.092 82.976 222.173 83.845 Q 223.254 84.715 223.418 86.078 Q 223.583 87.441 222.455 88.945 L 212.726 101.776 L 212.726 97.875 L 222.69 111.035 Q 223.818 112.445 223.653 113.808 Q 223.489 115.171 222.408 116.064 Q 221.327 116.957 219.635 116.957 Q 218.319 116.957 217.285 116.322 Q 216.251 115.688 215.17 114.184 L 207.932 104.173 L 210.658 104.173 L 203.467 114.184 Q 202.386 115.688 201.352 116.322 Q 200.318 116.957 198.955 116.957 Z" transform="matrix(1, 0, 0, 1, 0.000488, -13.461354)"/>
    <path d="M 240.823 116.957 Q 238.755 116.957 237.627 115.805 Q 236.499 114.654 236.499 112.586 L 236.499 90.449 L 229.12 90.449 Q 227.381 90.449 226.465 89.532 Q 225.548 88.616 225.548 86.924 Q 225.548 85.185 226.465 84.292 Q 227.381 83.399 229.12 83.399 L 252.526 83.399 Q 254.265 83.399 255.182 84.292 Q 256.098 85.185 256.098 86.924 Q 256.098 88.616 255.182 89.532 Q 254.265 90.449 252.526 90.449 L 245.147 90.449 L 245.147 112.586 Q 245.147 114.654 244.066 115.805 Q 242.985 116.957 240.823 116.957 Z" transform="matrix(1, 0, 0, 1, 0.000488, -13.461354)"/>
    <path d="M 96.43 164.051 Q 94.55 164.051 92.505 163.792 Q 90.461 163.534 88.628 163.017 Q 86.795 162.5 85.338 161.795 Q 84.069 161.184 83.552 160.173 Q 83.035 159.163 83.176 158.035 Q 83.317 156.907 83.975 156.037 Q 84.633 155.168 85.714 154.862 Q 86.795 154.557 88.158 155.168 Q 89.944 156.014 92.2 156.484 Q 94.456 156.954 96.43 156.954 Q 99.532 156.954 100.777 156.131 Q 102.023 155.309 102.023 154.087 Q 102.023 153.006 101.153 152.348 Q 100.284 151.69 98.075 151.22 L 92.576 150.045 Q 88.064 149.105 85.855 146.755 Q 83.646 144.405 83.646 140.692 Q 83.646 138.248 84.656 136.25 Q 85.667 134.253 87.523 132.843 Q 89.38 131.433 91.941 130.657 Q 94.503 129.882 97.652 129.882 Q 100.096 129.882 102.61 130.422 Q 105.125 130.963 106.958 132.044 Q 108.039 132.608 108.509 133.595 Q 108.979 134.582 108.885 135.639 Q 108.791 136.697 108.156 137.496 Q 107.522 138.295 106.464 138.553 Q 105.407 138.812 103.95 138.201 Q 102.587 137.59 100.871 137.284 Q 99.156 136.979 97.558 136.979 Q 95.819 136.979 94.597 137.378 Q 93.375 137.778 92.74 138.53 Q 92.106 139.282 92.106 140.269 Q 92.106 141.256 92.928 141.937 Q 93.751 142.619 95.96 143.089 L 101.412 144.264 Q 105.971 145.251 108.227 147.507 Q 110.483 149.763 110.483 153.382 Q 110.483 155.826 109.496 157.8 Q 108.509 159.774 106.676 161.16 Q 104.843 162.547 102.258 163.299 Q 99.673 164.051 96.43 164.051 Z" transform="matrix(1, 0, 0, 1, 0.000488, -13.461354)"/>
    <path d="M 126.117 163.957 Q 124.049 163.957 122.921 162.805 Q 121.793 161.654 121.793 159.586 L 121.793 137.449 L 114.414 137.449 Q 112.675 137.449 111.759 136.532 Q 110.842 135.616 110.842 133.924 Q 110.842 132.185 111.759 131.292 Q 112.675 130.399 114.414 130.399 L 137.82 130.399 Q 139.559 130.399 140.476 131.292 Q 141.392 132.185 141.392 133.924 Q 141.392 135.616 140.476 136.532 Q 139.559 137.449 137.82 137.449 L 130.441 137.449 L 130.441 159.586 Q 130.441 161.654 129.36 162.805 Q 128.279 163.957 126.117 163.957 Z" transform="matrix(1, 0, 0, 1, 0.000488, -13.461354)"/>
    <path d="M 158.316 164.051 Q 153.287 164.051 149.48 161.912 Q 145.673 159.774 143.581 155.92 Q 141.49 152.066 141.49 146.943 Q 141.49 143.089 142.688 139.94 Q 143.887 136.791 146.119 134.535 Q 148.352 132.279 151.454 131.08 Q 154.556 129.882 158.316 129.882 Q 163.345 129.882 167.128 131.997 Q 170.912 134.112 173.027 137.942 Q 175.142 141.773 175.142 146.943 Q 175.142 150.797 173.943 153.946 Q 172.745 157.095 170.512 159.374 Q 168.28 161.654 165.178 162.852 Q 162.076 164.051 158.316 164.051 Z M 158.316 156.813 Q 160.807 156.813 162.546 155.638 Q 164.285 154.463 165.225 152.254 Q 166.165 150.045 166.165 146.943 Q 166.165 142.29 164.097 139.705 Q 162.029 137.12 158.316 137.12 Q 155.872 137.12 154.109 138.271 Q 152.347 139.423 151.407 141.608 Q 150.467 143.794 150.467 146.943 Q 150.467 151.596 152.535 154.204 Q 154.603 156.813 158.316 156.813 Z" transform="matrix(1, 0, 0, 1, 0.000488, -13.461354)"/>
    <path d="M 184.583 163.957 Q 182.515 163.957 181.387 162.805 Q 180.259 161.654 180.259 159.586 L 180.259 134.77 Q 180.259 132.655 181.41 131.527 Q 182.562 130.399 184.63 130.399 L 196.192 130.399 Q 201.832 130.399 204.91 133.148 Q 207.989 135.898 207.989 140.786 Q 207.989 143.935 206.602 146.261 Q 205.216 148.588 202.607 149.833 Q 199.999 151.079 196.192 151.079 L 196.568 150.233 L 198.824 150.233 Q 200.845 150.233 202.396 151.196 Q 203.947 152.16 204.981 154.134 L 207.331 158.364 Q 208.083 159.727 208.036 161.019 Q 207.989 162.312 207.025 163.134 Q 206.062 163.957 204.229 163.957 Q 202.396 163.957 201.244 163.205 Q 200.093 162.453 199.2 160.855 L 194.923 153.006 Q 194.359 151.972 193.489 151.572 Q 192.62 151.173 191.492 151.173 L 188.907 151.173 L 188.907 159.586 Q 188.907 161.654 187.826 162.805 Q 186.745 163.957 184.583 163.957 Z M 188.907 145.063 L 194.641 145.063 Q 197.132 145.063 198.448 144.076 Q 199.764 143.089 199.764 141.021 Q 199.764 139.047 198.448 138.036 Q 197.132 137.026 194.641 137.026 L 188.907 137.026 Z" transform="matrix(1, 0, 0, 1, 0.000488, -13.461354)"/>
    <path d="M 214.326 163.957 Q 212.869 163.957 211.882 163.275 Q 210.895 162.594 210.66 161.395 Q 210.425 160.197 211.083 158.693 L 222.786 133.501 Q 223.632 131.668 224.878 130.822 Q 226.123 129.976 227.721 129.976 Q 229.319 129.976 230.518 130.822 Q 231.716 131.668 232.609 133.501 L 244.312 158.693 Q 245.064 160.197 244.853 161.419 Q 244.641 162.641 243.678 163.299 Q 242.714 163.957 241.304 163.957 Q 239.424 163.957 238.414 163.111 Q 237.403 162.265 236.604 160.385 L 234.066 154.416 L 237.356 156.813 L 217.992 156.813 L 221.329 154.416 L 218.791 160.385 Q 217.945 162.265 217.052 163.111 Q 216.159 163.957 214.326 163.957 Z M 227.627 139.423 L 222.175 152.442 L 220.859 150.186 L 234.536 150.186 L 233.22 152.442 L 227.721 139.423 Z" transform="matrix(1, 0, 0, 1, 0.000488, -13.461354)"/>
    <path d="M 264.696 164.051 Q 259.009 164.051 255.037 161.936 Q 251.066 159.821 248.998 156.014 Q 246.93 152.207 246.93 147.131 Q 246.93 143.183 248.175 140.01 Q 249.421 136.838 251.771 134.558 Q 254.121 132.279 257.528 131.08 Q 260.936 129.882 265.26 129.882 Q 267.61 129.882 270.054 130.328 Q 272.498 130.775 274.848 131.997 Q 276.07 132.561 276.516 133.571 Q 276.963 134.582 276.798 135.686 Q 276.634 136.791 275.999 137.707 Q 275.365 138.624 274.284 138.929 Q 273.203 139.235 271.84 138.624 Q 270.43 137.966 268.785 137.613 Q 267.14 137.261 265.307 137.261 Q 262.158 137.261 260.066 138.389 Q 257.975 139.517 256.941 141.726 Q 255.907 143.935 255.907 147.131 Q 255.907 151.925 258.257 154.369 Q 260.607 156.813 265.213 156.813 Q 266.623 156.813 268.291 156.531 Q 269.96 156.249 271.652 155.732 L 270.054 158.975 L 270.054 150.938 L 266.764 150.938 Q 265.166 150.938 264.296 150.139 Q 263.427 149.34 263.427 147.883 Q 263.427 146.426 264.296 145.65 Q 265.166 144.875 266.764 144.875 L 273.72 144.875 Q 275.365 144.875 276.234 145.744 Q 277.104 146.614 277.104 148.259 L 277.104 158.646 Q 277.104 160.056 276.516 161.043 Q 275.929 162.03 274.66 162.453 Q 272.451 163.205 269.866 163.628 Q 267.281 164.051 264.696 164.051 Z" transform="matrix(1, 0, 0, 1, 0.000488, -13.461354)"/>
    <path d="M 287.398 163.534 Q 285.189 163.534 284.038 162.382 Q 282.886 161.231 282.886 159.069 L 282.886 134.864 Q 282.886 132.702 284.038 131.55 Q 285.189 130.399 287.398 130.399 L 303.331 130.399 Q 305.023 130.399 305.869 131.245 Q 306.715 132.091 306.715 133.689 Q 306.715 135.334 305.869 136.203 Q 305.023 137.073 303.331 137.073 L 291.158 137.073 L 291.158 143.371 L 302.297 143.371 Q 303.942 143.371 304.812 144.217 Q 305.681 145.063 305.681 146.708 Q 305.681 148.353 304.812 149.199 Q 303.942 150.045 302.297 150.045 L 291.158 150.045 L 291.158 156.86 L 303.331 156.86 Q 305.023 156.86 305.869 157.729 Q 306.715 158.599 306.715 160.197 Q 306.715 161.842 305.869 162.688 Q 305.023 163.534 303.331 163.534 Z" transform="matrix(1, 0, 0, 1, 0.000488, -13.461354)"/>
    <path d="M 98.491 212.663 Q 96.733 212.663 95.053 212.395 Q 93.372 212.128 91.882 211.574 Q 90.392 211.02 89.208 210.218 Q 88.635 209.798 88.425 209.263 Q 88.215 208.728 88.31 208.213 Q 88.406 207.697 88.75 207.315 Q 89.093 206.933 89.59 206.837 Q 90.087 206.742 90.698 207.162 Q 92.417 208.27 94.327 208.786 Q 96.237 209.301 98.491 209.301 Q 101.738 209.301 103.285 208.136 Q 104.832 206.971 104.832 205.099 Q 104.832 203.571 103.724 202.674 Q 102.616 201.776 100.019 201.241 L 95.931 200.401 Q 92.302 199.637 90.526 197.879 Q 88.75 196.122 88.75 193.143 Q 88.75 191.347 89.495 189.857 Q 90.239 188.368 91.576 187.279 Q 92.913 186.19 94.785 185.617 Q 96.657 185.044 98.873 185.044 Q 101.241 185.044 103.323 185.655 Q 105.405 186.267 107.047 187.527 Q 107.544 187.871 107.716 188.387 Q 107.888 188.902 107.792 189.399 Q 107.697 189.896 107.353 190.239 Q 107.009 190.583 106.474 190.641 Q 105.94 190.698 105.29 190.278 Q 103.8 189.284 102.253 188.845 Q 100.706 188.406 98.834 188.406 Q 96.963 188.406 95.568 188.979 Q 94.174 189.552 93.429 190.583 Q 92.684 191.615 92.684 193.028 Q 92.684 194.632 93.716 195.587 Q 94.747 196.542 97.154 197.039 L 101.203 197.879 Q 105.023 198.682 106.895 200.362 Q 108.766 202.043 108.766 204.832 Q 108.766 206.627 108.041 208.06 Q 107.315 209.492 105.978 210.524 Q 104.641 211.555 102.75 212.109 Q 100.859 212.663 98.491 212.663 Z" style="fill: rgba(0, 0, 0, 0.506);"/>
    <path d="M 118.803 212.663 Q 116.855 212.663 115.308 211.899 Q 113.761 211.135 112.882 209.836 Q 112.004 208.537 112.004 206.895 Q 112.004 204.832 113.054 203.629 Q 114.105 202.425 116.53 201.91 Q 118.956 201.394 123.082 201.394 L 124.877 201.394 L 124.877 203.762 L 123.12 203.762 Q 120.369 203.762 118.765 204.03 Q 117.161 204.297 116.492 204.927 Q 115.824 205.558 115.824 206.665 Q 115.824 208.117 116.817 209.015 Q 117.81 209.912 119.567 209.912 Q 120.981 209.912 122.05 209.244 Q 123.12 208.575 123.75 207.429 Q 124.38 206.283 124.38 204.794 L 124.38 200.401 Q 124.38 198.223 123.464 197.268 Q 122.547 196.313 120.446 196.313 Q 119.223 196.313 117.906 196.619 Q 116.588 196.924 115.174 197.65 Q 114.525 197.956 114.066 197.841 Q 113.608 197.727 113.341 197.326 Q 113.073 196.924 113.054 196.447 Q 113.035 195.969 113.283 195.511 Q 113.532 195.053 114.143 194.823 Q 115.824 194.021 117.466 193.677 Q 119.109 193.334 120.56 193.334 Q 123.12 193.334 124.782 194.136 Q 126.443 194.938 127.245 196.581 Q 128.048 198.223 128.048 200.821 L 128.048 210.638 Q 128.048 211.555 127.589 212.071 Q 127.131 212.586 126.252 212.586 Q 125.412 212.586 124.915 212.071 Q 124.419 211.555 124.419 210.638 L 124.419 208.155 L 124.762 208.155 Q 124.457 209.569 123.636 210.581 Q 122.814 211.593 121.592 212.128 Q 120.369 212.663 118.803 212.663 Z" style="fill: rgba(0, 0, 0, 0.506);"/>
    <path d="M 135.331 212.586 Q 134.414 212.586 133.918 212.071 Q 133.421 211.555 133.421 210.638 L 133.421 195.358 Q 133.421 194.403 133.918 193.907 Q 134.414 193.41 135.293 193.41 Q 136.21 193.41 136.687 193.907 Q 137.165 194.403 137.165 195.358 L 137.165 198.491 L 136.744 197.65 Q 137.508 195.626 139.113 194.48 Q 140.717 193.334 142.971 193.334 Q 145.301 193.334 146.753 194.441 Q 148.204 195.549 148.739 197.841 L 148.204 197.841 Q 148.93 195.74 150.687 194.537 Q 152.445 193.334 154.775 193.334 Q 156.914 193.334 158.289 194.155 Q 159.664 194.976 160.352 196.638 Q 161.04 198.3 161.04 200.821 L 161.04 210.638 Q 161.04 211.555 160.524 212.071 Q 160.008 212.586 159.091 212.586 Q 158.175 212.586 157.678 212.071 Q 157.181 211.555 157.181 210.638 L 157.181 201.012 Q 157.181 198.643 156.36 197.536 Q 155.539 196.428 153.667 196.428 Q 151.566 196.428 150.344 197.879 Q 149.121 199.331 149.121 201.89 L 149.121 210.638 Q 149.121 211.555 148.625 212.071 Q 148.128 212.586 147.211 212.586 Q 146.294 212.586 145.779 212.071 Q 145.263 211.555 145.263 210.638 L 145.263 201.012 Q 145.263 198.643 144.461 197.536 Q 143.659 196.428 141.787 196.428 Q 139.686 196.428 138.482 197.879 Q 137.279 199.331 137.279 201.89 L 137.279 210.638 Q 137.279 212.586 135.331 212.586 Z" style="fill: rgba(0, 0, 0, 0.506);"/>
    <path d="M 168.334 219.462 Q 167.417 219.462 166.92 218.966 Q 166.424 218.469 166.424 217.514 L 166.424 195.358 Q 166.424 194.403 166.92 193.907 Q 167.417 193.41 168.295 193.41 Q 169.212 193.41 169.709 193.907 Q 170.205 194.403 170.205 195.358 L 170.205 198.682 L 169.785 197.879 Q 170.396 195.817 172.192 194.575 Q 173.987 193.334 176.432 193.334 Q 178.915 193.334 180.768 194.518 Q 182.62 195.702 183.633 197.841 Q 184.645 199.98 184.645 202.998 Q 184.645 205.94 183.633 208.136 Q 182.62 210.333 180.787 211.498 Q 178.953 212.663 176.432 212.663 Q 174.025 212.663 172.23 211.44 Q 170.435 210.218 169.823 208.193 L 170.282 208.193 L 170.282 217.514 Q 170.282 218.469 169.766 218.966 Q 169.25 219.462 168.334 219.462 Z M 175.477 209.683 Q 177.081 209.683 178.266 208.919 Q 179.45 208.155 180.099 206.665 Q 180.749 205.176 180.749 202.998 Q 180.749 199.713 179.316 198.032 Q 177.884 196.351 175.477 196.351 Q 173.911 196.351 172.707 197.096 Q 171.504 197.841 170.855 199.331 Q 170.205 200.821 170.205 202.998 Q 170.205 206.245 171.657 207.964 Q 173.109 209.683 175.477 209.683 Z" style="fill: rgba(0, 0, 0, 0.506);"/>
    <path d="M 194.984 212.663 Q 192.004 212.663 190.495 210.925 Q 188.987 209.187 188.987 205.901 L 188.987 187.069 Q 188.987 186.114 189.483 185.617 Q 189.98 185.121 190.897 185.121 Q 191.813 185.121 192.329 185.617 Q 192.845 186.114 192.845 187.069 L 192.845 205.672 Q 192.845 207.582 193.628 208.518 Q 194.411 209.454 195.901 209.454 Q 196.245 209.454 196.512 209.435 Q 196.779 209.416 197.047 209.378 Q 197.505 209.339 197.696 209.626 Q 197.887 209.912 197.887 210.791 Q 197.887 211.593 197.543 212.033 Q 197.2 212.472 196.436 212.586 Q 196.092 212.625 195.71 212.644 Q 195.328 212.663 194.984 212.663 Z" style="fill: rgba(0, 0, 0, 0.506);"/>
    <path d="M 209.235 212.663 Q 206.179 212.663 203.982 211.498 Q 201.786 210.333 200.582 208.174 Q 199.379 206.016 199.379 203.036 Q 199.379 200.133 200.563 197.956 Q 201.747 195.778 203.81 194.556 Q 205.873 193.334 208.509 193.334 Q 210.457 193.334 211.985 193.964 Q 213.513 194.594 214.602 195.798 Q 215.69 197.001 216.244 198.72 Q 216.798 200.439 216.798 202.578 Q 216.798 203.227 216.416 203.552 Q 216.034 203.877 215.27 203.877 L 202.435 203.877 L 202.435 201.508 L 214.201 201.508 L 213.551 202.043 Q 213.551 200.133 212.997 198.796 Q 212.443 197.459 211.355 196.753 Q 210.266 196.046 208.662 196.046 Q 206.866 196.046 205.625 196.886 Q 204.383 197.727 203.734 199.216 Q 203.084 200.706 203.084 202.693 L 203.084 202.922 Q 203.084 206.283 204.67 207.983 Q 206.255 209.683 209.273 209.683 Q 210.419 209.683 211.699 209.378 Q 212.978 209.072 214.124 208.346 Q 214.774 207.964 215.289 208.002 Q 215.805 208.041 216.13 208.346 Q 216.454 208.652 216.531 209.11 Q 216.607 209.569 216.378 210.046 Q 216.149 210.524 215.576 210.906 Q 214.277 211.784 212.558 212.224 Q 210.839 212.663 209.235 212.663 Z" style="fill: rgba(0, 0, 0, 0.506);"/>
    <path d="M 240.058 212.586 Q 239.103 212.586 238.588 212.052 Q 238.072 211.517 238.072 210.562 L 238.072 188.711 L 229.974 188.711 Q 229.171 188.711 228.713 188.272 Q 228.255 187.833 228.255 187.031 Q 228.255 186.228 228.713 185.808 Q 229.171 185.388 229.974 185.388 L 250.105 185.388 Q 250.945 185.388 251.404 185.808 Q 251.862 186.228 251.862 187.031 Q 251.862 187.833 251.404 188.272 Q 250.945 188.711 250.105 188.711 L 242.007 188.711 L 242.007 210.562 Q 242.007 211.517 241.529 212.052 Q 241.052 212.586 240.058 212.586 Z" style="fill: rgba(0, 0, 0, 0.506);"/>
    <path d="M 260.22 212.663 Q 257.164 212.663 254.968 211.498 Q 252.771 210.333 251.568 208.174 Q 250.365 206.016 250.365 203.036 Q 250.365 200.133 251.549 197.956 Q 252.733 195.778 254.796 194.556 Q 256.859 193.334 259.494 193.334 Q 261.443 193.334 262.971 193.964 Q 264.499 194.594 265.587 195.798 Q 266.676 197.001 267.23 198.72 Q 267.784 200.439 267.784 202.578 Q 267.784 203.227 267.402 203.552 Q 267.02 203.877 266.256 203.877 L 253.421 203.877 L 253.421 201.508 L 265.186 201.508 L 264.537 202.043 Q 264.537 200.133 263.983 198.796 Q 263.429 197.459 262.34 196.753 Q 261.252 196.046 259.647 196.046 Q 257.852 196.046 256.61 196.886 Q 255.369 197.727 254.719 199.216 Q 254.07 200.706 254.07 202.693 L 254.07 202.922 Q 254.07 206.283 255.655 207.983 Q 257.241 209.683 260.258 209.683 Q 261.404 209.683 262.684 209.378 Q 263.964 209.072 265.11 208.346 Q 265.759 207.964 266.275 208.002 Q 266.791 208.041 267.115 208.346 Q 267.44 208.652 267.516 209.11 Q 267.593 209.569 267.364 210.046 Q 267.134 210.524 266.561 210.906 Q 265.263 211.784 263.544 212.224 Q 261.825 212.663 260.22 212.663 Z" style="fill: rgba(0, 0, 0, 0.506);"/>
    <path d="M 272.482 212.548 Q 271.794 212.548 271.355 212.147 Q 270.916 211.746 270.896 211.135 Q 270.877 210.524 271.412 209.798 L 277.868 201.738 L 277.868 203.648 L 271.832 196.122 Q 271.221 195.435 271.259 194.804 Q 271.298 194.174 271.756 193.792 Q 272.214 193.41 272.864 193.41 Q 273.59 193.41 274.067 193.658 Q 274.545 193.907 274.965 194.48 L 280.045 200.935 L 278.67 200.935 L 283.789 194.48 Q 284.209 193.907 284.687 193.658 Q 285.164 193.41 285.852 193.41 Q 286.539 193.41 286.979 193.811 Q 287.418 194.212 287.437 194.843 Q 287.456 195.473 286.883 196.16 L 280.848 203.571 L 280.848 201.852 L 287.303 209.798 Q 287.876 210.485 287.857 211.116 Q 287.838 211.746 287.38 212.147 Q 286.921 212.548 286.234 212.548 Q 285.546 212.548 285.069 212.281 Q 284.591 212.013 284.133 211.479 L 278.67 204.603 L 279.969 204.603 L 274.545 211.479 Q 274.124 211.975 273.647 212.262 Q 273.169 212.548 272.482 212.548 Z" style="fill: rgba(0, 0, 0, 0.506);"/>
    <path d="M 300.169 212.663 Q 297.877 212.663 296.311 211.861 Q 294.745 211.058 293.981 209.492 Q 293.217 207.926 293.217 205.672 L 293.217 196.657 L 290.925 196.657 Q 290.161 196.657 289.74 196.256 Q 289.32 195.855 289.32 195.167 Q 289.32 194.441 289.74 194.059 Q 290.161 193.677 290.925 193.677 L 293.217 193.677 L 293.217 189.743 Q 293.217 188.788 293.732 188.291 Q 294.248 187.795 295.165 187.795 Q 296.082 187.795 296.578 188.291 Q 297.075 188.788 297.075 189.743 L 297.075 193.677 L 301.544 193.677 Q 302.308 193.677 302.728 194.059 Q 303.149 194.441 303.149 195.167 Q 303.149 195.855 302.728 196.256 Q 302.308 196.657 301.544 196.657 L 297.075 196.657 L 297.075 205.367 Q 297.075 207.391 297.934 208.423 Q 298.794 209.454 300.742 209.454 Q 301.43 209.454 301.945 209.32 Q 302.461 209.187 302.805 209.148 Q 303.225 209.148 303.492 209.435 Q 303.76 209.721 303.76 210.524 Q 303.76 211.097 303.55 211.593 Q 303.34 212.09 302.805 212.243 Q 302.346 212.395 301.563 212.529 Q 300.78 212.663 300.169 212.663 Z" style="fill: rgba(0, 0, 0, 0.506);"/>
  </g>
</svg>