<?xml version="1.0" encoding="utf-8"?>
<svg viewBox="279.473 705.633 279.473 235.662" xmlns="http://www.w3.org/2000/svg">
  <g transform="matrix(0.9999999999999999, 0, 0, 0.9999999999999999, 224.28704833984364, 683.449951171875)">
    <rect y="22.183" width="279.473" height="235.662" style="fill: rgb(188, 188, 188);" x="55.186"/>
    <rect style="fill: rgb(138, 138, 138);" x="60.828" y="29.686" width="267.282" height="220.654" rx="2" ry="2"/>
    <rect style="fill: rgb(226, 226, 141);" x="68.267" y="36.823" width="253.312" height="206.382" rx="2" ry="2"/>
    <rect style="paint-order: fill; fill: rgb(241, 241, 175);" x="75.878" y="44.493" width="238.091" height="191.043" rx="2" ry="2"/>
    <path d="M 155.849 116.894 Q 154.089 116.894 153.129 115.914 Q 152.169 114.934 152.169 113.174 L 152.169 94.334 L 145.889 94.334 Q 144.409 94.334 143.629 93.554 Q 142.849 92.774 142.849 91.334 Q 142.849 89.854 143.629 89.094 Q 144.409 88.334 145.889 88.334 L 165.809 88.334 Q 167.289 88.334 168.069 89.094 Q 168.849 89.854 168.849 91.334 Q 168.849 92.774 168.069 93.554 Q 167.289 94.334 165.809 94.334 L 159.529 94.334 L 159.529 113.174 Q 159.529 114.934 158.609 115.914 Q 157.689 116.894 155.849 116.894 Z" transform="matrix(1, 0, 0, 1, 0.000488, -31.872097)"/>
    <path d="M 175.119 116.534 Q 173.239 116.534 172.259 115.554 Q 171.279 114.574 171.279 112.734 L 171.279 92.134 Q 171.279 90.294 172.259 89.314 Q 173.239 88.334 175.119 88.334 L 188.679 88.334 Q 190.119 88.334 190.839 89.054 Q 191.559 89.774 191.559 91.134 Q 191.559 92.534 190.839 93.274 Q 190.119 94.014 188.679 94.014 L 178.319 94.014 L 178.319 99.374 L 187.799 99.374 Q 189.199 99.374 189.939 100.094 Q 190.679 100.814 190.679 102.214 Q 190.679 103.614 189.939 104.334 Q 189.199 105.054 187.799 105.054 L 178.319 105.054 L 178.319 110.854 L 188.679 110.854 Q 190.119 110.854 190.839 111.594 Q 191.559 112.334 191.559 113.694 Q 191.559 115.094 190.839 115.814 Q 190.119 116.534 188.679 116.534 Z" transform="matrix(1, 0, 0, 1, 0.000488, -31.872097)"/>
    <path d="M 198.349 116.894 Q 196.949 116.894 196.029 116.134 Q 195.109 115.374 194.969 114.214 Q 194.829 113.054 195.749 111.854 L 204.229 100.654 L 204.229 103.974 L 195.989 93.054 Q 195.069 91.814 195.209 90.654 Q 195.349 89.494 196.269 88.734 Q 197.189 87.974 198.589 87.974 Q 199.749 87.974 200.629 88.534 Q 201.509 89.094 202.389 90.334 L 208.349 98.614 L 205.949 98.614 L 211.949 90.334 Q 212.829 89.054 213.709 88.514 Q 214.589 87.974 215.749 87.974 Q 217.189 87.974 218.109 88.714 Q 219.029 89.454 219.169 90.614 Q 219.309 91.774 218.349 93.054 L 210.069 103.974 L 210.069 100.654 L 218.549 111.854 Q 219.509 113.054 219.369 114.214 Q 219.229 115.374 218.309 116.134 Q 217.389 116.894 215.949 116.894 Q 214.829 116.894 213.949 116.354 Q 213.069 115.814 212.149 114.534 L 205.989 106.014 L 208.309 106.014 L 202.189 114.534 Q 201.269 115.814 200.389 116.354 Q 199.509 116.894 198.349 116.894 Z" transform="matrix(1, 0, 0, 1, 0.000488, -31.872097)"/>
    <path d="M 233.976 116.894 Q 232.216 116.894 231.256 115.914 Q 230.296 114.934 230.296 113.174 L 230.296 94.334 L 224.016 94.334 Q 222.536 94.334 221.756 93.554 Q 220.976 92.774 220.976 91.334 Q 220.976 89.854 221.756 89.094 Q 222.536 88.334 224.016 88.334 L 243.936 88.334 Q 245.416 88.334 246.196 89.094 Q 246.976 89.854 246.976 91.334 Q 246.976 92.774 246.196 93.554 Q 245.416 94.334 243.936 94.334 L 237.656 94.334 L 237.656 113.174 Q 237.656 114.934 236.736 115.914 Q 235.816 116.894 233.976 116.894 Z" transform="matrix(1, 0, 0, 1, 0.000488, -31.872097)"/>
    <path d="M 117.876 156.534 Q 115.996 156.534 115.016 155.554 Q 114.036 154.574 114.036 152.734 L 114.036 132.134 Q 114.036 130.294 115.016 129.314 Q 115.996 128.334 117.876 128.334 L 131.436 128.334 Q 132.876 128.334 133.596 129.054 Q 134.316 129.774 134.316 131.134 Q 134.316 132.534 133.596 133.274 Q 132.876 134.014 131.436 134.014 L 121.076 134.014 L 121.076 139.374 L 130.556 139.374 Q 131.956 139.374 132.696 140.094 Q 133.436 140.814 133.436 142.214 Q 133.436 143.614 132.696 144.334 Q 131.956 145.054 130.556 145.054 L 121.076 145.054 L 121.076 150.854 L 131.436 150.854 Q 132.876 150.854 133.596 151.594 Q 134.316 152.334 134.316 153.694 Q 134.316 155.094 133.596 155.814 Q 132.876 156.534 131.436 156.534 Z" transform="matrix(1, 0, 0, 1, 0.000488, -31.872097)"/>
    <path d="M 142.423 156.534 Q 140.543 156.534 139.563 155.554 Q 138.583 154.574 138.583 152.734 L 138.583 132.134 Q 138.583 130.294 139.563 129.314 Q 140.543 128.334 142.423 128.334 L 150.263 128.334 Q 157.623 128.334 161.643 132.014 Q 165.663 135.694 165.663 142.414 Q 165.663 145.774 164.623 148.394 Q 163.583 151.014 161.623 152.834 Q 159.663 154.654 156.803 155.594 Q 153.943 156.534 150.263 156.534 Z M 145.943 150.574 L 149.783 150.574 Q 151.903 150.574 153.443 150.054 Q 154.983 149.534 156.003 148.534 Q 157.023 147.534 157.523 146.014 Q 158.023 144.494 158.023 142.414 Q 158.023 138.254 155.983 136.274 Q 153.943 134.294 149.783 134.294 L 145.943 134.294 Z" transform="matrix(1, 0, 0, 1, 0.000488, -31.872097)"/>
    <path d="M 173.701 156.894 Q 171.941 156.894 170.981 155.914 Q 170.021 154.934 170.021 153.134 L 170.021 131.734 Q 170.021 129.894 170.981 128.934 Q 171.941 127.974 173.701 127.974 Q 175.501 127.974 176.441 128.934 Q 177.381 129.894 177.381 131.734 L 177.381 153.134 Q 177.381 154.934 176.461 155.914 Q 175.541 156.894 173.701 156.894 Z" transform="matrix(1, 0, 0, 1, 0.000488, -31.872097)"/>
    <path d="M 192.81 156.894 Q 191.05 156.894 190.09 155.914 Q 189.13 154.934 189.13 153.174 L 189.13 134.334 L 182.85 134.334 Q 181.37 134.334 180.59 133.554 Q 179.81 132.774 179.81 131.334 Q 179.81 129.854 180.59 129.094 Q 181.37 128.334 182.85 128.334 L 202.77 128.334 Q 204.25 128.334 205.03 129.094 Q 205.81 129.854 205.81 131.334 Q 205.81 132.774 205.03 133.554 Q 204.25 134.334 202.77 134.334 L 196.49 134.334 L 196.49 153.174 Q 196.49 154.934 195.57 155.914 Q 194.65 156.894 192.81 156.894 Z" transform="matrix(1, 0, 0, 1, 0.000488, -31.872097)"/>
    <path d="M 211.921 156.894 Q 210.161 156.894 209.201 155.914 Q 208.241 154.934 208.241 153.134 L 208.241 131.734 Q 208.241 129.894 209.201 128.934 Q 210.161 127.974 211.921 127.974 Q 213.721 127.974 214.661 128.934 Q 215.601 129.894 215.601 131.734 L 215.601 153.134 Q 215.601 154.934 214.681 155.914 Q 213.761 156.894 211.921 156.894 Z" transform="matrix(1, 0, 0, 1, 0.000488, -31.872097)"/>
    <path d="M 224.166 156.894 Q 222.486 156.894 221.606 156.014 Q 220.726 155.134 220.726 153.414 L 220.726 131.614 Q 220.726 129.854 221.606 128.914 Q 222.486 127.974 223.926 127.974 Q 225.206 127.974 225.926 128.454 Q 226.646 128.934 227.526 130.054 L 240.206 145.894 L 239.086 145.894 L 239.086 131.414 Q 239.086 129.734 239.946 128.854 Q 240.806 127.974 242.486 127.974 Q 244.166 127.974 245.026 128.854 Q 245.886 129.734 245.886 131.414 L 245.886 153.574 Q 245.886 155.094 245.086 155.994 Q 244.286 156.894 242.926 156.894 Q 241.566 156.894 240.786 156.394 Q 240.006 155.894 239.126 154.814 L 226.446 138.934 L 227.566 138.934 L 227.566 153.414 Q 227.566 155.134 226.706 156.014 Q 225.846 156.894 224.166 156.894 Z" transform="matrix(1, 0, 0, 1, 0.000488, -31.872097)"/>
    <path d="M 265.439 156.974 Q 260.599 156.974 257.219 155.174 Q 253.839 153.374 252.079 150.134 Q 250.319 146.894 250.319 142.574 Q 250.319 139.214 251.379 136.514 Q 252.439 133.814 254.439 131.874 Q 256.439 129.934 259.339 128.914 Q 262.239 127.894 265.919 127.894 Q 267.919 127.894 269.999 128.274 Q 272.079 128.654 274.079 129.694 Q 275.119 130.174 275.499 131.034 Q 275.879 131.894 275.739 132.834 Q 275.599 133.774 275.059 134.554 Q 274.519 135.334 273.599 135.594 Q 272.679 135.854 271.519 135.334 Q 270.319 134.774 268.919 134.474 Q 267.519 134.174 265.959 134.174 Q 263.279 134.174 261.499 135.134 Q 259.719 136.094 258.839 137.974 Q 257.959 139.854 257.959 142.574 Q 257.959 146.654 259.959 148.734 Q 261.959 150.814 265.879 150.814 Q 267.079 150.814 268.499 150.574 Q 269.919 150.334 271.359 149.894 L 269.999 152.654 L 269.999 145.814 L 267.199 145.814 Q 265.839 145.814 265.099 145.134 Q 264.359 144.454 264.359 143.214 Q 264.359 141.974 265.099 141.314 Q 265.839 140.654 267.199 140.654 L 273.119 140.654 Q 274.519 140.654 275.259 141.394 Q 275.999 142.134 275.999 143.534 L 275.999 152.374 Q 275.999 153.574 275.499 154.414 Q 274.999 155.254 273.919 155.614 Q 272.039 156.254 269.839 156.614 Q 267.639 156.974 265.439 156.974 Z" transform="matrix(1, 0, 0, 1, 0.000488, -31.872097)"/>
    <path d="M 96.5 212.586 Q 95.545 212.586 95.03 212.052 Q 94.514 211.517 94.514 210.562 L 94.514 187.413 Q 94.514 186.419 95.049 185.904 Q 95.583 185.388 96.538 185.388 L 105.668 185.388 Q 110.023 185.388 112.391 187.546 Q 114.76 189.705 114.76 193.601 Q 114.76 197.536 112.391 199.694 Q 110.023 201.852 105.668 201.852 L 98.487 201.852 L 98.487 210.562 Q 98.487 211.517 97.99 212.052 Q 97.493 212.586 96.5 212.586 Z M 98.487 198.682 L 105.095 198.682 Q 107.96 198.682 109.431 197.402 Q 110.902 196.122 110.902 193.601 Q 110.902 191.118 109.431 189.838 Q 107.96 188.559 105.095 188.559 L 98.487 188.559 Z" style="fill: rgba(0, 0, 0, 0.506);"/>
    <path d="M 124.607 212.663 Q 121.628 212.663 120.119 210.925 Q 118.61 209.187 118.61 205.901 L 118.61 187.069 Q 118.61 186.114 119.106 185.617 Q 119.603 185.121 120.52 185.121 Q 121.437 185.121 121.952 185.617 Q 122.468 186.114 122.468 187.069 L 122.468 205.672 Q 122.468 207.582 123.251 208.518 Q 124.034 209.454 125.524 209.454 Q 125.868 209.454 126.135 209.435 Q 126.403 209.416 126.67 209.378 Q 127.128 209.339 127.319 209.626 Q 127.51 209.912 127.51 210.791 Q 127.51 211.593 127.167 212.033 Q 126.823 212.472 126.059 212.586 Q 125.715 212.625 125.333 212.644 Q 124.951 212.663 124.607 212.663 Z" style="fill: rgba(0, 0, 0, 0.506);"/>
    <path d="M 136.257 212.663 Q 134.309 212.663 132.762 211.899 Q 131.214 211.135 130.336 209.836 Q 129.457 208.537 129.457 206.895 Q 129.457 204.832 130.508 203.629 Q 131.558 202.425 133.984 201.91 Q 136.41 201.394 140.535 201.394 L 142.331 201.394 L 142.331 203.762 L 140.573 203.762 Q 137.823 203.762 136.219 204.03 Q 134.614 204.297 133.946 204.927 Q 133.277 205.558 133.277 206.665 Q 133.277 208.117 134.27 209.015 Q 135.264 209.912 137.021 209.912 Q 138.434 209.912 139.504 209.244 Q 140.573 208.575 141.204 207.429 Q 141.834 206.283 141.834 204.794 L 141.834 200.401 Q 141.834 198.223 140.917 197.268 Q 140 196.313 137.899 196.313 Q 136.677 196.313 135.359 196.619 Q 134.041 196.924 132.628 197.65 Q 131.978 197.956 131.52 197.841 Q 131.062 197.727 130.794 197.326 Q 130.527 196.924 130.508 196.447 Q 130.489 195.969 130.737 195.511 Q 130.985 195.053 131.596 194.823 Q 133.277 194.021 134.92 193.677 Q 136.562 193.334 138.014 193.334 Q 140.573 193.334 142.235 194.136 Q 143.897 194.938 144.699 196.581 Q 145.501 198.223 145.501 200.821 L 145.501 210.638 Q 145.501 211.555 145.043 212.071 Q 144.584 212.586 143.706 212.586 Q 142.865 212.586 142.369 212.071 Q 141.872 211.555 141.872 210.638 L 141.872 208.155 L 142.216 208.155 Q 141.91 209.569 141.089 210.581 Q 140.268 211.593 139.045 212.128 Q 137.823 212.663 136.257 212.663 Z" style="fill: rgba(0, 0, 0, 0.506);"/>
    <path d="M 159.011 212.663 Q 156.146 212.663 154.064 211.46 Q 151.982 210.256 150.836 208.06 Q 149.69 205.863 149.69 202.884 Q 149.69 200.668 150.34 198.892 Q 150.989 197.115 152.192 195.893 Q 153.396 194.671 155.134 194.002 Q 156.872 193.334 159.011 193.334 Q 160.348 193.334 161.819 193.735 Q 163.29 194.136 164.55 195.053 Q 165.047 195.358 165.18 195.798 Q 165.314 196.237 165.219 196.695 Q 165.123 197.154 164.798 197.478 Q 164.474 197.803 164.015 197.86 Q 163.557 197.918 163.022 197.612 Q 162.105 196.963 161.15 196.676 Q 160.195 196.39 159.317 196.39 Q 157.942 196.39 156.891 196.829 Q 155.841 197.268 155.115 198.09 Q 154.389 198.911 154.026 200.133 Q 153.663 201.356 153.663 202.922 Q 153.663 206.054 155.134 207.831 Q 156.605 209.607 159.317 209.607 Q 160.195 209.607 161.15 209.339 Q 162.105 209.072 163.022 208.423 Q 163.557 208.117 164.015 208.193 Q 164.474 208.27 164.76 208.595 Q 165.047 208.919 165.142 209.359 Q 165.238 209.798 165.085 210.256 Q 164.932 210.715 164.436 211.02 Q 163.213 211.899 161.781 212.281 Q 160.348 212.663 159.011 212.663 Z" style="fill: rgba(0, 0, 0, 0.506);"/>
    <path d="M 176.999 212.663 Q 173.943 212.663 171.747 211.498 Q 169.55 210.333 168.347 208.174 Q 167.144 206.016 167.144 203.036 Q 167.144 200.133 168.328 197.956 Q 169.512 195.778 171.575 194.556 Q 173.638 193.334 176.274 193.334 Q 178.222 193.334 179.75 193.964 Q 181.278 194.594 182.367 195.798 Q 183.455 197.001 184.009 198.72 Q 184.563 200.439 184.563 202.578 Q 184.563 203.227 184.181 203.552 Q 183.799 203.877 183.035 203.877 L 170.2 203.877 L 170.2 201.508 L 181.965 201.508 L 181.316 202.043 Q 181.316 200.133 180.762 198.796 Q 180.208 197.459 179.12 196.753 Q 178.031 196.046 176.426 196.046 Q 174.631 196.046 173.39 196.886 Q 172.148 197.727 171.499 199.216 Q 170.849 200.706 170.849 202.693 L 170.849 202.922 Q 170.849 206.283 172.435 207.983 Q 174.02 209.683 177.038 209.683 Q 178.184 209.683 179.463 209.378 Q 180.743 209.072 181.889 208.346 Q 182.538 207.964 183.054 208.002 Q 183.57 208.041 183.895 208.346 Q 184.219 208.652 184.296 209.11 Q 184.372 209.569 184.143 210.046 Q 183.914 210.524 183.341 210.906 Q 182.042 211.784 180.323 212.224 Q 178.604 212.663 176.999 212.663 Z" style="fill: rgba(0, 0, 0, 0.506);"/>
    <path d="M 190.678 212.586 Q 189.761 212.586 189.264 212.071 Q 188.768 211.555 188.768 210.638 L 188.768 187.069 Q 188.768 186.114 189.264 185.617 Q 189.761 185.121 190.678 185.121 Q 191.595 185.121 192.11 185.617 Q 192.626 186.114 192.626 187.069 L 192.626 197.65 L 192.091 197.65 Q 192.932 195.511 194.727 194.422 Q 196.522 193.334 198.853 193.334 Q 201.068 193.334 202.539 194.155 Q 204.01 194.976 204.735 196.638 Q 205.461 198.3 205.461 200.821 L 205.461 210.638 Q 205.461 211.555 204.965 212.071 Q 204.468 212.586 203.551 212.586 Q 202.596 212.586 202.1 212.071 Q 201.603 211.555 201.603 210.638 L 201.603 201.05 Q 201.603 198.643 200.667 197.536 Q 199.731 196.428 197.745 196.428 Q 195.415 196.428 194.02 197.879 Q 192.626 199.331 192.626 201.776 L 192.626 210.638 Q 192.626 212.586 190.678 212.586 Z" style="fill: rgba(0, 0, 0, 0.506);"/>
    <path d="M 218.851 212.663 Q 216.024 212.663 213.981 211.479 Q 211.937 210.294 210.791 208.117 Q 209.645 205.94 209.645 202.998 Q 209.645 200.744 210.294 198.987 Q 210.944 197.23 212.147 195.95 Q 213.35 194.671 215.05 194.002 Q 216.75 193.334 218.851 193.334 Q 221.64 193.334 223.683 194.518 Q 225.727 195.702 226.873 197.86 Q 228.019 200.019 228.019 202.998 Q 228.019 205.214 227.37 207.009 Q 226.72 208.805 225.517 210.065 Q 224.314 211.326 222.614 211.994 Q 220.914 212.663 218.851 212.663 Z M 218.851 209.683 Q 220.417 209.683 221.602 208.919 Q 222.786 208.155 223.454 206.665 Q 224.123 205.176 224.123 202.998 Q 224.123 199.713 222.671 198.032 Q 221.22 196.351 218.851 196.351 Q 217.247 196.351 216.063 197.096 Q 214.878 197.841 214.21 199.331 Q 213.541 200.821 213.541 202.998 Q 213.541 206.245 214.993 207.964 Q 216.445 209.683 218.851 209.683 Z" style="fill: rgba(0, 0, 0, 0.506);"/>
    <path d="M 238.329 212.663 Q 235.349 212.663 233.84 210.925 Q 232.331 209.187 232.331 205.901 L 232.331 187.069 Q 232.331 186.114 232.828 185.617 Q 233.325 185.121 234.241 185.121 Q 235.158 185.121 235.674 185.617 Q 236.19 186.114 236.19 187.069 L 236.19 205.672 Q 236.19 207.582 236.973 208.518 Q 237.756 209.454 239.246 209.454 Q 239.589 209.454 239.857 209.435 Q 240.124 209.416 240.392 209.378 Q 240.85 209.339 241.041 209.626 Q 241.232 209.912 241.232 210.791 Q 241.232 211.593 240.888 212.033 Q 240.544 212.472 239.78 212.586 Q 239.437 212.625 239.055 212.644 Q 238.673 212.663 238.329 212.663 Z" style="fill: rgba(0, 0, 0, 0.506);"/>
    <path d="M 250.937 212.663 Q 248.492 212.663 246.639 211.498 Q 244.787 210.333 243.755 208.136 Q 242.724 205.94 242.724 202.998 Q 242.724 199.98 243.755 197.841 Q 244.787 195.702 246.639 194.518 Q 248.492 193.334 250.937 193.334 Q 253.382 193.334 255.158 194.537 Q 256.934 195.74 257.545 197.765 L 257.125 197.765 L 257.125 187.069 Q 257.125 186.114 257.622 185.617 Q 258.118 185.121 259.035 185.121 Q 259.952 185.121 260.468 185.617 Q 260.983 186.114 260.983 187.069 L 260.983 210.638 Q 260.983 211.555 260.487 212.071 Q 259.99 212.586 259.073 212.586 Q 258.157 212.586 257.66 212.071 Q 257.163 211.555 257.163 210.638 L 257.163 207.277 L 257.584 208.117 Q 256.972 210.18 255.196 211.421 Q 253.42 212.663 250.937 212.663 Z M 251.93 209.683 Q 253.496 209.683 254.68 208.919 Q 255.865 208.155 256.533 206.665 Q 257.202 205.176 257.202 202.998 Q 257.202 199.713 255.75 198.032 Q 254.298 196.351 251.93 196.351 Q 250.326 196.351 249.141 197.096 Q 247.957 197.841 247.289 199.331 Q 246.62 200.821 246.62 202.998 Q 246.62 206.245 248.072 207.964 Q 249.523 209.683 251.93 209.683 Z" style="fill: rgba(0, 0, 0, 0.506);"/>
    <path d="M 275.158 212.663 Q 272.102 212.663 269.906 211.498 Q 267.709 210.333 266.506 208.174 Q 265.303 206.016 265.303 203.036 Q 265.303 200.133 266.487 197.956 Q 267.671 195.778 269.734 194.556 Q 271.797 193.334 274.432 193.334 Q 276.381 193.334 277.909 193.964 Q 279.437 194.594 280.525 195.798 Q 281.614 197.001 282.168 198.72 Q 282.722 200.439 282.722 202.578 Q 282.722 203.227 282.34 203.552 Q 281.958 203.877 281.194 203.877 L 268.359 203.877 L 268.359 201.508 L 280.124 201.508 L 279.475 202.043 Q 279.475 200.133 278.921 198.796 Q 278.367 197.459 277.278 196.753 Q 276.19 196.046 274.585 196.046 Q 272.79 196.046 271.548 196.886 Q 270.307 197.727 269.657 199.216 Q 269.008 200.706 269.008 202.693 L 269.008 202.922 Q 269.008 206.283 270.593 207.983 Q 272.179 209.683 275.196 209.683 Q 276.342 209.683 277.622 209.378 Q 278.902 209.072 280.048 208.346 Q 280.697 207.964 281.213 208.002 Q 281.729 208.041 282.053 208.346 Q 282.378 208.652 282.454 209.11 Q 282.531 209.569 282.302 210.046 Q 282.072 210.524 281.499 210.906 Q 280.201 211.784 278.482 212.224 Q 276.763 212.663 275.158 212.663 Z" style="fill: rgba(0, 0, 0, 0.506);"/>
    <path d="M 288.859 212.586 Q 287.904 212.586 287.407 212.071 Q 286.911 211.555 286.911 210.638 L 286.911 195.358 Q 286.911 194.403 287.407 193.907 Q 287.904 193.41 288.783 193.41 Q 289.699 193.41 290.177 193.907 Q 290.654 194.403 290.654 195.358 L 290.654 198.147 L 290.272 198.147 Q 290.884 195.855 292.526 194.671 Q 294.169 193.486 296.728 193.295 Q 297.416 193.257 297.817 193.639 Q 298.218 194.021 298.256 194.823 Q 298.333 195.626 297.912 196.103 Q 297.492 196.581 296.614 196.657 L 295.888 196.733 Q 293.405 196.963 292.106 198.3 Q 290.807 199.637 290.807 201.967 L 290.807 210.638 Q 290.807 211.555 290.33 212.071 Q 289.852 212.586 288.859 212.586 Z" style="fill: rgba(0, 0, 0, 0.506);"/>
    <path d="M 174.764 169.636 Q 173.19 169.636 171.686 169.396 Q 170.181 169.157 168.847 168.661 Q 167.513 168.165 166.453 167.447 Q 165.94 167.071 165.752 166.592 Q 165.564 166.113 165.649 165.652 Q 165.735 165.19 166.043 164.848 Q 166.35 164.506 166.795 164.42 Q 167.24 164.335 167.787 164.711 Q 169.326 165.703 171.036 166.165 Q 172.746 166.626 174.764 166.626 Q 177.671 166.626 179.056 165.583 Q 180.441 164.54 180.441 162.864 Q 180.441 161.496 179.449 160.693 Q 178.457 159.889 176.132 159.41 L 172.472 158.658 Q 169.223 157.974 167.633 156.4 Q 166.043 154.827 166.043 152.16 Q 166.043 150.552 166.71 149.218 Q 167.376 147.885 168.573 146.91 Q 169.77 145.935 171.446 145.422 Q 173.122 144.909 175.106 144.909 Q 177.226 144.909 179.09 145.456 Q 180.954 146.004 182.424 147.132 Q 182.869 147.44 183.023 147.902 Q 183.177 148.363 183.091 148.808 Q 183.006 149.253 182.698 149.56 Q 182.39 149.868 181.911 149.92 Q 181.433 149.971 180.851 149.595 Q 179.517 148.705 178.132 148.312 Q 176.747 147.919 175.071 147.919 Q 173.396 147.919 172.147 148.432 Q 170.899 148.945 170.232 149.868 Q 169.565 150.792 169.565 152.057 Q 169.565 153.493 170.489 154.348 Q 171.412 155.203 173.567 155.648 L 177.192 156.4 Q 180.612 157.119 182.288 158.623 Q 183.963 160.128 183.963 162.625 Q 183.963 164.232 183.314 165.515 Q 182.664 166.797 181.467 167.721 Q 180.27 168.644 178.577 169.14 Q 176.884 169.636 174.764 169.636 Z" style="fill: rgba(0, 0, 0, 0.506);"/>
    <path d="M 189.908 169.328 Q 188.985 169.328 188.489 168.832 Q 187.993 168.336 187.993 167.413 L 187.993 147.132 Q 187.993 146.209 188.489 145.713 Q 188.985 145.217 189.908 145.217 L 202.391 145.217 Q 203.109 145.217 203.485 145.576 Q 203.862 145.935 203.862 146.619 Q 203.862 147.337 203.485 147.714 Q 203.109 148.09 202.391 148.09 L 191.413 148.09 L 191.413 155.648 L 201.639 155.648 Q 202.391 155.648 202.75 156.024 Q 203.109 156.4 203.109 157.084 Q 203.109 157.803 202.75 158.162 Q 202.391 158.521 201.639 158.521 L 191.413 158.521 L 191.413 166.455 L 202.391 166.455 Q 203.109 166.455 203.485 166.831 Q 203.862 167.208 203.862 167.892 Q 203.862 168.61 203.485 168.969 Q 203.109 169.328 202.391 169.328 Z" style="fill: rgba(0, 0, 0, 0.506);"/>
    <path d="M 215.482 169.567 Q 214.627 169.567 214.165 169.089 Q 213.704 168.61 213.704 167.755 L 213.704 148.192 L 206.453 148.192 Q 205.735 148.192 205.325 147.799 Q 204.914 147.406 204.914 146.688 Q 204.914 145.969 205.325 145.593 Q 205.735 145.217 206.453 145.217 L 224.477 145.217 Q 225.229 145.217 225.64 145.593 Q 226.05 145.969 226.05 146.688 Q 226.05 147.406 225.64 147.799 Q 225.229 148.192 224.477 148.192 L 217.226 148.192 L 217.226 167.755 Q 217.226 168.61 216.799 169.089 Q 216.371 169.567 215.482 169.567 Z" style="fill: rgba(0, 0, 0, 0.506);"/>
  </g>
</svg>