<?xml version="1.0" encoding="utf-8"?>
<svg viewBox="1117.8918 705.6331 279.473 235.662" xmlns="http://www.w3.org/2000/svg">
  <g transform="matrix(0.9999999999999999, 0, 0, 0.9999999999999999, 1062.7058105468748, 683.4500732421875)">
    <rect y="22.183" width="279.473" height="235.662" style="fill: rgb(188, 188, 188);" x="55.186"/>
    <rect style="fill: rgb(138, 138, 138);" x="60.828" y="29.686" width="267.282" height="220.654" rx="2" ry="2"/>
    <rect style="fill: rgb(78 180 193);" x="68.267" y="36.823" width="253.312" height="206.382" rx="2" ry="2"/>
    <rect style="paint-order: fill; fill: rgb(106 209 219);" x="75.878" y="44.493" width="238.091" height="191.043" rx="2" ry="2"/>
    <path d="M 137.075 116.894 Q 135.315 116.894 134.355 115.914 Q 133.395 114.934 133.395 113.174 L 133.395 94.334 L 127.115 94.334 Q 125.635 94.334 124.855 93.554 Q 124.075 92.774 124.075 91.334 Q 124.075 89.854 124.855 89.094 Q 125.635 88.334 127.115 88.334 L 147.035 88.334 Q 148.515 88.334 149.295 89.094 Q 150.075 89.854 150.075 91.334 Q 150.075 92.774 149.295 93.554 Q 148.515 94.334 147.035 94.334 L 140.755 94.334 L 140.755 113.174 Q 140.755 114.934 139.835 115.914 Q 138.915 116.894 137.075 116.894 Z" transform="matrix(1, 0, 0, 1, 0.000488, -31.872097)"/>
    <path d="M 156.185 116.894 Q 154.425 116.894 153.465 115.914 Q 152.505 114.934 152.505 113.174 L 152.505 92.054 Q 152.505 90.254 153.485 89.294 Q 154.465 88.334 156.225 88.334 L 166.065 88.334 Q 170.865 88.334 173.485 90.674 Q 176.105 93.014 176.105 97.174 Q 176.105 99.854 174.925 101.834 Q 173.745 103.814 171.525 104.874 Q 169.305 105.934 166.065 105.934 L 166.385 105.214 L 168.305 105.214 Q 170.025 105.214 171.345 106.034 Q 172.665 106.854 173.545 108.534 L 175.545 112.134 Q 176.185 113.294 176.145 114.394 Q 176.105 115.494 175.285 116.194 Q 174.465 116.894 172.905 116.894 Q 171.345 116.894 170.365 116.254 Q 169.385 115.614 168.625 114.254 L 164.985 107.574 Q 164.505 106.694 163.765 106.354 Q 163.025 106.014 162.065 106.014 L 159.865 106.014 L 159.865 113.174 Q 159.865 114.934 158.945 115.914 Q 158.025 116.894 156.185 116.894 Z M 159.865 100.814 L 164.745 100.814 Q 166.865 100.814 167.985 99.974 Q 169.105 99.134 169.105 97.374 Q 169.105 95.694 167.985 94.834 Q 166.865 93.974 164.745 93.974 L 159.865 93.974 Z" transform="matrix(1, 0, 0, 1, 0.000488, -31.872097)"/>
    <path d="M 184.42 116.894 Q 182.66 116.894 181.7 115.914 Q 180.74 114.934 180.74 113.134 L 180.74 91.734 Q 180.74 89.894 181.7 88.934 Q 182.66 87.974 184.42 87.974 Q 186.22 87.974 187.16 88.934 Q 188.1 89.894 188.1 91.734 L 188.1 113.134 Q 188.1 114.934 187.18 115.914 Q 186.26 116.894 184.42 116.894 Z" transform="matrix(1, 0, 0, 1, 0.000488, -31.872097)"/>
    <path d="M 196.889 116.894 Q 195.129 116.894 194.169 115.914 Q 193.209 114.934 193.209 113.174 L 193.209 92.054 Q 193.209 90.254 194.189 89.294 Q 195.169 88.334 196.929 88.334 L 206.769 88.334 Q 211.569 88.334 214.189 90.794 Q 216.809 93.254 216.809 97.574 Q 216.809 101.894 214.189 104.354 Q 211.569 106.814 206.769 106.814 L 200.569 106.814 L 200.569 113.174 Q 200.569 114.934 199.649 115.914 Q 198.729 116.894 196.889 116.894 Z M 200.569 101.174 L 205.489 101.174 Q 207.569 101.174 208.689 100.274 Q 209.809 99.374 209.809 97.574 Q 209.809 95.734 208.689 94.854 Q 207.569 93.974 205.489 93.974 L 200.569 93.974 Z" transform="matrix(1, 0, 0, 1, 0.000488, -31.872097)"/>
    <path d="M 223.961 116.534 Q 222.201 116.534 221.221 115.554 Q 220.241 114.574 220.241 112.814 L 220.241 92.014 Q 220.241 90.214 221.201 89.254 Q 222.161 88.294 223.921 88.294 Q 225.721 88.294 226.661 89.254 Q 227.601 90.214 227.601 92.014 L 227.601 110.414 L 237.361 110.414 Q 238.881 110.414 239.701 111.194 Q 240.521 111.974 240.521 113.454 Q 240.521 114.934 239.701 115.734 Q 238.881 116.534 237.361 116.534 Z" transform="matrix(1, 0, 0, 1, 0.000488, -31.872097)"/>
    <path d="M 247.488 116.534 Q 245.608 116.534 244.628 115.554 Q 243.648 114.574 243.648 112.734 L 243.648 92.134 Q 243.648 90.294 244.628 89.314 Q 245.608 88.334 247.488 88.334 L 261.048 88.334 Q 262.488 88.334 263.208 89.054 Q 263.928 89.774 263.928 91.134 Q 263.928 92.534 263.208 93.274 Q 262.488 94.014 261.048 94.014 L 250.688 94.014 L 250.688 99.374 L 260.168 99.374 Q 261.568 99.374 262.308 100.094 Q 263.048 100.814 263.048 102.214 Q 263.048 103.614 262.308 104.334 Q 261.568 105.054 260.168 105.054 L 250.688 105.054 L 250.688 110.854 L 261.048 110.854 Q 262.488 110.854 263.208 111.594 Q 263.928 112.334 263.928 113.694 Q 263.928 115.094 263.208 115.814 Q 262.488 116.534 261.048 116.534 Z" transform="matrix(1, 0, 0, 1, 0.000488, -31.872097)"/>
    <path d="M 140.936 156.894 Q 139.336 156.894 138.476 156.014 Q 137.616 155.134 137.616 153.534 L 137.616 131.334 Q 137.616 129.694 138.536 128.834 Q 139.456 127.974 141.136 127.974 Q 142.536 127.974 143.356 128.514 Q 144.176 129.054 144.856 130.294 L 153.456 145.734 L 152.056 145.734 L 160.616 130.294 Q 161.336 129.054 162.156 128.514 Q 162.976 127.974 164.376 127.974 Q 165.976 127.974 166.836 128.834 Q 167.696 129.694 167.696 131.334 L 167.696 153.534 Q 167.696 155.134 166.856 156.014 Q 166.016 156.894 164.376 156.894 Q 162.776 156.894 161.916 156.014 Q 161.056 155.134 161.056 153.534 L 161.056 139.774 L 161.896 139.774 L 155.456 150.974 Q 154.896 151.854 154.276 152.294 Q 153.656 152.734 152.616 152.734 Q 151.616 152.734 150.976 152.294 Q 150.336 151.854 149.816 150.974 L 143.336 139.734 L 144.256 139.734 L 144.256 153.534 Q 144.256 155.134 143.416 156.014 Q 142.576 156.894 140.936 156.894 Z" transform="matrix(1, 0, 0, 1, 0.000488, -31.872097)"/>
    <path d="M 174.201 156.894 Q 172.961 156.894 172.121 156.314 Q 171.281 155.734 171.081 154.714 Q 170.881 153.694 171.441 152.414 L 181.401 130.974 Q 182.121 129.414 183.181 128.694 Q 184.241 127.974 185.601 127.974 Q 186.961 127.974 187.981 128.694 Q 189.001 129.414 189.761 130.974 L 199.721 152.414 Q 200.361 153.694 200.181 154.734 Q 200.001 155.774 199.181 156.334 Q 198.361 156.894 197.161 156.894 Q 195.561 156.894 194.701 156.174 Q 193.841 155.454 193.161 153.854 L 191.001 148.774 L 193.801 150.814 L 177.321 150.814 L 180.161 148.774 L 178.001 153.854 Q 177.281 155.454 176.521 156.174 Q 175.761 156.894 174.201 156.894 Z M 185.521 136.014 L 180.881 147.094 L 179.761 145.174 L 191.401 145.174 L 190.281 147.094 L 185.601 136.014 Z" transform="matrix(1, 0, 0, 1, 0.000488, -31.872097)"/>
    <path d="M 210.561 156.894 Q 208.801 156.894 207.841 155.914 Q 206.881 154.934 206.881 153.174 L 206.881 134.334 L 200.601 134.334 Q 199.121 134.334 198.341 133.554 Q 197.561 132.774 197.561 131.334 Q 197.561 129.854 198.341 129.094 Q 199.121 128.334 200.601 128.334 L 220.521 128.334 Q 222.001 128.334 222.781 129.094 Q 223.561 129.854 223.561 131.334 Q 223.561 132.774 222.781 133.554 Q 222.001 134.334 220.521 134.334 L 214.241 134.334 L 214.241 153.174 Q 214.241 154.934 213.321 155.914 Q 212.401 156.894 210.561 156.894 Z" transform="matrix(1, 0, 0, 1, 0.000488, -31.872097)"/>
    <path d="M 229.672 156.894 Q 227.912 156.894 226.952 155.914 Q 225.992 154.934 225.992 153.134 L 225.992 131.734 Q 225.992 129.894 226.952 128.934 Q 227.912 127.974 229.672 127.974 Q 231.472 127.974 232.412 128.934 Q 233.352 129.894 233.352 131.734 L 233.352 139.214 L 244.992 139.214 L 244.992 131.734 Q 244.992 129.894 245.932 128.934 Q 246.872 127.974 248.672 127.974 Q 250.432 127.974 251.372 128.934 Q 252.312 129.894 252.312 131.734 L 252.312 153.134 Q 252.312 154.934 251.372 155.914 Q 250.432 156.894 248.672 156.894 Q 246.872 156.894 245.932 155.914 Q 244.992 154.934 244.992 153.134 L 244.992 145.254 L 233.352 145.254 L 233.352 153.134 Q 233.352 154.934 232.432 155.914 Q 231.512 156.894 229.672 156.894 Z" transform="matrix(1, 0, 0, 1, 0.000488, -31.872097)"/>
    <path d="M 189.383 212.319 Q 188.581 212.319 188.122 211.861 Q 187.664 211.402 187.664 210.638 Q 187.664 209.836 188.122 209.416 Q 188.581 208.996 189.383 208.996 L 194.043 208.996 L 194.043 188.673 L 196.03 188.673 L 190.452 192.226 Q 189.841 192.57 189.325 192.493 Q 188.81 192.417 188.447 192.073 Q 188.084 191.729 187.95 191.233 Q 187.817 190.736 188.027 190.201 Q 188.237 189.666 188.81 189.323 L 194.081 185.999 Q 194.731 185.617 195.323 185.369 Q 195.915 185.121 196.45 185.121 Q 197.099 185.121 197.538 185.484 Q 197.978 185.846 197.978 186.687 L 197.978 208.996 L 202.256 208.996 Q 203.097 208.996 203.555 209.416 Q 204.013 209.836 204.013 210.638 Q 204.013 211.44 203.555 211.88 Q 203.097 212.319 202.256 212.319 Z" style="fill: rgba(0, 0, 0, 0.506);"/>
    <path d="M 148.168 169.567 Q 147.381 169.567 146.936 169.123 Q 146.492 168.678 146.492 167.857 L 146.492 146.756 Q 146.492 145.901 146.919 145.439 Q 147.347 144.978 148.065 144.978 Q 148.681 144.978 149.005 145.2 Q 149.33 145.422 149.775 146.004 L 163.865 164.574 L 163.01 164.574 L 163.01 146.653 Q 163.01 145.867 163.438 145.422 Q 163.865 144.978 164.652 144.978 Q 165.473 144.978 165.883 145.422 Q 166.294 145.867 166.294 146.653 L 166.294 167.892 Q 166.294 168.678 165.9 169.123 Q 165.507 169.567 164.857 169.567 Q 164.242 169.567 163.848 169.328 Q 163.455 169.089 163.01 168.507 L 148.988 149.971 L 149.775 149.971 L 149.775 167.857 Q 149.775 168.678 149.365 169.123 Q 148.954 169.567 148.168 169.567 Z" style="fill: rgba(0, 0, 0, 0.506);"/>
    <path d="M 182.348 169.636 Q 178.928 169.636 176.38 168.114 Q 173.832 166.592 172.447 163.805 Q 171.062 161.017 171.062 157.255 Q 171.062 154.417 171.849 152.143 Q 172.635 149.868 174.106 148.244 Q 175.577 146.619 177.663 145.764 Q 179.749 144.909 182.348 144.909 Q 185.802 144.909 188.333 146.414 Q 190.864 147.919 192.249 150.689 Q 193.634 153.459 193.634 157.221 Q 193.634 160.06 192.848 162.351 Q 192.061 164.643 190.573 166.284 Q 189.086 167.926 186.999 168.781 Q 184.913 169.636 182.348 169.636 Z M 182.348 166.558 Q 184.742 166.558 186.435 165.463 Q 188.128 164.369 189.034 162.283 Q 189.941 160.197 189.941 157.255 Q 189.941 152.844 187.957 150.415 Q 185.973 147.987 182.348 147.987 Q 179.954 147.987 178.261 149.065 Q 176.568 150.142 175.662 152.228 Q 174.756 154.314 174.756 157.255 Q 174.756 161.633 176.757 164.095 Q 178.757 166.558 182.348 166.558 Z" style="fill: rgba(0, 0, 0, 0.506);"/>
    <path d="M 200.162 169.567 Q 199.307 169.567 198.845 169.089 Q 198.384 168.61 198.384 167.755 L 198.384 146.79 Q 198.384 145.901 198.845 145.439 Q 199.307 144.978 200.162 144.978 Q 201.017 144.978 201.479 145.439 Q 201.94 145.901 201.94 146.79 L 201.94 167.755 Q 201.94 168.61 201.496 169.089 Q 201.051 169.567 200.162 169.567 Z" style="fill: rgba(0, 0, 0, 0.506);"/>
    <path d="M 215.593 169.636 Q 214.02 169.636 212.515 169.396 Q 211.01 169.157 209.676 168.661 Q 208.342 168.165 207.282 167.447 Q 206.769 167.071 206.581 166.592 Q 206.393 166.113 206.478 165.652 Q 206.564 165.19 206.872 164.848 Q 207.18 164.506 207.624 164.42 Q 208.069 164.335 208.616 164.711 Q 210.155 165.703 211.865 166.165 Q 213.575 166.626 215.593 166.626 Q 218.5 166.626 219.885 165.583 Q 221.27 164.54 221.27 162.864 Q 221.27 161.496 220.278 160.693 Q 219.286 159.889 216.961 159.41 L 213.301 158.658 Q 210.052 157.974 208.462 156.4 Q 206.872 154.827 206.872 152.16 Q 206.872 150.552 207.539 149.218 Q 208.206 147.885 209.403 146.91 Q 210.6 145.935 212.275 145.422 Q 213.951 144.909 215.935 144.909 Q 218.055 144.909 219.919 145.456 Q 221.783 146.004 223.254 147.132 Q 223.698 147.44 223.852 147.902 Q 224.006 148.363 223.92 148.808 Q 223.835 149.253 223.527 149.56 Q 223.219 149.868 222.741 149.92 Q 222.262 149.971 221.68 149.595 Q 220.347 148.705 218.961 148.312 Q 217.576 147.919 215.901 147.919 Q 214.225 147.919 212.976 148.432 Q 211.728 148.945 211.061 149.868 Q 210.394 150.792 210.394 152.057 Q 210.394 153.493 211.318 154.348 Q 212.241 155.203 214.396 155.648 L 218.021 156.4 Q 221.441 157.119 223.117 158.623 Q 224.793 160.128 224.793 162.625 Q 224.793 164.232 224.143 165.515 Q 223.493 166.797 222.296 167.721 Q 221.099 168.644 219.406 169.14 Q 217.713 169.636 215.593 169.636 Z" style="fill: rgba(0, 0, 0, 0.506);"/>
    <path d="M 230.737 169.328 Q 229.814 169.328 229.318 168.832 Q 228.822 168.336 228.822 167.413 L 228.822 147.132 Q 228.822 146.209 229.318 145.713 Q 229.814 145.217 230.737 145.217 L 243.22 145.217 Q 243.938 145.217 244.315 145.576 Q 244.691 145.935 244.691 146.619 Q 244.691 147.337 244.315 147.714 Q 243.938 148.09 243.22 148.09 L 232.242 148.09 L 232.242 155.648 L 242.468 155.648 Q 243.22 155.648 243.579 156.024 Q 243.938 156.4 243.938 157.084 Q 243.938 157.803 243.579 158.162 Q 243.22 158.521 242.468 158.521 L 232.242 158.521 L 232.242 166.455 L 243.22 166.455 Q 243.938 166.455 244.315 166.831 Q 244.691 167.208 244.691 167.892 Q 244.691 168.61 244.315 168.969 Q 243.938 169.328 243.22 169.328 Z" style="fill: rgba(0, 0, 0, 0.506);"/>
  </g>
</svg>