<?xml version="1.0" encoding="utf-8"?>
<svg viewBox="1397.3651 705.633 279.473 235.662" xmlns="http://www.w3.org/2000/svg">
  <g transform="matrix(0.9999999999999999, 0, 0, 0.9999999999999999, 1342.1790771484373, 683.449951171875)">
    <rect y="22.183" width="279.473" height="235.662" style="fill: rgb(188, 188, 188);" x="55.186"/>
    <rect style="fill: rgb(138, 138, 138);" x="60.828" y="29.686" width="267.282" height="220.654" rx="2" ry="2"/>
    <rect style="fill: rgb(197, 23, 12);" x="68.267" y="36.823" width="253.312" height="206.382" rx="2" ry="2"/>
    <rect style="paint-order: fill; fill: rgb(222, 34, 19);" x="75.878" y="44.493" width="238.091" height="191.043" rx="2" ry="2"/>
    <path d="M 113.738 168.458 Q 110.784 168.458 108.843 166.854 Q 106.902 165.25 106.606 162.803 Q 106.311 160.355 108.252 157.823 L 126.145 134.191 L 126.145 141.196 L 108.758 118.155 Q 106.817 115.539 107.113 113.091 Q 107.408 110.644 109.349 109.04 Q 111.29 107.436 114.244 107.436 Q 116.692 107.436 118.549 108.618 Q 120.406 109.8 122.262 112.416 L 134.838 129.887 L 129.774 129.887 L 142.434 112.416 Q 144.291 109.715 146.148 108.576 Q 148.004 107.436 150.452 107.436 Q 153.49 107.436 155.432 108.998 Q 157.373 110.559 157.668 113.007 Q 157.964 115.454 155.938 118.155 L 138.467 141.196 L 138.467 134.191 L 156.36 157.823 Q 158.386 160.355 158.09 162.803 Q 157.795 165.25 155.854 166.854 Q 153.912 168.458 150.874 168.458 Q 148.511 168.458 146.654 167.318 Q 144.797 166.179 142.856 163.478 L 129.858 145.501 L 134.754 145.501 L 121.84 163.478 Q 119.899 166.179 118.042 167.318 Q 116.186 168.458 113.738 168.458 Z"/>
    <path d="M 193.403 168.626 Q 184.372 168.626 177.535 164.786 Q 170.699 160.946 166.943 154.025 Q 163.187 147.104 163.187 137.905 Q 163.187 130.984 165.34 125.329 Q 167.492 119.674 171.501 115.623 Q 175.51 111.572 181.08 109.42 Q 186.651 107.268 193.403 107.268 Q 202.433 107.268 209.228 111.066 Q 216.022 114.864 219.82 121.742 Q 223.618 128.621 223.618 137.905 Q 223.618 144.826 221.466 150.48 Q 219.313 156.135 215.304 160.229 Q 211.295 164.322 205.725 166.474 Q 200.155 168.626 193.403 168.626 Z M 193.403 155.629 Q 197.876 155.629 200.999 153.519 Q 204.121 151.409 205.809 147.442 Q 207.497 143.475 207.497 137.905 Q 207.497 129.549 203.784 124.907 Q 200.07 120.265 193.403 120.265 Q 189.014 120.265 185.849 122.333 Q 182.684 124.401 180.996 128.325 Q 179.308 132.25 179.308 137.905 Q 179.308 146.26 183.021 150.945 Q 186.735 155.629 193.403 155.629 Z"/>
    <path d="M 240.567 168.458 Q 236.853 168.458 234.828 166.39 Q 232.802 164.322 232.802 160.608 L 232.802 116.045 Q 232.802 112.247 234.87 110.222 Q 236.938 108.196 240.651 108.196 L 261.414 108.196 Q 271.542 108.196 277.07 113.133 Q 282.598 118.071 282.598 126.848 Q 282.598 132.503 280.108 136.681 Q 277.618 140.859 272.934 143.095 Q 268.25 145.332 261.414 145.332 L 262.089 143.813 L 266.14 143.813 Q 269.769 143.813 272.554 145.543 Q 275.34 147.273 277.196 150.818 L 281.416 158.414 Q 282.767 160.862 282.682 163.183 Q 282.598 165.504 280.868 166.981 Q 279.138 168.458 275.846 168.458 Q 272.554 168.458 270.487 167.107 Q 268.419 165.757 266.815 162.887 L 259.135 148.792 Q 258.122 146.936 256.561 146.218 Q 254.999 145.501 252.974 145.501 L 248.332 145.501 L 248.332 160.608 Q 248.332 164.322 246.39 166.39 Q 244.449 168.458 240.567 168.458 Z M 248.332 134.529 L 258.628 134.529 Q 263.102 134.529 265.465 132.756 Q 267.828 130.984 267.828 127.27 Q 267.828 123.726 265.465 121.911 Q 263.102 120.096 258.628 120.096 L 248.332 120.096 Z"/>
  </g>
</svg>